<?xml version="1.0" standalone="no"?>
<!DOCTYPE svg PUBLIC "-//W3C//DTD SVG 20010904//EN"
 "http://www.w3.org/TR/2001/REC-SVG-20010904/DTD/svg10.dtd">
<svg version="1.0" xmlns="http://www.w3.org/2000/svg"
 width="200.000000pt" height="200.000000pt" viewBox="0 0 200.000000 200.000000"
 preserveAspectRatio="xMidYMid meet">
<metadata>
Created by potrace 1.14, written by Peter Selinger 2001-2017
</metadata>
<g transform="translate(0.000000,200.000000) scale(0.100000,-0.100000)"
fill="#000000" stroke="none">
<path d="M44 1949 c-2 -3 -3 -433 -3 -956 l0 -950 957 0 957 0 0 954 c0 524
-2 954 -5 954 -19 5 -1903 3 -1906 -2z m680 -79 c9 -9 -79 -107 -124 -138 -25
-17 -72 -41 -105 -53 -95 -35 -119 -59 -169 -162 -45 -94 -99 -161 -159 -197
-18 -11 -35 -20 -39 -20 -8 0 -11 563 -4 571 6 6 593 5 600 -1z m498 -30 c30
-61 88 -134 137 -171 52 -41 122 -79 145 -79 28 0 82 -58 95 -102 20 -66 55
-128 101 -181 43 -48 146 -125 165 -123 6 1 11 -71 11 -195 l2 -195 -57 -30
c-31 -16 -83 -56 -116 -90 -57 -58 -71 -81 -125 -197 -17 -36 -32 -52 -59 -64
-179 -77 -248 -130 -313 -238 -25 -43 -38 -55 -58 -56 -38 -1 -269 -1 -318 0
-36 1 -44 5 -52 27 -32 84 -135 189 -229 234 -129 63 -112 45 -181 193 -38 82
-122 175 -196 217 l-54 31 0 192 0 192 52 25 c98 47 208 178 243 290 7 21 50
68 65 71 59 9 160 63 216 116 48 46 104 120 116 154 6 14 30 16 200 15 l193
-1 17 -35z m654 -267 c1 -167 -2 -303 -6 -303 -4 0 -28 16 -55 36 -56 43 -118
136 -142 211 -21 68 -70 117 -147 148 -32 13 -76 36 -99 52 -41 28 -127 129
-127 148 0 8 93 11 288 10 l287 0 1 -302z m-1670 -906 c53 -48 89 -106 124
-199 24 -64 78 -117 141 -137 37 -12 121 -64 149 -91 23 -23 80 -103 80 -112
0 -4 -130 -8 -290 -8 l-290 0 0 305 c0 348 -8 326 86 242z m1671 -257 c0 -258
-2 -290 -16 -291 -74 -4 -583 0 -588 4 -8 8 53 87 92 119 41 34 115 74 153 82
44 10 104 58 123 97 50 108 73 150 107 187 34 38 106 92 122 92 4 0 7 -130 7
-290z"/>
<path d="M869 1520 c-152 -40 -284 -145 -351 -281 -178 -361 81 -780 482 -779
351 1 601 323 520 671 -30 131 -140 275 -258 337 -122 65 -270 84 -393 52z
m261 -79 c183 -56 319 -229 326 -418 7 -187 -82 -345 -242 -430 -77 -41 -132
-55 -215 -55 -314 0 -538 313 -436 609 37 108 127 212 226 260 31 15 58 28 61
27 3 0 23 5 45 12 45 14 181 11 235 -5z"/>
<path d="M905 1277 c-87 -35 -142 -85 -176 -162 -61 -138 5 -317 140 -381 45
-21 71 -26 141 -27 202 -1 344 230 256 416 -49 101 -148 164 -262 165 -38 0
-82 -5 -99 -11z m181 -82 c111 -46 160 -181 105 -289 -69 -136 -240 -166 -346
-61 -116 117 -52 340 105 363 13 2 26 5 29 7 6 7 73 -6 107 -20z"/>
</g>
</svg>
