<svg xmlns="http://www.w3.org/2000/svg" viewBox="0 0 1663.79 1501.07"><defs><style>.a{fill:#262560;}.b{opacity:0.5;}.c{fill:#9ac4e8;}.d{fill:#fcb022;}</style></defs><path class="a" d="M1218.78.88V139.22h139.61V.88Zm5.82,132.57V69.71a48.8,48.8,0,0,1,19.56-39l9.52-7.14,9.53,7.14a49.43,49.43,0,0,1,14.4,17.23,48.75,48.75,0,0,1,5.16,21.77v63.74Zm128-56.55v56.55H1294.4V69.71a48.77,48.77,0,0,1,19.57-39l9.52-7.14,9.52,7.14a48.77,48.77,0,0,1,19.57,39Zm-16-50.78-13-9.79-13,9.79a54.5,54.5,0,0,0-21.87,43.59,54.53,54.53,0,0,0-21.87-43.59l-13-9.79-13,9.79a54.73,54.73,0,0,0-16.05,19.16V6.65h128V45.28A54.94,54.94,0,0,0,1336.53,26.12Z"/><g class="b"><path class="c" d="M1441.29,31.05a39,39,0,1,0,39.36,39A39.18,39.18,0,0,0,1441.29,31.05Zm0,72.24a33.24,33.24,0,1,1,33.54-33.24A33.42,33.42,0,0,1,1441.29,103.29Z"/><path class="c" d="M1441.29,48.71a21.34,21.34,0,1,0,21.53,21.34A21.44,21.44,0,0,0,1441.29,48.71Zm0,36.92A15.58,15.58,0,1,1,1457,70.05,15.67,15.67,0,0,1,1441.29,85.63Z"/><path class="c" d="M1454.6.88h-83.12V139.22h139.61V.88Zm50.68,5.77V50.78a30.38,30.38,0,0,1-15-18.57,14.49,14.49,0,0,0-9.52-9.85,30.57,30.57,0,0,1-18.09-15.71Zm-128,0h44.54a30.62,30.62,0,0,1-18.74,14.86,14.47,14.47,0,0,0-9.94,9.43,30.5,30.5,0,0,1-15.86,17.93Zm0,126.8V89.32a30.4,30.4,0,0,1,15,18.57,14.51,14.51,0,0,0,9.52,9.85,30.6,30.6,0,0,1,18.1,15.71Zm128,0h-44.55a30.65,30.65,0,0,1,18.74-14.86,14.45,14.45,0,0,0,9.94-9.43,30.55,30.55,0,0,1,15.87-17.93Zm0-48.5a36.33,36.33,0,0,0-21.39,22.42,8.7,8.7,0,0,1-6,5.67,36.44,36.44,0,0,0-23.63,20.41h-28a36.42,36.42,0,0,0-22.63-21.19,8.69,8.69,0,0,1-5.72-5.92,36.31,36.31,0,0,0-20.6-23.42V55.15a36.35,36.35,0,0,0,21.39-22.42,8.69,8.69,0,0,1,6-5.67A36.48,36.48,0,0,0,1428.3,6.65h28A36.38,36.38,0,0,0,1479,27.84a8.7,8.7,0,0,1,5.73,5.92,36.31,36.31,0,0,0,20.6,23.42Z"/></g><g class="b"><path class="c" d="M1205.86.88H1066.69v.44h0v137.9H1206.3V.88Zm-5.38,120-24.36-48h24.36Zm-61.08,12.54V109.27l49.45,24.18ZM1072.51,19.19l24.36,48h-24.36Zm61.08-12.54V30.83L1084.14,6.65Zm5.81,30.59,51.78-25.82L1139.4,63.06Zm-5.81,25.89-52.21-51.41,52.21,25.54Zm-4.15,4h-26.06l-26.05-51.31Zm.07,5.76-51.88,51.73,25.77-51.73Zm4.08,4.11v25.82l-51.78,25.82Zm5.81-.07,52.21,51.41-52.21-25.54Zm4.15-4h26.06l26.05,51.31Zm-.07-5.76,51.88-51.73-25.77,51.73Zm-4.08-36.38V6.65h48.43Zm-66.89,42.14h24.41l-24.41,49Zm61.08,36.38v24.14h-48.42Zm66.89-42.14h-24.4l24.4-49Z"/></g><g class="b"><path class="c" d="M1663.35.88H1524.18v.44h0v137.9h139.61V.88Zm-5.37,120-24.37-48H1658Zm-61.08,12.54V109.27l49.44,24.18ZM1530,19.19l24.36,48H1530Zm61.08-12.54V30.83L1541.63,6.65Zm5.82,30.59,51.78-25.82L1596.9,63.06Zm-5.82,25.89-52.21-51.41,52.21,25.54Zm-4.15,4h-26l-26.06-51.31Zm.07,5.76-51.88,51.73,25.77-51.73Zm4.08,4.11v25.82l-51.78,25.82Zm5.82-.07,52.21,51.41-52.21-25.54Zm4.15-4h26l26.06,51.31Zm-.07-5.76,51.87-51.73-25.77,51.73Zm-4.08-36.38V6.65h48.42ZM1530,72.93h24.41l-24.41,49Zm61.08,36.38v24.14h-48.42ZM1658,67.17h-24.41l24.41-49Z"/></g><path class="a" d="M1136.5,182.35a39,39,0,1,0,39.35,39A39.18,39.18,0,0,0,1136.5,182.35Zm0,72.24A33.24,33.24,0,1,1,1170,221.35,33.43,33.43,0,0,1,1136.5,254.59Z"/><path class="a" d="M1136.5,200A21.34,21.34,0,1,0,1158,221.35,21.44,21.44,0,0,0,1136.5,200Zm0,36.92a15.58,15.58,0,1,1,15.71-15.58A15.67,15.67,0,0,1,1136.5,236.93Z"/><path class="a" d="M1149.81,152.18h-83.12V290.52H1206.3V152.18Zm50.68,5.77v44.14a30.4,30.4,0,0,1-15-18.58,14.45,14.45,0,0,0-9.52-9.84,30.67,30.67,0,0,1-18.1-15.72Zm-128,0h44.54a30.62,30.62,0,0,1-18.74,14.86,14.47,14.47,0,0,0-9.94,9.43,30.5,30.5,0,0,1-15.86,17.93Zm0,126.81V240.62a30.4,30.4,0,0,1,15,18.57A14.49,14.49,0,0,0,1097,269a30.67,30.67,0,0,1,18.1,15.72Zm128,0h-44.55a30.58,30.58,0,0,1,18.74-14.86,14.49,14.49,0,0,0,9.94-9.43,30.51,30.51,0,0,1,15.87-17.93Zm0-48.5a36.33,36.33,0,0,0-21.4,22.41,8.65,8.65,0,0,1-6,5.67,36.47,36.47,0,0,0-23.64,20.42h-28a36.44,36.44,0,0,0-22.63-21.2,8.69,8.69,0,0,1-5.72-5.92,36.36,36.36,0,0,0-20.6-23.42V206.45A36.38,36.38,0,0,0,1093.9,184a8.69,8.69,0,0,1,6-5.67A36.43,36.43,0,0,0,1123.51,158h28a36.38,36.38,0,0,0,22.62,21.19,8.69,8.69,0,0,1,5.72,5.92,36.31,36.31,0,0,0,20.61,23.42Z"/><g class="b"><path class="c" d="M1371.48,152.18V290.52h139.61V152.18Zm5.82,132.58V221a48.76,48.76,0,0,1,19.56-39l9.52-7.15,9.53,7.15a49.31,49.31,0,0,1,14.4,17.22,48.76,48.76,0,0,1,5.16,21.78v63.74Zm128-56.56v56.56H1447.1V221a48.81,48.81,0,0,1,19.57-39l9.52-7.15,9.52,7.15a48.73,48.73,0,0,1,19.57,39Zm-16-50.78-13-9.78-13,9.78a54.51,54.51,0,0,0-21.87,43.6,54.54,54.54,0,0,0-21.87-43.6l-13-9.78-13,9.78a54.73,54.73,0,0,0-16,19.16V158h128v38.63A54.94,54.94,0,0,0,1489.23,177.42Z"/></g><g class="b"><path class="c" d="M1358,152.18H1218.78v.45h0V290.52h139.61V152.18Zm-5.37,120-24.37-48h24.37Zm-61.08,12.55V260.57l49.44,24.19Zm-66.9-114.27,24.36,48H1224.6ZM1285.68,158v24.19L1236.23,158Zm5.82,30.59,51.78-25.81-51.78,51.63Zm-5.82,25.89L1233.47,163l52.21,25.53Zm-4.15,4h-26l-26.06-51.31Zm.07,5.76L1229.72,276l25.77-51.74Zm4.08,4.11v25.82L1233.9,280Zm5.82-.06,52.21,51.4-52.21-25.54Zm4.14-4.05h26.06l26,51.31Zm-.06-5.76,51.87-51.73-25.77,51.73Zm-4.08-36.38V158h48.42Zm-66.9,42.14H1249l-24.41,49Zm61.08,36.38v24.15h-48.42Zm66.9-42.14h-24.41l24.41-49Z"/></g><path class="d" d="M1510.65,303.49H1371.48v.44h0V441.82h139.61V303.49Zm-5.37,120-24.37-48h24.37Zm-61.08,12.55V411.87l49.44,24.19ZM1377.3,321.8l24.36,48H1377.3Zm61.08-12.55v24.19l-49.45-24.19Zm5.82,30.6L1496,314l-51.78,51.63Zm-5.82,25.88-52.21-51.4,52.21,25.54Zm-4.15,4h-26l-26.06-51.3Zm.07,5.77-51.88,51.73,25.77-51.73Zm4.08,4.11v25.81l-51.78,25.82Zm5.82-.07,52.21,51.4-52.21-25.54Zm4.14-4h26.06l26,51.3Zm-.06-5.77L1500.15,318l-25.77,51.73Zm-4.08-36.38V309.25h48.42Zm-66.9,42.15h24.41l-24.41,49Zm61.08,36.38v24.14H1390Zm66.9-42.15h-24.41l24.41-49Z"/><g class="b"><path class="c" d="M1066.69,303.49V441.82H1206.3V303.49Zm5.82,132.57V372.32a48.76,48.76,0,0,1,19.56-39l9.52-7.15,9.52,7.15a48.73,48.73,0,0,1,19.57,39v63.74Zm128-56.56v56.56h-58.18V372.32a48.73,48.73,0,0,1,19.57-39l9.52-7.15,9.52,7.15a48.81,48.81,0,0,1,19.57,39Zm-16.06-50.78-13-9.78-13,9.78a54.54,54.54,0,0,0-21.86,43.6,54.55,54.55,0,0,0-21.87-43.6l-13-9.78-13,9.78a54.81,54.81,0,0,0-16,19.16V309.25h128v38.63A55,55,0,0,0,1184.43,328.72Z"/></g><g class="b"><path class="c" d="M1288.59,333.66a39,39,0,1,0,39.36,39A39.18,39.18,0,0,0,1288.59,333.66Zm0,72.23a33.24,33.24,0,1,1,33.54-33.23A33.42,33.42,0,0,1,1288.59,405.89Z"/><path class="c" d="M1288.59,351.32a21.34,21.34,0,1,0,21.53,21.34A21.44,21.44,0,0,0,1288.59,351.32Zm0,36.91a15.58,15.58,0,1,1,15.72-15.57A15.67,15.67,0,0,1,1288.59,388.23Z"/><path class="c" d="M1301.9,303.49h-83.12V441.82h139.61V303.49Zm50.68,5.76v44.14a30.38,30.38,0,0,1-15-18.57,14.49,14.49,0,0,0-9.52-9.85A30.62,30.62,0,0,1,1310,309.25Zm-128,0h44.54a30.56,30.56,0,0,1-18.74,14.86,14.51,14.51,0,0,0-9.94,9.43,30.5,30.5,0,0,1-15.86,17.93Zm0,126.81V391.92a30.42,30.42,0,0,1,15,18.57,14.49,14.49,0,0,0,9.52,9.85,30.64,30.64,0,0,1,18.1,15.72Zm128,0H1308a30.58,30.58,0,0,1,18.74-14.86,14.47,14.47,0,0,0,9.94-9.43,30.55,30.55,0,0,1,15.87-17.93Zm0-48.5a36.37,36.37,0,0,0-21.4,22.42,8.69,8.69,0,0,1-6,5.67,36.39,36.39,0,0,0-23.63,20.41h-28a36.41,36.41,0,0,0-22.63-21.2,8.67,8.67,0,0,1-5.72-5.91,36.26,36.26,0,0,0-20.6-23.42V357.75A36.35,36.35,0,0,0,1246,335.33a8.71,8.71,0,0,1,6-5.67,36.43,36.43,0,0,0,23.64-20.41h28a36.4,36.4,0,0,0,22.62,21.2,8.68,8.68,0,0,1,5.73,5.92,36.31,36.31,0,0,0,20.6,23.42Z"/></g><path class="a" d="M1218.78,454.79V593.13h139.61V454.79Zm5.82,132.57V523.62a48.76,48.76,0,0,1,19.56-39l9.52-7.15,9.53,7.15a49.4,49.4,0,0,1,14.4,17.22,48.83,48.83,0,0,1,5.16,21.78v63.74Zm128-56.55v56.55H1294.4V523.62a48.73,48.73,0,0,1,19.57-39l9.52-7.15,9.52,7.15a48.73,48.73,0,0,1,19.57,39Zm-16-50.78-13-9.79-13,9.79a54.49,54.49,0,0,0-21.87,43.59A54.52,54.52,0,0,0,1266.72,480l-13-9.79-13,9.79a54.64,54.64,0,0,0-16.05,19.16V460.55h128v38.64A54.85,54.85,0,0,0,1336.53,480Z"/><g class="b"><path class="c" d="M1441.29,485a39,39,0,1,0,39.36,39A39.18,39.18,0,0,0,1441.29,485Zm0,72.23A33.24,33.24,0,1,1,1474.83,524,33.42,33.42,0,0,1,1441.29,557.19Z"/><path class="c" d="M1441.29,502.62A21.34,21.34,0,1,0,1462.82,524,21.44,21.44,0,0,0,1441.29,502.62Zm0,36.91A15.58,15.58,0,1,1,1457,524,15.66,15.66,0,0,1,1441.29,539.53Z"/><path class="c" d="M1454.6,454.79h-83.12V593.13h139.61V454.79Zm50.68,5.76v44.14a30.38,30.38,0,0,1-15-18.57,14.49,14.49,0,0,0-9.52-9.85,30.59,30.59,0,0,1-18.09-15.72Zm-128,0h44.54a30.56,30.56,0,0,1-18.74,14.86,14.51,14.51,0,0,0-9.94,9.44,30.51,30.51,0,0,1-15.86,17.92Zm0,126.81V543.22a30.44,30.44,0,0,1,15,18.58,14.51,14.51,0,0,0,9.52,9.85,30.56,30.56,0,0,1,18.1,15.71Zm128,0h-44.55a30.65,30.65,0,0,1,18.74-14.86,14.47,14.47,0,0,0,9.94-9.43,30.55,30.55,0,0,1,15.87-17.93Zm0-48.5a36.33,36.33,0,0,0-21.39,22.42,8.7,8.7,0,0,1-6,5.67,36.41,36.41,0,0,0-23.63,20.41h-28a36.4,36.4,0,0,0-22.63-21.19,8.69,8.69,0,0,1-5.72-5.92,36.29,36.29,0,0,0-20.6-23.42V509.06a36.35,36.35,0,0,0,21.39-22.42,8.69,8.69,0,0,1,6-5.67,36.47,36.47,0,0,0,23.64-20.42h28a36.4,36.4,0,0,0,22.62,21.2,8.7,8.7,0,0,1,5.73,5.92,36.31,36.31,0,0,0,20.6,23.42Z"/></g><g class="b"><path class="c" d="M1205.86,454.79H1066.69v.44h0v137.9H1206.3V454.79Zm-5.38,120-24.36-48h24.36Zm-61.08,12.54V563.18l49.45,24.18ZM1072.51,473.1l24.36,48h-24.36Zm61.08-12.55v24.19l-49.45-24.19Zm5.81,30.6,51.78-25.82L1139.4,517ZM1133.59,517l-52.21-51.4,52.21,25.54Zm-4.15,4.05h-26.06l-26.05-51.31Zm.07,5.76-51.88,51.73,25.77-51.73Zm4.08,4.11v25.82l-51.78,25.81Zm5.81-.07,52.21,51.41-52.21-25.54Zm4.15-4h26.06l26.05,51.31Zm-.07-5.76,51.88-51.74-25.77,51.74Zm-4.08-36.38V460.55h48.43Zm-66.89,42.14h24.41l-24.41,49Zm61.08,36.38v24.14h-48.42Zm66.89-42.14h-24.4l24.4-49Z"/></g><g class="b"><path class="c" d="M1663.35,454.79H1524.18v.44h0v137.9h139.61V454.79Zm-5.37,120-24.37-48H1658Zm-61.08,12.54V563.18l49.44,24.18ZM1530,473.1l24.36,48H1530Zm61.08-12.55v24.19l-49.45-24.19Zm5.82,30.6,51.78-25.82L1596.9,517ZM1591.08,517l-52.21-51.4,52.21,25.54Zm-4.15,4.05h-26l-26.06-51.31Zm.07,5.76-51.88,51.73,25.77-51.73Zm4.08,4.11v25.82l-51.78,25.81Zm5.82-.07,52.21,51.41-52.21-25.54Zm4.15-4h26l26.06,51.31Zm-.07-5.76,51.87-51.74-25.77,51.74Zm-4.08-36.38V460.55h48.42ZM1530,526.84h24.41l-24.41,49Zm61.08,36.38v24.14h-48.42Zm66.9-42.14h-24.41l24.41-49Z"/></g><path class="d" d="M1136.5,636.26a39,39,0,1,0,39.35,39A39.18,39.18,0,0,0,1136.5,636.26Zm0,72.24A33.24,33.24,0,1,1,1170,675.26,33.43,33.43,0,0,1,1136.5,708.5Z"/><path class="d" d="M1136.5,653.92A21.34,21.34,0,1,0,1158,675.26,21.44,21.44,0,0,0,1136.5,653.92Zm0,36.92a15.58,15.58,0,1,1,15.71-15.58A15.67,15.67,0,0,1,1136.5,690.84Z"/><path class="d" d="M1149.81,606.09h-83.12V744.43H1206.3V606.09Zm50.68,5.77V656a30.38,30.38,0,0,1-15-18.57,14.49,14.49,0,0,0-9.52-9.85,30.62,30.62,0,0,1-18.1-15.71Zm-128,0h44.54a30.65,30.65,0,0,1-18.74,14.86,14.47,14.47,0,0,0-9.94,9.43,30.5,30.5,0,0,1-15.86,17.93Zm0,126.81V694.53a30.4,30.4,0,0,1,15,18.57A14.49,14.49,0,0,0,1097,723a30.64,30.64,0,0,1,18.1,15.72Zm128,0h-44.55a30.58,30.58,0,0,1,18.74-14.86,14.49,14.49,0,0,0,9.94-9.44,30.52,30.52,0,0,1,15.87-17.92Zm0-48.51a36.37,36.37,0,0,0-21.4,22.42,8.67,8.67,0,0,1-6,5.67,36.47,36.47,0,0,0-23.64,20.42h-28a36.44,36.44,0,0,0-22.63-21.2,8.69,8.69,0,0,1-5.72-5.92,36.36,36.36,0,0,0-20.6-23.42V660.36a36.38,36.38,0,0,0,21.39-22.42,8.69,8.69,0,0,1,6-5.67,36.48,36.48,0,0,0,23.64-20.41h28a36.38,36.38,0,0,0,22.62,21.19,8.69,8.69,0,0,1,5.72,5.92,36.35,36.35,0,0,0,20.61,23.42Z"/><g class="b"><path class="c" d="M1371.48,606.09V744.43h139.61V606.09Zm5.82,132.58V674.92a48.8,48.8,0,0,1,19.56-39l9.52-7.14,9.53,7.14a49.43,49.43,0,0,1,14.4,17.23,48.75,48.75,0,0,1,5.16,21.77v63.75Zm128-56.56v56.56H1447.1V674.92a48.85,48.85,0,0,1,19.57-39l9.52-7.14,9.52,7.14a48.77,48.77,0,0,1,19.57,39Zm-16-50.78-13-9.78-13,9.78a54.5,54.5,0,0,0-21.87,43.59,54.53,54.53,0,0,0-21.87-43.59l-13-9.78-13,9.78a54.73,54.73,0,0,0-16,19.16V611.86h128v38.63A54.94,54.94,0,0,0,1489.23,631.33Z"/></g><g class="b"><path class="c" d="M1594,636.26a39,39,0,1,0,39.36,39A39.18,39.18,0,0,0,1594,636.26Zm0,72.24a33.24,33.24,0,1,1,33.54-33.24A33.42,33.42,0,0,1,1594,708.5Z"/><path class="c" d="M1594,653.92a21.34,21.34,0,1,0,21.53,21.34A21.44,21.44,0,0,0,1594,653.92Zm0,36.92a15.58,15.58,0,1,1,15.72-15.58A15.67,15.67,0,0,1,1594,690.84Z"/><path class="c" d="M1607.3,606.09h-83.12V744.43h139.61V606.09Zm50.68,5.77V656a30.41,30.41,0,0,1-15-18.57,14.49,14.49,0,0,0-9.52-9.85,30.57,30.57,0,0,1-18.09-15.71Zm-128,0h44.54a30.62,30.62,0,0,1-18.74,14.86,14.49,14.49,0,0,0-9.94,9.43A30.5,30.5,0,0,1,1530,654.08Zm0,126.81V694.53a30.4,30.4,0,0,1,15,18.57,14.51,14.51,0,0,0,9.52,9.85,30.58,30.58,0,0,1,18.1,15.72Zm128,0h-44.55a30.57,30.57,0,0,1,18.75-14.86,14.49,14.49,0,0,0,9.93-9.44A30.56,30.56,0,0,1,1658,696.45Zm0-48.51a36.33,36.33,0,0,0-21.39,22.42,8.7,8.7,0,0,1-6,5.67A36.43,36.43,0,0,0,1607,738.67h-28a36.41,36.41,0,0,0-22.63-21.2,8.69,8.69,0,0,1-5.72-5.92,36.31,36.31,0,0,0-20.6-23.42V660.36a36.35,36.35,0,0,0,21.39-22.42,8.69,8.69,0,0,1,6-5.67A36.48,36.48,0,0,0,1581,611.86h28a36.38,36.38,0,0,0,22.62,21.19,8.7,8.7,0,0,1,5.73,5.92,36.31,36.31,0,0,0,20.6,23.42Z"/></g><path class="a" d="M456.73.88V139.22H596.34V.88Zm5.82,132.57V69.71a48.75,48.75,0,0,1,5.16-21.77,49.43,49.43,0,0,1,14.4-17.23l9.52-7.14,9.53,7.14a49.43,49.43,0,0,1,14.4,17.23,48.75,48.75,0,0,1,5.16,21.77v63.74Zm128-56.55v56.55H532.36V69.71a48.8,48.8,0,0,1,19.56-39l9.52-7.14L571,30.71a48.77,48.77,0,0,1,19.57,39Zm-16-50.78-13-9.79-13,9.79a54.5,54.5,0,0,0-21.87,43.59,54.53,54.53,0,0,0-21.87-43.59l-13-9.79-13,9.79a54.73,54.73,0,0,0-16.05,19.16V6.65h128V45.28A54.83,54.83,0,0,0,574.48,26.12Z"/><g class="b"><path class="c" d="M679.2,31.05a39,39,0,1,0,39.36,39A39.18,39.18,0,0,0,679.2,31.05Zm0,72.24a33.24,33.24,0,1,1,33.54-33.24A33.42,33.42,0,0,1,679.2,103.29Z"/><path class="c" d="M679.2,48.71a21.34,21.34,0,1,0,21.53,21.34A21.44,21.44,0,0,0,679.2,48.71Zm0,36.92a15.58,15.58,0,1,1,15.72-15.58A15.67,15.67,0,0,1,679.2,85.63Z"/><path class="c" d="M692.51.88H609.39V139.22H749V.88Zm50.68,5.77V50.78a30.38,30.38,0,0,1-15-18.57,14.49,14.49,0,0,0-9.52-9.85A30.57,30.57,0,0,1,700.58,6.65Zm-128,0h44.54A30.62,30.62,0,0,1,641,21.51a14.47,14.47,0,0,0-9.94,9.43,30.5,30.5,0,0,1-15.86,17.93Zm0,126.8V89.32a30.4,30.4,0,0,1,15,18.57,14.51,14.51,0,0,0,9.52,9.85,30.62,30.62,0,0,1,18.1,15.71Zm128,0H698.64a30.65,30.65,0,0,1,18.74-14.86,14.45,14.45,0,0,0,9.94-9.43,30.55,30.55,0,0,1,15.87-17.93Zm0-48.5a36.37,36.37,0,0,0-21.4,22.42,8.67,8.67,0,0,1-6,5.67,36.44,36.44,0,0,0-23.63,20.41h-28a36.42,36.42,0,0,0-22.63-21.19,8.69,8.69,0,0,1-5.72-5.92,36.34,36.34,0,0,0-20.6-23.42V55.15A36.35,36.35,0,0,0,636.6,32.73a8.69,8.69,0,0,1,6-5.67A36.48,36.48,0,0,0,666.21,6.65h28a36.38,36.38,0,0,0,22.62,21.19,8.7,8.7,0,0,1,5.73,5.92,36.31,36.31,0,0,0,20.6,23.42Z"/></g><path class="d" d="M914.78.88V139.22h139.61V.88Zm5.82,132.57V69.71a48.8,48.8,0,0,1,19.56-39l9.52-7.14,9.53,7.14a49.43,49.43,0,0,1,14.4,17.23,48.75,48.75,0,0,1,5.16,21.77v63.74Zm128-56.55v56.55H990.4V69.71a48.77,48.77,0,0,1,19.57-39l9.52-7.14,9.52,7.14a48.77,48.77,0,0,1,19.57,39Zm-16-50.78-13-9.79-13,9.79a54.5,54.5,0,0,0-21.87,43.59,54.53,54.53,0,0,0-21.87-43.59l-13-9.79-13,9.79a54.73,54.73,0,0,0-16,19.16V6.65h128V45.28A54.94,54.94,0,0,0,1032.53,26.12Z"/><path class="a" d="M373.84,182.35a39,39,0,1,0,39.36,39A39.18,39.18,0,0,0,373.84,182.35Zm0,72.24a33.24,33.24,0,1,1,33.54-33.24A33.42,33.42,0,0,1,373.84,254.59Z"/><path class="a" d="M373.84,200a21.34,21.34,0,1,0,21.53,21.34A21.44,21.44,0,0,0,373.84,200Zm0,36.92a15.58,15.58,0,1,1,15.72-15.58A15.67,15.67,0,0,1,373.84,236.93Z"/><path class="a" d="M387.15,152.18H304V290.52H443.64V152.18ZM437.83,158v44.14a30.43,30.43,0,0,1-15-18.58,14.45,14.45,0,0,0-9.52-9.84A30.62,30.62,0,0,1,395.22,158Zm-128,0h44.54a30.59,30.59,0,0,1-18.74,14.86,14.49,14.49,0,0,0-9.94,9.43,30.5,30.5,0,0,1-15.86,17.93Zm0,126.81V240.62a30.4,30.4,0,0,1,15,18.57,14.51,14.51,0,0,0,9.52,9.85,30.61,30.61,0,0,1,18.1,15.72Zm128,0H393.28A30.57,30.57,0,0,1,412,269.9a14.48,14.48,0,0,0,9.93-9.43,30.55,30.55,0,0,1,15.87-17.93Zm0-48.5a36.29,36.29,0,0,0-21.39,22.41,8.68,8.68,0,0,1-6,5.67,36.43,36.43,0,0,0-23.63,20.42h-28a36.41,36.41,0,0,0-22.63-21.2,8.69,8.69,0,0,1-5.72-5.92,36.31,36.31,0,0,0-20.6-23.42V206.45A36.35,36.35,0,0,0,331.24,184a8.69,8.69,0,0,1,6-5.67A36.43,36.43,0,0,0,360.85,158h28a36.38,36.38,0,0,0,22.62,21.19,8.7,8.7,0,0,1,5.73,5.92,36.26,36.26,0,0,0,20.6,23.42Z"/><g class="b"><path class="c" d="M609.39,152.18V290.52H749V152.18Zm5.82,132.58V221a48.76,48.76,0,0,1,19.56-39l9.52-7.15,9.53,7.15a49.31,49.31,0,0,1,14.4,17.22A48.76,48.76,0,0,1,673.38,221v63.74Zm128-56.56v56.56H685V221a48.73,48.73,0,0,1,19.57-39l9.52-7.15,9.52,7.15a48.73,48.73,0,0,1,19.57,39Zm-16.05-50.78-13-9.78-13,9.78A54.51,54.51,0,0,0,679.2,221a54.54,54.54,0,0,0-21.87-43.6l-13-9.78-13,9.78a54.73,54.73,0,0,0-16,19.16V158h128v38.63A54.94,54.94,0,0,0,727.14,177.42Z"/></g><g class="b"><path class="c" d="M595.9,152.18H456.73v.45h0V290.52H596.34V152.18Zm-5.37,120-24.37-48h24.37Zm-61.08,12.55V260.57l49.44,24.19Zm-66.9-114.27,24.36,48H462.55ZM523.63,158v24.19L474.18,158Zm5.82,30.59,51.78-25.81-51.78,51.63Zm-5.82,25.89L471.42,163l52.21,25.53Zm-4.15,4H493.43l-26.06-51.31Zm.07,5.76L467.67,276l25.78-51.74Zm4.08,4.11v25.82L471.85,280Zm5.82-.06,52.21,51.4-52.21-25.54Zm4.15-4.05h26l26.06,51.31Zm-.07-5.76,51.87-51.73-25.77,51.73Zm-4.08-36.38V158h48.42Zm-66.9,42.14H487l-24.41,49Zm61.08,36.38v24.15H475.21Zm66.9-42.14H566.12l24.41-49Z"/></g><g class="b"><path class="c" d="M831.89,182.35a39,39,0,1,0,39.36,39A39.18,39.18,0,0,0,831.89,182.35Zm0,72.24a33.24,33.24,0,1,1,33.54-33.24A33.43,33.43,0,0,1,831.89,254.59Z"/><path class="c" d="M831.89,200a21.34,21.34,0,1,0,21.54,21.34A21.44,21.44,0,0,0,831.89,200Zm0,36.92a15.58,15.58,0,1,1,15.72-15.58A15.67,15.67,0,0,1,831.89,236.93Z"/><path class="c" d="M845.2,152.18H762.08V290.52H901.7V152.18ZM895.88,158v44.14a30.46,30.46,0,0,1-15-18.58,14.46,14.46,0,0,0-9.51-9.84A30.61,30.61,0,0,1,853.27,158Zm-128,0h44.55a30.61,30.61,0,0,1-18.75,14.86,14.49,14.49,0,0,0-9.94,9.43,30.5,30.5,0,0,1-15.86,17.93Zm0,126.81V240.62a30.44,30.44,0,0,1,15,18.57,14.49,14.49,0,0,0,9.52,9.85,30.62,30.62,0,0,1,18.09,15.72Zm128,0H851.34a30.56,30.56,0,0,1,18.74-14.86,14.51,14.51,0,0,0,9.94-9.43,30.5,30.5,0,0,1,15.86-17.93Zm0-48.5a36.31,36.31,0,0,0-21.39,22.41,8.69,8.69,0,0,1-6,5.67,36.47,36.47,0,0,0-23.64,20.42h-28a36.39,36.39,0,0,0-22.63-21.2,8.71,8.71,0,0,1-5.72-5.92,36.31,36.31,0,0,0-20.6-23.42V206.45A36.33,36.33,0,0,0,789.29,184a8.7,8.7,0,0,1,6-5.67A36.39,36.39,0,0,0,818.9,158h28a36.4,36.4,0,0,0,22.63,21.19,8.71,8.71,0,0,1,5.72,5.92,36.26,36.26,0,0,0,20.6,23.42Z"/></g><g class="b"><path class="c" d="M762.08,303.49V441.82H901.7V303.49Zm5.82,132.57V372.32a48.73,48.73,0,0,1,19.57-39l9.52-7.15,9.52,7.15a48.76,48.76,0,0,1,19.56,39v63.74Zm128-56.56v56.56H837.71V372.32a48.76,48.76,0,0,1,5.16-21.78,49.4,49.4,0,0,1,14.4-17.22l9.52-7.15,9.53,7.15a49.4,49.4,0,0,1,14.4,17.22,48.76,48.76,0,0,1,5.16,21.78Zm-16-50.78-13-9.78-13,9.78a54.52,54.52,0,0,0-21.87,43.6A54.52,54.52,0,0,0,810,328.72l-13-9.78-13,9.78a54.92,54.92,0,0,0-16.05,19.16V309.25h128v38.63A54.81,54.81,0,0,0,879.83,328.72Z"/></g><path class="d" d="M748.56,303.49H609.39v.44h0V441.82H749V303.49Zm-5.37,120-24.37-48h24.37Zm-61.08,12.55V411.87l49.44,24.19ZM615.21,321.8l24.36,48H615.21Zm61.08-12.55v24.19l-49.45-24.19Zm5.82,30.6L733.89,314l-51.78,51.63Zm-5.82,25.88-52.21-51.4,52.21,25.54Zm-4.15,4h-26L620,318.47Zm.07,5.77-51.88,51.73,25.77-51.73Zm4.08,4.11v25.81l-51.78,25.82Zm5.82-.07L734.32,431l-52.21-25.54Zm4.14-4h26.06l26.05,51.3Zm-.07-5.77L738.06,318l-25.77,51.73Zm-4.07-36.38V309.25h48.42Zm-66.9,42.15h24.41l-24.41,49Zm61.08,36.38v24.14H627.87Zm66.9-42.15H718.78l24.41-49Z"/><g class="b"><path class="c" d="M304,303.49V441.82H443.64V303.49Zm5.82,132.57V372.32A48.76,48.76,0,0,1,315,350.54a49.29,49.29,0,0,1,14.4-17.22l9.52-7.15,9.53,7.15a49.4,49.4,0,0,1,14.4,17.22A48.76,48.76,0,0,1,368,372.32v63.74Zm128-56.56v56.56H379.66V372.32a48.76,48.76,0,0,1,19.56-39l9.52-7.15,9.52,7.15a48.73,48.73,0,0,1,19.57,39Zm-16.05-50.78-13-9.78-13,9.78a54.52,54.52,0,0,0-21.87,43.6A54.55,54.55,0,0,0,352,328.72l-13-9.78-13,9.78a54.81,54.81,0,0,0-16,19.16V309.25h128v38.63A55,55,0,0,0,421.78,328.72Z"/></g><path class="a" d="M456.73,454.79V593.13H596.34V454.79Zm5.82,132.57V523.62a48.83,48.83,0,0,1,5.16-21.78,49.4,49.4,0,0,1,14.4-17.22l9.52-7.15,9.53,7.15a49.4,49.4,0,0,1,14.4,17.22,48.83,48.83,0,0,1,5.16,21.78v63.74Zm128-56.55v56.55H532.36V523.62a48.76,48.76,0,0,1,19.56-39l9.52-7.15,9.52,7.15a48.73,48.73,0,0,1,19.57,39Zm-16-50.78-13-9.79-13,9.79a54.49,54.49,0,0,0-21.87,43.59A54.52,54.52,0,0,0,504.67,480l-13-9.79-13,9.79a54.64,54.64,0,0,0-16.05,19.16V460.55h128v38.64A54.74,54.74,0,0,0,574.48,480Z"/><g class="b"><path class="c" d="M443.2,454.79H304v.44h0v137.9H443.64V454.79Zm-5.37,120-24.37-48h24.37Zm-61.08,12.54V563.18l49.44,24.18ZM309.85,473.1l24.36,48H309.85Zm61.08-12.55v24.19l-49.45-24.19Zm5.82,30.6,51.78-25.82L376.75,517ZM370.93,517l-52.21-51.4,52.21,25.54Zm-4.15,4.05h-26l-26.06-51.31Zm.07,5.76L315,578.57l25.77-51.73Zm4.08,4.11v25.82l-51.78,25.81Zm5.82-.07L429,582.29l-52.21-25.54Zm4.15-4H407L433,578.15Zm-.07-5.76,51.87-51.74-25.77,51.74Zm-4.08-36.38V460.55h48.42Zm-66.9,42.14h24.41l-24.41,49Zm61.08,36.38v24.14H322.51Zm66.9-42.14H413.42l24.41-49Z"/></g><g class="b"><path class="c" d="M914.78,454.79V593.13h139.61V454.79Zm5.82,132.57V523.62a48.76,48.76,0,0,1,19.56-39l9.52-7.15,9.53,7.15a49.4,49.4,0,0,1,14.4,17.22,48.83,48.83,0,0,1,5.16,21.78v63.74Zm128-56.55v56.55H990.4V523.62a48.73,48.73,0,0,1,19.57-39l9.52-7.15,9.52,7.15a48.73,48.73,0,0,1,19.57,39Zm-16-50.78-13-9.79-13,9.79a54.49,54.49,0,0,0-21.87,43.59A54.52,54.52,0,0,0,962.72,480l-13-9.79-13,9.79a54.64,54.64,0,0,0-16,19.16V460.55h128v38.64A54.85,54.85,0,0,0,1032.53,480Z"/></g><g class="b"><path class="c" d="M901.25,454.79H762.08v.44h0v137.9H901.7V454.79Zm-5.37,120-24.36-48h24.36ZM834.8,587.36V563.18l49.45,24.18ZM767.9,473.1l24.37,48H767.9ZM829,460.55v24.19l-49.44-24.19Zm5.82,30.6,51.78-25.82L834.8,517ZM829,517l-52.21-51.4L829,491.17Zm-4.15,4.05H798.78l-26.06-51.31Zm.07,5.76L773,578.57l25.77-51.73ZM829,531v25.82L777.2,582.58Zm5.82-.07L887,582.29,834.8,556.75Zm4.15-4h26l26.06,51.31Zm-.07-5.76,51.88-51.74L865,521.08ZM834.8,484.7V460.55h48.42Zm-66.9,42.14h24.41l-24.41,49ZM829,563.22v24.14H780.56Zm66.9-42.14H871.47l24.41-49Z"/></g><path class="d" d="M373.84,636.26a39,39,0,1,0,39.36,39A39.18,39.18,0,0,0,373.84,636.26Zm0,72.24a33.24,33.24,0,1,1,33.54-33.24A33.42,33.42,0,0,1,373.84,708.5Z"/><path class="d" d="M373.84,653.92a21.34,21.34,0,1,0,21.53,21.34A21.44,21.44,0,0,0,373.84,653.92Zm0,36.92a15.58,15.58,0,1,1,15.72-15.58A15.67,15.67,0,0,1,373.84,690.84Z"/><path class="d" d="M387.15,606.09H304V744.43H443.64V606.09Zm50.68,5.77V656a30.41,30.41,0,0,1-15-18.57,14.49,14.49,0,0,0-9.52-9.85,30.57,30.57,0,0,1-18.09-15.71Zm-128,0h44.54a30.62,30.62,0,0,1-18.74,14.86,14.49,14.49,0,0,0-9.94,9.43,30.5,30.5,0,0,1-15.86,17.93Zm0,126.81V694.53a30.4,30.4,0,0,1,15,18.57,14.51,14.51,0,0,0,9.52,9.85,30.58,30.58,0,0,1,18.1,15.72Zm128,0H393.28A30.57,30.57,0,0,1,412,723.81a14.47,14.47,0,0,0,9.93-9.44,30.56,30.56,0,0,1,15.87-17.92Zm0-48.51a36.33,36.33,0,0,0-21.39,22.42,8.7,8.7,0,0,1-6,5.67,36.43,36.43,0,0,0-23.63,20.42h-28a36.41,36.41,0,0,0-22.63-21.2,8.69,8.69,0,0,1-5.72-5.92,36.31,36.31,0,0,0-20.6-23.42V660.36a36.35,36.35,0,0,0,21.39-22.42,8.69,8.69,0,0,1,6-5.67,36.48,36.48,0,0,0,23.64-20.41h28a36.38,36.38,0,0,0,22.62,21.19,8.7,8.7,0,0,1,5.73,5.92,36.31,36.31,0,0,0,20.6,23.42Z"/><g class="b"><path class="c" d="M609.39,606.09V744.43H749V606.09Zm5.82,132.58V674.92a48.8,48.8,0,0,1,19.56-39l9.52-7.14,9.53,7.14a49.43,49.43,0,0,1,14.4,17.23,48.75,48.75,0,0,1,5.16,21.77v63.75Zm128-56.56v56.56H685V674.92a48.77,48.77,0,0,1,19.57-39l9.52-7.14,9.52,7.14a48.77,48.77,0,0,1,19.57,39Zm-16.05-50.78-13-9.78-13,9.78a54.5,54.5,0,0,0-21.87,43.59,54.53,54.53,0,0,0-21.87-43.59l-13-9.78-13,9.78a54.73,54.73,0,0,0-16,19.16V611.86h128v38.63A54.94,54.94,0,0,0,727.14,631.33Z"/></g><g class="b"><path class="c" d="M1054,606.09H914.78v.44h0v137.9h139.61V606.09Zm-5.37,120-24.37-48h24.37ZM987.5,738.66V714.48l49.44,24.18ZM920.6,624.4l24.36,48H920.6Zm61.08-12.54V636l-49.45-24.18Zm5.82,30.59,51.78-25.81L987.5,668.27Zm-5.82,25.89-52.21-51.41,52.21,25.54Zm-4.15,4h-26l-26.06-51.31Zm.07,5.76-51.88,51.73,25.77-51.73Zm4.08,4.11v25.82L929.9,733.89Zm5.82-.07,52.21,51.41L987.5,708.05Zm4.14-4h26.06l26,51.31Zm-.06-5.76,51.87-51.73-25.77,51.73ZM987.5,636V611.86h48.42Zm-66.9,42.14H945l-24.41,49Zm61.08,36.38v24.14H933.26Zm66.9-42.14h-24.41l24.41-49Z"/></g><path class="a" d="M0,757.52V895.85H139.61V757.52ZM5.82,890.09V826.35a48.76,48.76,0,0,1,19.56-39l9.52-7.15,9.53,7.15a49.4,49.4,0,0,1,14.4,17.22A48.76,48.76,0,0,1,64,826.35v63.74Zm128-56.56v56.56H75.62V826.35a48.73,48.73,0,0,1,19.57-39l9.52-7.15,9.52,7.15a48.73,48.73,0,0,1,19.57,39Zm-16.05-50.78-13-9.78-13,9.78a54.52,54.52,0,0,0-21.87,43.6,54.55,54.55,0,0,0-21.87-43.6L34.9,773l-13,9.78a54.81,54.81,0,0,0-16,19.16V763.28h128v38.63A55,55,0,0,0,117.75,782.75Z"/><g class="b"><path class="c" d="M222.51,787.69a39,39,0,1,0,39.36,39A39.18,39.18,0,0,0,222.51,787.69Zm0,72.23a33.24,33.24,0,1,1,33.54-33.23A33.42,33.42,0,0,1,222.51,859.92Z"/><path class="c" d="M222.51,805.35A21.34,21.34,0,1,0,244,826.69,21.44,21.44,0,0,0,222.51,805.35Zm0,36.91a15.58,15.58,0,1,1,15.72-15.57A15.67,15.67,0,0,1,222.51,842.26Z"/><path class="c" d="M235.82,757.52H152.7V895.85H292.31V757.52Zm50.68,5.76v44.14a30.38,30.38,0,0,1-15-18.57A14.49,14.49,0,0,0,262,779a30.62,30.62,0,0,1-18.09-15.72Zm-128,0h44.54a30.56,30.56,0,0,1-18.74,14.86,14.51,14.51,0,0,0-9.94,9.43,30.5,30.5,0,0,1-15.86,17.93Zm0,126.81V846a30.42,30.42,0,0,1,15,18.57,14.47,14.47,0,0,0,9.52,9.85,30.64,30.64,0,0,1,18.1,15.72Zm128,0H242a30.58,30.58,0,0,1,18.74-14.86,14.47,14.47,0,0,0,9.94-9.43,30.55,30.55,0,0,1,15.87-17.93Zm0-48.5A36.37,36.37,0,0,0,265.1,864a8.67,8.67,0,0,1-6,5.67,36.39,36.39,0,0,0-23.63,20.41h-28a36.44,36.44,0,0,0-22.63-21.2,8.65,8.65,0,0,1-5.72-5.91,36.26,36.26,0,0,0-20.6-23.42V811.78a36.33,36.33,0,0,0,21.39-22.42,8.71,8.71,0,0,1,6-5.67,36.43,36.43,0,0,0,23.64-20.41h28a36.4,36.4,0,0,0,22.62,21.2,8.68,8.68,0,0,1,5.73,5.92,36.31,36.31,0,0,0,20.6,23.42Z"/></g><path class="d" d="M458.1,757.52V895.85H597.71V757.52Zm5.82,132.57V826.35a48.76,48.76,0,0,1,5.16-21.78,49.29,49.29,0,0,1,14.4-17.22L493,780.2l9.53,7.15a49.4,49.4,0,0,1,14.4,17.22,48.76,48.76,0,0,1,5.16,21.78v63.74Zm128-56.56v56.56H533.72V826.35a48.81,48.81,0,0,1,19.57-39l9.52-7.15,9.52,7.15a48.73,48.73,0,0,1,19.57,39Zm-16-50.78-13-9.78-13,9.78a54.52,54.52,0,0,0-21.87,43.6A54.55,54.55,0,0,0,506,782.75L493,773l-13,9.78a54.81,54.81,0,0,0-16.05,19.16V763.28h128v38.63A55,55,0,0,0,575.85,782.75Z"/><g class="b"><path class="c" d="M444.57,757.52H305.4V758h0V895.85H445V757.52Zm-5.37,120-24.37-48H439.2Zm-61.08,12.54V865.9l49.44,24.19Zm-66.9-114.26,24.36,48H311.22Zm61.08-12.55v24.19l-49.45-24.19Zm5.82,30.6,51.78-25.82-51.78,51.63Zm-5.82,25.88-52.21-51.4L372.3,793.9Zm-4.15,4h-26L316,772.5Zm.07,5.77L316.34,881.3l25.77-51.73Zm4.08,4.11v25.81l-51.78,25.82Zm5.82-.07L430.33,885l-52.21-25.53Zm4.14-4h26.06l26.05,51.3Zm-.06-5.77,51.87-51.73L408.3,823.8Zm-4.08-36.38V763.28h48.42Zm-66.9,42.15h24.41l-24.41,49ZM372.3,866v24.14H323.88Zm66.9-42.15H414.79l24.41-49Z"/></g><g class="b"><path class="c" d="M139.17,908.82H0v.44H0v137.9H139.61V908.82Zm-5.37,120-24.37-48H133.8Zm-61.08,12.54v-24.18l49.44,24.18ZM5.82,927.13l24.36,48H5.82ZM66.9,914.59v24.18L17.45,914.59Zm5.82,30.59,51.78-25.82L72.72,971ZM66.9,971.07,14.69,919.66,66.9,945.2Zm-4.15,4H36.69l-26-51.31Zm.07,5.76L10.94,1032.6l25.77-51.73ZM66.9,985v25.82l-51.78,25.82Zm5.82-.07,52.21,51.41-52.21-25.54Zm4.14-4h26.06L129,1032.18Zm-.07-5.76,51.88-51.73L102.9,975.11Zm-4.07-36.38V914.59h48.42ZM5.82,980.87H30.23l-24.41,49Zm61.08,36.38v24.14H18.48Zm66.9-42.14H109.39l24.41-49Z"/></g><g class="b"><path class="c" d="M375.21,939a39,39,0,1,0,39.36,39A39.18,39.18,0,0,0,375.21,939Zm0,72.23A33.24,33.24,0,1,1,408.75,978,33.42,33.42,0,0,1,375.21,1011.22Z"/><path class="c" d="M375.21,956.65A21.34,21.34,0,1,0,396.74,978,21.44,21.44,0,0,0,375.21,956.65Zm0,36.91A15.58,15.58,0,1,1,390.93,978,15.66,15.66,0,0,1,375.21,993.56Z"/><path class="c" d="M388.52,908.82H305.4v138.34H445V908.82Zm50.68,5.77v44.13a30.38,30.38,0,0,1-15-18.57,14.49,14.49,0,0,0-9.52-9.85,30.6,30.6,0,0,1-18.09-15.71Zm-128,0h44.54A30.57,30.57,0,0,1,337,929.44a14.51,14.51,0,0,0-9.94,9.44,30.5,30.5,0,0,1-15.86,17.93Zm0,126.8V997.26a30.4,30.4,0,0,1,15,18.57,14.51,14.51,0,0,0,9.52,9.85,30.56,30.56,0,0,1,18.1,15.71Zm128,0H394.65a30.65,30.65,0,0,1,18.74-14.86,14.47,14.47,0,0,0,9.94-9.43,30.55,30.55,0,0,1,15.87-17.93Zm0-48.5a36.33,36.33,0,0,0-21.39,22.42,8.7,8.7,0,0,1-6,5.67,36.44,36.44,0,0,0-23.63,20.41h-28a36.4,36.4,0,0,0-22.63-21.19,8.69,8.69,0,0,1-5.72-5.92,36.31,36.31,0,0,0-20.6-23.42V963.09a36.35,36.35,0,0,0,21.39-22.42,8.69,8.69,0,0,1,6-5.67,36.48,36.48,0,0,0,23.64-20.41h28a36.41,36.41,0,0,0,22.62,21.19,8.7,8.7,0,0,1,5.73,5.92,36.31,36.31,0,0,0,20.6,23.42Z"/></g><path class="a" d="M597.27,908.82H458.1v.44h0v137.9H597.71V908.82Zm-5.37,120-24.37-48H591.9Zm-61.08,12.54v-24.18l49.44,24.18Zm-66.9-114.26,24.36,48H463.92ZM525,914.59v24.18l-49.45-24.18Zm5.82,30.59,51.78-25.82L530.82,971ZM525,971.07l-52.21-51.41L525,945.2Zm-4.15,4H494.8L468.74,923.8Zm.07,5.76L469,1032.6l25.77-51.73ZM525,985v25.82l-51.78,25.82Zm5.82-.07L583,1036.32l-52.21-25.54Zm4.14-4H561l26.06,51.31Zm-.06-5.76,51.87-51.73L561,975.11Zm-4.08-36.38V914.59h48.42Zm-66.9,42.14h24.41l-24.41,49ZM525,1017.25v24.14H476.58Zm66.9-42.14H567.49l24.41-49Z"/><path class="d" d="M291.87,1060.12H152.7v.45h0v137.89H292.31V1060.12Zm-5.37,120-24.37-48H286.5Zm-61.08,12.55v-24.19l49.44,24.19Zm-66.9-114.27,24.36,48H158.52Zm61.08-12.54v24.18l-49.45-24.18Zm5.82,30.59,51.78-25.81-51.78,51.63Zm-5.82,25.89L167.39,1071l52.21,25.54Zm-4.15,4h-26l-26.06-51.31Zm.07,5.76-51.88,51.74,25.77-51.74Zm4.08,4.11v25.82l-51.78,25.82Zm5.82-.06,52.21,51.4-52.21-25.54Zm4.14-4h26.06l26.05,51.31Zm-.06-5.76,51.87-51.73-25.77,51.73ZM225.42,1090v-24.14h48.42Zm-66.9,42.14h24.41l-24.41,49Zm61.08,36.38v24.15H171.18Zm66.9-42.14H262.09l24.41-49Z"/><path class="a" d="M527.91,1090.29a39,39,0,1,0,39.36,39A39.18,39.18,0,0,0,527.91,1090.29Zm0,72.24a33.24,33.24,0,1,1,33.54-33.24A33.42,33.42,0,0,1,527.91,1162.53Z"/><path class="a" d="M527.91,1108a21.34,21.34,0,1,0,21.53,21.34A21.44,21.44,0,0,0,527.91,1108Zm0,36.92a15.58,15.58,0,1,1,15.72-15.58A15.67,15.67,0,0,1,527.91,1144.87Z"/><path class="a" d="M541.22,1060.12H458.1v138.34H597.71V1060.12Zm50.68,5.77V1110a30.46,30.46,0,0,1-15-18.58,14.45,14.45,0,0,0-9.52-9.84,30.62,30.62,0,0,1-18.09-15.72Zm-128,0h44.54a30.62,30.62,0,0,1-18.74,14.86,14.49,14.49,0,0,0-9.94,9.43,30.5,30.5,0,0,1-15.86,17.93Zm0,126.81v-44.14a30.4,30.4,0,0,1,15,18.57,14.51,14.51,0,0,0,9.52,9.85,30.58,30.58,0,0,1,18.1,15.72Zm128,0H547.35a30.57,30.57,0,0,1,18.75-14.86,14.49,14.49,0,0,0,9.93-9.44,30.56,30.56,0,0,1,15.87-17.92Zm0-48.51a36.33,36.33,0,0,0-21.39,22.42,8.68,8.68,0,0,1-6,5.67,36.43,36.43,0,0,0-23.63,20.42h-28a36.41,36.41,0,0,0-22.63-21.2,8.69,8.69,0,0,1-5.72-5.92,36.31,36.31,0,0,0-20.6-23.42v-27.77A36.35,36.35,0,0,0,485.31,1092a8.69,8.69,0,0,1,6-5.67,36.45,36.45,0,0,0,23.64-20.41h28a36.38,36.38,0,0,0,22.62,21.19,8.7,8.7,0,0,1,5.73,5.92,36.29,36.29,0,0,0,20.6,23.42Z"/><g class="b"><path class="c" d="M69.81,1090.29a39,39,0,1,0,39.36,39A39.18,39.18,0,0,0,69.81,1090.29Zm0,72.24a33.24,33.24,0,1,1,33.54-33.24A33.43,33.43,0,0,1,69.81,1162.53Z"/><path class="c" d="M69.81,1108a21.34,21.34,0,1,0,21.53,21.34A21.44,21.44,0,0,0,69.81,1108Zm0,36.92a15.58,15.58,0,1,1,15.72-15.58A15.67,15.67,0,0,1,69.81,1144.87Z"/><path class="c" d="M83.12,1060.12H0v138.34H139.61V1060.12Zm50.68,5.77V1110a30.42,30.42,0,0,1-15-18.58,14.45,14.45,0,0,0-9.52-9.84,30.62,30.62,0,0,1-18.09-15.72Zm-128,0H50.36a30.62,30.62,0,0,1-18.74,14.86,14.49,14.49,0,0,0-9.94,9.43,30.5,30.5,0,0,1-15.86,17.93Zm0,126.81v-44.14a30.4,30.4,0,0,1,15,18.57,14.49,14.49,0,0,0,9.52,9.85,30.64,30.64,0,0,1,18.1,15.72Zm128,0H89.25A30.58,30.58,0,0,1,108,1177.84a14.49,14.49,0,0,0,9.94-9.44,30.56,30.56,0,0,1,15.87-17.92Zm0-48.51a36.37,36.37,0,0,0-21.4,22.42,8.65,8.65,0,0,1-6,5.67,36.47,36.47,0,0,0-23.64,20.42h-28a36.44,36.44,0,0,0-22.63-21.2,8.69,8.69,0,0,1-5.72-5.92,36.34,36.34,0,0,0-20.6-23.42v-27.77A36.38,36.38,0,0,0,27.21,1092a8.69,8.69,0,0,1,6-5.67,36.45,36.45,0,0,0,23.64-20.41h28a36.38,36.38,0,0,0,22.62,21.19,8.7,8.7,0,0,1,5.73,5.92,36.29,36.29,0,0,0,20.6,23.42Z"/></g><path class="a" d="M0,1211.43v138.33H139.61V1211.43ZM5.82,1344v-63.74a48.76,48.76,0,0,1,19.56-39l9.52-7.15,9.53,7.15a49.4,49.4,0,0,1,14.4,17.22A48.76,48.76,0,0,1,64,1280.26V1344Zm128-56.56V1344H75.62v-63.74a48.73,48.73,0,0,1,19.57-39l9.52-7.15,9.52,7.15a48.73,48.73,0,0,1,19.57,39Zm-16.05-50.78-13-9.78-13,9.78a54.51,54.51,0,0,0-21.87,43.6,54.54,54.54,0,0,0-21.87-43.6l-13-9.78-13,9.78a54.73,54.73,0,0,0-16,19.16v-38.63h128v38.63A54.94,54.94,0,0,0,117.75,1236.66Z"/><g class="b"><path class="c" d="M222.51,1241.6a39,39,0,1,0,39.36,39A39.18,39.18,0,0,0,222.51,1241.6Zm0,72.23a33.24,33.24,0,1,1,33.54-33.24A33.42,33.42,0,0,1,222.51,1313.83Z"/><path class="c" d="M222.51,1259.26A21.34,21.34,0,1,0,244,1280.59,21.43,21.43,0,0,0,222.51,1259.26Zm0,36.91a15.58,15.58,0,1,1,15.72-15.58A15.67,15.67,0,0,1,222.51,1296.17Z"/><path class="c" d="M235.82,1211.43H152.7v138.33H292.31V1211.43Zm50.68,5.76v44.14a30.41,30.41,0,0,1-15-18.57,14.47,14.47,0,0,0-9.52-9.85,30.62,30.62,0,0,1-18.09-15.72Zm-128,0h44.54a30.56,30.56,0,0,1-18.74,14.86,14.51,14.51,0,0,0-9.94,9.43,30.5,30.5,0,0,1-15.86,17.93Zm0,126.81v-44.14a30.4,30.4,0,0,1,15,18.57,14.49,14.49,0,0,0,9.52,9.85,30.64,30.64,0,0,1,18.1,15.72Zm128,0H242a30.58,30.58,0,0,1,18.74-14.86,14.49,14.49,0,0,0,9.94-9.43,30.55,30.55,0,0,1,15.87-17.93Zm0-48.5a36.37,36.37,0,0,0-21.4,22.42,8.69,8.69,0,0,1-6,5.67A36.39,36.39,0,0,0,235.5,1344h-28a36.41,36.41,0,0,0-22.63-21.2,8.67,8.67,0,0,1-5.72-5.91,36.3,36.3,0,0,0-20.6-23.43v-27.77a36.35,36.35,0,0,0,21.39-22.42,8.71,8.71,0,0,1,6-5.67,36.43,36.43,0,0,0,23.64-20.41h28a36.4,36.4,0,0,0,22.62,21.2,8.69,8.69,0,0,1,5.73,5.91,36.3,36.3,0,0,0,20.6,23.43Z"/></g><g class="b"><path class="c" d="M458.1,1211.43v138.33H597.71V1211.43ZM463.92,1344v-63.74a48.76,48.76,0,0,1,5.16-21.78,49.29,49.29,0,0,1,14.4-17.22l9.52-7.15,9.53,7.15a49.4,49.4,0,0,1,14.4,17.22,48.76,48.76,0,0,1,5.16,21.78V1344Zm128-56.56V1344H533.72v-63.74a48.81,48.81,0,0,1,19.57-39l9.52-7.15,9.52,7.15a48.73,48.73,0,0,1,19.57,39Zm-16-50.78-13-9.78-13,9.78a54.51,54.51,0,0,0-21.87,43.6,54.54,54.54,0,0,0-21.87-43.6l-13-9.78-13,9.78a54.73,54.73,0,0,0-16.05,19.16v-38.63h128v38.63A54.94,54.94,0,0,0,575.85,1236.66Z"/></g><g class="b"><path class="c" d="M152.7,1362.73v138.34H292.31V1362.73Zm5.82,132.57v-63.74a48.76,48.76,0,0,1,19.56-39l9.52-7.15,9.53,7.15a49.4,49.4,0,0,1,14.4,17.22,48.76,48.76,0,0,1,5.16,21.78v63.74Zm128-56.56v56.56H228.32v-63.74a48.73,48.73,0,0,1,19.57-39l9.52-7.15,9.52,7.15a48.73,48.73,0,0,1,19.57,39ZM270.45,1388l-13-9.79-13,9.79a54.49,54.49,0,0,0-21.87,43.59A54.52,54.52,0,0,0,200.64,1388l-13-9.79-13,9.79a54.69,54.69,0,0,0-16,19.15v-38.63h128v38.63A54.91,54.91,0,0,0,270.45,1388Z"/></g><g class="b"><path class="c" d="M375.21,1392.9a39,39,0,1,0,39.36,39A39.18,39.18,0,0,0,375.21,1392.9Zm0,72.23a33.24,33.24,0,1,1,33.54-33.23A33.42,33.42,0,0,1,375.21,1465.13Z"/><path class="c" d="M375.21,1410.56a21.34,21.34,0,1,0,21.53,21.34A21.44,21.44,0,0,0,375.21,1410.56Zm0,36.91a15.58,15.58,0,1,1,15.72-15.57A15.66,15.66,0,0,1,375.21,1447.47Z"/><path class="c" d="M388.52,1362.73H305.4v138.34H445V1362.73Zm50.68,5.76v44.14a30.38,30.38,0,0,1-15-18.57,14.49,14.49,0,0,0-9.52-9.85,30.59,30.59,0,0,1-18.09-15.72Zm-128,0h44.54A30.56,30.56,0,0,1,337,1383.35a14.51,14.51,0,0,0-9.94,9.44,30.51,30.51,0,0,1-15.86,17.92Zm0,126.81v-44.14a30.42,30.42,0,0,1,15,18.58,14.47,14.47,0,0,0,9.52,9.84,30.61,30.61,0,0,1,18.1,15.72Zm128,0H394.65a30.65,30.65,0,0,1,18.74-14.86,14.47,14.47,0,0,0,9.94-9.43,30.55,30.55,0,0,1,15.87-17.93Zm0-48.5a36.33,36.33,0,0,0-21.39,22.42,8.7,8.7,0,0,1-6,5.67,36.41,36.41,0,0,0-23.63,20.41h-28a36.4,36.4,0,0,0-22.63-21.19,8.69,8.69,0,0,1-5.72-5.92,36.26,36.26,0,0,0-20.6-23.42V1417a36.35,36.35,0,0,0,21.39-22.42,8.67,8.67,0,0,1,6-5.67,36.47,36.47,0,0,0,23.64-20.42h28a36.4,36.4,0,0,0,22.62,21.2,8.7,8.7,0,0,1,5.73,5.92A36.31,36.31,0,0,0,439.2,1419Z"/></g><path class="a" d="M762.08,757.52V895.85H901.7V757.52Zm5.82,132.57V826.35a48.73,48.73,0,0,1,19.57-39L797,780.2l9.52,7.15a48.76,48.76,0,0,1,19.56,39v63.74Zm128-56.56v56.56H837.71V826.35a48.76,48.76,0,0,1,5.16-21.78,49.4,49.4,0,0,1,14.4-17.22l9.52-7.15,9.53,7.15a49.4,49.4,0,0,1,14.4,17.22,48.76,48.76,0,0,1,5.16,21.78Zm-16-50.78-13-9.78-13,9.78a54.52,54.52,0,0,0-21.87,43.6A54.52,54.52,0,0,0,810,782.75L797,773l-13,9.78a54.92,54.92,0,0,0-16.05,19.16V763.28h128v38.63A54.81,54.81,0,0,0,879.83,782.75Z"/><g class="b"><path class="c" d="M984.59,787.69a39,39,0,1,0,39.36,39A39.18,39.18,0,0,0,984.59,787.69Zm0,72.23a33.24,33.24,0,1,1,33.54-33.23A33.42,33.42,0,0,1,984.59,859.92Z"/><path class="c" d="M984.59,805.35a21.34,21.34,0,1,0,21.53,21.34A21.44,21.44,0,0,0,984.59,805.35Zm0,36.91a15.58,15.58,0,1,1,15.72-15.57A15.67,15.67,0,0,1,984.59,842.26Z"/><path class="c" d="M997.9,757.52H914.78V895.85h139.61V757.52Zm50.68,5.76v44.14a30.38,30.38,0,0,1-15-18.57,14.49,14.49,0,0,0-9.52-9.85A30.62,30.62,0,0,1,1006,763.28Zm-128,0h44.54a30.56,30.56,0,0,1-18.74,14.86,14.51,14.51,0,0,0-9.94,9.43A30.5,30.5,0,0,1,920.6,805.5Zm0,126.81V846a30.42,30.42,0,0,1,15,18.57,14.47,14.47,0,0,0,9.52,9.85,30.64,30.64,0,0,1,18.1,15.72Zm128,0H1004a30.58,30.58,0,0,1,18.74-14.86,14.47,14.47,0,0,0,9.94-9.43,30.55,30.55,0,0,1,15.87-17.93Zm0-48.5a36.37,36.37,0,0,0-21.4,22.42,8.67,8.67,0,0,1-6,5.67,36.39,36.39,0,0,0-23.63,20.41h-28a36.44,36.44,0,0,0-22.63-21.2A8.65,8.65,0,0,1,941.2,863a36.26,36.26,0,0,0-20.6-23.42V811.78A36.33,36.33,0,0,0,942,789.36a8.71,8.71,0,0,1,6-5.67,36.43,36.43,0,0,0,23.64-20.41h28a36.4,36.4,0,0,0,22.62,21.2,8.68,8.68,0,0,1,5.73,5.92,36.31,36.31,0,0,0,20.6,23.42Z"/></g><g class="b"><path class="c" d="M748.56,757.52H609.39V758h0V895.85H749V757.52Zm-5.37,120-24.37-48h24.37Zm-61.08,12.54V865.9l49.44,24.19Zm-66.9-114.26,24.36,48H615.21Zm61.08-12.55v24.19l-49.45-24.19Zm5.82,30.6,51.78-25.82-51.78,51.63Zm-5.82,25.88-52.21-51.4,52.21,25.54Zm-4.15,4h-26L620,772.5Zm.07,5.77L620.33,881.3l25.77-51.73Zm4.08,4.11v25.81l-51.78,25.82Zm5.82-.07L734.32,885l-52.21-25.53Zm4.14-4h26.06l26.05,51.3Zm-.07-5.77,51.88-51.73L712.29,823.8Zm-4.07-36.38V763.28h48.42Zm-66.9,42.15h24.41l-24.41,49ZM676.29,866v24.14H627.87Zm66.9-42.15H718.78l24.41-49Z"/></g><path class="d" d="M1220.15,757.52V895.85h139.61V757.52ZM1226,890.09V826.35a48.76,48.76,0,0,1,19.56-39l9.52-7.15,9.53,7.15a49.4,49.4,0,0,1,14.4,17.22,48.9,48.9,0,0,1,5.16,21.78v63.74Zm128-56.56v56.56h-58.18V826.35a48.73,48.73,0,0,1,19.57-39l9.52-7.15,9.52,7.15a48.73,48.73,0,0,1,19.57,39Zm-16-50.78-13-9.78-13,9.78a54.54,54.54,0,0,0-21.86,43.6,54.55,54.55,0,0,0-21.87-43.6l-13-9.78-13,9.78a54.81,54.81,0,0,0-16,19.16V763.28h128v38.63A55,55,0,0,0,1337.9,782.75Z"/><g class="b"><path class="c" d="M1205.86,757.52H1066.69V758h0V895.85H1206.3V757.52Zm-5.38,120-24.36-48h24.36Zm-61.08,12.54V865.9l49.45,24.19Zm-66.89-114.26,24.36,48h-24.36Zm61.08-12.55v24.19l-49.45-24.19Zm5.81,30.6,51.78-25.82-51.78,51.63Zm-5.81,25.88-52.21-51.4,52.21,25.54Zm-4.15,4h-26.06l-26.05-51.3Zm.07,5.77-51.88,51.73,25.77-51.73Zm4.08,4.11v25.81l-51.78,25.82Zm5.81-.07,52.21,51.4-52.21-25.53Zm4.15-4h26.06l26.05,51.3Zm-.07-5.77,51.88-51.73-25.77,51.73Zm-4.08-36.38V763.28h48.43Zm-66.89,42.15h24.41l-24.41,49ZM1133.59,866v24.14h-48.42Zm66.89-42.15h-24.4l24.4-49Z"/></g><g class="b"><path class="c" d="M914.78,908.82v138.34h139.61V908.82Zm5.82,132.57V977.65a48.8,48.8,0,0,1,19.56-39l9.52-7.15,9.53,7.15a49.43,49.43,0,0,1,14.4,17.23,48.75,48.75,0,0,1,5.16,21.77v63.74Zm128-56.55v56.55H990.4V977.65a48.77,48.77,0,0,1,19.57-39l9.52-7.15,9.52,7.15a48.77,48.77,0,0,1,19.57,39Zm-16-50.78-13-9.79-13,9.79a54.5,54.5,0,0,0-21.87,43.59,54.53,54.53,0,0,0-21.87-43.59l-13-9.79-13,9.79a54.64,54.64,0,0,0-16,19.16V914.59h128v38.63A54.85,54.85,0,0,0,1032.53,934.06Z"/></g><g class="b"><path class="c" d="M901.25,908.82H762.08v.44h0v137.9H901.7V908.82Zm-5.37,120-24.36-48h24.36Zm-61.08,12.54v-24.18l49.45,24.18ZM767.9,927.13l24.37,48H767.9ZM829,914.59v24.18l-49.44-24.18Zm5.82,30.59,51.78-25.82L834.8,971ZM829,971.07l-52.21-51.41L829,945.2Zm-4.15,4H798.78L772.72,923.8Zm.07,5.76L773,1032.6l25.77-51.73ZM829,985v25.82l-51.78,25.82Zm5.82-.07L887,1036.32l-52.21-25.54Zm4.15-4h26l26.06,51.31Zm-.07-5.76,51.88-51.73L865,975.11Zm-4.08-36.38V914.59h48.42Zm-66.9,42.14h24.41l-24.41,49ZM829,1017.25v24.14H780.56Zm66.9-42.14H871.47l24.41-49Z"/></g><g class="b"><path class="c" d="M1136.5,939a39,39,0,1,0,39.35,39A39.18,39.18,0,0,0,1136.5,939Zm0,72.23A33.24,33.24,0,1,1,1170,978,33.42,33.42,0,0,1,1136.5,1011.22Z"/><path class="c" d="M1136.5,956.65A21.34,21.34,0,1,0,1158,978,21.44,21.44,0,0,0,1136.5,956.65Zm0,36.91A15.58,15.58,0,1,1,1152.21,978,15.66,15.66,0,0,1,1136.5,993.56Z"/><path class="c" d="M1149.81,908.82h-83.12v138.34H1206.3V908.82Zm50.68,5.77v44.13a30.38,30.38,0,0,1-15-18.57,14.49,14.49,0,0,0-9.52-9.85,30.65,30.65,0,0,1-18.1-15.71Zm-128,0h44.54a30.6,30.6,0,0,1-18.74,14.85,14.49,14.49,0,0,0-9.94,9.44,30.5,30.5,0,0,1-15.86,17.93Zm0,126.8V997.26a30.4,30.4,0,0,1,15,18.57,14.49,14.49,0,0,0,9.52,9.85,30.62,30.62,0,0,1,18.1,15.71Zm128,0h-44.55a30.65,30.65,0,0,1,18.74-14.86,14.47,14.47,0,0,0,9.94-9.43,30.51,30.51,0,0,1,15.87-17.93Zm0-48.5a36.37,36.37,0,0,0-21.4,22.42,8.67,8.67,0,0,1-6,5.67,36.48,36.48,0,0,0-23.64,20.41h-28a36.42,36.42,0,0,0-22.63-21.19,8.69,8.69,0,0,1-5.72-5.92,36.36,36.36,0,0,0-20.6-23.42V963.09a36.38,36.38,0,0,0,21.39-22.42,8.69,8.69,0,0,1,6-5.67,36.48,36.48,0,0,0,23.64-20.41h28a36.41,36.41,0,0,0,22.62,21.19,8.69,8.69,0,0,1,5.72,5.92,36.35,36.35,0,0,0,20.61,23.42Z"/></g><g class="b"><path class="c" d="M1066.69,1060.12v138.34H1206.3V1060.12Zm5.82,132.58V1129a48.8,48.8,0,0,1,19.56-39l9.52-7.14,9.52,7.14a48.77,48.77,0,0,1,19.57,39v63.75Zm128-56.56v56.56h-58.18V1129a48.77,48.77,0,0,1,19.57-39l9.52-7.14,9.52,7.14a48.85,48.85,0,0,1,19.57,39Zm-16.06-50.78-13-9.78-13,9.78A54.52,54.52,0,0,0,1136.5,1129a54.53,54.53,0,0,0-21.87-43.59l-13-9.78-13,9.78a54.73,54.73,0,0,0-16,19.16v-38.63h128v38.63A54.86,54.86,0,0,0,1184.43,1085.36Z"/></g><path class="d" d="M1054,1060.12H914.78v.45h0v137.89h139.61V1060.12Zm-5.37,120-24.37-48h24.37ZM987.5,1192.7v-24.19l49.44,24.19Zm-66.9-114.27,24.36,48H920.6Zm61.08-12.54v24.18l-49.45-24.18Zm5.82,30.59,51.78-25.81L987.5,1122.3Zm-5.82,25.89L929.47,1071l52.21,25.54Zm-4.15,4h-26l-26.06-51.31Zm.07,5.76-51.88,51.74,25.77-51.74Zm4.08,4.11v25.82l-51.78,25.82Zm5.82-.06,52.21,51.4-52.21-25.54Zm4.14-4h26.06l26,51.31Zm-.06-5.76,51.87-51.73-25.77,51.73ZM987.5,1090v-24.14h48.42Zm-66.9,42.14H945l-24.41,49Zm61.08,36.38v24.15H933.26Zm66.9-42.14h-24.41l24.41-49Z"/><path class="a" d="M1290,1090.29a39,39,0,1,0,39.36,39A39.18,39.18,0,0,0,1290,1090.29Zm0,72.24a33.24,33.24,0,1,1,33.54-33.24A33.43,33.43,0,0,1,1290,1162.53Z"/><path class="a" d="M1290,1108a21.34,21.34,0,1,0,21.53,21.34A21.44,21.44,0,0,0,1290,1108Zm0,36.92a15.58,15.58,0,1,1,15.72-15.58A15.67,15.67,0,0,1,1290,1144.87Z"/><path class="a" d="M1303.27,1060.12h-83.12v138.34h139.61V1060.12Zm50.68,5.77V1110a30.42,30.42,0,0,1-15-18.58,14.45,14.45,0,0,0-9.52-9.84,30.62,30.62,0,0,1-18.09-15.72Zm-128,0h44.54a30.62,30.62,0,0,1-18.74,14.86,14.49,14.49,0,0,0-9.94,9.43,30.5,30.5,0,0,1-15.86,17.93Zm0,126.81v-44.14a30.4,30.4,0,0,1,15,18.57,14.49,14.49,0,0,0,9.52,9.85,30.64,30.64,0,0,1,18.1,15.72Zm128,0H1309.4a30.58,30.58,0,0,1,18.74-14.86,14.49,14.49,0,0,0,9.94-9.44,30.56,30.56,0,0,1,15.87-17.92Zm0-48.51a36.37,36.37,0,0,0-21.4,22.42,8.65,8.65,0,0,1-6,5.67,36.47,36.47,0,0,0-23.64,20.42h-28a36.44,36.44,0,0,0-22.63-21.2,8.69,8.69,0,0,1-5.72-5.92,36.34,36.34,0,0,0-20.6-23.42v-27.77a36.38,36.38,0,0,0,21.39-22.42,8.69,8.69,0,0,1,6-5.67,36.45,36.45,0,0,0,23.64-20.41h28a36.38,36.38,0,0,0,22.62,21.19,8.7,8.7,0,0,1,5.73,5.92,36.29,36.29,0,0,0,20.6,23.42Z"/><g class="b"><path class="c" d="M609.39,1060.12v138.34H749V1060.12Zm5.82,132.58V1129a48.8,48.8,0,0,1,19.56-39l9.52-7.14,9.53,7.14a49.43,49.43,0,0,1,14.4,17.23,48.75,48.75,0,0,1,5.16,21.77v63.75Zm128-56.56v56.56H685V1129a48.77,48.77,0,0,1,19.57-39l9.52-7.14,9.52,7.14a48.77,48.77,0,0,1,19.57,39Zm-16.05-50.78-13-9.78-13,9.78A54.5,54.5,0,0,0,679.2,1129a54.53,54.53,0,0,0-21.87-43.59l-13-9.78-13,9.78a54.73,54.73,0,0,0-16,19.16v-38.63h128v38.63A54.94,54.94,0,0,0,727.14,1085.36Z"/></g><g class="b"><path class="c" d="M831.89,1090.29a39,39,0,1,0,39.36,39A39.18,39.18,0,0,0,831.89,1090.29Zm0,72.24a33.24,33.24,0,1,1,33.54-33.24A33.43,33.43,0,0,1,831.89,1162.53Z"/><path class="c" d="M831.89,1108a21.34,21.34,0,1,0,21.54,21.34A21.44,21.44,0,0,0,831.89,1108Zm0,36.92a15.58,15.58,0,1,1,15.72-15.58A15.67,15.67,0,0,1,831.89,1144.87Z"/><path class="c" d="M845.2,1060.12H762.08v138.34H901.7V1060.12Zm50.68,5.77V1110a30.49,30.49,0,0,1-15-18.58,14.46,14.46,0,0,0-9.51-9.84,30.61,30.61,0,0,1-18.1-15.72Zm-128,0h44.55a30.64,30.64,0,0,1-18.75,14.86,14.49,14.49,0,0,0-9.94,9.43,30.5,30.5,0,0,1-15.86,17.93Zm0,126.81v-44.14a30.44,30.44,0,0,1,15,18.57,14.49,14.49,0,0,0,9.52,9.85,30.59,30.59,0,0,1,18.09,15.72Zm128,0H851.34a30.56,30.56,0,0,1,18.74-14.86,14.51,14.51,0,0,0,9.94-9.44,30.51,30.51,0,0,1,15.86-17.92Zm0-48.51a36.35,36.35,0,0,0-21.39,22.42,8.69,8.69,0,0,1-6,5.67,36.47,36.47,0,0,0-23.64,20.42h-28a36.39,36.39,0,0,0-22.63-21.2,8.71,8.71,0,0,1-5.72-5.92,36.31,36.31,0,0,0-20.6-23.42v-27.77A36.33,36.33,0,0,0,789.29,1092a8.7,8.7,0,0,1,6-5.67,36.41,36.41,0,0,0,23.63-20.41h28a36.4,36.4,0,0,0,22.63,21.19,8.71,8.71,0,0,1,5.72,5.92,36.29,36.29,0,0,0,20.6,23.42Z"/></g><path class="a" d="M762.08,1211.43v138.33H901.7V1211.43ZM767.9,1344v-63.74a48.73,48.73,0,0,1,19.57-39l9.52-7.15,9.52,7.15a48.76,48.76,0,0,1,19.56,39V1344Zm128-56.56V1344H837.71v-63.74a48.76,48.76,0,0,1,5.16-21.78,49.4,49.4,0,0,1,14.4-17.22l9.52-7.15,9.53,7.15a49.4,49.4,0,0,1,14.4,17.22,48.76,48.76,0,0,1,5.16,21.78Zm-16-50.78-13-9.78-13,9.78a54.51,54.51,0,0,0-21.87,43.6,54.51,54.51,0,0,0-21.87-43.6l-13-9.78-13,9.78a54.83,54.83,0,0,0-16.05,19.16v-38.63h128v38.63A54.73,54.73,0,0,0,879.83,1236.66Z"/><g class="b"><path class="c" d="M984.59,1241.6a39,39,0,1,0,39.36,39A39.18,39.18,0,0,0,984.59,1241.6Zm0,72.23a33.24,33.24,0,1,1,33.54-33.24A33.42,33.42,0,0,1,984.59,1313.83Z"/><path class="c" d="M984.59,1259.26a21.34,21.34,0,1,0,21.53,21.33A21.43,21.43,0,0,0,984.59,1259.26Zm0,36.91a15.58,15.58,0,1,1,15.72-15.58A15.67,15.67,0,0,1,984.59,1296.17Z"/><path class="c" d="M997.9,1211.43H914.78v138.33h139.61V1211.43Zm50.68,5.76v44.14a30.41,30.41,0,0,1-15-18.57,14.47,14.47,0,0,0-9.52-9.85,30.62,30.62,0,0,1-18.09-15.72Zm-128,0h44.54a30.56,30.56,0,0,1-18.74,14.86,14.51,14.51,0,0,0-9.94,9.43,30.5,30.5,0,0,1-15.86,17.93Zm0,126.81v-44.14a30.4,30.4,0,0,1,15,18.57,14.49,14.49,0,0,0,9.52,9.85,30.64,30.64,0,0,1,18.1,15.72Zm128,0H1004a30.58,30.58,0,0,1,18.74-14.86,14.49,14.49,0,0,0,9.94-9.43,30.55,30.55,0,0,1,15.87-17.93Zm0-48.5a36.37,36.37,0,0,0-21.4,22.42,8.69,8.69,0,0,1-6,5.67A36.39,36.39,0,0,0,997.58,1344h-28a36.41,36.41,0,0,0-22.63-21.2,8.67,8.67,0,0,1-5.72-5.91,36.3,36.3,0,0,0-20.6-23.43v-27.77A36.35,36.35,0,0,0,942,1243.27a8.71,8.71,0,0,1,6-5.67,36.43,36.43,0,0,0,23.64-20.41h28a36.4,36.4,0,0,0,22.62,21.2,8.69,8.69,0,0,1,5.73,5.91,36.3,36.3,0,0,0,20.6,23.43Z"/></g><g class="b"><path class="c" d="M748.56,1211.43H609.39v.44h0v137.89H749V1211.43Zm-5.37,120-24.37-48h24.37ZM682.11,1344v-24.19L731.55,1344Zm-66.9-114.27,24.36,48H615.21Zm61.08-12.54v24.19l-49.45-24.19Zm5.82,30.6L733.89,1222l-51.78,51.63Zm-5.82,25.88-52.21-51.4,52.21,25.53Zm-4.15,4h-26L620,1226.41Zm.07,5.77-51.88,51.73,25.77-51.73Zm4.08,4.11v25.81l-51.78,25.82Zm5.82-.07,52.21,51.4-52.21-25.54Zm4.14-4h26.06l26.05,51.3Zm-.07-5.77L738.06,1226l-25.77,51.73Zm-4.07-36.38v-24.14h48.42Zm-66.9,42.15h24.41l-24.41,49Zm61.08,36.38V1344H627.87Zm66.9-42.15H718.78l24.41-49Z"/></g><g class="b"><path class="c" d="M1220.15,1211.43v138.33h139.61V1211.43ZM1226,1344v-63.74a48.76,48.76,0,0,1,19.56-39l9.52-7.15,9.53,7.15a49.4,49.4,0,0,1,14.4,17.22,48.9,48.9,0,0,1,5.16,21.78V1344Zm128-56.56V1344h-58.18v-63.74a48.73,48.73,0,0,1,19.57-39l9.52-7.15,9.52,7.15a48.73,48.73,0,0,1,19.57,39Zm-16-50.78-13-9.78-13,9.78a54.53,54.53,0,0,0-21.86,43.6,54.54,54.54,0,0,0-21.87-43.6l-13-9.78-13,9.78a54.73,54.73,0,0,0-16,19.16v-38.63h128v38.63A54.94,54.94,0,0,0,1337.9,1236.66Z"/></g><g class="b"><path class="c" d="M1205.86,1211.43H1066.69v.44h0v137.89H1206.3V1211.43Zm-5.38,120-24.36-48h24.36ZM1139.4,1344v-24.19l49.45,24.19Zm-66.89-114.27,24.36,48h-24.36Zm61.08-12.54v24.19l-49.45-24.19Zm5.81,30.6,51.78-25.82-51.78,51.63Zm-5.81,25.88-52.21-51.4,52.21,25.53Zm-4.15,4h-26.06l-26.05-51.3Zm.07,5.77-51.88,51.73,25.77-51.73Zm4.08,4.11v25.81l-51.78,25.82Zm5.81-.07,52.21,51.4-52.21-25.54Zm4.15-4h26.06l26.05,51.3Zm-.07-5.77,51.88-51.73-25.77,51.73Zm-4.08-36.38v-24.14h48.43Zm-66.89,42.15h24.41l-24.41,49Zm61.08,36.38V1344h-48.42Zm66.89-42.15h-24.4l24.4-49Z"/></g><path class="d" d="M679.2,1392.9a39,39,0,1,0,39.36,39A39.18,39.18,0,0,0,679.2,1392.9Zm0,72.23a33.24,33.24,0,1,1,33.54-33.23A33.42,33.42,0,0,1,679.2,1465.13Z"/><path class="d" d="M679.2,1410.56a21.34,21.34,0,1,0,21.53,21.34A21.44,21.44,0,0,0,679.2,1410.56Zm0,36.91a15.58,15.58,0,1,1,15.72-15.57A15.66,15.66,0,0,1,679.2,1447.47Z"/><path class="d" d="M692.51,1362.73H609.39v138.34H749V1362.73Zm50.68,5.76v44.14a30.38,30.38,0,0,1-15-18.57,14.49,14.49,0,0,0-9.52-9.85,30.59,30.59,0,0,1-18.09-15.72Zm-128,0h44.54A30.56,30.56,0,0,1,641,1383.35a14.51,14.51,0,0,0-9.94,9.44,30.51,30.51,0,0,1-15.86,17.92Zm0,126.81v-44.14a30.42,30.42,0,0,1,15,18.58,14.47,14.47,0,0,0,9.52,9.84,30.64,30.64,0,0,1,18.1,15.72Zm128,0H698.64a30.65,30.65,0,0,1,18.74-14.86,14.47,14.47,0,0,0,9.94-9.43,30.55,30.55,0,0,1,15.87-17.93Zm0-48.5a36.37,36.37,0,0,0-21.4,22.42,8.67,8.67,0,0,1-6,5.67,36.41,36.41,0,0,0-23.63,20.41h-28a36.4,36.4,0,0,0-22.63-21.19,8.69,8.69,0,0,1-5.72-5.92,36.29,36.29,0,0,0-20.6-23.42V1417a36.35,36.35,0,0,0,21.39-22.42,8.67,8.67,0,0,1,6-5.67,36.47,36.47,0,0,0,23.64-20.42h28a36.4,36.4,0,0,0,22.62,21.2,8.7,8.7,0,0,1,5.73,5.92,36.31,36.31,0,0,0,20.6,23.42Z"/><g class="b"><path class="c" d="M914.78,1362.73v138.34h139.61V1362.73Zm5.82,132.57v-63.74a48.76,48.76,0,0,1,19.56-39l9.52-7.15,9.53,7.15a49.4,49.4,0,0,1,14.4,17.22,48.76,48.76,0,0,1,5.16,21.78v63.74Zm128-56.56v56.56H990.4v-63.74a48.73,48.73,0,0,1,19.57-39l9.52-7.15,9.52,7.15a48.73,48.73,0,0,1,19.57,39Zm-16-50.77-13-9.79-13,9.79a54.49,54.49,0,0,0-21.87,43.59A54.52,54.52,0,0,0,962.72,1388l-13-9.79-13,9.79a54.69,54.69,0,0,0-16,19.15v-38.63h128v38.63A54.91,54.91,0,0,0,1032.53,1388Z"/></g><g class="b"><path class="c" d="M1359.32,1362.73H1220.15v.44h0v137.9h139.61V1362.73Zm-5.37,120-24.37-48H1354Zm-61.08,12.54v-24.19l49.44,24.19ZM1226,1381l24.36,48H1226Zm61.08-12.55v24.19l-49.45-24.19Zm5.82,30.6,51.78-25.82-51.78,51.64Zm-5.82,25.88-52.21-51.4,52.21,25.54Zm-4.15,4h-26.06l-26-51.31Zm.07,5.76-51.88,51.73,25.77-51.73Zm4.08,4.11v25.82l-51.78,25.81Zm5.82-.07,52.21,51.4-52.21-25.53Zm4.14-4h26.06l26,51.31Zm-.07-5.76,51.88-51.74L1323.05,1429Zm-4.07-36.38v-24.15h48.42Zm-66.9,42.14h24.41l-24.41,49Zm61.08,36.38v24.14h-48.42ZM1354,1429h-24.41l24.41-49Z"/></g><g class="b"><path class="c" d="M69.81,31.05a39,39,0,1,0,39.36,39A39.18,39.18,0,0,0,69.81,31.05Zm0,72.24a33.24,33.24,0,1,1,33.54-33.24A33.43,33.43,0,0,1,69.81,103.29Z"/><path class="c" d="M69.81,48.71A21.34,21.34,0,1,0,91.34,70.05,21.44,21.44,0,0,0,69.81,48.71Zm0,36.92A15.58,15.58,0,1,1,85.53,70.05,15.67,15.67,0,0,1,69.81,85.63Z"/><path class="c" d="M83.12.88H0V139.22H139.61V.88ZM133.8,6.65V50.78a30.38,30.38,0,0,1-15-18.57,14.49,14.49,0,0,0-9.52-9.85A30.57,30.57,0,0,1,91.19,6.65Zm-128,0H50.36A30.62,30.62,0,0,1,31.62,21.51a14.47,14.47,0,0,0-9.94,9.43A30.5,30.5,0,0,1,5.82,48.87Zm0,126.8V89.32a30.4,30.4,0,0,1,15,18.57,14.49,14.49,0,0,0,9.52,9.85,30.65,30.65,0,0,1,18.1,15.71Zm128,0H89.25A30.65,30.65,0,0,1,108,118.59a14.45,14.45,0,0,0,9.94-9.43A30.55,30.55,0,0,1,133.8,91.23Zm0-48.5a36.37,36.37,0,0,0-21.4,22.42,8.67,8.67,0,0,1-6,5.67,36.48,36.48,0,0,0-23.64,20.41h-28a36.45,36.45,0,0,0-22.63-21.19,8.69,8.69,0,0,1-5.72-5.92A36.34,36.34,0,0,0,5.82,82.92V55.15A36.38,36.38,0,0,0,27.21,32.73a8.69,8.69,0,0,1,6-5.67A36.48,36.48,0,0,0,56.82,6.65h28a36.38,36.38,0,0,0,22.62,21.19,8.7,8.7,0,0,1,5.73,5.92,36.31,36.31,0,0,0,20.6,23.42Z"/></g><g class="b"><path class="c" d="M291.87.88H152.7v.44h0v137.9H292.31V.88Zm-5.37,120-24.37-48H286.5Zm-61.08,12.54V109.27l49.44,24.18ZM158.52,19.19l24.36,48H158.52ZM219.6,6.65V30.83L170.15,6.65Zm5.82,30.59L277.2,11.42,225.42,63.06ZM219.6,63.13,167.39,11.72,219.6,37.26Zm-4.15,4h-26L163.34,15.86Zm.07,5.76-51.88,51.73,25.77-51.73ZM219.6,77v25.82l-51.78,25.82Zm5.82-.07,52.21,51.41-52.21-25.54Zm4.14-4h26.06l26.05,51.31Zm-.06-5.76,51.87-51.73L255.6,67.17Zm-4.08-36.38V6.65h48.42Zm-66.9,42.14h24.41l-24.41,49Zm61.08,36.38v24.14H171.18Zm66.9-42.14H262.09l24.41-49Z"/></g><g class="b"><path class="c" d="M0,152.18V290.52H139.61V152.18ZM5.82,284.76V221a48.76,48.76,0,0,1,19.56-39l9.52-7.15L44.43,182a49.31,49.31,0,0,1,14.4,17.22A48.76,48.76,0,0,1,64,221v63.74Zm128-56.56v56.56H75.62V221a48.73,48.73,0,0,1,19.57-39l9.52-7.15,9.52,7.15a48.73,48.73,0,0,1,19.57,39Zm-16.05-50.78-13-9.78-13,9.78A54.51,54.51,0,0,0,69.81,221a54.54,54.54,0,0,0-21.87-43.6l-13-9.78-13,9.78a54.73,54.73,0,0,0-16,19.16V158h128v38.63A54.94,54.94,0,0,0,117.75,177.42Z"/></g><path class="d" d="M139.17,303.49H0v.44H0V441.82H139.61V303.49Zm-5.37,120-24.37-48H133.8ZM72.72,436.06V411.87l49.44,24.19ZM5.82,321.8l24.36,48H5.82ZM66.9,309.25v24.19L17.45,309.25Zm5.82,30.6L124.5,314,72.72,365.66ZM66.9,365.73l-52.21-51.4L66.9,339.87Zm-4.15,4H36.69l-26-51.3Zm.07,5.77L10.94,427.27l25.77-51.73Zm4.08,4.11v25.81L15.12,431.28Zm5.82-.07L124.93,431,72.72,405.44Zm4.14-4h26.06L129,426.84Zm-.07-5.77L128.67,318,102.9,369.77Zm-4.07-36.38V309.25h48.42ZM5.82,375.54H30.23l-24.41,49ZM66.9,411.92v24.14H18.48Zm66.9-42.15H109.39l24.41-49Z"/><g class="b"><path class="c" d="M69.81,485a39,39,0,1,0,39.36,39A39.18,39.18,0,0,0,69.81,485Zm0,72.23A33.24,33.24,0,1,1,103.35,524,33.43,33.43,0,0,1,69.81,557.19Z"/><path class="c" d="M69.81,502.62A21.34,21.34,0,1,0,91.34,524,21.44,21.44,0,0,0,69.81,502.62Zm0,36.91A15.58,15.58,0,1,1,85.53,524,15.66,15.66,0,0,1,69.81,539.53Z"/><path class="c" d="M83.12,454.79H0V593.13H139.61V454.79Zm50.68,5.76v44.14a30.38,30.38,0,0,1-15-18.57,14.49,14.49,0,0,0-9.52-9.85,30.59,30.59,0,0,1-18.09-15.72Zm-128,0H50.36a30.56,30.56,0,0,1-18.74,14.86,14.51,14.51,0,0,0-9.94,9.44A30.51,30.51,0,0,1,5.82,502.77Zm0,126.81V543.22a30.44,30.44,0,0,1,15,18.58,14.49,14.49,0,0,0,9.52,9.85,30.62,30.62,0,0,1,18.1,15.71Zm128,0H89.25A30.65,30.65,0,0,1,108,572.5a14.47,14.47,0,0,0,9.94-9.43,30.55,30.55,0,0,1,15.87-17.93Zm0-48.5a36.37,36.37,0,0,0-21.4,22.42,8.67,8.67,0,0,1-6,5.67,36.45,36.45,0,0,0-23.64,20.41h-28a36.42,36.42,0,0,0-22.63-21.19,8.69,8.69,0,0,1-5.72-5.92,36.31,36.31,0,0,0-20.6-23.42V509.06a36.38,36.38,0,0,0,21.39-22.42,8.69,8.69,0,0,1,6-5.67,36.47,36.47,0,0,0,23.64-20.42h28a36.4,36.4,0,0,0,22.62,21.2,8.7,8.7,0,0,1,5.73,5.92,36.31,36.31,0,0,0,20.6,23.42Z"/></g><g class="b"><path class="c" d="M291.87,454.79H152.7v.44h0v137.9H292.31V454.79Zm-5.37,120-24.37-48H286.5Zm-61.08,12.54V563.18l49.44,24.18ZM158.52,473.1l24.36,48H158.52Zm61.08-12.55v24.19l-49.45-24.19Zm5.82,30.6,51.78-25.82L225.42,517ZM219.6,517l-52.21-51.4,52.21,25.54Zm-4.15,4.05h-26l-26.06-51.31Zm.07,5.76-51.88,51.73,25.77-51.73ZM219.6,531v25.82l-51.78,25.81Zm5.82-.07,52.21,51.41-52.21-25.54Zm4.14-4h26.06l26.05,51.31Zm-.06-5.76,51.87-51.74L255.6,521.08Zm-4.08-36.38V460.55h48.42Zm-66.9,42.14h24.41l-24.41,49Zm61.08,36.38v24.14H171.18Zm66.9-42.14H262.09l24.41-49Z"/></g><g class="b"><path class="c" d="M0,606.09V744.43H139.61V606.09ZM5.82,738.67V674.92a48.8,48.8,0,0,1,19.56-39l9.52-7.14,9.53,7.14a49.43,49.43,0,0,1,14.4,17.23A48.75,48.75,0,0,1,64,674.92v63.75Zm128-56.56v56.56H75.62V674.92a48.77,48.77,0,0,1,19.57-39l9.52-7.14,9.52,7.14a48.77,48.77,0,0,1,19.57,39Zm-16.05-50.78-13-9.78-13,9.78a54.5,54.5,0,0,0-21.87,43.59,54.53,54.53,0,0,0-21.87-43.59l-13-9.78-13,9.78a54.73,54.73,0,0,0-16,19.16V611.86h128v38.63A54.94,54.94,0,0,0,117.75,631.33Z"/></g><g class="b"><path class="c" d="M222.51,636.26a39,39,0,1,0,39.36,39A39.18,39.18,0,0,0,222.51,636.26Zm0,72.24a33.24,33.24,0,1,1,33.54-33.24A33.42,33.42,0,0,1,222.51,708.5Z"/><path class="c" d="M222.51,653.92A21.34,21.34,0,1,0,244,675.26,21.44,21.44,0,0,0,222.51,653.92Zm0,36.92a15.58,15.58,0,1,1,15.72-15.58A15.67,15.67,0,0,1,222.51,690.84Z"/><path class="c" d="M235.82,606.09H152.7V744.43H292.31V606.09Zm50.68,5.77V656a30.38,30.38,0,0,1-15-18.57,14.49,14.49,0,0,0-9.52-9.85,30.57,30.57,0,0,1-18.09-15.71Zm-128,0h44.54a30.62,30.62,0,0,1-18.74,14.86,14.49,14.49,0,0,0-9.94,9.43,30.5,30.5,0,0,1-15.86,17.93Zm0,126.81V694.53a30.4,30.4,0,0,1,15,18.57A14.51,14.51,0,0,0,183,723a30.61,30.61,0,0,1,18.1,15.72Zm128,0H242a30.58,30.58,0,0,1,18.74-14.86,14.49,14.49,0,0,0,9.94-9.44,30.56,30.56,0,0,1,15.87-17.92Zm0-48.51a36.37,36.37,0,0,0-21.4,22.42,8.67,8.67,0,0,1-6,5.67,36.43,36.43,0,0,0-23.63,20.42h-28a36.41,36.41,0,0,0-22.63-21.2,8.69,8.69,0,0,1-5.72-5.92,36.31,36.31,0,0,0-20.6-23.42V660.36a36.35,36.35,0,0,0,21.39-22.42,8.69,8.69,0,0,1,6-5.67,36.48,36.48,0,0,0,23.64-20.41h28a36.38,36.38,0,0,0,22.62,21.19A8.7,8.7,0,0,1,265.9,639a36.31,36.31,0,0,0,20.6,23.42Z"/></g><g class="b"><path class="c" d="M1441.29,787.69a39,39,0,1,0,39.36,39A39.18,39.18,0,0,0,1441.29,787.69Zm0,72.23a33.24,33.24,0,1,1,33.54-33.23A33.42,33.42,0,0,1,1441.29,859.92Z"/><path class="c" d="M1441.29,805.35a21.34,21.34,0,1,0,21.53,21.34A21.44,21.44,0,0,0,1441.29,805.35Zm0,36.91A15.58,15.58,0,1,1,1457,826.69,15.67,15.67,0,0,1,1441.29,842.26Z"/><path class="c" d="M1454.6,757.52h-83.12V895.85h139.61V757.52Zm50.68,5.76v44.14a30.38,30.38,0,0,1-15-18.57,14.49,14.49,0,0,0-9.52-9.85,30.62,30.62,0,0,1-18.09-15.72Zm-128,0h44.54a30.56,30.56,0,0,1-18.74,14.86,14.51,14.51,0,0,0-9.94,9.43,30.5,30.5,0,0,1-15.86,17.93Zm0,126.81V846a30.42,30.42,0,0,1,15,18.57,14.47,14.47,0,0,0,9.52,9.85,30.61,30.61,0,0,1,18.1,15.72Zm128,0h-44.55a30.58,30.58,0,0,1,18.74-14.86,14.47,14.47,0,0,0,9.94-9.43,30.55,30.55,0,0,1,15.87-17.93Zm0-48.5A36.33,36.33,0,0,0,1483.89,864a8.7,8.7,0,0,1-6,5.67,36.39,36.39,0,0,0-23.63,20.41h-28a36.44,36.44,0,0,0-22.63-21.2,8.65,8.65,0,0,1-5.72-5.91,36.26,36.26,0,0,0-20.6-23.42V811.78a36.33,36.33,0,0,0,21.39-22.42,8.71,8.71,0,0,1,6-5.67,36.43,36.43,0,0,0,23.64-20.41h28a36.4,36.4,0,0,0,22.62,21.2,8.68,8.68,0,0,1,5.73,5.92,36.31,36.31,0,0,0,20.6,23.42Z"/></g><g class="b"><path class="c" d="M1663.35,757.52H1524.18V758h0V895.85h139.61V757.52Zm-5.37,120-24.37-48H1658Zm-61.08,12.54V865.9l49.44,24.19ZM1530,775.83l24.36,48H1530Zm61.08-12.55v24.19l-49.45-24.19Zm5.82,30.6,51.78-25.82-51.78,51.63Zm-5.82,25.88-52.21-51.4,52.21,25.54Zm-4.15,4h-26l-26.06-51.3Zm.07,5.77-51.88,51.73,25.77-51.73Zm4.08,4.11v25.81l-51.78,25.82Zm5.82-.07,52.21,51.4-52.21-25.53Zm4.15-4h26l26.06,51.3Zm-.07-5.77,51.87-51.73-25.77,51.73Zm-4.08-36.38V763.28h48.42ZM1530,829.57h24.41l-24.41,49ZM1591.08,866v24.14h-48.42ZM1658,823.8h-24.41l24.41-49Z"/></g><g class="b"><path class="c" d="M1594,939a39,39,0,1,0,39.36,39A39.18,39.18,0,0,0,1594,939Zm0,72.23A33.24,33.24,0,1,1,1627.53,978,33.42,33.42,0,0,1,1594,1011.22Z"/><path class="c" d="M1594,956.65A21.34,21.34,0,1,0,1615.52,978,21.44,21.44,0,0,0,1594,956.65Zm0,36.91A15.58,15.58,0,1,1,1609.71,978,15.66,15.66,0,0,1,1594,993.56Z"/><path class="c" d="M1607.3,908.82h-83.12v138.34h139.61V908.82Zm50.68,5.77v44.13a30.41,30.41,0,0,1-15-18.57,14.49,14.49,0,0,0-9.52-9.85,30.6,30.6,0,0,1-18.09-15.71Zm-128,0h44.54a30.57,30.57,0,0,1-18.74,14.85,14.51,14.51,0,0,0-9.94,9.44A30.5,30.5,0,0,1,1530,956.81Zm0,126.8V997.26a30.4,30.4,0,0,1,15,18.57,14.51,14.51,0,0,0,9.52,9.85,30.56,30.56,0,0,1,18.1,15.71Zm128,0h-44.55a30.64,30.64,0,0,1,18.75-14.86,14.48,14.48,0,0,0,9.93-9.43A30.55,30.55,0,0,1,1658,999.17Zm0-48.5a36.33,36.33,0,0,0-21.39,22.42,8.7,8.7,0,0,1-6,5.67,36.44,36.44,0,0,0-23.63,20.41h-28a36.4,36.4,0,0,0-22.63-21.19,8.69,8.69,0,0,1-5.72-5.92,36.31,36.31,0,0,0-20.6-23.42V963.09a36.35,36.35,0,0,0,21.39-22.42,8.69,8.69,0,0,1,6-5.67A36.48,36.48,0,0,0,1581,914.59h28a36.41,36.41,0,0,0,22.62,21.19,8.7,8.7,0,0,1,5.73,5.92,36.31,36.31,0,0,0,20.6,23.42Z"/></g><path class="d" d="M1510.65,1060.12H1371.48v.45h0v137.89h139.61V1060.12Zm-5.37,120-24.37-48h24.37Zm-61.08,12.55v-24.19l49.44,24.19Zm-66.9-114.27,24.36,48H1377.3Zm61.08-12.54v24.18l-49.45-24.18Zm5.82,30.59,51.78-25.81-51.78,51.63Zm-5.82,25.89L1386.17,1071l52.21,25.54Zm-4.15,4h-26l-26.06-51.31Zm.07,5.76-51.88,51.74,25.77-51.74Zm4.08,4.11v25.82l-51.78,25.82Zm5.82-.06,52.21,51.4-52.21-25.54Zm4.14-4h26.06l26,51.31Zm-.06-5.76,51.87-51.73-25.77,51.73ZM1444.2,1090v-24.14h48.42Zm-66.9,42.14h24.41l-24.41,49Zm61.08,36.38v24.15H1390Zm66.9-42.14h-24.41l24.41-49Z"/><g class="b"><path class="c" d="M1441.29,1241.6a39,39,0,1,0,39.36,39A39.18,39.18,0,0,0,1441.29,1241.6Zm0,72.23a33.24,33.24,0,1,1,33.54-33.24A33.42,33.42,0,0,1,1441.29,1313.83Z"/><path class="c" d="M1441.29,1259.26a21.34,21.34,0,1,0,21.53,21.33A21.43,21.43,0,0,0,1441.29,1259.26Zm0,36.91a15.58,15.58,0,1,1,15.72-15.58A15.67,15.67,0,0,1,1441.29,1296.17Z"/><path class="c" d="M1454.6,1211.43h-83.12v138.33h139.61V1211.43Zm50.68,5.76v44.14a30.41,30.41,0,0,1-15-18.57,14.47,14.47,0,0,0-9.52-9.85,30.62,30.62,0,0,1-18.09-15.72Zm-128,0h44.54a30.56,30.56,0,0,1-18.74,14.86,14.51,14.51,0,0,0-9.94,9.43,30.5,30.5,0,0,1-15.86,17.93Zm0,126.81v-44.14a30.4,30.4,0,0,1,15,18.57,14.49,14.49,0,0,0,9.52,9.85,30.61,30.61,0,0,1,18.1,15.72Zm128,0h-44.55a30.58,30.58,0,0,1,18.74-14.86,14.49,14.49,0,0,0,9.94-9.43,30.55,30.55,0,0,1,15.87-17.93Zm0-48.5a36.33,36.33,0,0,0-21.39,22.42,8.72,8.72,0,0,1-6,5.67,36.39,36.39,0,0,0-23.63,20.41h-28a36.41,36.41,0,0,0-22.63-21.2,8.67,8.67,0,0,1-5.72-5.91,36.3,36.3,0,0,0-20.6-23.43v-27.77a36.35,36.35,0,0,0,21.39-22.42,8.71,8.71,0,0,1,6-5.67,36.43,36.43,0,0,0,23.64-20.41h28a36.4,36.4,0,0,0,22.62,21.2,8.69,8.69,0,0,1,5.73,5.91,36.3,36.3,0,0,0,20.6,23.43Z"/></g><g class="b"><path class="c" d="M1371.48,1362.73v138.34h139.61V1362.73Zm5.82,132.57v-63.74a48.76,48.76,0,0,1,19.56-39l9.52-7.15,9.53,7.15a49.4,49.4,0,0,1,14.4,17.22,48.76,48.76,0,0,1,5.16,21.78v63.74Zm128-56.56v56.56H1447.1v-63.74a48.81,48.81,0,0,1,19.57-39l9.52-7.15,9.52,7.15a48.73,48.73,0,0,1,19.57,39Zm-16-50.77-13-9.79-13,9.79a54.49,54.49,0,0,0-21.87,43.59,54.52,54.52,0,0,0-21.87-43.59l-13-9.79-13,9.79a54.69,54.69,0,0,0-16,19.15v-38.63h128v38.63A54.91,54.91,0,0,0,1489.23,1388Z"/></g><path class="a" d="M1594,1392.9a39,39,0,1,0,39.36,39A39.18,39.18,0,0,0,1594,1392.9Zm0,72.23a33.24,33.24,0,1,1,33.54-33.23A33.42,33.42,0,0,1,1594,1465.13Z"/><path class="a" d="M1594,1410.56a21.34,21.34,0,1,0,21.53,21.34A21.44,21.44,0,0,0,1594,1410.56Zm0,36.91a15.58,15.58,0,1,1,15.72-15.57A15.66,15.66,0,0,1,1594,1447.47Z"/><path class="a" d="M1607.3,1362.73h-83.12v138.34h139.61V1362.73Zm50.68,5.76v44.14a30.41,30.41,0,0,1-15-18.57,14.49,14.49,0,0,0-9.52-9.85,30.59,30.59,0,0,1-18.09-15.72Zm-128,0h44.54a30.56,30.56,0,0,1-18.74,14.86,14.51,14.51,0,0,0-9.94,9.44,30.51,30.51,0,0,1-15.86,17.92Zm0,126.81v-44.14a30.42,30.42,0,0,1,15,18.58,14.47,14.47,0,0,0,9.52,9.84,30.61,30.61,0,0,1,18.1,15.72Zm128,0h-44.55a30.64,30.64,0,0,1,18.75-14.86,14.48,14.48,0,0,0,9.93-9.43,30.55,30.55,0,0,1,15.87-17.93Zm0-48.5a36.33,36.33,0,0,0-21.39,22.42,8.7,8.7,0,0,1-6,5.67A36.41,36.41,0,0,0,1607,1495.3h-28a36.4,36.4,0,0,0-22.63-21.19,8.69,8.69,0,0,1-5.72-5.92,36.26,36.26,0,0,0-20.6-23.42V1417a36.35,36.35,0,0,0,21.39-22.42,8.67,8.67,0,0,1,6-5.67,36.47,36.47,0,0,0,23.64-20.42h28a36.4,36.4,0,0,0,22.62,21.2,8.7,8.7,0,0,1,5.73,5.92A36.31,36.31,0,0,0,1658,1419Z"/></svg>