<svg id="Camada_1" data-name="Camada 1" xmlns="http://www.w3.org/2000/svg" viewBox="0 0 1002.89 444.19"><defs><style>.cls-1{fill:#ffb01f;}.cls-2{fill:#181d63;}</style></defs><path class="cls-1" d="M213.12,128.11A96.85,96.85,0,1,0,310,225,96.84,96.84,0,0,0,213.12,128.11Zm0,179.37A82.53,82.53,0,1,1,295.65,225,82.62,82.62,0,0,1,213.12,307.48Z"/><path class="cls-1" d="M213.12,172a53,53,0,1,0,53,53A53,53,0,0,0,213.12,172Zm0,91.67A38.68,38.68,0,1,1,251.8,225,38.72,38.72,0,0,1,213.12,263.63Z"/><path class="cls-1" d="M245.88,53.19H41.36V396.71H384.88V53.19ZM370.57,67.51v109.6A75.41,75.41,0,0,1,333.67,131a35.81,35.81,0,0,0-23.42-24.45,75.56,75.56,0,0,1-44.52-39Zm-314.89,0h109.6a75.41,75.41,0,0,1-46.12,36.9A35.8,35.8,0,0,0,94.7,127.83a75.52,75.52,0,0,1-39,44.52Zm0,314.89V272.8a75.41,75.41,0,0,1,36.89,46.11A35.82,35.82,0,0,0,116,343.37a75.56,75.56,0,0,1,44.52,39Zm314.89,0H261a75.43,75.43,0,0,1,46.12-36.9,35.78,35.78,0,0,0,24.46-23.42,75.53,75.53,0,0,1,39-44.52Zm0-120.44a89.94,89.94,0,0,0-52.64,55.67,21.48,21.48,0,0,1-14.69,14.08,89.91,89.91,0,0,0-58.16,50.69h-69a89.91,89.91,0,0,0-55.68-52.63,21.5,21.5,0,0,1-14.08-14.7,89.89,89.89,0,0,0-50.68-58.16V188a90,90,0,0,0,52.63-55.67A21.49,21.49,0,0,1,123,118.19a89.89,89.89,0,0,0,58.16-50.68h69a89.9,89.9,0,0,0,55.67,52.63,21.48,21.48,0,0,1,14.08,14.7A89.93,89.93,0,0,0,370.57,193Z"/><path class="cls-2" d="M465.51,52.87V293.52H409.9V52.87Z"/><path class="cls-2" d="M509.9,84.57a27.91,27.91,0,0,1-9.27-21.3,28.27,28.27,0,0,1,9.27-21.62Q519.16,33,533.8,33q14.31,0,23.58,8.62a28.27,28.27,0,0,1,9.27,21.62,27.91,27.91,0,0,1-9.27,21.3q-9.27,8.63-23.58,8.62Q519.16,93.19,509.9,84.57Zm51.54,27.48V293.52H505.83V112.05Z"/><path class="cls-2" d="M633.31,288q-18.54-8.12-29.27-22.27A58.68,58.68,0,0,1,592,234h55a21.12,21.12,0,0,0,8.78,15.28q7.82,5.86,19.19,5.86,10.41,0,16.1-4.07a12.45,12.45,0,0,0,5.69-10.57q0-7.8-8.13-11.54t-26.34-8.3a246,246,0,0,1-32.52-9.59,56.1,56.1,0,0,1-22.44-15.93q-9.43-10.9-9.43-29.44a50,50,0,0,1,8.61-28.45q8.63-12.84,25.37-20.33t39.84-7.48q34.14,0,53.82,16.91t22.6,44.88H696.73a22.18,22.18,0,0,0-8.29-15q-7-5.52-18.38-5.53-9.75,0-15,3.74a12,12,0,0,0-5.2,10.25q0,7.8,8.29,11.71t25.86,7.8a282.66,282.66,0,0,1,32.84,10.25,56.66,56.66,0,0,1,22.28,16.26q9.58,11.22,9.92,30.08a47.67,47.67,0,0,1-9,28.45Q731.2,281.81,714.45,289t-38.86,7.15Q651.85,296.12,633.31,288Z"/><path class="cls-2" d="M782.75,153.36q10.56-21.13,28.78-32.53a75.2,75.2,0,0,1,40.65-11.38q19.19,0,33.66,7.81a57.45,57.45,0,0,1,22.27,20.49v-25.7h55.61V293.52H908.11V267.83a60.05,60.05,0,0,1-22.6,20.49q-14.47,7.8-33.66,7.8a73.74,73.74,0,0,1-40.32-11.54Q793.31,273,782.75,251.73t-10.57-49.27Q772.18,174.5,782.75,153.36Zm113.82,16.58a39.08,39.08,0,0,0-56.26-.16q-11.55,11.88-11.55,32.68t11.55,33a38.7,38.7,0,0,0,56.26.16q11.53-12,11.54-32.84T896.57,169.94Z"/><path class="cls-2" d="M411.69,326h15.5v2.9H415.11v8.43H425.3v2.9H415.11V350H427.6v2.89H411.69Z"/><path class="cls-2" d="M430.77,350.61l1.66-2.22a9,9,0,0,0,5.88,2.36c2.62,0,3.91-1.4,3.91-3.1,0-2-2.35-2.95-4.55-3.77-2.79-1-5.94-2.4-5.94-5.76,0-3.18,2.55-5.65,6.87-5.65a10,10,0,0,1,6.19,2.24l-1.61,2.16a7.46,7.46,0,0,0-4.54-1.78c-2.51,0-3.67,1.34-3.67,2.86,0,1.9,2.17,2.62,4.42,3.46,2.88,1.08,6.08,2.25,6.08,6,0,3.23-2.57,5.92-7.27,5.92A12,12,0,0,1,430.77,350.61Z"/><path class="cls-2" d="M449.92,346.72v-11h-3v-2.56l3.11-.19.41-5.59h2.81V333h5.4v2.75h-5.4v11.07c0,2.44.79,3.85,3.08,3.85a6.61,6.61,0,0,0,2.27-.54l.65,2.55a12,12,0,0,1-3.69.73C451.36,353.37,449.92,350.69,449.92,346.72Z"/><path class="cls-2" d="M462.91,345.58V333h3.38v12.19c0,3.71,1.12,5.3,3.75,5.3,2,0,3.45-1,5.34-3.36V333h3.37v19.92H476l-.28-3.12h-.11c-1.85,2.18-3.84,3.61-6.57,3.61C464.8,353.37,462.91,350.67,462.91,345.58Z"/><path class="cls-2" d="M484.06,343c0-6.47,4.07-10.48,8.62-10.48a8.16,8.16,0,0,1,5.58,2.31l-.14-3.42v-7.68h3.37v29.2h-2.78l-.29-2.35h-.11a8.81,8.81,0,0,1-6.05,2.84C487.29,353.37,484.06,349.59,484.06,343Zm14.06,4.87V337.38a7,7,0,0,0-4.86-2.08c-3.19,0-5.72,3.08-5.72,7.62,0,4.77,2,7.62,5.47,7.62C494.85,350.54,496.45,349.64,498.12,347.82Z"/><path class="cls-2" d="M506.74,343c0-6.65,4.35-10.48,9.24-10.48s9.23,3.83,9.23,10.48-4.35,10.42-9.23,10.42S506.74,349.54,506.74,343Zm15,0c0-4.57-2.33-7.68-5.75-7.68s-5.75,3.11-5.75,7.68,2.32,7.62,5.75,7.62S521.73,347.51,521.73,343Z"/><path class="cls-2" d="M541.4,326h3.42v24h11.74v2.89H541.4Z"/><path class="cls-2" d="M559,343c0-6.65,4.35-10.48,9.23-10.48s9.23,3.83,9.23,10.48-4.35,10.42-9.23,10.42S559,349.54,559,343Zm15,0c0-4.57-2.32-7.68-5.75-7.68s-5.75,3.11-5.75,7.68,2.32,7.62,5.75,7.62S574,347.51,574,343Z"/><path class="cls-2" d="M582.72,333h2.79l.28,2.87h.11c1.9-1.86,4-3.36,6.69-3.36,4.2,0,6.08,2.71,6.08,7.79v12.62H595.3V340.69c0-3.71-1.12-5.29-3.76-5.29-2,0-3.45,1-5.45,3.06v14.42h-3.37Z"/><path class="cls-2" d="M603.63,356.71c0-1.71,1.09-3.31,2.92-4.51V352a3.69,3.69,0,0,1-1.78-3.26,4.76,4.76,0,0,1,2.19-3.7v-.17a6.92,6.92,0,0,1-2.58-5.35c0-4.35,3.44-7.09,7.48-7.09a8,8,0,0,1,2.81.49h7v2.6h-4.09a5.72,5.72,0,0,1,1.62,4.1c0,4.26-3.22,6.9-7.29,6.9a7.19,7.19,0,0,1-3-.67,2.91,2.91,0,0,0-1.27,2.35c0,1.27.82,2.16,3.49,2.16H615c4.63,0,7,1.46,7,4.76,0,3.7-3.92,6.89-10.07,6.89C607,362.05,603.63,360.14,603.63,356.71Zm15-1c0-1.85-1.4-2.48-4-2.48h-3.44a11,11,0,0,1-2.58-.3,4.16,4.16,0,0,0-2,3.35c0,2.14,2.16,3.49,5.78,3.49C616.15,359.73,618.65,357.75,618.65,355.67Zm-2.56-16.11c0-2.89-1.88-4.65-4.23-4.65s-4.23,1.73-4.23,4.65,1.93,4.74,4.23,4.74S616.09,342.46,616.09,339.56Z"/><path class="cls-2" d="M625.18,326.69a2.34,2.34,0,0,1,4.66,0,2.34,2.34,0,0,1-4.66,0Zm.62,6.27h3.37v19.92H625.8Z"/><path class="cls-2" d="M636.47,346.72v-11h-3v-2.56l3.11-.19.41-5.59h2.81V333h5.4v2.75h-5.4v11.07c0,2.44.79,3.85,3.08,3.85a6.56,6.56,0,0,0,2.27-.54l.65,2.55a11.92,11.92,0,0,1-3.69.73C637.91,353.37,636.47,350.69,636.47,346.72Z"/><path class="cls-2" d="M649.47,345.58V333h3.37v12.19c0,3.71,1.12,5.3,3.76,5.3,2,0,3.45-1,5.33-3.36V333h3.37v19.92h-2.78l-.29-3.12h-.11c-1.85,2.18-3.84,3.61-6.57,3.61C651.35,353.37,649.47,350.67,649.47,345.58Z"/><path class="cls-2" d="M670.61,343c0-6.47,4.08-10.48,8.62-10.48a8.12,8.12,0,0,1,5.58,2.31l-.14-3.42v-7.68H688v29.2h-2.78l-.29-2.35h-.11a8.81,8.81,0,0,1-6,2.84C673.84,353.37,670.61,349.59,670.61,343Zm14.06,4.87V337.38a7,7,0,0,0-4.86-2.08c-3.18,0-5.72,3.08-5.72,7.62,0,4.77,2,7.62,5.47,7.62C681.4,350.54,683,349.64,684.67,347.82Z"/><path class="cls-2" d="M694.16,326.69a2.34,2.34,0,0,1,4.66,0,2.34,2.34,0,0,1-4.66,0Zm.62,6.27h3.37v19.92h-3.37Z"/><path class="cls-2" d="M704.86,333h2.78l.29,2.87H708c1.9-1.86,4-3.36,6.68-3.36,4.2,0,6.09,2.71,6.09,7.79v12.62h-3.37V340.69c0-3.71-1.13-5.29-3.76-5.29-2,0-3.45,1-5.45,3.06v14.42h-3.37Z"/><path class="cls-2" d="M726.05,347.71c0-4.34,3.74-6.51,12.23-7.43,0-2.57-.86-5-4.11-5a11,11,0,0,0-5.94,2.14l-1.32-2.31a14.64,14.64,0,0,1,7.82-2.6c4.87,0,6.92,3.23,6.92,8.19v12.22h-2.78l-.29-2.38h-.11a10.59,10.59,0,0,1-6.59,2.87C728.55,353.37,726.05,351.3,726.05,347.71Zm12.23.31v-5.53c-6.68.8-8.93,2.44-8.93,5,0,2.27,1.53,3.19,3.49,3.19S736.35,349.72,738.28,348Z"/><path class="cls-2" d="M747.94,348.88v-25.2h3.37v25.45c0,1,.45,1.44.94,1.44a3,3,0,0,0,.74-.08l.45,2.57a5.46,5.46,0,0,1-1.94.31C749,353.37,747.94,351.76,747.94,348.88Z"/><path class="cls-2" d="M767.77,343c0-6.47,4.08-10.48,8.62-10.48a8.17,8.17,0,0,1,5.59,2.31l-.15-3.42v-7.68h3.38v29.2h-2.79l-.28-2.35H782a8.79,8.79,0,0,1-6,2.84C771,353.37,767.77,349.59,767.77,343Zm14.06,4.87V337.38A7,7,0,0,0,777,335.3c-3.19,0-5.72,3.08-5.72,7.62,0,4.77,2,7.62,5.47,7.62C778.57,350.54,780.16,349.64,781.83,347.82Z"/><path class="cls-2" d="M790.46,343c0-6.49,4.37-10.48,9-10.48,5.08,0,8,3.65,8,9.35a10.33,10.33,0,0,1-.16,1.91H793.79c.25,4.22,2.83,7,6.62,7a8.77,8.77,0,0,0,5-1.59l1.21,2.21a11.74,11.74,0,0,1-6.58,2.06C794.69,353.37,790.46,349.49,790.46,343Zm13.93-1.63c0-4-1.8-6.17-4.91-6.17-2.8,0-5.31,2.25-5.72,6.17Z"/><path class="cls-2" d="M823.39,326h3.42v24h11.74v2.89H823.39Z"/><path class="cls-2" d="M842.38,326.69a2.33,2.33,0,1,1,2.33,2.17A2.2,2.2,0,0,1,842.38,326.69ZM843,333h3.37v19.92H843Z"/><path class="cls-2" d="M853.67,346.72v-11h-3v-2.56l3.12-.19.4-5.59H857V333h5.4v2.75H857v11.07c0,2.44.78,3.85,3.08,3.85a6.61,6.61,0,0,0,2.27-.54l.65,2.55a12,12,0,0,1-3.7.73C855.1,353.37,853.67,350.69,853.67,346.72Z"/><path class="cls-2" d="M864.88,343c0-6.49,4.37-10.48,9-10.48,5.08,0,7.95,3.65,7.95,9.35a11.38,11.38,0,0,1-.15,1.91H868.21c.24,4.22,2.82,7,6.62,7a8.77,8.77,0,0,0,5-1.59l1.2,2.21a11.71,11.71,0,0,1-6.57,2.06C869.1,353.37,864.88,349.49,864.88,343Zm13.92-1.63c0-4-1.79-6.17-4.91-6.17-2.8,0-5.3,2.25-5.71,6.17Z"/><path class="cls-2" d="M886.69,333h2.78l.28,3.63h.12c1.38-2.53,3.42-4.12,5.66-4.12a4.63,4.63,0,0,1,2.13.41l-.63,3a5.51,5.51,0,0,0-1.93-.33c-1.69,0-3.7,1.21-5,4.58v12.79h-3.37Z"/><path class="cls-2" d="M898.69,347.71c0-4.34,3.74-6.51,12.24-7.43,0-2.57-.86-5-4.12-5a11,11,0,0,0-5.94,2.14l-1.32-2.31a14.67,14.67,0,0,1,7.83-2.6c4.86,0,6.92,3.23,6.92,8.19v12.22h-2.79l-.28-2.38h-.11a10.59,10.59,0,0,1-6.59,2.87C901.19,353.37,898.69,351.3,898.69,347.71Zm12.24.31v-5.53c-6.68.8-8.94,2.44-8.94,5,0,2.27,1.54,3.19,3.49,3.19S909,349.72,910.93,348Z"/><path class="cls-2" d="M919.1,343c0-6.65,4.49-10.48,9.59-10.48a8.35,8.35,0,0,1,5.82,2.34L932.79,337a5.78,5.78,0,0,0-3.95-1.77c-3.61,0-6.26,3.11-6.26,7.68s2.5,7.62,6.17,7.62a7.16,7.16,0,0,0,4.67-2l1.47,2.26a9.69,9.69,0,0,1-6.45,2.53C923.14,353.37,919.1,349.54,919.1,343Z"/><path class="cls-2" d="M938.65,326.69a2.34,2.34,0,0,1,4.66,0,2.34,2.34,0,0,1-4.66,0Zm.62,6.27h3.37v19.92h-3.37Z"/><path class="cls-2" d="M948.12,347.71c0-4.34,3.74-6.51,12.23-7.43,0-2.57-.85-5-4.11-5a11,11,0,0,0-5.94,2.14L949,335.07a14.64,14.64,0,0,1,7.83-2.6c4.86,0,6.91,3.23,6.91,8.19v12.22h-2.78l-.28-2.38h-.12a10.56,10.56,0,0,1-6.58,2.87C950.62,353.37,948.12,351.3,948.12,347.71Zm12.23.31v-5.53c-6.67.8-8.93,2.44-8.93,5,0,2.27,1.54,3.19,3.49,3.19S958.42,349.72,960.35,348Z"/><path class="cls-2" d="M409.9,386c0-6.48,4.37-10.48,9-10.48,5.08,0,7.95,3.65,7.95,9.35a10.44,10.44,0,0,1-.16,1.92H413.23c.24,4.22,2.82,6.95,6.62,6.95a8.64,8.64,0,0,0,4.95-1.59L426,394.4a11.67,11.67,0,0,1-6.58,2.07C414.12,396.47,409.9,392.59,409.9,386Zm13.92-1.63c0-4-1.79-6.16-4.91-6.16-2.8,0-5.3,2.25-5.71,6.16Z"/><path class="cls-2" d="M431.7,376.06h2.79l.28,2.88h.12c1.74-1.88,3.82-3.38,6.2-3.38a5.27,5.27,0,0,1,5.5,3.8c2.06-2.24,4.14-3.8,6.57-3.8,4.09,0,6.06,2.71,6.06,7.8V396h-3.37V383.79c0-3.71-1.18-5.3-3.71-5.3-1.55,0-3.15,1-5,3.06V396h-3.37V383.79c0-3.71-1.18-5.3-3.71-5.3-1.5,0-3.15,1-5,3.06V396H431.7Z"/><path class="cls-2" d="M474.66,392.48l2-2.35a10.5,10.5,0,0,0,7.42,3.33c3.53,0,5.62-1.76,5.62-4.37s-1.94-3.62-4.48-4.73l-3.87-1.71c-2.5-1.07-5.44-3-5.44-6.92,0-4.11,3.58-7.14,8.46-7.14a11.11,11.11,0,0,1,7.92,3.33l-1.81,2.2a8.59,8.59,0,0,0-6.11-2.52c-3,0-5,1.52-5,3.92,0,2.6,2.34,3.56,4.45,4.46l3.84,1.65c3.11,1.34,5.54,3.2,5.54,7.2,0,4.25-3.52,7.64-9.17,7.64A12.9,12.9,0,0,1,474.66,392.48Z"/><path class="cls-2" d="M497,390.81c0-4.34,3.74-6.51,12.23-7.44,0-2.56-.85-5-4.11-5a10.94,10.94,0,0,0-5.94,2.14l-1.32-2.31a14.56,14.56,0,0,1,7.83-2.61c4.86,0,6.92,3.24,6.92,8.2V396h-2.79l-.28-2.38h-.12a10.54,10.54,0,0,1-6.58,2.87C499.45,396.47,497,394.4,497,390.81Zm12.23.31v-5.54c-6.67.81-8.93,2.44-8.93,5,0,2.26,1.54,3.18,3.49,3.18S507.26,392.82,509.18,391.12Z"/><path class="cls-2" d="M518.57,388.68V376.06h3.37v12.18c0,3.71,1.13,5.3,3.76,5.3,2,0,3.45-1,5.34-3.35V376.06h3.37V396h-2.79l-.28-3.12h-.11c-1.85,2.17-3.84,3.61-6.57,3.61C520.46,396.47,518.57,393.76,518.57,388.68Zm5.76-17.88,5.8-6.82,2.37,2.23-6.44,6.27Z"/><path class="cls-2" d="M539.72,386c0-6.46,4.07-10.48,8.62-10.48a8.21,8.21,0,0,1,5.58,2.31l-.14-3.41v-7.68h3.37V396h-2.79l-.28-2.35H554a8.81,8.81,0,0,1-6.05,2.84C542.94,396.47,539.72,392.68,539.72,386Zm14.06,4.87V380.47a7,7,0,0,0-4.86-2.07c-3.19,0-5.72,3.07-5.72,7.61,0,4.78,2,7.62,5.47,7.62C550.51,393.63,552.11,392.74,553.78,390.91Z"/><path class="cls-2" d="M562.4,386c0-6.48,4.37-10.48,9-10.48,5.08,0,7.95,3.65,7.95,9.35a10.44,10.44,0,0,1-.16,1.92H565.74c.24,4.22,2.82,6.95,6.61,6.95a8.64,8.64,0,0,0,5-1.59l1.21,2.21a11.67,11.67,0,0,1-6.58,2.07C566.63,396.47,562.4,392.59,562.4,386Zm13.93-1.63c0-4-1.8-6.16-4.91-6.16-2.8,0-5.3,2.25-5.71,6.16Z"/><path class="cls-2" d="M594.83,376.06h2.78l.29,2.87H598c1.9-1.87,4-3.37,6.68-3.37,4.2,0,6.08,2.71,6.08,7.8V396H607.4V383.79c0-3.71-1.12-5.3-3.76-5.3-2,0-3.44,1-5.44,3.06V396h-3.37Z"/><path class="cls-2" d="M615.77,386c0-6.64,4.34-10.48,9.23-10.48s9.23,3.84,9.23,10.48-4.35,10.43-9.23,10.43S615.77,392.64,615.77,386Zm15,0c0-4.56-2.33-7.67-5.75-7.67s-5.75,3.11-5.75,7.67,2.32,7.62,5.75,7.62S630.75,390.61,630.75,386Z"/><path class="cls-2" d="M648.66,382.55c0-8.67,5.12-14,11.94-14a10,10,0,0,1,7.4,3.32l-1.88,2.22a7.29,7.29,0,0,0-5.46-2.53c-5.08,0-8.46,4.16-8.46,10.86s3.23,11,8.33,11a8.05,8.05,0,0,0,6.23-3l1.88,2.15a10.37,10.37,0,0,1-8.25,3.88C653.69,396.47,648.66,391.29,648.66,382.55Z"/><path class="cls-2" d="M671.83,386c0-6.64,4.35-10.48,9.24-10.48s9.23,3.84,9.23,10.48-4.35,10.43-9.23,10.43S671.83,392.64,671.83,386Zm15,0c0-4.56-2.32-7.67-5.74-7.67s-5.75,3.11-5.75,7.67,2.32,7.62,5.75,7.62S686.81,390.61,686.81,386Z"/><path class="cls-2" d="M695.53,376.06h2.78l.29,2.87h.11c1.9-1.87,3.95-3.37,6.68-3.37,4.2,0,6.09,2.71,6.09,7.8V396h-3.37V383.79c0-3.71-1.13-5.3-3.76-5.3-2,0-3.45,1-5.45,3.06V396h-3.37Z"/><path class="cls-2" d="M716.47,386c0-6.64,4.49-10.48,9.58-10.48a8.36,8.36,0,0,1,5.83,2.34l-1.72,2.23a5.77,5.77,0,0,0-4-1.76c-3.6,0-6.25,3.11-6.25,7.67s2.5,7.62,6.16,7.62a7.16,7.16,0,0,0,4.68-2l1.46,2.26a9.71,9.71,0,0,1-6.44,2.53C720.51,396.47,716.47,392.64,716.47,386Z"/><path class="cls-2" d="M734.3,386c0-6.48,4.37-10.48,9-10.48,5.08,0,8,3.65,8,9.35a11.51,11.51,0,0,1-.15,1.92H737.63c.24,4.22,2.82,6.95,6.62,6.95a8.69,8.69,0,0,0,5-1.59l1.2,2.21a11.63,11.63,0,0,1-6.57,2.07C738.53,396.47,734.3,392.59,734.3,386Zm13.92-1.63c0-4-1.79-6.16-4.91-6.16-2.8,0-5.3,2.25-5.71,6.16Z"/><path class="cls-2" d="M756.11,392v-25.2h3.37v25.44c0,1,.45,1.44.94,1.44a2.9,2.9,0,0,0,.73-.08l.46,2.58a5.46,5.46,0,0,1-1.94.31C757.14,396.47,756.11,394.86,756.11,392Z"/><path class="cls-2" d="M766.56,366.78h3.37v8l-.12,4.09c1.86-1.8,3.88-3.3,6.61-3.3,4.2,0,6.08,2.71,6.08,7.8V396h-3.37V383.79c0-3.71-1.12-5.3-3.76-5.3-2,0-3.44,1-5.44,3.06V396h-3.37Z"/><path class="cls-2" d="M787.37,386c0-6.64,4.35-10.48,9.23-10.48s9.24,3.84,9.24,10.48-4.35,10.43-9.24,10.43S787.37,392.64,787.37,386Zm15,0c0-4.56-2.32-7.67-5.75-7.67s-5.74,3.11-5.74,7.67,2.32,7.62,5.74,7.62S802.35,390.61,802.35,386Z"/><path class="cls-2" d="M820.1,386c0-6.46,4.08-10.48,8.62-10.48a8.17,8.17,0,0,1,5.58,2.31l-.14-3.41v-7.68h3.37V396h-2.78l-.29-2.35h-.11a8.81,8.81,0,0,1-6.05,2.84C823.33,396.47,820.1,392.68,820.1,386Zm14.06,4.87V380.47a7,7,0,0,0-4.86-2.07c-3.18,0-5.72,3.07-5.72,7.61,0,4.78,2,7.62,5.47,7.62C830.89,393.63,832.49,392.74,834.16,390.91Z"/><path class="cls-2" d="M842.79,386c0-6.48,4.37-10.48,9-10.48,5.08,0,8,3.65,8,9.35a10.44,10.44,0,0,1-.16,1.92H846.12c.24,4.22,2.82,6.95,6.62,6.95a8.69,8.69,0,0,0,5-1.59l1.2,2.21a11.64,11.64,0,0,1-6.58,2.07C847,396.47,842.79,392.59,842.79,386Zm13.92-1.63c0-4-1.79-6.16-4.91-6.16-2.8,0-5.3,2.25-5.71,6.16Z"/><path class="cls-2" d="M875.53,369.08H879v24h11.74V396H875.53Z"/><path class="cls-2" d="M893.16,386c0-6.48,4.37-10.48,9-10.48,5.08,0,7.95,3.65,7.95,9.35a11.51,11.51,0,0,1-.15,1.92H896.49c.24,4.22,2.82,6.95,6.62,6.95a8.69,8.69,0,0,0,5-1.59l1.2,2.21a11.63,11.63,0,0,1-6.57,2.07C897.38,396.47,893.16,392.59,893.16,386Zm13.92-1.63c0-4-1.79-6.16-4.91-6.16-2.8,0-5.3,2.25-5.71,6.16Z"/><path class="cls-2" d="M914.35,369.78a2.34,2.34,0,0,1,4.66,0,2.34,2.34,0,0,1-4.66,0Zm.62,6.28h3.37V396H915Z"/><path class="cls-2" d="M925.05,376.06h2.78l.29,3.62h.11c1.39-2.52,3.42-4.12,5.66-4.12A4.74,4.74,0,0,1,936,376l-.63,3a5.7,5.7,0,0,0-1.93-.33c-1.69,0-3.7,1.22-5,4.59V396h-3.37Z"/><path class="cls-2" d="M938.65,369.78a2.34,2.34,0,0,1,4.66,0,2.34,2.34,0,0,1-4.66,0Zm.62,6.28h3.37V396h-3.37Z"/><path class="cls-2" d="M948.12,390.81c0-4.34,3.74-6.51,12.23-7.44,0-2.56-.86-5-4.11-5a10.94,10.94,0,0,0-5.94,2.14L949,378.17a14.56,14.56,0,0,1,7.82-2.61c4.87,0,6.92,3.24,6.92,8.2V396h-2.78l-.29-2.38h-.11a10.56,10.56,0,0,1-6.59,2.87C950.62,396.47,948.12,394.4,948.12,390.81Zm12.23.31v-5.54c-6.67.81-8.93,2.44-8.93,5,0,2.26,1.54,3.18,3.49,3.18S958.42,392.82,960.35,391.12Z"/></svg>