<svg xmlns="http://www.w3.org/2000/svg" viewBox="0 0 290.07 96.28"><defs><style>.cls-1,.cls-2{fill:none;stroke:#000;stroke-width:.5px}.cls-2{fill-rule:evenodd}</style></defs><g id="Layer_2" data-name="Layer 2"><g id="Layer_1-2" data-name="Layer 1"><path class="cls-1" d="M36.27 15.79ZM37.71 15.59h.14ZM34.87 16h.1ZM32.29 16.52l.85-9.92-1.14.19.2 1.41c-.61.1-1.19.21-1.74.32l-.27-1.38c-.68.14-1.32.28-1.9.43l.3 1.37-1.59.43L26.56 8c-.69.2-1.28.39-1.79.57l.42 1.31c-.52.17-1 .33-1.31.47l-.6-1.23-.69.31 5.07 8.27c1.38-.43 2.92-.84 4.64-1.21ZM33.54 16.27ZM40.84 15.25ZM58.87 15.79ZM57.43 15.59h-.14ZM60.28 16h-.11ZM62.86 16.52 62 6.6l1.12.19-.2 1.41c.61.1 1.19.21 1.74.32l.28-1.38c.67.14 1.31.28 1.9.43l-.3 1.37 1.65.43.4-1.37c.68.2 1.28.39 1.79.57L70 9.91c.52.17 1 .33 1.32.47l.59-1.23c.47.2.69.31.69.31l-5.06 8.27a53.18 53.18 0 0 0-4.64-1.21ZM61.61 16.27ZM54.3 15.25ZM73.4 23.63l-.2-.09c-3.58-1.68-11-5.17-25.6-5.17h-.05c-14.59 0-22 3.49-25.6 5.17l-.21.09a.68.68 0 0 0 .26 1.29.62.62 0 0 0 .29-.07l.2-.1c3.48-1.63 10.74-5 25-5h.06c14.28 0 21.54 3.41 25 5l.2.1a.62.62 0 0 0 .29.07.67.67 0 0 0 .6-.39.68.68 0 0 0-.24-.9Z"/><path class="cls-1" d="M72.39 22.11c-3.53-1.55-11.62-4.69-24.82-4.71s-21.28 3.16-24.82 4.71a.67.67 0 0 0 0 .57.64.64 0 0 0 .35.32c3.93-1.78 11.27-4.63 24.44-4.63h.06c13.18 0 20.52 2.85 24.45 4.63a.62.62 0 0 0 .34-.32.67.67 0 0 0 0-.57Z"/><path class="cls-1" d="M73.78 21.59c-3.53-1.65-12-5.27-26.21-5.27s-22.67 3.62-26.2 5.27a.67.67 0 0 0 0 .39.69.69 0 0 0 .61.39.82.82 0 0 0 .29-.07l.2-.08c3.4-1.5 11.55-4.8 25.06-4.82s21.66 3.32 25.07 4.82l.2.08a.77.77 0 0 0 .29.07.68.68 0 0 0 .6-.39.67.67 0 0 0 .09-.39Z"/><path class="cls-1" d="m74.64 20.5-.21-.09C70.85 18.73 62.16 15 47.57 15s-23.28 3.76-26.86 5.44l-.2.09a.68.68 0 0 0 .29 1.29.58.58 0 0 0 .28-.07l.21-.09c3.48-1.64 12-5.31 26.28-5.31s22.8 3.65 26.28 5.28l.22.09a.53.53 0 0 0 .28.07.68.68 0 0 0 .29-1.29ZM20.32 4.73l.61 1.42-1.57.68-.61-1.43-1.58.68.62 1.43-1.57.67-.62-1.42-1.57.68 1.12 2.58L23 6.64l-1.12-2.59-1.56.68zM15.74 9.77a.75.75 0 0 0 1 .45l5.4-2.32a.77.77 0 0 0 .32-1ZM26.64 16.06a50.11 50.11 0 0 1 5.81-1.44M25.9 14.86a47.28 47.28 0 0 1 6.68-1.7M24.94 13.3a49.26 49.26 0 0 1 7.79-2M24.16 12a46.45 46.45 0 0 1 8.71-2.3M25.67 11.49l.48 1.41M28.95 10.57l.36 1.45M32.15 9.85l.31 1.48M27.66 12.45l.54 1.71M31.14 11.62l.34 1.75M29.79 13.75l.36 1.35M28.48 15.52l.56 1.8M31.76 14.75l.37 1.8M36.77 3.79l-5.1.64a.77.77 0 0 0 .8.7l4.4-.55L41.28 4a.75.75 0 0 0 .59-.87Z"/><path class="cls-1" d="m40.52.49.19 1.53-1.65.21-.19-1.54-1.64.2.19 1.54-.8.1-.81.11-.19-1.54-1.64.2.19 1.54-1.65.2-.19-1.54-1.64.21.35 2.8 5.73-.72 5.74-.71-.35-2.8-1.64.21zM25.14 18.57l1-.36c-.58-1-2-3.33-3.81-4.2a5.24 5.24 0 0 0-4.11-.48.52.52 0 0 0-.29.68.54.54 0 0 0 .68.29 4.25 4.25 0 0 1 3.25.45 9.84 9.84 0 0 1 3.28 3.62Z"/><path class="cls-1" d="M22.34 14c1.76.87 3.23 3.19 3.81 4.2l-.26.09c.56-.19 1.15-.39 1.77-.57l-5.94-9.67-4.66 2 1.47 3.38a5.55 5.55 0 0 1 3.81.57Z"/><path class="cls-1" d="M25.14 18.57A9.84 9.84 0 0 0 21.87 15a4.55 4.55 0 0 0-2.87-.58l2.45 5.67c1.06-.49 2.48-1.08 4.24-1.7ZM44.24 15 40.46 4.13l-3.59.45-3.59.42-1 11.5A69.93 69.93 0 0 1 44.24 15Z"/><path class="cls-1" d="M35.62 15.89c-.39-3.27.28-7.17 1.74-7.36s3.07 3.45 3.5 6.72l1-.08c-.33-2.66-1.9-8-4.66-7.67s-3 5.91-2.65 8.57c.38-.07.72-.13 1.07-.18ZM74.83 4.73l-.62 1.42 1.58.68.61-1.43 1.57.68-.61 1.43 1.56.67.62-1.42 1.57.68L80 10.02l-7.85-3.38 1.11-2.59 1.57.68zM79.4 9.77a.74.74 0 0 1-.94.45l-5.4-2.32a.76.76 0 0 1-.33-1ZM68.51 16.06a49.82 49.82 0 0 0-5.82-1.44M69.25 14.86a47.47 47.47 0 0 0-6.69-1.7M70.2 13.3a49.14 49.14 0 0 0-7.8-2M71 12a46.23 46.23 0 0 0-8.71-2.3M69.47 11.49 69 12.9M66.18 10.57l-.35 1.45M62.99 9.85l-.3 1.48M67.49 12.45l-.55 1.71M64 11.62l-.33 1.75M65.35 13.75l-.36 1.35M66.67 15.52l-.56 1.8M63.38 14.75l-.37 1.8M58.37 3.79l5.1.64a.76.76 0 0 1-.79.7l-4.41-.55L53.86 4a.76.76 0 0 1-.59-.87Z"/><path class="cls-1" d="m54.63.49-.19 1.53 1.64.21.19-1.54 1.64.2-.19 1.54.81.1.8.11.19-1.54 1.65.2-.19 1.54 1.65.2.18-1.54 1.65.21-.35 2.8-5.74-.72-5.74-.71.35-2.8 1.65.21zM70 18.57l-1-.36c.58-1 2-3.33 3.81-4.2a5.24 5.24 0 0 1 4.11-.48.52.52 0 0 1 .28.68.52.52 0 0 1-.67.29 4.27 4.27 0 0 0-3.26.45A9.81 9.81 0 0 0 70 18.57Z"/><path class="cls-1" d="M72.81 14c-1.76.87-3.23 3.19-3.81 4.2l.25.09c-.56-.19-1.14-.39-1.76-.57l5.93-9.68 4.66 2-1.46 3.38a5.55 5.55 0 0 0-3.81.58Z"/><path class="cls-1" d="M70 18.57A9.81 9.81 0 0 1 73.27 15a4.57 4.57 0 0 1 2.93-.53l-2.46 5.67c-1.06-.49-2.47-1.08-4.23-1.7ZM50.9 15l3.79-10.87 3.58.45 3.59.42 1 11.5A70.19 70.19 0 0 0 50.9 15Z"/><path class="cls-1" d="M59.52 15.89c.4-3.27-.27-7.17-1.74-7.36s-3.07 3.47-3.49 6.72l-1-.08c.33-2.66 1.9-8 4.66-7.67s3 5.91 2.64 8.57c-.38-.07-.72-.13-1.07-.18ZM52.23 5.85v1.48h-1.75l.02-1.53h-1.83v1.45h-1.74V5.77h-1.79v1.51H43.4V5.85C42 5.9 41.09 6 41.09 6l3.15 9c1.08 0 2.18-.07 3.33-.07s2.26 0 3.33.07l3.16-9Z"/><path class="cls-1" d="M42.09 8.86c1.7-.08 3.53-.13 5.52-.13s3.77 0 5.44.13M42.66 10.47q2.3-.09 5-.09c1.73 0 3.36 0 4.87.09M43.28 12.28c1.36 0 2.8-.07 4.33-.07s2.91 0 4.25.07M51.4 13.6l-7.64.06M45.86 8.75v1.64M49.35 8.75v1.58M44.41 10.43l.12 1.81M50.74 10.43l-.1 1.78M47.61 10.38v1.83M47.61 13.66l.01 1.31M45.91 12.24v1.4M49.22 12.22v1.4M21.33 10.27l1.34 2.43M21.02 10.44l.62-.34M22.36 12.87l.62-.34M39.88 5.58l.87 2.64M39.54 5.69l.67-.22M40.42 8.33l.67-.22M34.35 6.16l-.25 2.77M34.7 6.19l-.7-.06M34.45 8.96l-.7-.07M60.82 6.6l.19 2.77M60.46 6.63l.71-.05M60.66 9.4l.71-.05M55.31 5.8l-.92 2.62M55.64 5.92l-.66-.23M54.72 8.54l-.66-.23M73.6 10.27l-1.34 2.43M73.91 10.44l-.62-.34M72.57 12.87l-.62-.34M11.93 34.62a2.27 2.27 0 0 0 .41 1.09c.47.73.7.83 1.87 1.21s2.7.67 3.44 1.61a1.63 1.63 0 0 1 .35 2c-.26.57-1.23 1.3-1.4 2.22a14.42 14.42 0 0 0 0 3 4.63 4.63 0 0 0-2.18-2.13 30.94 30.94 0 0 1-5-2.3 1.89 1.89 0 0 1-.81-1.81c0-.6 1.13-1.56 2-2.44a5.52 5.52 0 0 0 .73-.72c.44-.58.34-1.01.59-1.73Z"/><path class="cls-2" d="M16.7 28.6c1.14 0 2.29 1 3.25 2.51a4.55 4.55 0 0 1-.08 1.44c-.18.62-1.12.61-1.12.61h-2.29A5.23 5.23 0 0 1 15 30.38c0-1.38.79-1.78 1.7-1.78Z"/><path class="cls-1" d="M16.7 28.6c1.14 0 2.29 1 3.25 2.51a4.55 4.55 0 0 1-.08 1.44c-.18.62-1.12.61-1.12.61h-2.29A5.23 5.23 0 0 1 15 30.38c0-1.38.79-1.78 1.7-1.78Z"/><path class="cls-2" d="M20 31.09a4.61 4.61 0 0 1 .55 1.4c.17.82-.12 1-.95 1.58s-2.14.53-3 1.22a2.86 2.86 0 0 0-.74 2.11c-.53-.18-1.09-.33-1.59-.48-1.17-.38-1.4-.48-1.87-1.21a2.27 2.27 0 0 1-.41-1.09 1.74 1.74 0 0 1 .41-1.09c.42-.43 1.5-.37 1.5-.37h4.91s.94 0 1.12-.61a4.73 4.73 0 0 0 .07-1.46Z"/><path class="cls-1" d="M20 31.09a4.61 4.61 0 0 1 .55 1.4c.17.82-.12 1-.95 1.58s-2.14.53-3 1.22a2.86 2.86 0 0 0-.74 2.11c-.53-.18-1.09-.33-1.59-.48-1.17-.38-1.4-.48-1.87-1.21a2.27 2.27 0 0 1-.41-1.09 1.74 1.74 0 0 1 .41-1.09c.42-.43 1.5-.37 1.5-.37h4.91s.94 0 1.12-.61a4.73 4.73 0 0 0 .07-1.46Z"/><path class="cls-2" d="M11.93 34.62a2.27 2.27 0 0 0 .41 1.09c.47.73.7.83 1.87 1.21s2.7.67 3.44 1.61a1.63 1.63 0 0 1 .35 2c-.26.57-1.23 1.3-1.4 2.22a14.42 14.42 0 0 0 0 3 4.63 4.63 0 0 0-2.18-2.13 30.94 30.94 0 0 1-5-2.3 1.89 1.89 0 0 1-.81-1.81c0-.6 1.13-1.56 2-2.44a5.52 5.52 0 0 0 .73-.72c.44-.58.34-1.01.59-1.73Z"/><path class="cls-2" d="M16.65 45.74a3.92 3.92 0 0 1 0 1.61 3.62 3.62 0 0 1-3.49 1.92A2 2 0 0 1 11 48.06a4.42 4.42 0 0 0-.42-2.45 2.45 2.45 0 0 0 1.68-.5 2.59 2.59 0 0 0 .62-2.11l1.59.65a4.63 4.63 0 0 1 2.18 2.09Z"/><path class="cls-1" d="M16.65 45.74a3.92 3.92 0 0 1 0 1.61 3.62 3.62 0 0 1-3.49 1.92A2 2 0 0 1 11 48.06a4.42 4.42 0 0 0-.42-2.45 2.45 2.45 0 0 0 1.68-.5 2.59 2.59 0 0 0 .62-2.11l1.59.65a4.63 4.63 0 0 1 2.18 2.09Z"/><path class="cls-2" d="M11 48.07a4.61 4.61 0 0 0-.8-3C9.27 44 8.91 44 8.51 44s-1.23.71-1.23 2.12a6 6 0 0 0 .4 2.3s.27-.57 1.39-.57a8 8 0 0 1 1.93.22Z"/><path class="cls-1" d="M11 48.07a4.61 4.61 0 0 0-.8-3C9.27 44 8.91 44 8.51 44s-1.23.71-1.23 2.12a6 6 0 0 0 .4 2.3s.27-.57 1.39-.57a8 8 0 0 1 1.93.22Z"/><path class="cls-2" d="M7.68 48.41a6 6 0 0 1 .8 3.19c0 2-.8 2.9-.8 4.88a3.1 3.1 0 0 0 1.54 2.76A8.39 8.39 0 0 1 7.17 59C6 58.7 4.9 57.32 4.16 57s-2.95.11-3.6-.67-.09-3.47.11-5-.43-4.13.09-4.69 2.27-.23 2.87-.34a4.52 4.52 0 0 0 2.15-1.29 3.29 3.29 0 0 1 2.5-1 2.24 2.24 0 0 0-1 2.07 6 6 0 0 0 .4 2.33Z"/><path class="cls-1" d="M7.68 48.41a6 6 0 0 1 .8 3.19c0 2-.8 2.9-.8 4.88a3.1 3.1 0 0 0 1.54 2.76A8.39 8.39 0 0 1 7.17 59C6 58.7 4.9 57.32 4.16 57s-2.95.11-3.6-.67-.09-3.47.11-5-.43-4.13.09-4.69 2.27-.23 2.87-.34a4.52 4.52 0 0 0 2.15-1.29 3.29 3.29 0 0 1 2.5-1 2.24 2.24 0 0 0-1 2.07 6 6 0 0 0 .4 2.33Z"/><path class="cls-2" d="M7.68 56.48a9.4 9.4 0 0 1 .46-2.65c.7-1.32 1.41-2.49 2.11-2.49s1.24.25 1.24 1.67S10.4 54.7 9.75 56a7.67 7.67 0 0 0-.53 3.2 3.1 3.1 0 0 1-1.54-2.72Z"/><path class="cls-1" d="M7.68 56.48a9.4 9.4 0 0 1 .46-2.65c.7-1.32 1.41-2.49 2.11-2.49s1.24.25 1.24 1.67S10.4 54.7 9.75 56a7.67 7.67 0 0 0-.53 3.2 3.1 3.1 0 0 1-1.54-2.72Z"/><path class="cls-2" d="M78.45 28.6c-1.15 0-2.3 1-3.26 2.51a4.66 4.66 0 0 0 .09 1.44c.17.62 1.11.61 1.11.61h2.29a5.23 5.23 0 0 0 1.44-2.78c0-1.38-.76-1.78-1.67-1.78Z"/><path class="cls-1" d="M78.45 28.6c-1.15 0-2.3 1-3.26 2.51a4.66 4.66 0 0 0 .09 1.44c.17.62 1.11.61 1.11.61h2.29a5.23 5.23 0 0 0 1.44-2.78c0-1.38-.76-1.78-1.67-1.78Z"/><path class="cls-2" d="M75.19 31.09a4.46 4.46 0 0 0-.54 1.4c-.17.82.11 1 .94 1.58s2.14.53 3 1.22a2.86 2.86 0 0 1 .74 2.11c.54-.18 1.1-.33 1.59-.48 1.17-.38 1.4-.48 1.87-1.21a2.39 2.39 0 0 0 .42-1.09 1.81 1.81 0 0 0-.42-1.09c-.42-.43-1.5-.37-1.5-.37h-4.9s-.94 0-1.11-.61a4.55 4.55 0 0 1-.09-1.46Z"/><path class="cls-1" d="M75.19 31.09a4.46 4.46 0 0 0-.54 1.4c-.17.82.11 1 .94 1.58s2.14.53 3 1.22a2.86 2.86 0 0 1 .74 2.11c.54-.18 1.1-.33 1.59-.48 1.17-.38 1.4-.48 1.87-1.21a2.39 2.39 0 0 0 .42-1.09 1.81 1.81 0 0 0-.42-1.09c-.42-.43-1.5-.37-1.5-.37h-4.9s-.94 0-1.11-.61a4.55 4.55 0 0 1-.09-1.46Z"/><path class="cls-2" d="M83.22 34.62a2.39 2.39 0 0 1-.42 1.09c-.47.73-.7.83-1.87 1.21s-2.7.67-3.44 1.61a1.63 1.63 0 0 0-.34 2c.25.57 1.23 1.3 1.4 2.22a15 15 0 0 1-.06 3 4.62 4.62 0 0 1 2.19-2.13 31.2 31.2 0 0 0 5-2.3 1.88 1.88 0 0 0 .82-1.81c0-.6-1.14-1.56-2-2.44a5.44 5.44 0 0 1-.72-.72c-.42-.58-.32-1.01-.56-1.73Z"/><path class="cls-1" d="M83.22 34.62a2.39 2.39 0 0 1-.42 1.09c-.47.73-.7.83-1.87 1.21s-2.7.67-3.44 1.61a1.63 1.63 0 0 0-.34 2c.25.57 1.23 1.3 1.4 2.22a15 15 0 0 1-.06 3 4.62 4.62 0 0 1 2.19-2.13 31.2 31.2 0 0 0 5-2.3 1.88 1.88 0 0 0 .82-1.81c0-.6-1.14-1.56-2-2.44a5.44 5.44 0 0 1-.72-.72c-.42-.58-.32-1.01-.56-1.73Z"/><path class="cls-2" d="M78.49 45.74a3.82 3.82 0 0 0 .06 1.61A3.6 3.6 0 0 0 82 49.27a2 2 0 0 0 2.14-1.21 4.37 4.37 0 0 1 .43-2.45 2.42 2.42 0 0 1-1.68-.5 2.6 2.6 0 0 1-.63-2.11l-1.58.65a4.62 4.62 0 0 0-2.19 2.09Z"/><path class="cls-1" d="M78.49 45.74a3.82 3.82 0 0 0 .06 1.61A3.6 3.6 0 0 0 82 49.27a2 2 0 0 0 2.14-1.21 4.37 4.37 0 0 1 .43-2.45 2.42 2.42 0 0 1-1.68-.5 2.6 2.6 0 0 1-.63-2.11l-1.58.65a4.62 4.62 0 0 0-2.19 2.09Z"/><path class="cls-2" d="M84.13 48.07a4.68 4.68 0 0 1 .8-3c.94-1.1 1.3-1.12 1.7-1.12s1.23.71 1.23 2.12a6 6 0 0 1-.4 2.3s-.27-.57-1.39-.57a8 8 0 0 0-1.94.27Z"/><path class="cls-1" d="M84.13 48.07a4.68 4.68 0 0 1 .8-3c.94-1.1 1.3-1.12 1.7-1.12s1.23.71 1.23 2.12a6 6 0 0 1-.4 2.3s-.27-.57-1.39-.57a8 8 0 0 0-1.94.27Z"/><path class="cls-2" d="M87.46 48.41a6 6 0 0 0-.8 3.19c0 2 .8 2.9.8 4.88a3.1 3.1 0 0 1-1.54 2.76A8.39 8.39 0 0 0 88 59c1.2-.28 2.27-1.66 3-1.94s2.94.11 3.6-.67.08-3.47-.12-5 .43-4.13-.08-4.69-2.28-.23-2.88-.34a4.56 4.56 0 0 1-2.15-1.29 3.28 3.28 0 0 0-2.5-1 2.24 2.24 0 0 1 1 2.07 6 6 0 0 1-.41 2.27Z"/><path class="cls-1" d="M87.46 48.41a6 6 0 0 0-.8 3.19c0 2 .8 2.9.8 4.88a3.1 3.1 0 0 1-1.54 2.76A8.39 8.39 0 0 0 88 59c1.2-.28 2.27-1.66 3-1.94s2.94.11 3.6-.67.08-3.47-.12-5 .43-4.13-.08-4.69-2.28-.23-2.88-.34a4.56 4.56 0 0 1-2.15-1.29 3.28 3.28 0 0 0-2.5-1 2.24 2.24 0 0 1 1 2.07 6 6 0 0 1-.41 2.27Z"/><path class="cls-2" d="M87.46 56.48a9.06 9.06 0 0 0-.46-2.65c-.69-1.32-1.4-2.49-2.11-2.49s-1.23.25-1.23 1.67 1.08 1.69 1.73 3a7.5 7.5 0 0 1 .53 3.2 3.1 3.1 0 0 0 1.54-2.73Z"/><path class="cls-1" d="M87.46 56.48a9.06 9.06 0 0 0-.46-2.65c-.69-1.32-1.4-2.49-2.11-2.49s-1.23.25-1.23 1.67 1.08 1.69 1.73 3a7.5 7.5 0 0 1 .53 3.2 3.1 3.1 0 0 0 1.54-2.73Z"/><path class="cls-1" d="M10 51.39a2.84 2.84 0 0 1 1.6-.53c.71 0 1.55.94 2.57 2.28s1.79 2.11 2.57 2.29 1.88 0 2.71.73.9 1.59.9 2.82-.63 2.86-.63 4.55.77 2.35 1 3.08.23 1.64.35 1.87.26 0 .49.38a24.49 24.49 0 0 0 1.53 3c.65.92.92 1 .95 1.38s-.15.72.08.83.38.08.61.31a20.13 20.13 0 0 0 1.79 1.79c.23.08 2.37 1.95 2.64 2a1.74 1.74 0 0 1 .8.23c.19.15 2.29 2.52 3 2.74s1 0 1.41.2 2.29.68 3.32 1.18a12.28 12.28 0 0 0 2.55 1c.31 0 .61-.11 1-.11s1.33.34 1.87.34 2.44.19 4.46.19 3.93-.19 4.47-.19 1.49-.34 1.87-.34.68.11 1 .11a12.29 12.29 0 0 0 2.56-1c1-.5 2.93-1 3.32-1.18s.72 0 1.41-.2 2.78-2.59 3-2.74a1.74 1.74 0 0 1 .81-.23c.26 0 2.4-1.91 2.63-2a18.88 18.88 0 0 0 1.79-1.79c.23-.23.38-.19.61-.31s0-.49.08-.83.3-.46 1-1.38a24.49 24.49 0 0 0 1.53-3c.23-.42.38-.16.5-.38a16.57 16.57 0 0 1 .34-1.87 6.16 6.16 0 0 0 1-3.08c0-1.69-.62-3.32-.62-4.55s.06-2.11.89-2.82 2-.54 2.72-.73 1.54-1 2.56-2.29 1.86-2.28 2.57-2.28a2.84 2.84 0 0 1 1.6.53.8.8 0 0 0-.26 0c-.73 0-1.23.25-1.23 1.67s1.08 1.69 1.73 3a7.5 7.5 0 0 1 .53 3.2 17.41 17.41 0 0 1 .27 3.21c0 1.9 0 6.14-.27 6.94a10.68 10.68 0 0 1-1.6 2.18c-.19.26 0 .49 0 1.1s-.53 2.79-2.94 6.18a23.49 23.49 0 0 1-4.27 4.77c-.35.39-.19.62-.38 1s-4.2 3.89-9.58 6.75a37.17 37.17 0 0 1-11.41 3.82c-.46 0-1.11-.23-2-.23a2.52 2.52 0 0 0-1.64.65 27.31 27.31 0 0 1-9.08 0 2.5 2.5 0 0 0-1.69-.63c-.88 0-1.53.23-2 .23A37.34 37.34 0 0 1 28 91.41c-5.38-2.86-9.38-6.33-9.57-6.75s0-.65-.38-1a23.35 23.35 0 0 1-4.28-4.77c-2.4-3.39-2.94-5.57-2.94-6.18s.19-.84 0-1.1a11.07 11.07 0 0 1-1.6-2.18c-.31-.8-.27-5-.27-6.94a17.41 17.41 0 0 1 .27-3.21A7.67 7.67 0 0 1 9.75 56c.65-1.34 1.74-1.61 1.74-3s-.51-1.67-1.24-1.67a.85.85 0 0 0-.25.06Z"/><path class="cls-1" d="M10 51.39a2.84 2.84 0 0 1 1.6-.53c.71 0 1.55.94 2.57 2.28s1.79 2.11 2.57 2.29 1.88 0 2.71.73.9 1.59.9 2.82-.63 2.86-.63 4.55.77 2.35 1 3.08.23 1.64.35 1.87.26 0 .49.38a24.49 24.49 0 0 0 1.53 3c.65.92.92 1 .95 1.38s-.15.72.08.83.38.08.61.31a20.13 20.13 0 0 0 1.79 1.79c.23.08 2.37 1.95 2.64 2a1.74 1.74 0 0 1 .8.23c.19.15 2.29 2.52 3 2.74s1 0 1.41.2 2.29.68 3.32 1.18a12.28 12.28 0 0 0 2.55 1c.31 0 .61-.11 1-.11s1.33.34 1.87.34 2.44.19 4.46.19 3.93-.19 4.47-.19 1.49-.34 1.87-.34.68.11 1 .11a12.29 12.29 0 0 0 2.56-1c1-.5 2.93-1 3.32-1.18s.72 0 1.41-.2 2.78-2.59 3-2.74a1.74 1.74 0 0 1 .81-.23c.26 0 2.4-1.91 2.63-2a18.88 18.88 0 0 0 1.79-1.79c.23-.23.38-.19.61-.31s0-.49.08-.83.3-.46 1-1.38a24.49 24.49 0 0 0 1.53-3c.23-.42.38-.16.5-.38a16.57 16.57 0 0 1 .34-1.87 6.16 6.16 0 0 0 1-3.08c0-1.69-.62-3.32-.62-4.55s.06-2.11.89-2.82 2-.54 2.72-.73 1.54-1 2.56-2.29 1.86-2.28 2.57-2.28a2.84 2.84 0 0 1 1.6.53.8.8 0 0 0-.26 0c-.73 0-1.23.25-1.23 1.67s1.08 1.69 1.73 3a7.5 7.5 0 0 1 .53 3.2 17.41 17.41 0 0 1 .27 3.21c0 1.9 0 6.14-.27 6.94a10.68 10.68 0 0 1-1.6 2.18c-.19.26 0 .49 0 1.1s-.53 2.79-2.94 6.18a23.49 23.49 0 0 1-4.27 4.77c-.35.39-.19.62-.38 1s-4.2 3.89-9.58 6.75a37.17 37.17 0 0 1-11.41 3.82c-.46 0-1.11-.23-2-.23a2.52 2.52 0 0 0-1.64.65 27.31 27.31 0 0 1-9.08 0 2.5 2.5 0 0 0-1.69-.63c-.88 0-1.53.23-2 .23A37.34 37.34 0 0 1 28 91.41c-5.38-2.86-9.38-6.33-9.57-6.75s0-.65-.38-1a23.35 23.35 0 0 1-4.28-4.77c-2.4-3.39-2.94-5.57-2.94-6.18s.19-.84 0-1.1a11.07 11.07 0 0 1-1.6-2.18c-.31-.8-.27-5-.27-6.94a17.41 17.41 0 0 1 .27-3.21A7.67 7.67 0 0 1 9.75 56c.65-1.34 1.74-1.61 1.74-3s-.51-1.67-1.24-1.67a.85.85 0 0 0-.25.06ZM90 46.67a2.71 2.71 0 0 1-.31 3.13M91.22 47.5A2.18 2.18 0 0 1 91 50M92.37 47.59a2.1 2.1 0 0 1-.25 2.41M93.45 47.55a2.07 2.07 0 0 1-.24 2.45M89 47.23a3 3 0 0 1-.79 2.37m.38-3.78a2.85 2.85 0 0 1 .41 1.41M12.65 40.86a3.31 3.31 0 0 1 3.13 1.65M13.11 39.9a3.31 3.31 0 0 1 3.13 1.65M13.55 38.94a3.29 3.29 0 0 1 3.12 1.65M13.89 38A3.3 3.3 0 0 1 17 39.63M12.48 41.82a3.28 3.28 0 0 1 3.12 1.65M79.43 42.51a3.31 3.31 0 0 1 3.13-1.65M79 41.55a3.31 3.31 0 0 1 3.1-1.65M78.54 40.59a3.29 3.29 0 0 1 3.12-1.65M78.19 39.63A3.31 3.31 0 0 1 81.32 38M79.61 43.47a3.29 3.29 0 0 1 3.12-1.65M89.7 53.58a2.69 2.69 0 0 1 .3 3.13M91 53.37a2.16 2.16 0 0 1 .25 2.51M92.11 53.37a2.08 2.08 0 0 1 .24 2.42M93.2 53.42a2.09 2.09 0 0 1 .24 2.41M88.21 53.78a3 3 0 0 1 .79 2.36m0 0a3.07 3.07 0 0 1-.41 1.42M5.47 49.8a2.71 2.71 0 0 1-.31-3.13M4.23 50A2.16 2.16 0 0 1 4 47.5M3.07 50a2.1 2.1 0 0 1-.25-2.42M2 50a2.07 2.07 0 0 1-.24-2.41M7 49.6a3 3 0 0 1-.79-2.37m0 0a2.85 2.85 0 0 1 .41-1.41M5.17 56.71a2.69 2.69 0 0 1 .32-3.13M4 55.88a2.18 2.18 0 0 1 .25-2.51M2.84 55.79a2.08 2.08 0 0 1 .24-2.42M1.75 55.83A2.09 2.09 0 0 1 2 53.42M6.19 56.14A3 3 0 0 1 7 53.78m-.4 3.78a3.07 3.07 0 0 1-.41-1.42"/><path class="cls-1" d="M83.49 56.71a4.26 4.26 0 0 1-1-3 4 4 0 0 1 .16-1.24M77.74 59.62a3.06 3.06 0 0 1 .14-2.75M79.31 59.08a3.06 3.06 0 0 1-.15-2.76M80.77 58.52A2.84 2.84 0 0 1 80 55.4M82.19 58.07a4.77 4.77 0 0 1-.88-4.2M76.31 60a3.06 3.06 0 0 1 .14-2.75M12.59 52.5a4 4 0 0 1 .16 1.24 4.26 4.26 0 0 1-1 3M17.32 56.87a3.06 3.06 0 0 1 .14 2.75M16 56.32a3.06 3.06 0 0 1-.15 2.76M15.17 55.4a2.84 2.84 0 0 1-.74 3.12M13.89 53.87a3.92 3.92 0 0 1 .16 1.23 4.24 4.24 0 0 1-1 3M18.75 57.22a3 3 0 0 1 .14 2.78"/><path d="m22.78 15.56-2.31.82s1.25-.94 1.68-1.28a6.28 6.28 0 0 1 .63.46Zm-1.54-.89-1.06.91 1.68-.64a6.48 6.48 0 0 0-.62-.27ZM23 15.78l-2.13 1.49s2.08-.78 2.58-1c-.13-.19-.28-.34-.45-.49Zm1.15 1.32L21.57 19l3.16-1.13c-.16-.22-.35-.5-.56-.77Zm-.55-.68-2.48 1.67L24 16.93c-.09-.18-.24-.35-.38-.51Zm14.89-5.89-2.72.56a4.92 4.92 0 0 1 .14-.58c.51-.01 2.6.02 2.6.02Zm-2.36-.69c0 .13-.09.27-.14.42l2.39-.59s-1.64.11-2.23.17Zm-.43 1.64c0 .18-.07.38-.09.59l3-.61Zm-.21 2.68 3.55-.78s-2.83.11-3.54.11c.01.22.01.45.01.67Zm.07-1.69v.62l3.3-.7Zm0 2.76 3.44-.69s-2.76.05-3.49 0c.02.26.04.46.05.69ZM73 15.1c.43.34 1.68 1.28 1.68 1.28l-2.31-.82a4.61 4.61 0 0 1 .63-.46Zm.29-.16 1.67.64-1.06-.91c-.19.08-.4.16-.61.27Zm-1.62 1.31c.51.24 2.59 1 2.59 1l-2.13-1.49c-.13.17-.31.32-.46.49Zm-1.25 1.65 3.15 1.1L71 17.1c-.23.27-.42.55-.58.8Zm.69-1L74 18.09l-2.48-1.67c-.13.16-.28.33-.41.51Zm-11.9-6.42a4.92 4.92 0 0 1 .14.58l-2.72-.56s2.09 0 2.58.01Zm-2.47-.84 2.4.59a4.09 4.09 0 0 0-.14-.39c-.59-.06-2.26-.17-2.26-.17Zm-.22 1.79 3 .61c0-.21 0-.41-.08-.59Zm3.1 2c-.7 0-3.53-.11-3.53-.11l3.54.78c0-.16 0-.39-.01-.61Zm-3.32-1.1 3.31.7v-.62Zm3.32 2.18h-3.48l3.45.69ZM72 25v31.84V25Zm-9.38 16.26c-.21 0-.39.27-.39.6s.18.61.39.61.4-.27.4-.61-.18-.6-.4-.6Zm1.63 1.49c-.27 0-.47.27-.47.61s.2.6.47.6a.54.54 0 0 0 .47-.6.55.55 0 0 0-.47-.61Zm4.27-.3a.43.43 0 0 0 .38-.45.44.44 0 0 0-.38-.48c-.19 0-.36.22-.36.48a.43.43 0 0 0 .36.45Zm-2 .6a.53.53 0 0 0 .44-.58c0-.32-.2-.59-.44-.59s-.44.27-.44.59.23.58.48.58Zm-.72 13.82c.08-1.31.29-3.44.29-3.8s-.66-2.7-.66-3.51a9.25 9.25 0 0 1 .58-2.85c.37-1 1-.72 1.68-.79a1.91 1.91 0 0 0 1.62-1.18c.07-.49.94-.65.94-2.62s-1-2.41-1.75-2.48-.65.58-1 .58a2.34 2.34 0 0 1-1.23-.61c-.37-.28-.21-1.12.52-2s2.51.39 2.51.39.94-.14.44-1.24-1.1-.43-2.25-1.7a4.24 4.24 0 0 0-1.2-.67 17.68 17.68 0 0 0-3.52-.44 2.46 2.46 0 0 0-2.26 1.17 2.49 2.49 0 0 1 1.57-.12c1 .32.61.24 2 1.41s1.17 1.59 1.17 2.46-.58 1-1.81 1-1.83 0-2.35.74.08 3.94.3 4.38a2.27 2.27 0 0 0 1.53.8 1.49 1.49 0 0 1 1.17.59c.51.5.21 2.33.15 2.76a26.72 26.72 0 0 0 .5 3.37 28.53 28.53 0 0 0 .15 3.14c.15.79-.59 1.38-.59 1.74s.3 2.05.3 2.05l-.36 1.31h-3l-1.51-10.5L59 50V40l.79-1.18v-1.63h-1.22v1.16h-1.24v-1.16h-1.26v1.16h-1.23v-1.16h-1.25v1.65l1 1.2v2.68H52v-9.63l.8-1.5v-2h-1.36v1.31h-1.36v-1.29h-1.35v1.29h-1.35v-1.29H46v1.29h-1.33v-1.29h-1.35v2l.71 1.5v9.63h-2.65V40l.68-1.19v-1.64h-1.29v1.18h-1.3v-1.18h-1.29v1.18H36.9v-1.18h-1.3v1.67l.88 1.16v9.87l-.91.24L34 60.72h-3.1l-.35-1.3s.28-1.68.28-2.05-.73-.95-.58-1.74a30.55 30.55 0 0 0 .14-3.14 26.51 26.51 0 0 0 .51-3.37c-.07-.43-.35-2.26.14-2.76a1.52 1.52 0 0 1 1.18-.59 2.25 2.25 0 0 0 1.53-.8c.22-.44.81-3.66.3-4.38s-1.11-.74-2.34-.74-1.83-.14-1.83-1 0-1.38 1.39-2.55.73-1.38 1.61-1.53a3 3 0 0 1 1.75.36 2 2 0 0 0-2.05-1.38 14.73 14.73 0 0 0-3.72.65 4.4 4.4 0 0 1-1.16.95c-.45.15-1.9-.29-2.41.81a2.42 2.42 0 0 0 .21 2.19s1.62-1.47 2.34-.59 1.17 1.67.81 2a1.7 1.7 0 0 1-1 .51c-.36 0-.28-.65-1-.58s-1.75.51-1.75 2.48.87 2.13.95 2.62a1.86 1.86 0 0 0 1.6 1.18c.73.07 1.31-.22 1.68.79a9.29 9.29 0 0 1 .59 2.85c0 .81-.66 3.15-.66 3.51s.22 2.49.29 3.8a7.59 7.59 0 0 1-.74 3.86h-4.87a24.54 24.54 0 0 0 47.66 0h-4.83a7.69 7.69 0 0 1-.73-3.91Zm-2.38-11.79a2.18 2.18 0 0 0-.5 0 2 2 0 0 1-.87-.39A9.46 9.46 0 0 1 61.7 41a.74.74 0 0 1 .46-.35 1.89 1.89 0 0 1 .49 0h.79a6.66 6.66 0 0 0 .91-.05 2.92 2.92 0 0 0 1.24.23 3.45 3.45 0 0 0 1-.12l.1.06a1.71 1.71 0 0 0 .87.24 1 1 0 0 0 .75-.34 2.73 2.73 0 0 0 .2-.25c.38 0 1.09.19 1.09 1.75a2.49 2.49 0 0 1-.33 1.46L69 44a1.23 1.23 0 0 0-.33.7 1.48 1.48 0 0 1-1 .53 5.09 5.09 0 0 1-.56 0 3.27 3.27 0 0 0-1.91-.46 3.81 3.81 0 0 0-1.78.31Zm-2.73 14.21.2 1.41h-2.67v-1.41h2.47Zm-16.86-5.77v-1.43H47v1.06a2.5 2.5 0 0 0-.75.37Zm2.1.37a2 2 0 0 0-.32.58v-.58Zm-7.54 5v-1.4h3.25v1.44Zm1.44.35v1.46h-3.22v-1.42Zm-2.16-16.17v1.45h-.82v-1.45Zm-.84-1.8H38a1.11 1.11 0 0 0-.29.83v.61h-.83Zm3 3.61v1.43h-3v-1.43Zm1.18-5v1h-2.62v-1.42h2.89Zm0 1.34v1.44h-.81v-1.39Zm-1.28.83v2.41H38V42.1a.86.86 0 0 1 1.74 0Zm4.66-3v-1.38h1.87v1.44Zm.85.35v1.5h-.84v-1.44Zm-.84-2.1v-1.43h.85v1.43Zm1.21 0v-1.44h.67v1.45Zm0 2.15h3.23v1.45h-3.22Zm1-.38v-3.18a1.14 1.14 0 0 1 2.28 0v3.19Zm.77 2.19h3.27v1.44h-3.24Zm1.82-.37v-1.44h2.42v1.45Zm.05-1.79v-1.43h1.38v1.42ZM51 41.27h.59v1.44H51Zm0-2.16v-1.44h.59v1.44Zm.59-3.25v1.45h-2.31v-1.42ZM51 35.5v-1.44h.59v1.44Zm-.37 0h-1.39a1.49 1.49 0 0 0-1.47-1.11 1.47 1.47 0 0 0-.36 0v-.37h3.26Zm-1.82-1.8h-3.19v-1.44h3.23Zm-1.81.36v.49a1.38 1.38 0 0 0-.72 1H44.4v-1.49Zm-1.78-.37h-.82V33c-.35-.76-.36-.76-.36-.76h1.22Zm-.86 7.58H47v1.44h-2.6Zm1.22 1.81h3.23v1.43h-3.19Zm12.24 1.8v1.44h-3.2v-1.44Zm-2.31-2.17H55v-1.44h.86a1.15 1.15 0 0 0-.29.83Zm-2.69 12.61v-1.44h3.24v1.44Zm1.44.37v1.44H51V55.7h3.22ZM42 55.33v-1.44h3.24v1.44Zm1.45.36v1.43H40.2V55.7h3.26Zm0-2.17H40.2v-1.43h3.26ZM42 51.73v-1.45h3.25v1.45Zm-1.81-1.81v-1.44h3.26v1.44Zm3.63 0v-1.44H47v1.44Zm1.8-1.8v-1.45h3.23v1.45Zm1.79.36h3.27v1.44h-3.27Zm5.05 1.8v1.45h-3.23v-1.45ZM51 49.92v-1.44h3.22v1.44Zm0 2.17h3.22v1.43H51Zm3.58 3.61h3.24v1.43h-3.2Zm1.81-.38v-1.43h3.24v1.43Zm1.43-1.8h-3.2v-1.43h3.24Zm-1.8-1.79h-3.19v-1.45h3.23Zm-1.44-1.81v-1.44h3.24v1.44Zm1.8-1.8v-1.45h2.22v1.45Zm1.44-6.6a1.8 1.8 0 0 0-.18-.25h.18Zm.36 7h.43v1.44h-.43Zm0-2.16v-1.48h.43v1.44ZM58 44.52v-1.44h.66v1.44Zm.24-1.81v-1.44h.43v1.44Zm.42-2.79v1h-2.23v-1.46H59Zm-1 2.18v2.41H55.9V42.1a.86.86 0 0 1 1.72 0Zm-1.56 4.57v1.45h-3.27v-1.45Zm-1.8-.35H51v-1.44h3.22Zm-1.8.35v1.45h-3.29v-1.45Zm-1.8-.36h-3.29v-1.43h3.25ZM47 44.88v1.44h-3.18v-1.44Zm-1.79 1.79v1.45H42v-1.45Zm-1.8-.35h-3.22v-1.44h3.26Zm-1.81.35v1.45h-3.21v-1.45Zm-3.61 0v1.45h-1.12v-1.45Zm-1.16 1.81h3v1.44h-3Zm1.52 1.8h3.25v1.45h-3.21Zm1.44 1.81v1.43h-3.18v-1.43Zm-1.44 1.8h3.25v1.44h-3.21Zm1.44 1.8v1.43h-3.18V55.7h3.22Zm.37 3.61h3.26v1.4H40.2Zm1.84-.37v-1.44h3.24v1.44Zm1.81.35h1.69v1.42h-1.68Zm0-2.15v-1.44h1.69v1.43Zm1.79-5.4v-1.45h3.23v1.45Zm1.79.35h3.26v1.44h-1.44a2.69 2.69 0 0 0-1.44-.52h-.36Zm5.05 1.81v1.43h-2.37a2.24 2.24 0 0 0-.48-1.43Zm-1.78 1.8v1.44h-.61V55.7h.61Zm-.61 3.61h.61v1.4h-.61Zm0-.37v-1.44h2.39v1.44Zm1 .37h3.22v1.4H51Zm1.78-.37v-1.44h3.24v1.44Zm1.8.37h3.24v1.4h-3.25Zm1.8-.37v-1.44h3.25v1.43h-3.26Zm4.21 0H60V57.5h.38Zm-.47-3.24.21 1.44h-2.16v-1.44h1.94Zm-.32-2.17h-1.63v-1.43h1.41Zm-.44-3c.17 1.22.18 1.22.18 1.22h-3.16v-1.45h2.38ZM54 38.71v-1.15h.5v1.16h2v-1.16h.5v1.16h2v-1.16h.5v1.18a3.06 3.06 0 0 0-.23.36h-4.98Zm.64.75h1.46v1.44H55v-1Zm-1.77 3.62h2.72v1.44h-2.76Zm-.37 0v1.44h-3.29v-1.44h3.25ZM51.63 33v.7h-2.42v-1.44H52Zm-7.76-1.1-.18-.4V30h.61v1.31h2.1V30h.6v1.31h2.1V30h.6v1.31h2.1V30h.63v1.5l-.22.4ZM42 43.08h3.25v1.44H42Zm-.36 0v1.44h-1.53v-1.44h1.53Zm-5.4-4-.24-.36v-1.18h.57v1.18h2v-1.18h.56v1.18h2v-1.18h.56v1.19l-.2.37Zm.26.36H38v1.46h-1.2v-1Zm-.58 11 .55-.13H38v1.44h-2.3Zm-.24 1.66h.57v1.44h-.79Zm-.27 1.81H38v1.43h-2.81Zm-.28 1.8h1.12v1.44h-1.33Zm-.31 2.11v-.3H38v1.42h-3.35Zm-.43 2.88v-.31l.16-1.08h1.65v1.39h-1.81Zm-.68 1.69c.37 0 .67-.47 1.11-.71s9.65.11 9.65.11 1 .42 1 .84-.36.6-1.09.73a11.42 11.42 0 0 1-2.1-.24c-.6 0-.6.78-1.1.78s-.73-.54-1.27-1-1.2-.09-2.52-.39-1.86.09-1.86.34.12 1.07-.94.65-2-.17-2-.47.77-.6 1.12-.66Zm5.61 1.72c0 .24-.88.42-1.25.3s-1.62-.64-1.62-.64.36-.36 1.38-.24 1.49.32 1.49.56ZM28 45.19a5.09 5.09 0 0 1-.56 0 1.48 1.48 0 0 1-.95-.53 1.23 1.23 0 0 0-.33-.7c-.08-.11-.19-.23-.28-.37a2.49 2.49 0 0 1-.33-1.46c0-1.56.71-1.71 1.1-1.75a1.64 1.64 0 0 0 .19.25 1 1 0 0 0 .76.34 1.67 1.67 0 0 0 .86-.24l.1-.06a3.43 3.43 0 0 0 .95.12 2.94 2.94 0 0 0 1.25-.23 6.75 6.75 0 0 0 .91.05h.79a1.89 1.89 0 0 1 .49 0 .76.76 0 0 1 .46.35c.26.37-.14 3.21-.35 3.63a2.07 2.07 0 0 1-.87.39 2.23 2.23 0 0 0-.5 0 3.76 3.76 0 0 0-1.69-.25 3.27 3.27 0 0 0-2 .46Zm.17 16.53c1.92.11 2.4.24 2.45.71s-.2.61-1.79.61-3.34-.31-3.34-.67.78-.78 2.71-.65Zm29.58 15.16a10.56 10.56 0 0 1-2.26.53 4.81 4.81 0 0 0-2.12.36 1.21 1.21 0 0 1-1.43-.24c-.35-.41-1.24 0-1.24.3v1.06a24.32 24.32 0 0 1-6.11.06 29.89 29.89 0 0 1-5.45-1.37s3.55-.77 4-.41a3.81 3.81 0 0 0 1.26.83c.41.11 3.78.4 4.2.11s1-1 1.36-1.23 1.6 0 1.6-.48-1.66-1-2.72-.05a3.28 3.28 0 0 1-3.8.53c-1.18-.71-.18-.77-2.07-.71a14.86 14.86 0 0 0-3.44.41c-.41.12-1.65.23-1.77 0s.77-.59 1.72-.59 1.84-.13 1.84-.49-1.84-.18-3.33 0a7.73 7.73 0 0 1-3.26-.11A7.52 7.52 0 0 1 33 74.14s3.9.72 4.68.72 6-1.06 8.12-1.13a21.78 21.78 0 0 1 4.8.24c.29.17.35.6.7.66s.36-.83 1.38-.49 1.18.77 1.78.77h1s-.53.78.13 1 1.18-.31 2-.67a18.73 18.73 0 0 1 3.5-.59s-3.09 2.23-3.34 2.23Zm6-4.12C60.18 73 60.11 74 56.44 74c-4 0-4.33-1.12-9.62-1.12S41.36 74 38 74c-2.66 0-3.82-.83-6.61-1.16a23.16 23.16 0 0 1-2.3-2.45c4.62 0 5.64 1.32 8.91 1.32s3.52-1.14 8.8-1.14 5.6 1.11 9.62 1.11 3.73-1.21 8.5-1.21h1a22.31 22.31 0 0 1-2.13 2.29Zm2.75-3h-1.6c-4.77 0-4.48 1.2-8.5 1.2s-4.33-1.11-9.62-1.11S41.36 70.9 38 70.9s-4.33-1.31-9.1-1.31h-.41a22 22 0 0 1-1.42-2.18 11.14 11.14 0 0 1 1.83-.2c4.77 0 5.77 1.32 9.1 1.32s3.5-1.14 8.79-1.14 5.6 1.11 9.62 1.11 3.73-1.22 8.5-1.22a13.14 13.14 0 0 1 3 .32 21.79 21.79 0 0 1-1.37 2.12Zm1.89-2.88a16.25 16.25 0 0 0-3.49-.32c-4.77 0-4.48 1.21-8.5 1.21s-4.33-1.1-9.62-1.1-5.42 1.09-8.78 1.09-4.33-1.31-9.11-1.31a9.8 9.8 0 0 0-2.27.25c-.43-.8-.81-1.63-1.16-2.47a25.56 25.56 0 0 1 3.43-.16 17.86 17.86 0 0 1 5.1.67c.63.16 1.22.32 1.85.44a10.54 10.54 0 0 0 2.16.21 10.31 10.31 0 0 0 2-.18c.57-.11 1.07-.25 1.63-.39a19.08 19.08 0 0 1 5.13-.57c5.29 0 5.6 1.11 9.62 1.11a13.23 13.23 0 0 0 2.36-.18 15 15 0 0 0 1.61-.42 13.74 13.74 0 0 1 4.53-.61 13 13 0 0 1 2.76.25c.69.14 1.22.32 1.7.45-.23.68-.57 1.35-.91 1.99Zm.89-5.12a1 1 0 0 1 .1 1.74c-.7.24-1.32-.36-1.92-.72s-1.75-.06-2.35-.06-3 .18-3.81.12-.72.59-1.62 1-.66.22-2.77.4-4.17-.82-5.13-.87a3.49 3.49 0 0 1-2-.73c-.48-.35-1.59-.35-1.59-.71s4.18-.42 4.18-.42.65.11.65.42-.78.29-.65.59.71.19 1.07.12 1.26-.3 1.62.07a3.82 3.82 0 0 0 2.32.66c1 0 1.14-.36 1.08-.73s-2.35-.47-2.35-.78 5.11-.11 6.3-.11 3.7-.06 4.66-.13a6.49 6.49 0 0 1 2.25.1ZM32.52 42.47c.21 0 .39-.27.39-.61s-.18-.6-.39-.6-.4.27-.4.6.18.61.4.61Zm-3.93-.59c-.26 0-.45.27-.45.59s.19.58.45.58.43-.26.43-.58-.2-.59-.43-.59ZM30.9 44a.54.54 0 0 0 .47-.6.55.55 0 0 0-.47-.61.56.56 0 0 0-.48.61.55.55 0 0 0 .48.6Zm40.51 16.73v-.07a.19.19 0 0 1 0 .07ZM56.33 31.85h1.11l.79.78.79-.78h1.11v-1.12l.79-.78-.79-.79v-1.11H59l-.79-.79-.79.79h-1.09v1.11l-.78.79.78.78ZM26.61 41.5c-.2 0-.36.22-.36.48A.38.38 0 1 0 27 42a.44.44 0 0 0-.39-.5Zm8.69-9.65h1.12l.79.78.78-.78h1.12v-1.12l.78-.78-.78-.79v-1.11H38l-.78-.79-.79.79H35.3v1.11l-.78.79.78.78Zm-13 43.59-1.45 1.26a3.61 3.61 0 0 0 .48-1.44 1.75 1.75 0 0 0-.39-1.14 1.77 1.77 0 0 0-2-.66 3.94 3.94 0 0 0-1.39.74 3.12 3.12 0 0 0-.92 1 2 2 0 0 0-.25 1.11 2 2 0 0 0 .44 1.08 1.9 1.9 0 0 0 .76.63 3.26 3.26 0 0 0 1.3.17v.16a3 3 0 0 1-1.48-.13 2.57 2.57 0 0 1-1.08-.86 2.53 2.53 0 0 1-.45-2.36A3 3 0 0 1 17 73.43a3.22 3.22 0 0 1 1.47-.64 2.68 2.68 0 0 1 1.49.17 2.85 2.85 0 0 1 1.2.92 2.77 2.77 0 0 1 .46 1.12.58.58 0 0 0 .07.25.25.25 0 0 0 .18.11.64.64 0 0 0 .35-.06Zm-2.24 5.76-1.77-1.66h.24a.61.61 0 0 0 .5.24 1.25 1.25 0 0 0 .54-.36L22.25 77a2.63 2.63 0 0 0 .38-.43.42.42 0 0 0 0-.25.69.69 0 0 0-.2-.34v-.26l1.65 1.77h-.26a.6.6 0 0 0-.49-.22 1.19 1.19 0 0 0-.53.36L20.12 80a1.68 1.68 0 0 0-.38.42.41.41 0 0 0 0 .25.7.7 0 0 0 .18.34Zm1.61 1.25a4.71 4.71 0 0 0 .59.67 2.06 2.06 0 0 0 1.64.56 2.51 2.51 0 0 0 1.71-.93 2.65 2.65 0 0 0 .76-1.8 2.16 2.16 0 0 0-.76-1.59 3.81 3.81 0 0 0-.71-.49Zm-1.46-.77h.26a.54.54 0 0 0 .53.17 1.37 1.37 0 0 0 .48-.39l2.45-2.72c.23-.27.35-.46.35-.58a.6.6 0 0 0-.24-.45l-.04-.23L25.7 79a4.81 4.81 0 0 1 1.23 1.5 2.39 2.39 0 0 1 .16 1.43 3.07 3.07 0 0 1-.75 1.42 2.84 2.84 0 0 1-1.85 1 3.17 3.17 0 0 1-2.41-1Zm9 4.2.4-2.44-2 1.42Zm-.06.32-1.9-1.2-.79.55a1.26 1.26 0 0 0-.39.34.26.26 0 0 0 0 .26 1.12 1.12 0 0 0 .37.4l-1.58-.82a5 5 0 0 1 .55 0 2.41 2.41 0 0 0 .84-.44l4.14-2.89-.7 5.11a1.87 1.87 0 0 0 0 .85.85.85 0 0 0 .35.45l-2-1.06h.52a.33.33 0 0 0 .23-.14 2.17 2.17 0 0 0 .17-.58Zm2.77 3.17a5.29 5.29 0 0 0 .77.45 2.11 2.11 0 0 0 1.74 0 2.61 2.61 0 0 0 1.3-1.45 2.54 2.54 0 0 0 .14-2 2.12 2.12 0 0 0-1.24-1.25 3.32 3.32 0 0 0-.83-.22Zm-1.64-.25.25-.06a.55.55 0 0 0 .56 0 1.21 1.21 0 0 0 .33-.53l1.42-3.38a1 1 0 0 0 .15-.64.61.61 0 0 0-.36-.36l-.2-.09 2.17.76a5.13 5.13 0 0 1 1.67 1 2.35 2.35 0 0 1 .6 1.3 3 3 0 0 1-.24 1.58 2.84 2.84 0 0 1-1.42 1.54 3.18 3.18 0 0 1-2.61-.14Zm8.66-2.39-.53 2.17 1.2.3a1.08 1.08 0 0 0 .67 0 .94.94 0 0 0 .39-.59h.15l-.48 1.91h-.16a1.5 1.5 0 0 0 0-.55.48.48 0 0 0-.18-.27 1.09 1.09 0 0 0-.49-.2l-1.2-.31-.48 1.81a1.87 1.87 0 0 0-.08.46.53.53 0 0 0 .38.27l.92.23a2.49 2.49 0 0 0 .7.11 1.08 1.08 0 0 0 .46-.15 3.43 3.43 0 0 0 .7-.63h.17l-.82 1.26-4.23-1v-.15l.2.05a.86.86 0 0 0 .39 0 .35.35 0 0 0 .22-.15 2.2 2.2 0 0 0 .19-.53l.97-3.58a1.31 1.31 0 0 0 .06-.67.62.62 0 0 0-.44-.27l-.2-.06v-.15l4.23 1.06-.25 1.21h-.16a1.69 1.69 0 0 0 0-.65.62.62 0 0 0-.24-.32 1.84 1.84 0 0 0-.55-.21Zm6.1 6a4.36 4.36 0 0 0 .88.15 2.08 2.08 0 0 0 1.62-.62 2.58 2.58 0 0 0 .7-1.82 2.54 2.54 0 0 0-.57-1.86 2.11 2.11 0 0 0-1.67-.74 3.84 3.84 0 0 0-.85.08Zm-1.63.36v-.15h.22a.56.56 0 0 0 .51-.22 1.34 1.34 0 0 0 .11-.61l.13-3.65a1.2 1.2 0 0 0-.09-.66.67.67 0 0 0-.48-.21h-.21l2.3-.06a4.74 4.74 0 0 1 1.91.35 2.19 2.19 0 0 1 1 1 2.91 2.91 0 0 1 .35 1.57 2.82 2.82 0 0 1-.79 1.94 3.11 3.11 0 0 1-2.48.8Zm7.24-5.34.23 2.25 1.22-.15a.93.93 0 0 0 .62-.22.87.87 0 0 0 .16-.7H53l.24 1.94a2 2 0 0 1-.33-.49.6.6 0 0 0-.28-.2 1.47 1.47 0 0 0-.53 0l-1.24.15.24 1.85a1.14 1.14 0 0 0 .09.45.54.54 0 0 0 .44.13l.95-.13a2.68 2.68 0 0 0 .68-.14 1.15 1.15 0 0 0 .39-.32 4 4 0 0 0 .43-.84h.17L54 92.71l-4.32.53v-.15h.2a1.49 1.49 0 0 0 .37-.14.51.51 0 0 0 .16-.23 1.9 1.9 0 0 0 0-.55l-.45-3.65a1.53 1.53 0 0 0-.17-.64.72.72 0 0 0-.53-.1h-.2v-.17l4.33-.52.2 1.23c-.25-.28-.34-.47-.43-.57a.54.54 0 0 0-.34-.22 1.66 1.66 0 0 0-.59 0Zm10.46 1.33.15 1.59L57.05 92l.16-.21a.55.55 0 0 0 .41-.38 1.41 1.41 0 0 0-.1-.61l-1.14-3.47c-.1-.34-.21-.54-.31-.59a.58.58 0 0 0-.52 0l-.19.06 2.38-.94v.15a1.67 1.67 0 0 0-.57.27.55.55 0 0 0-.17.29 2 2 0 0 0 .13.62l1.11 3.39a1.14 1.14 0 0 0 .2.43.28.28 0 0 0 .19.07 2.14 2.14 0 0 0 .64-.16l.39-.12a2.89 2.89 0 0 0 .83-.37 1.29 1.29 0 0 0 .36-.47 3.25 3.25 0 0 0 .21-.89Zm0-4.25 1 2 1.1-.56c.3-.15.47-.29.51-.43a.91.91 0 0 0-.08-.7l1 1.68a2.18 2.18 0 0 1-.48-.36.59.59 0 0 0-.32-.08 1.4 1.4 0 0 0-.51.15l-1.11.58.85 1.65a1.87 1.87 0 0 0 .23.4.29.29 0 0 0 .17.06.7.7 0 0 0 .29-.1l.85-.44a2.33 2.33 0 0 0 .59-.37 1 1 0 0 0 .26-.42 3 3 0 0 0 .11-.94l.16-.08.2 1.49-3.88 2 .11-.22a.82.82 0 0 0 .3-.25.34.34 0 0 0 .07-.27 1.9 1.9 0 0 0-.21-.51l-1.66-3.27c-.16-.32-.3-.5-.4-.54a.66.66 0 0 0-.53.07l-.18.1 3.82-2.11.63 1.02a6.34 6.34 0 0 1-.6-.38.58.58 0 0 0-.4-.09 1.78 1.78 0 0 0-.55.21Zm7.65 1.55-1.95 1.44.08-.23a.64.64 0 0 0 .33-.45 1.34 1.34 0 0 0-.27-.59l-2-3.06a2 2 0 0 0-.35-.46.35.35 0 0 0-.24 0 .76.76 0 0 0-.38.11l-.17.12 1.95-1.45-.07.24a.62.62 0 0 0-.33.45 1.34 1.34 0 0 0 .27.59l2 3.06a2.21 2.21 0 0 0 .35.45.39.39 0 0 0 .25 0 .94.94 0 0 0 .37-.11ZM68.65 83l.18-.14a1.69 1.69 0 0 0 .71-1 1.09 1.09 0 0 0-.24-1 1.2 1.2 0 0 0-.79-.47 1.16 1.16 0 0 0-.89.3 4 4 0 0 0-.45.46Zm4.95-.27-1.18 1-3.15-.85-.26.22-.19.15 1 1.28a1.22 1.22 0 0 0 .51.44.61.61 0 0 0 .48-.17l.18-.13-1.79 1.63.07-.24a.53.53 0 0 0 .24-.5 1.16 1.16 0 0 0-.31-.53l-2.3-2.85c-.23-.28-.39-.42-.51-.43a.56.56 0 0 0-.49.15l-.17.15 1.51-1.43a4.61 4.61 0 0 1 1.11-.73 1.51 1.51 0 0 1 .87-.08 1.33 1.33 0 0 1 1.06 1.38 1.87 1.87 0 0 1-.47 1.09l1.93.52a2.81 2.81 0 0 0 1 .14 1.74 1.74 0 0 0 .74-.29Zm1.69-2-1.6 1.83v-.26a.64.64 0 0 0 .21-.51 1.36 1.36 0 0 0-.38-.52L71 78.68a1.54 1.54 0 0 0-.45-.35.28.28 0 0 0-.24 0 .77.77 0 0 0-.35.2h-.25l1.72-1.71v.25a.57.57 0 0 0-.2.5 1.15 1.15 0 0 0 .37.53l2.58 2.58a2.65 2.65 0 0 0 .44.37.52.52 0 0 0 .25 0 .77.77 0 0 0 .34-.2Zm1.07-4.35-2.36-.7 1.15 2.21Zm.32.1-1.37 1.69.44.86a2.14 2.14 0 0 0 .3.43.32.32 0 0 0 .26 0 1.07 1.07 0 0 0 .43-.32l-1 1.48c0-.31.06-.46 0-.56a2.73 2.73 0 0 0-.34-.88l-2.36-4.48 5 1.33a2.09 2.09 0 0 0 .85.13.84.84 0 0 0 .49-.3l-1.28 1.83c0-.27.08-.41.08-.52a.29.29 0 0 0-.12-.24 1.84 1.84 0 0 0-.55-.24Z"/><path class="cls-1" d="M23.15 25v30.53c0 13.19 10.94 23.88 24.42 23.88S72 68.72 72 55.53V25Z"/><path d="M101.67 6.13a6.71 6.71 0 0 0-.26-2.3 1.82 1.82 0 0 0-1.14-1.07 15.39 15.39 0 0 0-2.59-.65v-.68h8.72l7.89 22.9h.08l7.89-22.9h4.81v26.8h-3.46V3.54h-.08l-8.33 24.69h-3.1l-8.29-24.69h-.08v24.69h-2.06Zm44 22.1h3.06v-19l-6 1v.68a4.77 4.77 0 0 1 1.92.46c.66.3 1 1 1.06 2.17v5.69a8.5 8.5 0 0 1-.74 3.1 10.58 10.58 0 0 1-1.87 3 3.58 3.58 0 0 1-2.49 1.36 2.82 2.82 0 0 1-2.69-1.53 7.72 7.72 0 0 1-.66-3.49V9.28l-6.05 1v.68a4.85 4.85 0 0 1 1.92.46c.66.3 1 1 1.07 2.17v7.65a10.55 10.55 0 0 0 1.06 5.4c.75 1.35 2.22 2.05 4.39 2.08a5.29 5.29 0 0 0 3-.93 7.33 7.33 0 0 0 2-2 8.56 8.56 0 0 0 1-1.88h.08Zm9.81 0h3.07v-9.48a7.89 7.89 0 0 1 .81-3.12 10.39 10.39 0 0 1 2.06-3 4.07 4.07 0 0 1 2.74-1.36c1.34 0 2.16.46 2.45 1.26a7.75 7.75 0 0 1 .35 2.88v12.82H170V14.06a5.31 5.31 0 0 0-.91-3.46c-.66-.86-1.93-1.3-3.82-1.32a6 6 0 0 0-3.36 1 8.17 8.17 0 0 0-2.19 2.2 10.52 10.52 0 0 0-1.11 2.06h-.07V9.28l-6.09 1v.68a4.86 4.86 0 0 1 1.94.46c.67.3 1 1 1.08 2.17Zm21.09-14.69c-.06-1.15-.42-1.87-1.08-2.17a4.8 4.8 0 0 0-1.91-.46v-.68l6.05-1v19h-3.06Zm-.22-8.74a2.26 2.26 0 0 1-.66-1.58A2.24 2.24 0 0 1 177.92 1a2.18 2.18 0 0 1 1.56.65 2.21 2.21 0 0 1-1.56 3.8 2.24 2.24 0 0 1-1.61-.65Zm22.08 22.08c-.36.07-.73.12-1.1.17a8.08 8.08 0 0 1-1.09.07 7.32 7.32 0 0 1-4.69-1.55 8.8 8.8 0 0 1-2.7-3.79A13.21 13.21 0 0 1 188 17a8.19 8.19 0 0 1 1.13-4.6 3.52 3.52 0 0 1 3-1.61 3.16 3.16 0 0 1 2.7 1.14 3.84 3.84 0 0 1 .69 2.36h3.7a4.53 4.53 0 0 0-1.78-3.48 7.78 7.78 0 0 0-5-1.57q-4.26.11-6.07 2.68a10.66 10.66 0 0 0-1.77 6.44 11.35 11.35 0 0 0 2.16 7.41q2.22 2.79 7.4 2.86a14.42 14.42 0 0 0 2.55-.22 13.15 13.15 0 0 0 1.71-.41ZM204.44 2a2.86 2.86 0 0 1 .66-1.3 1.79 1.79 0 0 1 1.29-.37 1.64 1.64 0 0 1 1.06.36 1.26 1.26 0 0 1 .45 1 1.54 1.54 0 0 1-.19.7c-.14.24-.32.54-.56.89l-2.35 3.25h-1.71Zm-1.39 11.59c-.06-1.15-.41-1.87-1.08-2.17a4.8 4.8 0 0 0-1.91-.46v-.68l6.05-1v19h-3.06Zm9.6 0c-.07-1.21-.45-1.95-1.14-2.23a5.49 5.49 0 0 0-2-.44v-.72l6.21-.92v3h.07a5.08 5.08 0 0 1 1.59-1.94 5.19 5.19 0 0 1 3.2-1.08 6.4 6.4 0 0 1 5.55 2.74 12 12 0 0 1 1.76 6.89 15.52 15.52 0 0 1-.68 4.84 7.56 7.56 0 0 1-2.21 3.56 6.26 6.26 0 0 1-4.14 1.38 5.62 5.62 0 0 1-3.37-1.08 5.09 5.09 0 0 1-1.66-2.06h-.07v11.19h-3.06Zm3.06 6.41a12.13 12.13 0 0 0 .38 3 7.06 7.06 0 0 0 1.4 2.82 3.46 3.46 0 0 0 2.72 1.24 3.25 3.25 0 0 0 2.79-1.35 7.67 7.67 0 0 0 1.26-3.21 18.29 18.29 0 0 0 .3-3.51 16.3 16.3 0 0 0-.33-3.35 8.77 8.77 0 0 0-1.31-3.31 3.34 3.34 0 0 0-2.78-1.5 3.39 3.39 0 0 0-2.36 1 6.37 6.37 0 0 0-1.5 2.4 8.57 8.57 0 0 0-.52 2.95Zm17.57-6.49c-.05-1.15-.41-1.87-1.07-2.17a4.85 4.85 0 0 0-1.92-.46v-.68l6.05-1v19h-3.06Zm-.22-8.74a2.26 2.26 0 0 1-.66-1.58 2.23 2.23 0 0 1 .66-1.57 2.26 2.26 0 0 1 1.61-.62 2.24 2.24 0 0 1 2.23 2.22 2.19 2.19 0 0 1-2.23 2.23 2.26 2.26 0 0 1-1.61-.65ZM243.56 26a10.73 10.73 0 0 1-2.16-6.93 11.5 11.5 0 0 1 1.94-7.1q2-2.64 6.3-2.7a7.74 7.74 0 0 1 6.15 2.64A10.87 10.87 0 0 1 258 19q0 4.56-2 7.08c-1.37 1.68-3.45 2.54-6.23 2.56a7.7 7.7 0 0 1-6.21-2.64Zm1.57-3.52a7.32 7.32 0 0 0 1.45 3.21 4.39 4.39 0 0 0 6.46 0 6.92 6.92 0 0 0 1.34-3.2 19.11 19.11 0 0 0 .24-3.43 17 17 0 0 0-.32-3.6 7.24 7.24 0 0 0-1.42-3.24 4 4 0 0 0-3.19-1.41 4.16 4.16 0 0 0-3.37 1.41 6.61 6.61 0 0 0-1.32 3.26 22.76 22.76 0 0 0-.23 3.6 16.45 16.45 0 0 0 .36 3.41Zm29.95 3H275a4.07 4.07 0 0 1-1.13 1.33 3.57 3.57 0 0 1-2.2.71A4.34 4.34 0 0 1 268 25.7a7.82 7.82 0 0 1-1.26-4.6 9.73 9.73 0 0 1 .51-3.21 5.19 5.19 0 0 1 1.57-2.34 4.21 4.21 0 0 1 2.71-.91 3.8 3.8 0 0 1 2.3.74 3.92 3.92 0 0 1 1.17 1.35h.05V12a2.52 2.52 0 0 0-.42-1.75 2.06 2.06 0 0 0-1.59-.47v-.49l4.05-.58v18.53h-2Zm0-4.95a8.46 8.46 0 0 0-.25-2.13 4.44 4.44 0 0 0-.93-1.91 2.4 2.4 0 0 0-1.86-.83 2.28 2.28 0 0 0-1.88.93 5.28 5.28 0 0 0-.91 2.13 11.86 11.86 0 0 0-.25 2.38 11.6 11.6 0 0 0 .21 2.21 5.72 5.72 0 0 0 .85 2.2 2.19 2.19 0 0 0 1.85 1 2.46 2.46 0 0 0 1.9-.82 4.47 4.47 0 0 0 1-1.9 8.39 8.39 0 0 0 .27-2.18Zm14.68 6.52a7.51 7.51 0 0 1-1.15.28 11.6 11.6 0 0 1-2.13.19 5.88 5.88 0 0 1-4.55-1.76 7.33 7.33 0 0 1-1.63-5.07 7 7 0 0 1 1.22-4.46 4.94 4.94 0 0 1 4.11-1.6 4.47 4.47 0 0 1 3.15 1.12 4.59 4.59 0 0 1 1.29 3.48v.4h-7.73v.56A7.08 7.08 0 0 0 283 23a6.42 6.42 0 0 0 1.85 2.47 4.89 4.89 0 0 0 3.07 1.06 5.21 5.21 0 0 0 1-.1 8.82 8.82 0 0 0 .92-.22Zm-2-8.55a3.19 3.19 0 0 0-.66-2 2.26 2.26 0 0 0-1.84-.86 2.76 2.76 0 0 0-1.81.59 3.06 3.06 0 0 0-.85 1.29 5.07 5.07 0 0 0-.25 1.19h5.41ZM110.59 95h33l.41-13.14h-2.77a19.57 19.57 0 0 1-1.6 7.1c-.85 1.72-2.87 2.58-6.07 2.62h-7.95a18.4 18.4 0 0 1-5.15-.41A2.61 2.61 0 0 1 118.6 89a27.34 27.34 0 0 1-.26-5.29V35.05l-16.67 2.05v1.51c2 .19 3.72.41 5 .65a4.56 4.56 0 0 1 2.93 1.65 7.41 7.41 0 0 1 1 4.29Zm69.88-.62a21.93 21.93 0 0 1-3.86 1 41 41 0 0 1-7.2.64q-9.9 0-15.3-5.92c-3.59-3.92-5.43-9.61-5.46-17.09q-.12-9.69 4.07-15t13.84-5.39a15.09 15.09 0 0 1 10.63 3.78q4.19 3.8 4.34 11.73v1.34h-26v1.87a23.78 23.78 0 0 0 2.09 9.35A21.73 21.73 0 0 0 163.8 89a16.3 16.3 0 0 0 10.35 3.57 17.59 17.59 0 0 0 3.22-.33c1.08-.21 2.11-.46 3.1-.73Zm-6.68-28.79A10.68 10.68 0 0 0 171.6 59a7.77 7.77 0 0 0-6.2-2.9 9.18 9.18 0 0 0-6.09 2 9.9 9.9 0 0 0-2.86 4.31 16.08 16.08 0 0 0-.86 4h18.2Zm18.68-3.49q-.19-3.86-2.41-4.85a11.12 11.12 0 0 0-4.28-1v-1.5l13.54-2.14V95h-6.85ZM192 47.61a4.95 4.95 0 0 1 0-7.06 5.08 5.08 0 0 1 3.6-1.46 5 5 0 0 1 3.49 8.59 5 5 0 0 1-3.49 1.39 5.12 5.12 0 0 1-3.6-1.46ZM213.59 95h6.85V73.65a26.93 26.93 0 0 1 .65-6.1 11.93 11.93 0 0 1 2.84-5.62c1.44-1.56 3.57-2.38 6.42-2.46a6.2 6.2 0 0 1 1.46.21l1.48.41V52.7a2.8 2.8 0 0 0-.81-.09 11.1 11.1 0 0 0-6.57 1.92 11.68 11.68 0 0 0-3.58 4.27 25.24 25.24 0 0 0-1.71 4.41h-.18v-10.6l-13.62 2.14v1.5a11 11 0 0 1 4.35 1.07c1.49.7 2.29 2.4 2.42 5.09Zm28.52-32.9c-.12-2.57-.93-4.19-2.41-4.85a11 11 0 0 0-4.27-1v-1.5L249 52.61V95h-6.86Zm-.49-14.53a5 5 0 0 1 0-7.06 5.14 5.14 0 0 1 3.61-1.46 5 5 0 0 1 3.49 8.59 5 5 0 0 1-3.49 1.39 5.18 5.18 0 0 1-3.61-1.42Zm41.59 41.74a22 22 0 0 1-4.5 4.24 14.42 14.42 0 0 1-8.17 2.45 10.78 10.78 0 0 1-7.75-3 10.48 10.48 0 0 1-2.94-7.58 10.32 10.32 0 0 1 2.84-7.42 16 16 0 0 1 6.67-3.93 37.21 37.21 0 0 1 7.76-1.56c2.53-.23 4.57-.35 6.09-.37v-3.39a41.14 41.14 0 0 0-.28-6.07A8.5 8.5 0 0 0 281 58q-1.59-1.83-5.28-1.9a7.38 7.38 0 0 0-4.89 1.53 6.48 6.48 0 0 0-2 3.26 14.24 14.24 0 0 0-.5 3.06h-7.93a11.1 11.1 0 0 1 3.53-7.62q3.4-3.48 12.07-3.69 5.91 0 9 2a9.41 9.41 0 0 1 4.12 5.17 22.81 22.81 0 0 1 1 7.41V95h-6.86Zm0-14.37a36.53 36.53 0 0 0-5.75.53 17 17 0 0 0-6.78 2.54 7.38 7.38 0 0 0-3.26 6.3 8.28 8.28 0 0 0 1.52 4.83c1 1.54 2.79 2.37 5.26 2.49a7.38 7.38 0 0 0 5-2 11.81 11.81 0 0 0 3-4.5 14.09 14.09 0 0 0 1-4.94Z"/></g></g></svg>