<svg id="Camada_1" data-name="Camada 1" xmlns="http://www.w3.org/2000/svg" viewBox="0 0 1002.89 444.19"><defs><style>.cls-1{fill:#ffb01f}.cls-2{fill:#181d63}</style></defs><path class="cls-1" d="M213.12 128.11A96.85 96.85 0 1 0 310 225a96.84 96.84 0 0 0-96.88-96.89Zm0 179.37A82.53 82.53 0 1 1 295.65 225a82.62 82.62 0 0 1-82.53 82.48Z"/><path class="cls-1" d="M213.12 172a53 53 0 1 0 53 53 53 53 0 0 0-53-53Zm0 91.67A38.68 38.68 0 1 1 251.8 225a38.72 38.72 0 0 1-38.68 38.63Z"/><path class="cls-1" d="M245.88 53.19H41.36v343.52h343.52V53.19Zm124.69 14.32v109.6a75.41 75.41 0 0 1-36.9-46.11 35.81 35.81 0 0 0-23.42-24.45 75.56 75.56 0 0 1-44.52-39Zm-314.89 0h109.6a75.41 75.41 0 0 1-46.12 36.9 35.8 35.8 0 0 0-24.46 23.42 75.52 75.52 0 0 1-39 44.52Zm0 314.89V272.8a75.41 75.41 0 0 1 36.89 46.11A35.82 35.82 0 0 0 116 343.37a75.56 75.56 0 0 1 44.52 39Zm314.89 0H261a75.43 75.43 0 0 1 46.12-36.9 35.78 35.78 0 0 0 24.46-23.42 75.53 75.53 0 0 1 39-44.52Zm0-120.44a89.94 89.94 0 0 0-52.64 55.67 21.48 21.48 0 0 1-14.69 14.08 89.91 89.91 0 0 0-58.16 50.69h-69a89.91 89.91 0 0 0-55.68-52.63 21.5 21.5 0 0 1-14.08-14.7 89.89 89.89 0 0 0-50.68-58.16V188a90 90 0 0 0 52.63-55.67A21.49 21.49 0 0 1 123 118.19a89.89 89.89 0 0 0 58.16-50.68h69a89.9 89.9 0 0 0 55.67 52.63 21.48 21.48 0 0 1 14.08 14.7A89.93 89.93 0 0 0 370.57 193Z"/><path class="cls-2" d="M465.51 52.87v240.65H409.9V52.87ZM509.9 84.57a27.91 27.91 0 0 1-9.27-21.3 28.27 28.27 0 0 1 9.27-21.62Q519.16 33 533.8 33q14.31 0 23.58 8.62a28.27 28.27 0 0 1 9.27 21.62 27.91 27.91 0 0 1-9.27 21.3q-9.27 8.63-23.58 8.62-14.64.03-23.9-8.59Zm51.54 27.48v181.47h-55.61V112.05ZM633.31 288q-18.54-8.12-29.27-22.27A58.68 58.68 0 0 1 592 234h55a21.12 21.12 0 0 0 8.78 15.28q7.82 5.86 19.19 5.86 10.41 0 16.1-4.07a12.45 12.45 0 0 0 5.69-10.57q0-7.8-8.13-11.54t-26.34-8.3a246 246 0 0 1-32.52-9.59 56.1 56.1 0 0 1-22.44-15.93q-9.43-10.9-9.43-29.44a50 50 0 0 1 8.61-28.45q8.63-12.84 25.37-20.33t39.84-7.48q34.14 0 53.82 16.91t22.6 44.88h-51.41a22.18 22.18 0 0 0-8.29-15q-7-5.52-18.38-5.53-9.75 0-15 3.74a12 12 0 0 0-5.2 10.25q0 7.8 8.29 11.71t25.86 7.8a282.66 282.66 0 0 1 32.84 10.25 56.66 56.66 0 0 1 22.28 16.26q9.58 11.22 9.92 30.08a47.67 47.67 0 0 1-9 28.45q-8.85 12.57-25.6 19.76t-38.86 7.15q-23.74-.03-42.28-8.15ZM782.75 153.36q10.56-21.13 28.78-32.53a75.2 75.2 0 0 1 40.65-11.38q19.19 0 33.66 7.81a57.45 57.45 0 0 1 22.27 20.49v-25.7h55.61v181.47h-55.61v-25.69a60.05 60.05 0 0 1-22.6 20.49q-14.47 7.8-33.66 7.8a73.74 73.74 0 0 1-40.32-11.54q-18.22-11.58-28.78-32.85t-10.57-49.27q0-27.96 10.57-49.1Zm113.82 16.58a39.08 39.08 0 0 0-56.26-.16q-11.55 11.88-11.55 32.68t11.55 33a38.7 38.7 0 0 0 56.26.16q11.53-12 11.54-32.84t-11.54-32.84ZM411.69 326h15.5v2.9h-12.08v8.43h10.19v2.9h-10.19V350h12.49v2.89h-15.91ZM430.77 350.61l1.66-2.22a9 9 0 0 0 5.88 2.36c2.62 0 3.91-1.4 3.91-3.1 0-2-2.35-2.95-4.55-3.77-2.79-1-5.94-2.4-5.94-5.76 0-3.18 2.55-5.65 6.87-5.65a10 10 0 0 1 6.19 2.24l-1.61 2.16a7.46 7.46 0 0 0-4.54-1.78c-2.51 0-3.67 1.34-3.67 2.86 0 1.9 2.17 2.62 4.42 3.46 2.88 1.08 6.08 2.25 6.08 6 0 3.23-2.57 5.92-7.27 5.92a12 12 0 0 1-7.43-2.72ZM449.92 346.72v-11h-3v-2.56l3.11-.19.41-5.59h2.81V333h5.4v2.75h-5.4v11.07c0 2.44.79 3.85 3.08 3.85a6.61 6.61 0 0 0 2.27-.54l.65 2.55a12 12 0 0 1-3.69.73c-4.2-.04-5.64-2.72-5.64-6.69ZM462.91 345.58V333h3.38v12.19c0 3.71 1.12 5.3 3.75 5.3 2 0 3.45-1 5.34-3.36V333h3.37v19.92H476l-.28-3.12h-.11c-1.85 2.18-3.84 3.61-6.57 3.61-4.24-.04-6.13-2.74-6.13-7.83ZM484.06 343c0-6.47 4.07-10.48 8.62-10.48a8.16 8.16 0 0 1 5.58 2.31l-.14-3.42v-7.68h3.37v29.2h-2.78l-.29-2.35h-.11a8.81 8.81 0 0 1-6.05 2.84c-4.97-.05-8.2-3.83-8.2-10.42Zm14.06 4.87v-10.49a7 7 0 0 0-4.86-2.08c-3.19 0-5.72 3.08-5.72 7.62 0 4.77 2 7.62 5.47 7.62 1.84 0 3.44-.9 5.11-2.72ZM506.74 343c0-6.65 4.35-10.48 9.24-10.48s9.23 3.83 9.23 10.48-4.35 10.42-9.23 10.42-9.24-3.88-9.24-10.42Zm15 0c0-4.57-2.33-7.68-5.75-7.68s-5.75 3.11-5.75 7.68 2.32 7.62 5.75 7.62 5.74-3.11 5.74-7.62ZM541.4 326h3.42v24h11.74v2.89H541.4ZM559 343c0-6.65 4.35-10.48 9.23-10.48s9.23 3.83 9.23 10.48-4.35 10.42-9.23 10.42S559 349.54 559 343Zm15 0c0-4.57-2.32-7.68-5.75-7.68s-5.75 3.11-5.75 7.68 2.32 7.62 5.75 7.62S574 347.51 574 343ZM582.72 333h2.79l.28 2.87h.11c1.9-1.86 4-3.36 6.69-3.36 4.2 0 6.08 2.71 6.08 7.79v12.62h-3.37v-12.23c0-3.71-1.12-5.29-3.76-5.29-2 0-3.45 1-5.45 3.06v14.42h-3.37ZM603.63 356.71c0-1.71 1.09-3.31 2.92-4.51v-.2a3.69 3.69 0 0 1-1.78-3.26 4.76 4.76 0 0 1 2.19-3.7v-.17a6.92 6.92 0 0 1-2.58-5.35c0-4.35 3.44-7.09 7.48-7.09a8 8 0 0 1 2.81.49h7v2.6h-4.09a5.72 5.72 0 0 1 1.62 4.1c0 4.26-3.22 6.9-7.29 6.9a7.19 7.19 0 0 1-3-.67 2.91 2.91 0 0 0-1.27 2.35c0 1.27.82 2.16 3.49 2.16H615c4.63 0 7 1.46 7 4.76 0 3.7-3.92 6.89-10.07 6.89-4.93.04-8.3-1.87-8.3-5.3Zm15-1c0-1.85-1.4-2.48-4-2.48h-3.44a11 11 0 0 1-2.58-.3 4.16 4.16 0 0 0-2 3.35c0 2.14 2.16 3.49 5.78 3.49 3.76-.04 6.26-2.02 6.26-4.1Zm-2.56-16.11c0-2.89-1.88-4.65-4.23-4.65s-4.23 1.73-4.23 4.65 1.93 4.74 4.23 4.74 4.25-1.88 4.25-4.78ZM625.18 326.69a2.34 2.34 0 0 1 4.66 0 2.34 2.34 0 0 1-4.66 0Zm.62 6.27h3.37v19.92h-3.37ZM636.47 346.72v-11h-3v-2.56l3.11-.19.41-5.59h2.81V333h5.4v2.75h-5.4v11.07c0 2.44.79 3.85 3.08 3.85a6.56 6.56 0 0 0 2.27-.54l.65 2.55a11.92 11.92 0 0 1-3.69.73c-4.2-.04-5.64-2.72-5.64-6.69ZM649.47 345.58V333h3.37v12.19c0 3.71 1.12 5.3 3.76 5.3 2 0 3.45-1 5.33-3.36V333h3.37v19.92h-2.78l-.29-3.12h-.11c-1.85 2.18-3.84 3.61-6.57 3.61-4.2-.04-6.08-2.74-6.08-7.83ZM670.61 343c0-6.47 4.08-10.48 8.62-10.48a8.12 8.12 0 0 1 5.58 2.31l-.14-3.42v-7.68H688v29.2h-2.78l-.29-2.35h-.11a8.81 8.81 0 0 1-6 2.84c-4.98-.05-8.21-3.83-8.21-10.42Zm14.06 4.87v-10.49a7 7 0 0 0-4.86-2.08c-3.18 0-5.72 3.08-5.72 7.62 0 4.77 2 7.62 5.47 7.62 1.84 0 3.44-.9 5.11-2.72ZM694.16 326.69a2.34 2.34 0 0 1 4.66 0 2.34 2.34 0 0 1-4.66 0Zm.62 6.27h3.37v19.92h-3.37ZM704.86 333h2.78l.29 2.87h.07c1.9-1.86 4-3.36 6.68-3.36 4.2 0 6.09 2.71 6.09 7.79v12.62h-3.37v-12.23c0-3.71-1.13-5.29-3.76-5.29-2 0-3.45 1-5.45 3.06v14.42h-3.37ZM726.05 347.71c0-4.34 3.74-6.51 12.23-7.43 0-2.57-.86-5-4.11-5a11 11 0 0 0-5.94 2.14l-1.32-2.31a14.64 14.64 0 0 1 7.82-2.6c4.87 0 6.92 3.23 6.92 8.19v12.22h-2.78l-.29-2.38h-.11a10.59 10.59 0 0 1-6.59 2.87c-3.33-.04-5.83-2.11-5.83-5.7Zm12.23.31v-5.53c-6.68.8-8.93 2.44-8.93 5 0 2.27 1.53 3.19 3.49 3.19s3.51-.96 5.44-2.68ZM747.94 348.88v-25.2h3.37v25.45c0 1 .45 1.44.94 1.44a3 3 0 0 0 .74-.08l.45 2.57a5.46 5.46 0 0 1-1.94.31c-2.5 0-3.56-1.61-3.56-4.49ZM767.77 343c0-6.47 4.08-10.48 8.62-10.48a8.17 8.17 0 0 1 5.59 2.31l-.15-3.42v-7.68h3.38v29.2h-2.79l-.28-2.35H782a8.79 8.79 0 0 1-6 2.84c-5-.05-8.23-3.83-8.23-10.42Zm14.06 4.87v-10.49a7 7 0 0 0-4.83-2.08c-3.19 0-5.72 3.08-5.72 7.62 0 4.77 2 7.62 5.47 7.62 1.82 0 3.41-.9 5.08-2.72ZM790.46 343c0-6.49 4.37-10.48 9-10.48 5.08 0 8 3.65 8 9.35a10.33 10.33 0 0 1-.16 1.91h-13.51c.25 4.22 2.83 7 6.62 7a8.77 8.77 0 0 0 5-1.59l1.21 2.21a11.74 11.74 0 0 1-6.58 2.06c-5.35-.09-9.58-3.97-9.58-10.46Zm13.93-1.63c0-4-1.8-6.17-4.91-6.17-2.8 0-5.31 2.25-5.72 6.17ZM823.39 326h3.42v24h11.74v2.89h-15.16ZM842.38 326.69a2.33 2.33 0 1 1 2.33 2.17 2.2 2.2 0 0 1-2.33-2.17ZM843 333h3.37v19.92H843ZM853.67 346.72v-11h-3v-2.56l3.12-.19.4-5.59H857V333h5.4v2.75H857v11.07c0 2.44.78 3.85 3.08 3.85a6.61 6.61 0 0 0 2.27-.54l.65 2.55a12 12 0 0 1-3.7.73c-4.2-.04-5.63-2.72-5.63-6.69ZM864.88 343c0-6.49 4.37-10.48 9-10.48 5.08 0 7.95 3.65 7.95 9.35a11.38 11.38 0 0 1-.15 1.91h-13.47c.24 4.22 2.82 7 6.62 7a8.77 8.77 0 0 0 5-1.59l1.2 2.21a11.71 11.71 0 0 1-6.57 2.06c-5.36-.09-9.58-3.97-9.58-10.46Zm13.92-1.63c0-4-1.79-6.17-4.91-6.17-2.8 0-5.3 2.25-5.71 6.17ZM886.69 333h2.78l.28 3.63h.12c1.38-2.53 3.42-4.12 5.66-4.12a4.63 4.63 0 0 1 2.13.41l-.63 3a5.51 5.51 0 0 0-1.93-.33c-1.69 0-3.7 1.21-5 4.58v12.79h-3.37ZM898.69 347.71c0-4.34 3.74-6.51 12.24-7.43 0-2.57-.86-5-4.12-5a11 11 0 0 0-5.94 2.14l-1.32-2.31a14.67 14.67 0 0 1 7.83-2.6c4.86 0 6.92 3.23 6.92 8.19v12.22h-2.79l-.28-2.38h-.11a10.59 10.59 0 0 1-6.59 2.87c-3.34-.04-5.84-2.11-5.84-5.7Zm12.24.31v-5.53c-6.68.8-8.94 2.44-8.94 5 0 2.27 1.54 3.19 3.49 3.19s3.52-.96 5.45-2.68ZM919.1 343c0-6.65 4.49-10.48 9.59-10.48a8.35 8.35 0 0 1 5.82 2.34l-1.72 2.14a5.78 5.78 0 0 0-3.95-1.77c-3.61 0-6.26 3.11-6.26 7.68s2.5 7.62 6.17 7.62a7.16 7.16 0 0 0 4.67-2l1.47 2.26a9.69 9.69 0 0 1-6.45 2.53c-5.3.05-9.34-3.78-9.34-10.32ZM938.65 326.69a2.34 2.34 0 0 1 4.66 0 2.34 2.34 0 0 1-4.66 0Zm.62 6.27h3.37v19.92h-3.37ZM948.12 347.71c0-4.34 3.74-6.51 12.23-7.43 0-2.57-.85-5-4.11-5a11 11 0 0 0-5.94 2.14l-1.3-2.35a14.64 14.64 0 0 1 7.83-2.6c4.86 0 6.91 3.23 6.91 8.19v12.22h-2.78l-.28-2.38h-.12a10.56 10.56 0 0 1-6.58 2.87c-3.36 0-5.86-2.07-5.86-5.66Zm12.23.31v-5.53c-6.67.8-8.93 2.44-8.93 5 0 2.27 1.54 3.19 3.49 3.19s3.51-.96 5.44-2.68ZM409.9 386c0-6.48 4.37-10.48 9-10.48 5.08 0 7.95 3.65 7.95 9.35a10.44 10.44 0 0 1-.16 1.92h-13.46c.24 4.22 2.82 6.95 6.62 6.95a8.64 8.64 0 0 0 4.95-1.59l1.2 2.25a11.67 11.67 0 0 1-6.58 2.07c-5.3 0-9.52-3.88-9.52-10.47Zm13.92-1.63c0-4-1.79-6.16-4.91-6.16-2.8 0-5.3 2.25-5.71 6.16ZM431.7 376.06h2.79l.28 2.88h.12c1.74-1.88 3.82-3.38 6.2-3.38a5.27 5.27 0 0 1 5.5 3.8c2.06-2.24 4.14-3.8 6.57-3.8 4.09 0 6.06 2.71 6.06 7.8V396h-3.37v-12.21c0-3.71-1.18-5.3-3.71-5.3-1.55 0-3.15 1-5 3.06V396h-3.37v-12.21c0-3.71-1.18-5.3-3.71-5.3-1.5 0-3.15 1-5 3.06V396h-3.36ZM474.66 392.48l2-2.35a10.5 10.5 0 0 0 7.42 3.33c3.53 0 5.62-1.76 5.62-4.37s-1.94-3.62-4.48-4.73l-3.87-1.71c-2.5-1.07-5.44-3-5.44-6.92 0-4.11 3.58-7.14 8.46-7.14a11.11 11.11 0 0 1 7.92 3.33l-1.81 2.2a8.59 8.59 0 0 0-6.11-2.52c-3 0-5 1.52-5 3.92 0 2.6 2.34 3.56 4.45 4.46l3.84 1.65c3.11 1.34 5.54 3.2 5.54 7.2 0 4.25-3.52 7.64-9.17 7.64a12.9 12.9 0 0 1-9.37-3.99ZM497 390.81c0-4.34 3.74-6.51 12.23-7.44 0-2.56-.85-5-4.11-5a10.94 10.94 0 0 0-5.94 2.14l-1.32-2.31a14.56 14.56 0 0 1 7.83-2.61c4.86 0 6.92 3.24 6.92 8.2V396h-2.79l-.28-2.38h-.12a10.54 10.54 0 0 1-6.58 2.87c-3.39-.02-5.84-2.09-5.84-5.68Zm12.23.31v-5.54c-6.67.81-8.93 2.44-8.93 5 0 2.26 1.54 3.18 3.49 3.18s3.47-.94 5.39-2.64ZM518.57 388.68v-12.62h3.37v12.18c0 3.71 1.13 5.3 3.76 5.3 2 0 3.45-1 5.34-3.35v-14.13h3.37V396h-2.79l-.28-3.12h-.11c-1.85 2.17-3.84 3.61-6.57 3.61-4.2-.02-6.09-2.73-6.09-7.81Zm5.76-17.88 5.8-6.82 2.37 2.23-6.44 6.27ZM539.72 386c0-6.46 4.07-10.48 8.62-10.48a8.21 8.21 0 0 1 5.58 2.31l-.14-3.41v-7.68h3.37V396h-2.79l-.28-2.35H554a8.81 8.81 0 0 1-6.05 2.84c-5.01-.02-8.23-3.81-8.23-10.49Zm14.06 4.87v-10.4a7 7 0 0 0-4.86-2.07c-3.19 0-5.72 3.07-5.72 7.61 0 4.78 2 7.62 5.47 7.62 1.84 0 3.44-.89 5.11-2.72ZM562.4 386c0-6.48 4.37-10.48 9-10.48 5.08 0 7.95 3.65 7.95 9.35a10.44 10.44 0 0 1-.16 1.92h-13.45c.24 4.22 2.82 6.95 6.61 6.95a8.64 8.64 0 0 0 5-1.59l1.21 2.21a11.67 11.67 0 0 1-6.58 2.07c-5.35.04-9.58-3.84-9.58-10.43Zm13.93-1.63c0-4-1.8-6.16-4.91-6.16-2.8 0-5.3 2.25-5.71 6.16ZM594.83 376.06h2.78l.29 2.87h.1c1.9-1.87 4-3.37 6.68-3.37 4.2 0 6.08 2.71 6.08 7.8V396h-3.36v-12.21c0-3.71-1.12-5.3-3.76-5.3-2 0-3.44 1-5.44 3.06V396h-3.37ZM615.77 386c0-6.64 4.34-10.48 9.23-10.48s9.23 3.84 9.23 10.48-4.35 10.43-9.23 10.43-9.23-3.79-9.23-10.43Zm15 0c0-4.56-2.33-7.67-5.75-7.67s-5.75 3.11-5.75 7.67 2.32 7.62 5.75 7.62 5.73-3.01 5.73-7.62ZM648.66 382.55c0-8.67 5.12-14 11.94-14a10 10 0 0 1 7.4 3.32l-1.88 2.22a7.29 7.29 0 0 0-5.46-2.53c-5.08 0-8.46 4.16-8.46 10.86s3.23 11 8.33 11a8.05 8.05 0 0 0 6.23-3l1.88 2.15a10.37 10.37 0 0 1-8.25 3.88c-6.7.02-11.73-5.16-11.73-13.9ZM671.83 386c0-6.64 4.35-10.48 9.24-10.48s9.23 3.84 9.23 10.48-4.35 10.43-9.23 10.43-9.24-3.79-9.24-10.43Zm15 0c0-4.56-2.32-7.67-5.74-7.67s-5.75 3.11-5.75 7.67 2.32 7.62 5.75 7.62 5.72-3.01 5.72-7.62ZM695.53 376.06h2.78l.29 2.87h.11c1.9-1.87 3.95-3.37 6.68-3.37 4.2 0 6.09 2.71 6.09 7.8V396h-3.37v-12.21c0-3.71-1.13-5.3-3.76-5.3-2 0-3.45 1-5.45 3.06V396h-3.37ZM716.47 386c0-6.64 4.49-10.48 9.58-10.48a8.36 8.36 0 0 1 5.83 2.34l-1.72 2.23a5.77 5.77 0 0 0-4-1.76c-3.6 0-6.25 3.11-6.25 7.67s2.5 7.62 6.16 7.62a7.16 7.16 0 0 0 4.68-2l1.46 2.26a9.71 9.71 0 0 1-6.44 2.53c-5.26.06-9.3-3.77-9.3-10.41ZM734.3 386c0-6.48 4.37-10.48 9-10.48 5.08 0 8 3.65 8 9.35a11.51 11.51 0 0 1-.15 1.92h-13.52c.24 4.22 2.82 6.95 6.62 6.95a8.69 8.69 0 0 0 5-1.59l1.2 2.21a11.63 11.63 0 0 1-6.57 2.07c-5.35.04-9.58-3.84-9.58-10.43Zm13.92-1.63c0-4-1.79-6.16-4.91-6.16-2.8 0-5.3 2.25-5.71 6.16ZM756.11 392v-25.2h3.37v25.44c0 1 .45 1.44.94 1.44a2.9 2.9 0 0 0 .73-.08l.46 2.58a5.46 5.46 0 0 1-1.94.31c-2.53-.02-3.56-1.63-3.56-4.49ZM766.56 366.78h3.37v8l-.12 4.09c1.86-1.8 3.88-3.3 6.61-3.3 4.2 0 6.08 2.71 6.08 7.8V396h-3.37v-12.21c0-3.71-1.12-5.3-3.76-5.3-2 0-3.44 1-5.44 3.06V396h-3.37ZM787.37 386c0-6.64 4.35-10.48 9.23-10.48s9.24 3.84 9.24 10.48-4.35 10.43-9.24 10.43-9.23-3.79-9.23-10.43Zm15 0c0-4.56-2.32-7.67-5.75-7.67s-5.74 3.11-5.74 7.67 2.32 7.62 5.74 7.62 5.73-3.01 5.73-7.62ZM820.1 386c0-6.46 4.08-10.48 8.62-10.48a8.17 8.17 0 0 1 5.58 2.31l-.14-3.41v-7.68h3.37V396h-2.78l-.29-2.35h-.11a8.81 8.81 0 0 1-6.05 2.84c-4.97-.02-8.2-3.81-8.2-10.49Zm14.06 4.87v-10.4a7 7 0 0 0-4.86-2.07c-3.18 0-5.72 3.07-5.72 7.61 0 4.78 2 7.62 5.47 7.62 1.84 0 3.44-.89 5.11-2.72ZM842.79 386c0-6.48 4.37-10.48 9-10.48 5.08 0 8 3.65 8 9.35a10.44 10.44 0 0 1-.16 1.92h-13.51c.24 4.22 2.82 6.95 6.62 6.95a8.69 8.69 0 0 0 5-1.59l1.2 2.21a11.64 11.64 0 0 1-6.58 2.07c-5.36.04-9.57-3.84-9.57-10.43Zm13.92-1.63c0-4-1.79-6.16-4.91-6.16-2.8 0-5.3 2.25-5.71 6.16ZM875.53 369.08H879v24h11.74V396h-15.21ZM893.16 386c0-6.48 4.37-10.48 9-10.48 5.08 0 7.95 3.65 7.95 9.35a11.51 11.51 0 0 1-.15 1.92h-13.47c.24 4.22 2.82 6.95 6.62 6.95a8.69 8.69 0 0 0 5-1.59l1.2 2.21a11.63 11.63 0 0 1-6.57 2.07c-5.36.04-9.58-3.84-9.58-10.43Zm13.92-1.63c0-4-1.79-6.16-4.91-6.16-2.8 0-5.3 2.25-5.71 6.16ZM914.35 369.78a2.34 2.34 0 0 1 4.66 0 2.34 2.34 0 0 1-4.66 0Zm.62 6.28h3.37V396H915ZM925.05 376.06h2.78l.29 3.62h.11c1.39-2.52 3.42-4.12 5.66-4.12a4.74 4.74 0 0 1 2.11.44l-.63 3a5.7 5.7 0 0 0-1.93-.33c-1.69 0-3.7 1.22-5 4.59V396h-3.37ZM938.65 369.78a2.34 2.34 0 0 1 4.66 0 2.34 2.34 0 0 1-4.66 0Zm.62 6.28h3.37V396h-3.37ZM948.12 390.81c0-4.34 3.74-6.51 12.23-7.44 0-2.56-.86-5-4.11-5a10.94 10.94 0 0 0-5.94 2.14l-1.3-2.34a14.56 14.56 0 0 1 7.82-2.61c4.87 0 6.92 3.24 6.92 8.2V396h-2.78l-.29-2.38h-.11a10.56 10.56 0 0 1-6.59 2.87c-3.35-.02-5.85-2.09-5.85-5.68Zm12.23.31v-5.54c-6.67.81-8.93 2.44-8.93 5 0 2.26 1.54 3.18 3.49 3.18s3.51-.94 5.44-2.64Z"/></svg>