<svg xmlns="http://www.w3.org/2000/svg" viewBox="0 0 1663.79 1501.07"><defs><style>.a{fill:#262560}.b{opacity:.5}.c{fill:#9ac4e8}.d{fill:#fcb022}</style></defs><path class="a" d="M1218.78.88v138.34h139.61V.88Zm5.82 132.57V69.71a48.8 48.8 0 0 1 19.56-39l9.52-7.14 9.53 7.14a49.43 49.43 0 0 1 14.4 17.23 48.75 48.75 0 0 1 5.16 21.77v63.74Zm128-56.55v56.55h-58.2V69.71a48.77 48.77 0 0 1 19.57-39l9.52-7.14 9.52 7.14a48.77 48.77 0 0 1 19.57 39Zm-16-50.78-13-9.79-13 9.79a54.5 54.5 0 0 0-21.87 43.59 54.53 54.53 0 0 0-21.87-43.59l-13-9.79-13 9.79a54.73 54.73 0 0 0-16.05 19.16V6.65h128v38.63a54.94 54.94 0 0 0-16.28-19.16Z"/><g class="b"><path class="c" d="M1441.29 31.05a39 39 0 1 0 39.36 39 39.18 39.18 0 0 0-39.36-39Zm0 72.24a33.24 33.24 0 1 1 33.54-33.24 33.42 33.42 0 0 1-33.54 33.24Z"/><path class="c" d="M1441.29 48.71a21.34 21.34 0 1 0 21.53 21.34 21.44 21.44 0 0 0-21.53-21.34Zm0 36.92A15.58 15.58 0 1 1 1457 70.05a15.67 15.67 0 0 1-15.71 15.58Z"/><path class="c" d="M1454.6.88h-83.12v138.34h139.61V.88Zm50.68 5.77v44.13a30.38 30.38 0 0 1-15-18.57 14.49 14.49 0 0 0-9.52-9.85 30.57 30.57 0 0 1-18.09-15.71Zm-128 0h44.54a30.62 30.62 0 0 1-18.74 14.86 14.47 14.47 0 0 0-9.94 9.43 30.5 30.5 0 0 1-15.86 17.93Zm0 126.8V89.32a30.4 30.4 0 0 1 15 18.57 14.51 14.51 0 0 0 9.52 9.85 30.6 30.6 0 0 1 18.1 15.71Zm128 0h-44.55a30.65 30.65 0 0 1 18.74-14.86 14.45 14.45 0 0 0 9.94-9.43 30.55 30.55 0 0 1 15.87-17.93Zm0-48.5a36.33 36.33 0 0 0-21.39 22.42 8.7 8.7 0 0 1-6 5.67 36.44 36.44 0 0 0-23.63 20.41h-28a36.42 36.42 0 0 0-22.63-21.19 8.69 8.69 0 0 1-5.72-5.92 36.31 36.31 0 0 0-20.6-23.42V55.15a36.35 36.35 0 0 0 21.39-22.42 8.69 8.69 0 0 1 6-5.67 36.48 36.48 0 0 0 23.6-20.41h28a36.38 36.38 0 0 0 22.7 21.19 8.7 8.7 0 0 1 5.73 5.92 36.31 36.31 0 0 0 20.6 23.42Z"/></g><g class="b"><path class="c" d="M1205.86.88h-139.17v138.34h139.61V.88Zm-5.38 120-24.36-48h24.36Zm-61.08 12.54v-24.15l49.45 24.18Zm-66.89-114.23 24.36 48h-24.36Zm61.08-12.54v24.18l-49.45-24.18Zm5.81 30.59 51.78-25.82-51.78 51.64Zm-5.81 25.89-52.21-51.41 52.21 25.54Zm-4.15 4h-26.06l-26.05-51.31Zm.07 5.76-51.88 51.73 25.77-51.73Zm4.08 4.11v25.82l-51.78 25.82Zm5.81-.07 52.21 51.41-52.21-25.54Zm4.15-4h26.06l26.05 51.31Zm-.07-5.76 51.88-51.73-25.77 51.73Zm-4.08-36.38V6.65h48.43Zm-66.89 42.14h24.41l-24.41 49Zm61.08 36.38v24.14h-48.42Zm66.89-42.14h-24.4l24.4-49Z"/></g><g class="b"><path class="c" d="M1663.35.88h-139.17v138.34h139.61V.88Zm-5.37 120-24.37-48H1658Zm-61.08 12.54v-24.15l49.44 24.18ZM1530 19.19l24.36 48H1530Zm61.08-12.54v24.18l-49.45-24.18Zm5.82 30.59 51.78-25.82-51.78 51.64Zm-5.82 25.89-52.21-51.41 52.21 25.54Zm-4.15 4h-26l-26.06-51.31Zm.07 5.76-51.88 51.73 25.77-51.73Zm4.08 4.11v25.82l-51.78 25.82Zm5.82-.07 52.21 51.41-52.21-25.54Zm4.15-4h26l26.06 51.31Zm-.07-5.76 51.87-51.73-25.77 51.73Zm-4.08-36.38V6.65h48.42ZM1530 72.93h24.41l-24.41 49Zm61.08 36.38v24.14h-48.42ZM1658 67.17h-24.41l24.41-49Z"/></g><path class="a" d="M1136.5 182.35a39 39 0 1 0 39.35 39 39.18 39.18 0 0 0-39.35-39Zm0 72.24a33.24 33.24 0 1 1 33.5-33.24 33.43 33.43 0 0 1-33.5 33.24Z"/><path class="a" d="M1136.5 200a21.34 21.34 0 1 0 21.5 21.35 21.44 21.44 0 0 0-21.5-21.35Zm0 36.92a15.58 15.58 0 1 1 15.71-15.58 15.67 15.67 0 0 1-15.71 15.59Z"/><path class="a" d="M1149.81 152.18h-83.12v138.34h139.61V152.18Zm50.68 5.77v44.14a30.4 30.4 0 0 1-15-18.58 14.45 14.45 0 0 0-9.52-9.84 30.67 30.67 0 0 1-18.1-15.72Zm-128 0h44.54a30.62 30.62 0 0 1-18.74 14.86 14.47 14.47 0 0 0-9.94 9.43 30.5 30.5 0 0 1-15.86 17.93Zm0 126.81v-44.14a30.4 30.4 0 0 1 15 18.57A14.49 14.49 0 0 0 1097 269a30.67 30.67 0 0 1 18.1 15.72Zm128 0h-44.55a30.58 30.58 0 0 1 18.74-14.86 14.49 14.49 0 0 0 9.94-9.43 30.51 30.51 0 0 1 15.87-17.93Zm0-48.5a36.33 36.33 0 0 0-21.4 22.41 8.65 8.65 0 0 1-6 5.67 36.47 36.47 0 0 0-23.64 20.42h-28a36.44 36.44 0 0 0-22.63-21.2 8.69 8.69 0 0 1-5.72-5.92 36.36 36.36 0 0 0-20.6-23.42v-27.77a36.38 36.38 0 0 0 21.4-22.45 8.69 8.69 0 0 1 6-5.67 36.43 36.43 0 0 0 23.61-20.33h28a36.38 36.38 0 0 0 22.62 21.19 8.69 8.69 0 0 1 5.72 5.92 36.31 36.31 0 0 0 20.61 23.42Z"/><g class="b"><path class="c" d="M1371.48 152.18v138.34h139.61V152.18Zm5.82 132.58V221a48.76 48.76 0 0 1 19.56-39l9.52-7.15 9.53 7.15a49.31 49.31 0 0 1 14.4 17.22 48.76 48.76 0 0 1 5.16 21.78v63.74Zm128-56.56v56.56h-58.2V221a48.81 48.81 0 0 1 19.57-39l9.52-7.15 9.52 7.15a48.73 48.73 0 0 1 19.57 39Zm-16-50.78-13-9.78-13 9.78a54.51 54.51 0 0 0-21.87 43.6 54.54 54.54 0 0 0-21.87-43.6l-13-9.78-13 9.78a54.73 54.73 0 0 0-16 19.16V158h128v38.63a54.94 54.94 0 0 0-16.33-19.21Z"/></g><g class="b"><path class="c" d="M1358 152.18h-139.22V290.52h139.61V152.18Zm-5.37 120-24.37-48h24.37Zm-61.08 12.55v-24.16l49.44 24.19Zm-66.9-114.27 24.36 48h-24.41Zm61.03-12.46v24.19L1236.23 158Zm5.82 30.59 51.78-25.81-51.78 51.63Zm-5.82 25.89L1233.47 163l52.21 25.53Zm-4.15 4h-26l-26.06-51.31Zm.07 5.76L1229.72 276l25.77-51.74Zm4.08 4.11v25.82L1233.9 280Zm5.82-.06 52.21 51.4-52.21-25.54Zm4.14-4.05h26.06l26 51.31Zm-.06-5.76 51.87-51.73-25.77 51.73Zm-4.08-36.38V158h48.42Zm-66.9 42.14h24.4l-24.41 49Zm61.08 36.38v24.15h-48.42Zm66.9-42.14h-24.41l24.41-49Z"/></g><path class="d" d="M1510.65 303.49h-139.17V441.82h139.61V303.49Zm-5.37 120-24.37-48h24.37Zm-61.08 12.55v-24.17l49.44 24.19Zm-66.9-114.24 24.36 48h-24.36Zm61.08-12.55v24.19l-49.45-24.19Zm5.82 30.6L1496 314l-51.78 51.63Zm-5.82 25.88-52.21-51.4 52.21 25.54Zm-4.15 4h-26l-26.06-51.3Zm.07 5.77-51.88 51.73 25.77-51.73Zm4.08 4.11v25.81l-51.78 25.82Zm5.82-.07 52.21 51.4-52.21-25.54Zm4.14-4h26.06l26 51.3Zm-.06-5.77 51.87-51.77-25.77 51.73Zm-4.08-36.38v-24.14h48.42Zm-66.9 42.15h24.41l-24.41 49Zm61.08 36.38v24.14H1390Zm66.9-42.15h-24.41l24.41-49Z"/><g class="b"><path class="c" d="M1066.69 303.49v138.33h139.61V303.49Zm5.82 132.57v-63.74a48.76 48.76 0 0 1 19.56-39l9.52-7.15 9.52 7.15a48.73 48.73 0 0 1 19.57 39v63.74Zm128-56.56v56.56h-58.18v-63.74a48.73 48.73 0 0 1 19.57-39l9.52-7.15 9.52 7.15a48.81 48.81 0 0 1 19.57 39Zm-16.06-50.78-13-9.78-13 9.78a54.54 54.54 0 0 0-21.86 43.6 54.55 54.55 0 0 0-21.87-43.6l-13-9.78-13 9.78a54.81 54.81 0 0 0-16 19.16v-38.63h128v38.63a55 55 0 0 0-16.29-19.16Z"/></g><g class="b"><path class="c" d="M1288.59 333.66a39 39 0 1 0 39.36 39 39.18 39.18 0 0 0-39.36-39Zm0 72.23a33.24 33.24 0 1 1 33.54-33.23 33.42 33.42 0 0 1-33.54 33.23Z"/><path class="c" d="M1288.59 351.32a21.34 21.34 0 1 0 21.53 21.34 21.44 21.44 0 0 0-21.53-21.34Zm0 36.91a15.58 15.58 0 1 1 15.72-15.57 15.67 15.67 0 0 1-15.72 15.57Z"/><path class="c" d="M1301.9 303.49h-83.12v138.33h139.61V303.49Zm50.68 5.76v44.14a30.38 30.38 0 0 1-15-18.57 14.49 14.49 0 0 0-9.52-9.85 30.62 30.62 0 0 1-18.06-15.72Zm-128 0h44.54a30.56 30.56 0 0 1-18.74 14.86 14.51 14.51 0 0 0-9.94 9.43 30.5 30.5 0 0 1-15.86 17.93Zm0 126.81v-44.14a30.42 30.42 0 0 1 15 18.57 14.49 14.49 0 0 0 9.52 9.85 30.64 30.64 0 0 1 18.1 15.72Zm128 0H1308a30.58 30.58 0 0 1 18.74-14.86 14.47 14.47 0 0 0 9.94-9.43 30.55 30.55 0 0 1 15.87-17.93Zm0-48.5a36.37 36.37 0 0 0-21.4 22.42 8.69 8.69 0 0 1-6 5.67 36.39 36.39 0 0 0-23.63 20.41h-28a36.41 36.41 0 0 0-22.63-21.2 8.67 8.67 0 0 1-5.72-5.91 36.26 36.26 0 0 0-20.6-23.42v-27.78a36.35 36.35 0 0 0 21.4-22.42 8.71 8.71 0 0 1 6-5.67 36.43 36.43 0 0 0 23.64-20.41h28a36.4 36.4 0 0 0 22.62 21.2 8.68 8.68 0 0 1 5.73 5.92 36.31 36.31 0 0 0 20.6 23.42Z"/></g><path class="a" d="M1218.78 454.79v138.34h139.61V454.79Zm5.82 132.57v-63.74a48.76 48.76 0 0 1 19.56-39l9.52-7.15 9.53 7.15a49.4 49.4 0 0 1 14.4 17.22 48.83 48.83 0 0 1 5.16 21.78v63.74Zm128-56.55v56.55h-58.2v-63.74a48.73 48.73 0 0 1 19.57-39l9.52-7.15 9.52 7.15a48.73 48.73 0 0 1 19.57 39Zm-16-50.78-13-9.79-13 9.79a54.49 54.49 0 0 0-21.87 43.59 54.52 54.52 0 0 0-22.01-43.62l-13-9.79-13 9.79a54.64 54.64 0 0 0-16.05 19.16v-38.61h128v38.64a54.85 54.85 0 0 0-16.14-19.19Z"/><g class="b"><path class="c" d="M1441.29 485a39 39 0 1 0 39.36 39 39.18 39.18 0 0 0-39.36-39Zm0 72.23a33.24 33.24 0 1 1 33.54-33.23 33.42 33.42 0 0 1-33.54 33.19Z"/><path class="c" d="M1441.29 502.62a21.34 21.34 0 1 0 21.53 21.38 21.44 21.44 0 0 0-21.53-21.38Zm0 36.91A15.58 15.58 0 1 1 1457 524a15.66 15.66 0 0 1-15.71 15.53Z"/><path class="c" d="M1454.6 454.79h-83.12v138.34h139.61V454.79Zm50.68 5.76v44.14a30.38 30.38 0 0 1-15-18.57 14.49 14.49 0 0 0-9.52-9.85 30.59 30.59 0 0 1-18.09-15.72Zm-128 0h44.54a30.56 30.56 0 0 1-18.74 14.86 14.51 14.51 0 0 0-9.94 9.44 30.51 30.51 0 0 1-15.86 17.92Zm0 126.81v-44.14a30.44 30.44 0 0 1 15 18.58 14.51 14.51 0 0 0 9.52 9.85 30.56 30.56 0 0 1 18.1 15.71Zm128 0h-44.55a30.65 30.65 0 0 1 18.74-14.86 14.47 14.47 0 0 0 9.94-9.43 30.55 30.55 0 0 1 15.87-17.93Zm0-48.5a36.33 36.33 0 0 0-21.39 22.42 8.7 8.7 0 0 1-6 5.67 36.41 36.41 0 0 0-23.63 20.41h-28a36.4 36.4 0 0 0-22.63-21.19 8.69 8.69 0 0 1-5.72-5.92 36.29 36.29 0 0 0-20.6-23.42v-27.77a36.35 36.35 0 0 0 21.39-22.42 8.69 8.69 0 0 1 6-5.67 36.47 36.47 0 0 0 23.64-20.42h28a36.4 36.4 0 0 0 22.62 21.2 8.7 8.7 0 0 1 5.73 5.92 36.31 36.31 0 0 0 20.6 23.42Z"/></g><g class="b"><path class="c" d="M1205.86 454.79h-139.17v138.34h139.61V454.79Zm-5.38 120-24.36-48h24.36Zm-61.08 12.54v-24.15l49.45 24.18Zm-66.89-114.23 24.36 48h-24.36Zm61.08-12.55v24.19l-49.45-24.19Zm5.81 30.6 51.78-25.82L1139.4 517Zm-5.81 25.85-52.21-51.4 52.21 25.54Zm-4.15 4.05h-26.06l-26.05-51.31Zm.07 5.76-51.88 51.73 25.77-51.73Zm4.08 4.11v25.82l-51.78 25.81Zm5.81-.07 52.21 51.41-52.21-25.54Zm4.15-4h26.06l26.05 51.31Zm-.07-5.76 51.88-51.74-25.77 51.74Zm-4.08-36.38v-24.16h48.43Zm-66.89 42.14h24.41l-24.41 49Zm61.08 36.38v24.14h-48.42Zm66.89-42.14h-24.4l24.4-49Z"/></g><g class="b"><path class="c" d="M1663.35 454.79h-139.17v138.34h139.61V454.79Zm-5.37 120-24.37-48H1658Zm-61.08 12.54v-24.15l49.44 24.18ZM1530 473.1l24.36 48H1530Zm61.08-12.55v24.19l-49.45-24.19Zm5.82 30.6 51.78-25.82L1596.9 517Zm-5.82 25.85-52.21-51.4 52.21 25.54Zm-4.15 4.05h-26l-26.06-51.31Zm.07 5.76-51.88 51.73 25.77-51.73Zm4.08 4.11v25.82l-51.78 25.81Zm5.82-.07 52.21 51.41-52.21-25.54Zm4.15-4h26l26.06 51.31Zm-.07-5.76 51.87-51.74-25.77 51.74Zm-4.08-36.38v-24.16h48.42Zm-66.9 42.13h24.41l-24.41 49Zm61.08 36.38v24.14h-48.42Zm66.9-42.14h-24.41l24.41-49Z"/></g><path class="d" d="M1136.5 636.26a39 39 0 1 0 39.35 39 39.18 39.18 0 0 0-39.35-39Zm0 72.24a33.24 33.24 0 1 1 33.5-33.24 33.43 33.43 0 0 1-33.5 33.24Z"/><path class="d" d="M1136.5 653.92a21.34 21.34 0 1 0 21.5 21.34 21.44 21.44 0 0 0-21.5-21.34Zm0 36.92a15.58 15.58 0 1 1 15.71-15.58 15.67 15.67 0 0 1-15.71 15.58Z"/><path class="d" d="M1149.81 606.09h-83.12v138.34h139.61V606.09Zm50.68 5.77V656a30.38 30.38 0 0 1-15-18.57 14.49 14.49 0 0 0-9.52-9.85 30.62 30.62 0 0 1-18.1-15.71Zm-128 0h44.54a30.65 30.65 0 0 1-18.74 14.86 14.47 14.47 0 0 0-9.94 9.43 30.5 30.5 0 0 1-15.86 17.93Zm0 126.81v-44.14a30.4 30.4 0 0 1 15 18.57 14.49 14.49 0 0 0 9.51 9.9 30.64 30.64 0 0 1 18.1 15.72Zm128 0h-44.55a30.58 30.58 0 0 1 18.74-14.86 14.49 14.49 0 0 0 9.94-9.44 30.52 30.52 0 0 1 15.87-17.92Zm0-48.51a36.37 36.37 0 0 0-21.4 22.42 8.67 8.67 0 0 1-6 5.67 36.47 36.47 0 0 0-23.64 20.42h-28a36.44 36.44 0 0 0-22.63-21.2 8.69 8.69 0 0 1-5.72-5.92 36.36 36.36 0 0 0-20.6-23.42v-27.77a36.38 36.38 0 0 0 21.39-22.42 8.69 8.69 0 0 1 6-5.67 36.48 36.48 0 0 0 23.64-20.41h28a36.38 36.38 0 0 0 22.62 21.19 8.69 8.69 0 0 1 5.72 5.92 36.35 36.35 0 0 0 20.61 23.42Z"/><g class="b"><path class="c" d="M1371.48 606.09v138.34h139.61V606.09Zm5.82 132.58v-63.75a48.8 48.8 0 0 1 19.56-39l9.52-7.14 9.53 7.14a49.43 49.43 0 0 1 14.4 17.23 48.75 48.75 0 0 1 5.16 21.77v63.75Zm128-56.56v56.56h-58.2v-63.75a48.85 48.85 0 0 1 19.57-39l9.52-7.14 9.52 7.14a48.77 48.77 0 0 1 19.57 39Zm-16-50.78-13-9.78-13 9.78a54.5 54.5 0 0 0-21.87 43.59 54.53 54.53 0 0 0-21.87-43.59l-13-9.78-13 9.78a54.73 54.73 0 0 0-16 19.16v-38.63h128v38.63a54.94 54.94 0 0 0-16.33-19.16Z"/></g><g class="b"><path class="c" d="M1594 636.26a39 39 0 1 0 39.36 39 39.18 39.18 0 0 0-39.36-39Zm0 72.24a33.24 33.24 0 1 1 33.54-33.24A33.42 33.42 0 0 1 1594 708.5Z"/><path class="c" d="M1594 653.92a21.34 21.34 0 1 0 21.53 21.34 21.44 21.44 0 0 0-21.53-21.34Zm0 36.92a15.58 15.58 0 1 1 15.72-15.58 15.67 15.67 0 0 1-15.72 15.58Z"/><path class="c" d="M1607.3 606.09h-83.12v138.34h139.61V606.09Zm50.68 5.77V656a30.41 30.41 0 0 1-15-18.57 14.49 14.49 0 0 0-9.52-9.85 30.57 30.57 0 0 1-18.09-15.71Zm-128 0h44.54a30.62 30.62 0 0 1-18.74 14.86 14.49 14.49 0 0 0-9.94 9.43 30.5 30.5 0 0 1-15.84 17.93Zm0 126.81v-44.14a30.4 30.4 0 0 1 15 18.57 14.51 14.51 0 0 0 9.52 9.85 30.58 30.58 0 0 1 18.1 15.72Zm128 0h-44.55a30.57 30.57 0 0 1 18.75-14.86 14.49 14.49 0 0 0 9.93-9.44 30.56 30.56 0 0 1 15.89-17.92Zm0-48.51a36.33 36.33 0 0 0-21.39 22.42 8.7 8.7 0 0 1-6 5.67 36.43 36.43 0 0 0-23.59 20.42h-28a36.41 36.41 0 0 0-22.63-21.2 8.69 8.69 0 0 1-5.72-5.92 36.31 36.31 0 0 0-20.6-23.42v-27.77a36.35 36.35 0 0 0 21.39-22.42 8.69 8.69 0 0 1 6-5.67 36.48 36.48 0 0 0 23.56-20.41h28a36.38 36.38 0 0 0 22.62 21.19 8.7 8.7 0 0 1 5.73 5.92 36.31 36.31 0 0 0 20.6 23.42Z"/></g><path class="a" d="M456.73.88v138.34h139.61V.88Zm5.82 132.57V69.71a48.75 48.75 0 0 1 5.16-21.77 49.43 49.43 0 0 1 14.4-17.23l9.52-7.14 9.53 7.14a49.43 49.43 0 0 1 14.4 17.23 48.75 48.75 0 0 1 5.16 21.77v63.74Zm128-56.55v56.55h-58.19V69.71a48.8 48.8 0 0 1 19.56-39l9.52-7.14 9.56 7.14a48.77 48.77 0 0 1 19.57 39Zm-16-50.78-13-9.79-13 9.79a54.5 54.5 0 0 0-21.87 43.59 54.53 54.53 0 0 0-21.87-43.59l-13-9.79-13 9.79a54.73 54.73 0 0 0-16.05 19.16V6.65h128v38.63a54.83 54.83 0 0 0-16.28-19.16Z"/><g class="b"><path class="c" d="M679.2 31.05a39 39 0 1 0 39.36 39 39.18 39.18 0 0 0-39.36-39Zm0 72.24a33.24 33.24 0 1 1 33.54-33.24 33.42 33.42 0 0 1-33.54 33.24Z"/><path class="c" d="M679.2 48.71a21.34 21.34 0 1 0 21.53 21.34 21.44 21.44 0 0 0-21.53-21.34Zm0 36.92a15.58 15.58 0 1 1 15.72-15.58 15.67 15.67 0 0 1-15.72 15.58Z"/><path class="c" d="M692.51.88h-83.12v138.34H749V.88Zm50.68 5.77v44.13a30.38 30.38 0 0 1-15-18.57 14.49 14.49 0 0 0-9.52-9.85 30.57 30.57 0 0 1-18.09-15.71Zm-128 0h44.54A30.62 30.62 0 0 1 641 21.51a14.47 14.47 0 0 0-9.94 9.43 30.5 30.5 0 0 1-15.86 17.93Zm0 126.8V89.32a30.4 30.4 0 0 1 15 18.57 14.51 14.51 0 0 0 9.52 9.85 30.62 30.62 0 0 1 18.1 15.71Zm128 0h-44.55a30.65 30.65 0 0 1 18.74-14.86 14.45 14.45 0 0 0 9.94-9.43 30.55 30.55 0 0 1 15.87-17.93Zm0-48.5a36.37 36.37 0 0 0-21.4 22.42 8.67 8.67 0 0 1-6 5.67 36.44 36.44 0 0 0-23.63 20.41h-28a36.42 36.42 0 0 0-22.63-21.19 8.69 8.69 0 0 1-5.72-5.92 36.34 36.34 0 0 0-20.6-23.42V55.15a36.35 36.35 0 0 0 21.39-22.42 8.69 8.69 0 0 1 6-5.67 36.48 36.48 0 0 0 23.61-20.41h28a36.38 36.38 0 0 0 22.62 21.19 8.7 8.7 0 0 1 5.73 5.92 36.31 36.31 0 0 0 20.6 23.42Z"/></g><path class="d" d="M914.78.88v138.34h139.61V.88Zm5.82 132.57V69.71a48.8 48.8 0 0 1 19.56-39l9.52-7.14 9.53 7.14a49.43 49.43 0 0 1 14.4 17.23 48.75 48.75 0 0 1 5.16 21.77v63.74Zm128-56.55v56.55h-58.2V69.71a48.77 48.77 0 0 1 19.57-39l9.52-7.14 9.52 7.14a48.77 48.77 0 0 1 19.57 39Zm-16-50.78-13-9.79-13 9.79a54.5 54.5 0 0 0-21.87 43.59 54.53 54.53 0 0 0-21.87-43.59l-13-9.79-13 9.79a54.73 54.73 0 0 0-16 19.16V6.65h128v38.63a54.94 54.94 0 0 0-16.33-19.16Z"/><path class="a" d="M373.84 182.35a39 39 0 1 0 39.36 39 39.18 39.18 0 0 0-39.36-39Zm0 72.24a33.24 33.24 0 1 1 33.54-33.24 33.42 33.42 0 0 1-33.54 33.24Z"/><path class="a" d="M373.84 200a21.34 21.34 0 1 0 21.53 21.34A21.44 21.44 0 0 0 373.84 200Zm0 36.92a15.58 15.58 0 1 1 15.72-15.58 15.67 15.67 0 0 1-15.72 15.59Z"/><path class="a" d="M387.15 152.18H304v138.34h139.64V152.18Zm50.68 5.82v44.14a30.43 30.43 0 0 1-15-18.58 14.45 14.45 0 0 0-9.52-9.84A30.62 30.62 0 0 1 395.22 158Zm-128 0h44.54a30.59 30.59 0 0 1-18.74 14.86 14.49 14.49 0 0 0-9.94 9.43 30.5 30.5 0 0 1-15.86 17.93Zm0 126.81v-44.19a30.4 30.4 0 0 1 15 18.57 14.51 14.51 0 0 0 9.52 9.85 30.61 30.61 0 0 1 18.1 15.72Zm128 0h-44.55A30.57 30.57 0 0 1 412 269.9a14.48 14.48 0 0 0 9.93-9.43 30.55 30.55 0 0 1 15.87-17.93Zm0-48.5a36.29 36.29 0 0 0-21.39 22.41 8.68 8.68 0 0 1-6 5.67 36.43 36.43 0 0 0-23.63 20.42h-28a36.41 36.41 0 0 0-22.63-21.2 8.69 8.69 0 0 1-5.72-5.92 36.31 36.31 0 0 0-20.6-23.42v-27.82A36.35 36.35 0 0 0 331.24 184a8.69 8.69 0 0 1 6-5.67A36.43 36.43 0 0 0 360.85 158h28a36.38 36.38 0 0 0 22.62 21.19 8.7 8.7 0 0 1 5.73 5.92 36.26 36.26 0 0 0 20.6 23.42Z"/><g class="b"><path class="c" d="M609.39 152.18v138.34H749V152.18Zm5.82 132.58V221a48.76 48.76 0 0 1 19.56-39l9.52-7.15 9.53 7.15a49.31 49.31 0 0 1 14.4 17.22 48.76 48.76 0 0 1 5.16 21.78v63.74Zm128-56.56v56.56H685V221a48.73 48.73 0 0 1 19.57-39l9.52-7.15 9.52 7.15a48.73 48.73 0 0 1 19.57 39Zm-16.05-50.78-13-9.78-13 9.78A54.51 54.51 0 0 0 679.2 221a54.54 54.54 0 0 0-21.87-43.6l-13-9.78-13 9.78a54.73 54.73 0 0 0-16 19.16V158h128v38.63a54.94 54.94 0 0 0-16.19-19.21Z"/></g><g class="b"><path class="c" d="M595.9 152.18H456.73V290.52h139.61V152.18Zm-5.37 120-24.37-48h24.37Zm-61.08 12.55v-24.16l49.44 24.19Zm-66.9-114.27 24.36 48h-24.36ZM523.63 158v24.19L474.18 158Zm5.82 30.59 51.78-25.81-51.78 51.63Zm-5.82 25.89L471.42 163l52.21 25.53Zm-4.15 4h-26.05l-26.06-51.31Zm.07 5.76L467.67 276l25.78-51.74Zm4.08 4.11v25.82L471.85 280Zm5.82-.06 52.21 51.4-52.21-25.54Zm4.15-4.05h26l26.06 51.31Zm-.07-5.76 51.87-51.73-25.77 51.73Zm-4.08-36.38V158h48.42Zm-66.9 42.14H487l-24.41 49Zm61.08 36.38v24.15h-48.42Zm66.9-42.14h-24.41l24.41-49Z"/></g><g class="b"><path class="c" d="M831.89 182.35a39 39 0 1 0 39.36 39 39.18 39.18 0 0 0-39.36-39Zm0 72.24a33.24 33.24 0 1 1 33.54-33.24 33.43 33.43 0 0 1-33.54 33.24Z"/><path class="c" d="M831.89 200a21.34 21.34 0 1 0 21.54 21.34A21.44 21.44 0 0 0 831.89 200Zm0 36.92a15.58 15.58 0 1 1 15.72-15.58 15.67 15.67 0 0 1-15.72 15.59Z"/><path class="c" d="M845.2 152.18h-83.12v138.34H901.7V152.18Zm50.68 5.82v44.14a30.46 30.46 0 0 1-15-18.58 14.46 14.46 0 0 0-9.51-9.84 30.61 30.61 0 0 1-18.1-15.72Zm-128 0h44.55a30.61 30.61 0 0 1-18.75 14.86 14.49 14.49 0 0 0-9.94 9.43 30.5 30.5 0 0 1-15.86 17.93Zm0 126.81v-44.19a30.44 30.44 0 0 1 15 18.57 14.49 14.49 0 0 0 9.52 9.85 30.62 30.62 0 0 1 18.09 15.72Zm128 0h-44.54a30.56 30.56 0 0 1 18.74-14.86 14.51 14.51 0 0 0 9.94-9.43 30.5 30.5 0 0 1 15.86-17.93Zm0-48.5a36.31 36.31 0 0 0-21.39 22.41 8.69 8.69 0 0 1-6 5.67 36.47 36.47 0 0 0-23.64 20.42h-28a36.39 36.39 0 0 0-22.63-21.2 8.71 8.71 0 0 1-5.72-5.92 36.31 36.31 0 0 0-20.6-23.42v-27.82A36.33 36.33 0 0 0 789.29 184a8.7 8.7 0 0 1 6-5.67A36.39 36.39 0 0 0 818.9 158h28a36.4 36.4 0 0 0 22.63 21.19 8.71 8.71 0 0 1 5.72 5.92 36.26 36.26 0 0 0 20.6 23.42Z"/></g><g class="b"><path class="c" d="M762.08 303.49v138.33H901.7V303.49Zm5.82 132.57v-63.74a48.73 48.73 0 0 1 19.57-39l9.52-7.15 9.52 7.15a48.76 48.76 0 0 1 19.56 39v63.74Zm128-56.56v56.56h-58.19v-63.74a48.76 48.76 0 0 1 5.16-21.78 49.4 49.4 0 0 1 14.4-17.22l9.52-7.15 9.53 7.15a49.4 49.4 0 0 1 14.4 17.22 48.76 48.76 0 0 1 5.16 21.78Zm-16-50.78-13-9.78-13 9.78a54.52 54.52 0 0 0-21.87 43.6 54.52 54.52 0 0 0-22.03-43.6l-13-9.78-13 9.78a54.92 54.92 0 0 0-16.05 19.16v-38.63h128v38.63a54.81 54.81 0 0 0-16.12-19.16Z"/></g><path class="d" d="M748.56 303.49H609.39V441.82H749V303.49Zm-5.37 120-24.37-48h24.37Zm-61.08 12.55v-24.17l49.44 24.19Zm-66.9-114.24 24.36 48h-24.36Zm61.08-12.55v24.19l-49.45-24.19Zm5.82 30.6L733.89 314l-51.78 51.63Zm-5.82 25.88-52.21-51.4 52.21 25.54Zm-4.15 4h-26L620 318.47Zm.07 5.77-51.88 51.73 25.77-51.73Zm4.08 4.11v25.81l-51.78 25.82Zm5.82-.07L734.32 431l-52.21-25.54Zm4.14-4h26.06l26.05 51.3Zm-.07-5.77L738.06 318l-25.77 51.73Zm-4.07-36.38v-24.14h48.42Zm-66.9 42.15h24.41l-24.41 49Zm61.08 36.38v24.14h-48.42Zm66.9-42.15h-24.41l24.41-49Z"/><g class="b"><path class="c" d="M304 303.49v138.33h139.64V303.49Zm5.82 132.57v-63.74a48.76 48.76 0 0 1 5.18-21.78 49.29 49.29 0 0 1 14.4-17.22l9.52-7.15 9.53 7.15a49.4 49.4 0 0 1 14.4 17.22 48.76 48.76 0 0 1 5.15 21.78v63.74Zm128-56.56v56.56h-58.16v-63.74a48.76 48.76 0 0 1 19.56-39l9.52-7.15 9.52 7.15a48.73 48.73 0 0 1 19.57 39Zm-16.05-50.78-13-9.78-13 9.78a54.52 54.52 0 0 0-21.87 43.6 54.55 54.55 0 0 0-21.9-43.6l-13-9.78-13 9.78a54.81 54.81 0 0 0-16 19.16v-38.63h128v38.63a55 55 0 0 0-16.22-19.16Z"/></g><path class="a" d="M456.73 454.79v138.34h139.61V454.79Zm5.82 132.57v-63.74a48.83 48.83 0 0 1 5.16-21.78 49.4 49.4 0 0 1 14.4-17.22l9.52-7.15 9.53 7.15a49.4 49.4 0 0 1 14.4 17.22 48.83 48.83 0 0 1 5.16 21.78v63.74Zm128-56.55v56.55h-58.19v-63.74a48.76 48.76 0 0 1 19.56-39l9.52-7.15 9.52 7.15a48.73 48.73 0 0 1 19.57 39Zm-16-50.78-13-9.79-13 9.79a54.49 54.49 0 0 0-21.87 43.59A54.52 54.52 0 0 0 504.67 480l-13-9.79-13 9.79a54.64 54.64 0 0 0-16.05 19.16v-38.61h128v38.64A54.74 54.74 0 0 0 574.48 480Z"/><g class="b"><path class="c" d="M443.2 454.79H304v138.34h139.64V454.79Zm-5.37 120-24.37-48h24.37Zm-61.08 12.54v-24.15l49.44 24.18Zm-66.9-114.23 24.36 48h-24.36Zm61.08-12.55v24.19l-49.45-24.19Zm5.82 30.6 51.78-25.82L376.75 517ZM370.93 517l-52.21-51.4 52.21 25.54Zm-4.15 4.05h-26l-26.06-51.31Zm.07 5.76L315 578.57l25.77-51.73Zm4.08 4.11v25.82l-51.78 25.81Zm5.82-.07L429 582.29l-52.21-25.54Zm4.15-4H407l26 51.3Zm-.07-5.76 51.87-51.74-25.77 51.74Zm-4.08-36.38v-24.16h48.42Zm-66.9 42.14h24.41l-24.41 49Zm61.08 36.38v24.14h-48.42Zm66.9-42.14h-24.41l24.41-49Z"/></g><g class="b"><path class="c" d="M914.78 454.79v138.34h139.61V454.79Zm5.82 132.57v-63.74a48.76 48.76 0 0 1 19.56-39l9.52-7.15 9.53 7.15a49.4 49.4 0 0 1 14.4 17.22 48.83 48.83 0 0 1 5.16 21.78v63.74Zm128-56.55v56.55h-58.2v-63.74a48.73 48.73 0 0 1 19.57-39l9.52-7.15 9.52 7.15a48.73 48.73 0 0 1 19.57 39Zm-16-50.78-13-9.79-13 9.79a54.49 54.49 0 0 0-21.87 43.59A54.52 54.52 0 0 0 962.72 480l-13-9.79-13 9.79a54.64 54.64 0 0 0-16 19.16v-38.61h128v38.64a54.85 54.85 0 0 0-16.19-19.19Z"/></g><g class="b"><path class="c" d="M901.25 454.79H762.08v138.34H901.7V454.79Zm-5.37 120-24.36-48h24.36Zm-61.08 12.57v-24.18l49.45 24.18ZM767.9 473.1l24.37 48H767.9Zm61.1-12.55v24.19l-49.44-24.19Zm5.82 30.6 51.78-25.82L834.8 517ZM829 517l-52.21-51.4L829 491.17Zm-4.15 4.05h-26.07l-26.06-51.31Zm.07 5.76L773 578.57l25.77-51.73ZM829 531v25.82l-51.8 25.76Zm5.82-.07L887 582.29l-52.2-25.54Zm4.15-4h26l26.06 51.31Zm-.07-5.76 51.88-51.74L865 521.08Zm-4.1-36.47v-24.15h48.42Zm-66.9 42.14h24.41l-24.41 49Zm61.1 36.38v24.14h-48.44Zm66.9-42.14h-24.43l24.41-49Z"/></g><path class="d" d="M373.84 636.26a39 39 0 1 0 39.36 39 39.18 39.18 0 0 0-39.36-39Zm0 72.24a33.24 33.24 0 1 1 33.54-33.24 33.42 33.42 0 0 1-33.54 33.24Z"/><path class="d" d="M373.84 653.92a21.34 21.34 0 1 0 21.53 21.34 21.44 21.44 0 0 0-21.53-21.34Zm0 36.92a15.58 15.58 0 1 1 15.72-15.58 15.67 15.67 0 0 1-15.72 15.58Z"/><path class="d" d="M387.15 606.09H304v138.34h139.64V606.09Zm50.68 5.77V656a30.41 30.41 0 0 1-15-18.57 14.49 14.49 0 0 0-9.52-9.85 30.57 30.57 0 0 1-18.09-15.71Zm-128 0h44.54a30.62 30.62 0 0 1-18.74 14.86 14.49 14.49 0 0 0-9.94 9.43 30.5 30.5 0 0 1-15.86 17.93Zm0 126.81v-44.14a30.4 30.4 0 0 1 15 18.57 14.51 14.51 0 0 0 9.52 9.85 30.58 30.58 0 0 1 18.1 15.72Zm128 0h-44.55A30.57 30.57 0 0 1 412 723.81a14.47 14.47 0 0 0 9.93-9.44 30.56 30.56 0 0 1 15.87-17.92Zm0-48.51a36.33 36.33 0 0 0-21.39 22.42 8.7 8.7 0 0 1-6 5.67 36.43 36.43 0 0 0-23.63 20.42h-28a36.41 36.41 0 0 0-22.63-21.2 8.69 8.69 0 0 1-5.72-5.92 36.31 36.31 0 0 0-20.6-23.42v-27.77a36.35 36.35 0 0 0 21.39-22.42 8.69 8.69 0 0 1 6-5.67 36.48 36.48 0 0 0 23.64-20.41h28a36.38 36.38 0 0 0 22.62 21.19 8.7 8.7 0 0 1 5.73 5.92 36.31 36.31 0 0 0 20.6 23.42Z"/><g class="b"><path class="c" d="M609.39 606.09v138.34H749V606.09Zm5.82 132.58v-63.75a48.8 48.8 0 0 1 19.56-39l9.52-7.14 9.53 7.14a49.43 49.43 0 0 1 14.4 17.23 48.75 48.75 0 0 1 5.16 21.77v63.75Zm128-56.56v56.56H685v-63.75a48.77 48.77 0 0 1 19.57-39l9.52-7.14 9.52 7.14a48.77 48.77 0 0 1 19.57 39Zm-16.05-50.78-13-9.78-13 9.78a54.5 54.5 0 0 0-21.87 43.59 54.53 54.53 0 0 0-21.87-43.59l-13-9.78-13 9.78a54.73 54.73 0 0 0-16 19.16v-38.63h128v38.63a54.94 54.94 0 0 0-16.28-19.16Z"/></g><g class="b"><path class="c" d="M1054 606.09H914.78v138.34h139.61V606.09Zm-5.37 120-24.37-48h24.37Zm-61.13 12.57v-24.18l49.44 24.18ZM920.6 624.4l24.36 48H920.6Zm61.08-12.54V636l-49.45-24.18Zm5.82 30.59 51.78-25.81-51.78 51.63Zm-5.82 25.89-52.21-51.41 52.21 25.54Zm-4.15 4h-26l-26.06-51.31Zm.07 5.76-51.88 51.73 25.77-51.73Zm4.08 4.11v25.82l-51.78 25.86Zm5.82-.07 52.21 51.41-52.21-25.5Zm4.14-4h26.06l26 51.31Zm-.06-5.76 51.87-51.73-25.77 51.73ZM987.5 636v-24.14h48.42Zm-66.9 42.14H945l-24.41 49Zm61.08 36.38v24.14h-48.42Zm66.9-42.14h-24.41l24.41-49Z"/></g><path class="a" d="M0 757.52v138.33h139.61V757.52Zm5.82 132.57v-63.74a48.76 48.76 0 0 1 19.56-39l9.52-7.15 9.53 7.15a49.4 49.4 0 0 1 14.4 17.22A48.76 48.76 0 0 1 64 826.35v63.74Zm128-56.56v56.56h-58.2v-63.74a48.73 48.73 0 0 1 19.57-39l9.52-7.15 9.52 7.15a48.73 48.73 0 0 1 19.57 39Zm-16.05-50.78-13-9.78-13 9.78a54.52 54.52 0 0 0-21.87 43.6 54.55 54.55 0 0 0-21.87-43.6L34.9 773l-13 9.78a54.81 54.81 0 0 0-16 19.16v-38.66h128v38.63a55 55 0 0 0-16.15-19.16Z"/><g class="b"><path class="c" d="M222.51 787.69a39 39 0 1 0 39.36 39 39.18 39.18 0 0 0-39.36-39Zm0 72.23a33.24 33.24 0 1 1 33.54-33.23 33.42 33.42 0 0 1-33.54 33.23Z"/><path class="c" d="M222.51 805.35A21.34 21.34 0 1 0 244 826.69a21.44 21.44 0 0 0-21.49-21.34Zm0 36.91a15.58 15.58 0 1 1 15.72-15.57 15.67 15.67 0 0 1-15.72 15.57Z"/><path class="c" d="M235.82 757.52H152.7v138.33h139.61V757.52Zm50.68 5.76v44.14a30.38 30.38 0 0 1-15-18.57A14.49 14.49 0 0 0 262 779a30.62 30.62 0 0 1-18.09-15.72Zm-128 0h44.54a30.56 30.56 0 0 1-18.74 14.86 14.51 14.51 0 0 0-9.94 9.43 30.5 30.5 0 0 1-15.86 17.93Zm0 126.81V846a30.42 30.42 0 0 1 15 18.57 14.47 14.47 0 0 0 9.52 9.85 30.64 30.64 0 0 1 18.1 15.72Zm128 0H242a30.58 30.58 0 0 1 18.74-14.86 14.47 14.47 0 0 0 9.94-9.43 30.55 30.55 0 0 1 15.87-17.93Zm0-48.5A36.37 36.37 0 0 0 265.1 864a8.67 8.67 0 0 1-6 5.67 36.39 36.39 0 0 0-23.63 20.41h-28a36.44 36.44 0 0 0-22.63-21.2 8.65 8.65 0 0 1-5.72-5.91 36.26 36.26 0 0 0-20.6-23.42v-27.77a36.33 36.33 0 0 0 21.39-22.42 8.71 8.71 0 0 1 6-5.67 36.43 36.43 0 0 0 23.64-20.41h28a36.4 36.4 0 0 0 22.62 21.2 8.68 8.68 0 0 1 5.73 5.92 36.31 36.31 0 0 0 20.6 23.42Z"/></g><path class="d" d="M458.1 757.52v138.33h139.61V757.52Zm5.82 132.57v-63.74a48.76 48.76 0 0 1 5.16-21.78 49.29 49.29 0 0 1 14.4-17.22l9.52-7.15 9.53 7.15a49.4 49.4 0 0 1 14.4 17.22 48.76 48.76 0 0 1 5.16 21.78v63.74Zm128-56.56v56.56h-58.2v-63.74a48.81 48.81 0 0 1 19.57-39l9.52-7.15 9.52 7.15a48.73 48.73 0 0 1 19.57 39Zm-16-50.78-13-9.78-13 9.78a54.52 54.52 0 0 0-21.87 43.6 54.55 54.55 0 0 0-22.05-43.6L493 773l-13 9.78a54.81 54.81 0 0 0-16.05 19.16v-38.66h128v38.63a55 55 0 0 0-16.1-19.16Z"/><g class="b"><path class="c" d="M444.57 757.52H305.4V895.85H445V757.52Zm-5.37 120-24.37-48h24.37Zm-61.08 12.54V865.9l49.44 24.19Zm-66.9-114.26 24.36 48h-24.36Zm61.08-12.55v24.19l-49.45-24.19Zm5.82 30.6 51.78-25.82-51.78 51.63Zm-5.82 25.88-52.21-51.4 52.21 25.57Zm-4.15 4h-26L316 772.5Zm.07 5.77-51.88 51.8 25.77-51.73Zm4.08 4.11v25.81l-51.78 25.82Zm5.82-.07L430.33 885l-52.21-25.53Zm4.14-4h26.06l26.05 51.3Zm-.06-5.77 51.87-51.73-25.77 51.76Zm-4.08-36.38v-24.11h48.42Zm-66.9 42.15h24.41l-24.41 49ZM372.3 866v24.14h-48.42Zm66.9-42.15h-24.41l24.41-49Z"/></g><g class="b"><path class="c" d="M139.17 908.82H0v138.34h139.61V908.82Zm-5.37 120-24.37-48h24.37Zm-61.08 12.54v-24.18l49.44 24.18ZM5.82 927.13l24.36 48H5.82Zm61.08-12.54v24.18l-49.45-24.18Zm5.82 30.59 51.78-25.82L72.72 971Zm-5.82 25.89-52.21-51.41L66.9 945.2Zm-4.15 4H36.69l-26-51.31Zm.07 5.76-51.88 51.77 25.77-51.73ZM66.9 985v25.82l-51.78 25.82Zm5.82-.07 52.21 51.41-52.21-25.54Zm4.14-4h26.06l26.08 51.25Zm-.07-5.76 51.88-51.73-25.77 51.67Zm-4.07-36.38v-24.2h48.42Zm-66.9 42.08h24.41l-24.41 49Zm61.08 36.38v24.14H18.48Zm66.9-42.14h-24.41l24.41-49Z"/></g><g class="b"><path class="c" d="M375.21 939a39 39 0 1 0 39.36 39 39.18 39.18 0 0 0-39.36-39Zm0 72.23A33.24 33.24 0 1 1 408.75 978a33.42 33.42 0 0 1-33.54 33.22Z"/><path class="c" d="M375.21 956.65A21.34 21.34 0 1 0 396.74 978a21.44 21.44 0 0 0-21.53-21.35Zm0 36.91A15.58 15.58 0 1 1 390.93 978a15.66 15.66 0 0 1-15.72 15.56Z"/><path class="c" d="M388.52 908.82H305.4v138.34H445V908.82Zm50.68 5.77v44.13a30.38 30.38 0 0 1-15-18.57 14.49 14.49 0 0 0-9.52-9.85 30.6 30.6 0 0 1-18.09-15.71Zm-128 0h44.54A30.57 30.57 0 0 1 337 929.44a14.51 14.51 0 0 0-9.94 9.44 30.5 30.5 0 0 1-15.86 17.93Zm0 126.8v-44.13a30.4 30.4 0 0 1 15 18.57 14.51 14.51 0 0 0 9.52 9.85 30.56 30.56 0 0 1 18.1 15.71Zm128 0h-44.55a30.65 30.65 0 0 1 18.74-14.86 14.47 14.47 0 0 0 9.94-9.43 30.55 30.55 0 0 1 15.87-17.93Zm0-48.5a36.33 36.33 0 0 0-21.39 22.42 8.7 8.7 0 0 1-6 5.67 36.44 36.44 0 0 0-23.63 20.41h-28a36.4 36.4 0 0 0-22.63-21.19 8.69 8.69 0 0 1-5.72-5.92 36.31 36.31 0 0 0-20.6-23.42v-27.77a36.35 36.35 0 0 0 21.39-22.42 8.69 8.69 0 0 1 6-5.67 36.48 36.48 0 0 0 23.64-20.41h28a36.41 36.41 0 0 0 22.62 21.19 8.7 8.7 0 0 1 5.73 5.92 36.31 36.31 0 0 0 20.6 23.42Z"/></g><path class="a" d="M597.27 908.82H458.1v138.34h139.61V908.82Zm-5.37 120-24.37-48h24.37Zm-61.08 12.54v-24.18l49.44 24.18Zm-66.9-114.26 24.36 48h-24.36ZM525 914.59v24.18l-49.45-24.18Zm5.82 30.59 51.78-25.82L530.82 971ZM525 971.07l-52.21-51.41L525 945.2Zm-4.15 4H494.8l-26.06-51.27Zm.07 5.76L469 1032.6l25.77-51.73ZM525 985v25.82l-51.78 25.82Zm5.82-.07 52.18 51.39-52.21-25.54Zm4.14-4H561l26.06 51.31Zm-.06-5.76 51.87-51.73L561 975.11Zm-4.08-36.38v-24.2h48.42Zm-66.9 42.14h24.41l-24.41 49Zm61.08 36.32v24.14h-48.42Zm66.9-42.14h-24.41l24.41-49Z"/><path class="d" d="M291.87 1060.12H152.7V1198.46h139.61v-138.34Zm-5.37 120-24.37-48h24.37Zm-61.08 12.55v-24.19l49.44 24.19Zm-66.9-114.27 24.36 48h-24.36Zm61.08-12.54v24.18l-49.45-24.18Zm5.82 30.59 51.78-25.81-51.78 51.63Zm-5.82 25.89L167.39 1071l52.21 25.54Zm-4.15 4h-26l-26.06-51.31Zm.07 5.76-51.88 51.74 25.77-51.74Zm4.08 4.11v25.82l-51.78 25.82Zm5.82-.06 52.21 51.4-52.21-25.54Zm4.14-4h26.06l26.05 51.31Zm-.06-5.76 51.87-51.73-25.77 51.73Zm-4.08-36.39v-24.14h48.42Zm-66.9 42.14h24.41l-24.41 49Zm61.08 36.38v24.15h-48.42Zm66.9-42.14h-24.41l24.41-49Z"/><path class="a" d="M527.91 1090.29a39 39 0 1 0 39.36 39 39.18 39.18 0 0 0-39.36-39Zm0 72.24a33.24 33.24 0 1 1 33.54-33.24 33.42 33.42 0 0 1-33.54 33.24Z"/><path class="a" d="M527.91 1108a21.34 21.34 0 1 0 21.53 21.34 21.44 21.44 0 0 0-21.53-21.34Zm0 36.92a15.58 15.58 0 1 1 15.72-15.58 15.67 15.67 0 0 1-15.72 15.53Z"/><path class="a" d="M541.22 1060.12H458.1v138.34h139.61v-138.34Zm50.68 5.77V1110a30.46 30.46 0 0 1-15-18.58 14.45 14.45 0 0 0-9.52-9.84 30.62 30.62 0 0 1-18.09-15.72Zm-128 0h44.54a30.62 30.62 0 0 1-18.74 14.86 14.49 14.49 0 0 0-9.94 9.43 30.5 30.5 0 0 1-15.86 17.93Zm0 126.81v-44.14a30.4 30.4 0 0 1 15 18.57 14.51 14.51 0 0 0 9.52 9.85 30.58 30.58 0 0 1 18.1 15.72Zm128 0h-44.55a30.57 30.57 0 0 1 18.75-14.86 14.49 14.49 0 0 0 9.93-9.44 30.56 30.56 0 0 1 15.87-17.92Zm0-48.51a36.33 36.33 0 0 0-21.39 22.42 8.68 8.68 0 0 1-6 5.67 36.43 36.43 0 0 0-23.63 20.42h-28a36.41 36.41 0 0 0-22.63-21.2 8.69 8.69 0 0 1-5.72-5.92 36.31 36.31 0 0 0-20.6-23.42v-27.77a36.35 36.35 0 0 0 21.38-22.39 8.69 8.69 0 0 1 6-5.67 36.45 36.45 0 0 0 23.64-20.41h28a36.38 36.38 0 0 0 22.62 21.19 8.7 8.7 0 0 1 5.73 5.92 36.29 36.29 0 0 0 20.6 23.42Z"/><g class="b"><path class="c" d="M69.81 1090.29a39 39 0 1 0 39.36 39 39.18 39.18 0 0 0-39.36-39Zm0 72.24a33.24 33.24 0 1 1 33.54-33.24 33.43 33.43 0 0 1-33.54 33.24Z"/><path class="c" d="M69.81 1108a21.34 21.34 0 1 0 21.53 21.34A21.44 21.44 0 0 0 69.81 1108Zm0 36.92a15.58 15.58 0 1 1 15.72-15.58 15.67 15.67 0 0 1-15.72 15.53Z"/><path class="c" d="M83.12 1060.12H0v138.34h139.61v-138.34Zm50.68 5.77V1110a30.42 30.42 0 0 1-15-18.58 14.45 14.45 0 0 0-9.52-9.84 30.62 30.62 0 0 1-18.09-15.72Zm-128 0h44.56a30.62 30.62 0 0 1-18.74 14.86 14.49 14.49 0 0 0-9.94 9.43 30.5 30.5 0 0 1-15.86 17.93Zm0 126.81v-44.14a30.4 30.4 0 0 1 15 18.57 14.49 14.49 0 0 0 9.52 9.85 30.64 30.64 0 0 1 18.1 15.72Zm128 0H89.25a30.58 30.58 0 0 1 18.75-14.86 14.49 14.49 0 0 0 9.94-9.44 30.56 30.56 0 0 1 15.87-17.92Zm0-48.51a36.37 36.37 0 0 0-21.4 22.42 8.65 8.65 0 0 1-6 5.67 36.47 36.47 0 0 0-23.64 20.42h-28a36.44 36.44 0 0 0-22.63-21.2 8.69 8.69 0 0 1-5.72-5.92 36.34 36.34 0 0 0-20.6-23.42v-27.77a36.38 36.38 0 0 0 21.4-22.39 8.69 8.69 0 0 1 6-5.67 36.45 36.45 0 0 0 23.64-20.41h28a36.38 36.38 0 0 0 22.62 21.19 8.7 8.7 0 0 1 5.73 5.92 36.29 36.29 0 0 0 20.6 23.42Z"/></g><path class="a" d="M0 1211.43v138.33h139.61v-138.33ZM5.82 1344v-63.74a48.76 48.76 0 0 1 19.56-39l9.52-7.15 9.53 7.15a49.4 49.4 0 0 1 14.4 17.22 48.76 48.76 0 0 1 5.17 21.78V1344Zm128-56.56V1344h-58.2v-63.74a48.73 48.73 0 0 1 19.57-39l9.52-7.15 9.52 7.15a48.73 48.73 0 0 1 19.57 39Zm-16.05-50.78-13-9.78-13 9.78a54.51 54.51 0 0 0-21.87 43.6 54.54 54.54 0 0 0-21.87-43.6l-13-9.78-13 9.78a54.73 54.73 0 0 0-16 19.16v-38.63h128v38.63a54.94 54.94 0 0 0-16.28-19.16Z"/><g class="b"><path class="c" d="M222.51 1241.6a39 39 0 1 0 39.36 39 39.18 39.18 0 0 0-39.36-39Zm0 72.23a33.24 33.24 0 1 1 33.54-33.24 33.42 33.42 0 0 1-33.54 33.24Z"/><path class="c" d="M222.51 1259.26a21.34 21.34 0 1 0 21.49 21.33 21.43 21.43 0 0 0-21.49-21.33Zm0 36.91a15.58 15.58 0 1 1 15.72-15.58 15.67 15.67 0 0 1-15.72 15.58Z"/><path class="c" d="M235.82 1211.43H152.7v138.33h139.61v-138.33Zm50.68 5.76v44.14a30.41 30.41 0 0 1-15-18.57 14.47 14.47 0 0 0-9.52-9.85 30.62 30.62 0 0 1-18.09-15.72Zm-128 0h44.54a30.56 30.56 0 0 1-18.74 14.86 14.51 14.51 0 0 0-9.94 9.43 30.5 30.5 0 0 1-15.86 17.93Zm0 126.81v-44.14a30.4 30.4 0 0 1 15 18.57 14.49 14.49 0 0 0 9.52 9.85 30.64 30.64 0 0 1 18.1 15.72Zm128 0H242a30.58 30.58 0 0 1 18.74-14.86 14.49 14.49 0 0 0 9.94-9.43 30.55 30.55 0 0 1 15.87-17.93Zm0-48.5a36.37 36.37 0 0 0-21.4 22.42 8.69 8.69 0 0 1-6 5.67 36.39 36.39 0 0 0-23.6 20.41h-28a36.41 36.41 0 0 0-22.63-21.2 8.67 8.67 0 0 1-5.72-5.91 36.3 36.3 0 0 0-20.6-23.43v-27.77a36.35 36.35 0 0 0 21.39-22.42 8.71 8.71 0 0 1 6-5.67 36.43 36.43 0 0 0 23.64-20.41h28a36.4 36.4 0 0 0 22.62 21.2 8.69 8.69 0 0 1 5.73 5.91 36.3 36.3 0 0 0 20.6 23.43Z"/></g><g class="b"><path class="c" d="M458.1 1211.43v138.33h139.61v-138.33Zm5.82 132.57v-63.74a48.76 48.76 0 0 1 5.16-21.78 49.29 49.29 0 0 1 14.4-17.22l9.52-7.15 9.53 7.15a49.4 49.4 0 0 1 14.4 17.22 48.76 48.76 0 0 1 5.16 21.78V1344Zm128-56.56V1344h-58.2v-63.74a48.81 48.81 0 0 1 19.57-39l9.52-7.15 9.52 7.15a48.73 48.73 0 0 1 19.57 39Zm-16-50.78-13-9.78-13 9.78a54.51 54.51 0 0 0-21.87 43.6 54.54 54.54 0 0 0-21.87-43.6l-13-9.78-13 9.78a54.73 54.73 0 0 0-16.05 19.16v-38.63h128v38.63a54.94 54.94 0 0 0-16.28-19.16Z"/></g><g class="b"><path class="c" d="M152.7 1362.73v138.34h139.61v-138.34Zm5.82 132.57v-63.74a48.76 48.76 0 0 1 19.56-39l9.52-7.15 9.53 7.15a49.4 49.4 0 0 1 14.4 17.22 48.76 48.76 0 0 1 5.16 21.78v63.74Zm128-56.56v56.56h-58.2v-63.74a48.73 48.73 0 0 1 19.57-39l9.52-7.15 9.52 7.15a48.73 48.73 0 0 1 19.57 39ZM270.45 1388l-13-9.79-13 9.79a54.49 54.49 0 0 0-21.87 43.59 54.52 54.52 0 0 0-21.94-43.59l-13-9.79-13 9.79a54.69 54.69 0 0 0-16 19.15v-38.63h128v38.63a54.91 54.91 0 0 0-16.19-19.15Z"/></g><g class="b"><path class="c" d="M375.21 1392.9a39 39 0 1 0 39.36 39 39.18 39.18 0 0 0-39.36-39Zm0 72.23a33.24 33.24 0 1 1 33.54-33.23 33.42 33.42 0 0 1-33.54 33.23Z"/><path class="c" d="M375.21 1410.56a21.34 21.34 0 1 0 21.53 21.34 21.44 21.44 0 0 0-21.53-21.34Zm0 36.91a15.58 15.58 0 1 1 15.72-15.57 15.66 15.66 0 0 1-15.72 15.57Z"/><path class="c" d="M388.52 1362.73H305.4v138.34H445v-138.34Zm50.68 5.76v44.14a30.38 30.38 0 0 1-15-18.57 14.49 14.49 0 0 0-9.52-9.85 30.59 30.59 0 0 1-18.09-15.72Zm-128 0h44.54a30.56 30.56 0 0 1-18.74 14.86 14.51 14.51 0 0 0-9.94 9.44 30.51 30.51 0 0 1-15.86 17.92Zm0 126.81v-44.14a30.42 30.42 0 0 1 15 18.58 14.47 14.47 0 0 0 9.52 9.84 30.61 30.61 0 0 1 18.1 15.72Zm128 0h-44.55a30.65 30.65 0 0 1 18.74-14.86 14.47 14.47 0 0 0 9.94-9.43 30.55 30.55 0 0 1 15.87-17.93Zm0-48.5a36.33 36.33 0 0 0-21.39 22.42 8.7 8.7 0 0 1-6 5.67 36.41 36.41 0 0 0-23.63 20.41h-28a36.4 36.4 0 0 0-22.63-21.19 8.69 8.69 0 0 1-5.72-5.92 36.26 36.26 0 0 0-20.6-23.42V1417a36.35 36.35 0 0 0 21.39-22.42 8.67 8.67 0 0 1 6-5.67 36.47 36.47 0 0 0 23.64-20.42h28a36.4 36.4 0 0 0 22.62 21.2 8.7 8.7 0 0 1 5.73 5.92A36.31 36.31 0 0 0 439.2 1419Z"/></g><path class="a" d="M762.08 757.52v138.33H901.7V757.52Zm5.82 132.57v-63.74a48.73 48.73 0 0 1 19.57-39l9.53-7.15 9.52 7.15a48.76 48.76 0 0 1 19.56 39v63.74Zm128-56.56v56.56h-58.19v-63.74a48.76 48.76 0 0 1 5.16-21.78 49.4 49.4 0 0 1 14.4-17.22l9.52-7.15 9.53 7.15a49.4 49.4 0 0 1 14.4 17.22 48.76 48.76 0 0 1 5.16 21.78Zm-16-50.78-13-9.78-13 9.78a54.52 54.52 0 0 0-21.87 43.6 54.52 54.52 0 0 0-22.03-43.6L797 773l-13 9.78a54.92 54.92 0 0 0-16.05 19.16v-38.66h128v38.63a54.81 54.81 0 0 0-16.12-19.16Z"/><g class="b"><path class="c" d="M984.59 787.69a39 39 0 1 0 39.36 39 39.18 39.18 0 0 0-39.36-39Zm0 72.23a33.24 33.24 0 1 1 33.54-33.23 33.42 33.42 0 0 1-33.54 33.23Z"/><path class="c" d="M984.59 805.35a21.34 21.34 0 1 0 21.53 21.34 21.44 21.44 0 0 0-21.53-21.34Zm0 36.91a15.58 15.58 0 1 1 15.72-15.57 15.67 15.67 0 0 1-15.72 15.57Z"/><path class="c" d="M997.9 757.52h-83.12v138.33h139.61V757.52Zm50.68 5.76v44.14a30.38 30.38 0 0 1-15-18.57 14.49 14.49 0 0 0-9.52-9.85 30.62 30.62 0 0 1-18.06-15.72Zm-128 0h44.54a30.56 30.56 0 0 1-18.74 14.86 14.51 14.51 0 0 0-9.94 9.43 30.5 30.5 0 0 1-15.84 17.93Zm0 126.81V846a30.42 30.42 0 0 1 15 18.57 14.47 14.47 0 0 0 9.52 9.85 30.64 30.64 0 0 1 18.1 15.72Zm128 0H1004a30.58 30.58 0 0 1 18.74-14.86 14.47 14.47 0 0 0 9.94-9.43 30.55 30.55 0 0 1 15.87-17.93Zm0-48.5a36.37 36.37 0 0 0-21.4 22.42 8.67 8.67 0 0 1-6 5.67 36.39 36.39 0 0 0-23.63 20.41h-28a36.44 36.44 0 0 0-22.63-21.2 8.65 8.65 0 0 1-5.72-5.89 36.26 36.26 0 0 0-20.6-23.42v-27.8a36.33 36.33 0 0 0 21.4-22.42 8.71 8.71 0 0 1 6-5.67 36.43 36.43 0 0 0 23.64-20.41h28a36.4 36.4 0 0 0 22.62 21.2 8.68 8.68 0 0 1 5.73 5.92 36.31 36.31 0 0 0 20.6 23.42Z"/></g><g class="b"><path class="c" d="M748.56 757.52H609.39V895.85H749V757.52Zm-5.37 120-24.37-48h24.37Zm-61.08 12.54V865.9l49.44 24.19Zm-66.9-114.26 24.36 48h-24.36Zm61.08-12.55v24.19l-49.45-24.19Zm5.82 30.6 51.78-25.82-51.78 51.63Zm-5.82 25.88-52.21-51.4 52.21 25.54Zm-4.15 4h-26L620 772.5Zm.07 5.77-51.88 51.8 25.77-51.73Zm4.08 4.11v25.81l-51.78 25.82Zm5.82-.07L734.32 885l-52.21-25.53Zm4.14-4h26.06l26.05 51.3Zm-.07-5.77 51.88-51.73-25.77 51.76Zm-4.07-36.38v-24.11h48.42Zm-66.9 42.15h24.41l-24.41 49ZM676.29 866v24.14h-48.42Zm66.9-42.15h-24.41l24.41-49Z"/></g><path class="d" d="M1220.15 757.52v138.33h139.61V757.52Zm5.85 132.57v-63.74a48.76 48.76 0 0 1 19.56-39l9.52-7.15 9.53 7.15a49.4 49.4 0 0 1 14.4 17.22 48.9 48.9 0 0 1 5.16 21.78v63.74Zm128-56.56v56.56h-58.18v-63.74a48.73 48.73 0 0 1 19.57-39l9.52-7.15 9.52 7.15a48.73 48.73 0 0 1 19.57 39Zm-16-50.78-13-9.78-13 9.78a54.54 54.54 0 0 0-21.86 43.6 54.55 54.55 0 0 0-21.87-43.6l-13-9.78-13 9.78a54.81 54.81 0 0 0-16 19.16v-38.63h128v38.63a55 55 0 0 0-16.37-19.16Z"/><g class="b"><path class="c" d="M1205.86 757.52h-139.17V895.85h139.61V757.52Zm-5.38 120-24.36-48h24.36Zm-61.08 12.54V865.9l49.45 24.19Zm-66.89-114.26 24.36 48h-24.36Zm61.08-12.55v24.19l-49.45-24.19Zm5.81 30.6 51.78-25.82-51.78 51.63Zm-5.81 25.88-52.21-51.4 52.21 25.54Zm-4.15 4h-26.06l-26.05-51.3Zm.07 5.77-51.88 51.73 25.77-51.73Zm4.08 4.11v25.81l-51.78 25.82Zm5.81-.07 52.21 51.4-52.21-25.53Zm4.15-4h26.06l26.05 51.3Zm-.07-5.77 51.88-51.73-25.77 51.73Zm-4.08-36.38v-24.11h48.43Zm-66.89 42.15h24.41l-24.41 49Zm61.08 36.46v24.14h-48.42Zm66.89-42.15h-24.4l24.4-49Z"/></g><g class="b"><path class="c" d="M914.78 908.82v138.34h139.61V908.82Zm5.82 132.57v-63.74a48.8 48.8 0 0 1 19.56-39l9.52-7.15 9.53 7.15a49.43 49.43 0 0 1 14.4 17.23 48.75 48.75 0 0 1 5.16 21.77v63.74Zm128-56.55v56.55h-58.2v-63.74a48.77 48.77 0 0 1 19.57-39l9.52-7.15 9.52 7.15a48.77 48.77 0 0 1 19.57 39Zm-16-50.78-13-9.79-13 9.79a54.5 54.5 0 0 0-21.87 43.59 54.53 54.53 0 0 0-21.87-43.59l-13-9.79-13 9.79a54.64 54.64 0 0 0-16 19.16v-38.63h128v38.63a54.85 54.85 0 0 0-16.33-19.16Z"/></g><g class="b"><path class="c" d="M901.25 908.82H762.08v138.34H901.7V908.82Zm-5.37 120-24.36-48h24.36Zm-61.08 12.54v-24.18l49.45 24.18Zm-66.9-114.23 24.37 48H767.9Zm61.1-12.54v24.18l-49.44-24.18Zm5.82 30.59 51.78-25.82L834.8 971ZM829 971.07l-52.21-51.41L829 945.2Zm-4.15 4h-26.07l-26.06-51.27Zm.07 5.76L773 1032.6l25.77-51.73ZM829 985v25.82l-51.78 25.82Zm5.82-.07 52.18 51.39-52.21-25.54Zm4.15-4h26l26.06 51.31Zm-.07-5.76 51.88-51.73L865 975.11Zm-4.08-36.38v-24.2h48.42Zm-66.9 42.14h24.41l-24.41 49Zm61.08 36.32v24.14h-48.44Zm66.9-42.14h-24.43l24.41-49Z"/></g><g class="b"><path class="c" d="M1136.5 939a39 39 0 1 0 39.35 39 39.18 39.18 0 0 0-39.35-39Zm0 72.23A33.24 33.24 0 1 1 1170 978a33.42 33.42 0 0 1-33.5 33.22Z"/><path class="c" d="M1136.5 956.65A21.34 21.34 0 1 0 1158 978a21.44 21.44 0 0 0-21.5-21.35Zm0 36.91a15.58 15.58 0 1 1 15.71-15.56 15.66 15.66 0 0 1-15.71 15.56Z"/><path class="c" d="M1149.81 908.82h-83.12v138.34h139.61V908.82Zm50.68 5.77v44.13a30.38 30.38 0 0 1-15-18.57 14.49 14.49 0 0 0-9.52-9.85 30.65 30.65 0 0 1-18.1-15.71Zm-128 0h44.54a30.6 30.6 0 0 1-18.74 14.85 14.49 14.49 0 0 0-9.94 9.44 30.5 30.5 0 0 1-15.86 17.93Zm0 126.8v-44.13a30.4 30.4 0 0 1 15 18.57 14.49 14.49 0 0 0 9.52 9.85 30.62 30.62 0 0 1 18.1 15.71Zm128 0h-44.55a30.65 30.65 0 0 1 18.74-14.86 14.47 14.47 0 0 0 9.94-9.43 30.51 30.51 0 0 1 15.87-17.93Zm0-48.5a36.37 36.37 0 0 0-21.4 22.42 8.67 8.67 0 0 1-6 5.67 36.48 36.48 0 0 0-23.64 20.41h-28a36.42 36.42 0 0 0-22.63-21.19 8.69 8.69 0 0 1-5.72-5.92 36.36 36.36 0 0 0-20.6-23.42v-27.77a36.38 36.38 0 0 0 21.39-22.42 8.69 8.69 0 0 1 6-5.67 36.48 36.48 0 0 0 23.64-20.41h28a36.41 36.41 0 0 0 22.62 21.19 8.69 8.69 0 0 1 5.72 5.92 36.35 36.35 0 0 0 20.61 23.42Z"/></g><g class="b"><path class="c" d="M1066.69 1060.12v138.34h139.61v-138.34Zm5.82 132.58V1129a48.8 48.8 0 0 1 19.56-39l9.52-7.14 9.52 7.14a48.77 48.77 0 0 1 19.57 39v63.75Zm128-56.56v56.56h-58.18V1129a48.77 48.77 0 0 1 19.57-39l9.52-7.14 9.52 7.14a48.85 48.85 0 0 1 19.57 39Zm-16.06-50.78-13-9.78-13 9.78a54.52 54.52 0 0 0-21.95 43.64 54.53 54.53 0 0 0-21.87-43.59l-13-9.78-13 9.78a54.73 54.73 0 0 0-16 19.16v-38.63h128v38.63a54.86 54.86 0 0 0-16.2-19.21Z"/></g><path class="d" d="M1054 1060.12H914.78V1198.46h139.61v-138.34Zm-5.37 120-24.37-48h24.37Zm-61.13 12.58v-24.19l49.44 24.19Zm-66.9-114.27 24.36 48H920.6Zm61.08-12.54v24.18l-49.45-24.18Zm5.82 30.59 51.78-25.81-51.78 51.63Zm-5.82 25.89L929.47 1071l52.21 25.54Zm-4.15 4h-26l-26.06-51.31Zm.07 5.76-51.88 51.74 25.77-51.74Zm4.08 4.11v25.82l-51.78 25.82Zm5.82-.06 52.21 51.4-52.21-25.54Zm4.14-4h26.06l26 51.31Zm-.06-5.76 51.87-51.73-25.77 51.73ZM987.5 1090v-24.14h48.42Zm-66.9 42.14H945l-24.41 49Zm61.08 36.38v24.15h-48.42Zm66.9-42.14h-24.41l24.41-49Z"/><path class="a" d="M1290 1090.29a39 39 0 1 0 39.36 39 39.18 39.18 0 0 0-39.36-39Zm0 72.24a33.24 33.24 0 1 1 33.54-33.24 33.43 33.43 0 0 1-33.54 33.24Z"/><path class="a" d="M1290 1108a21.34 21.34 0 1 0 21.53 21.34A21.44 21.44 0 0 0 1290 1108Zm0 36.92a15.58 15.58 0 1 1 15.72-15.58 15.67 15.67 0 0 1-15.72 15.53Z"/><path class="a" d="M1303.27 1060.12h-83.12v138.34h139.61v-138.34Zm50.68 5.77V1110a30.42 30.42 0 0 1-15-18.58 14.45 14.45 0 0 0-9.52-9.84 30.62 30.62 0 0 1-18.09-15.72Zm-128 0h44.54a30.62 30.62 0 0 1-18.74 14.86 14.49 14.49 0 0 0-9.94 9.43 30.5 30.5 0 0 1-15.86 17.93Zm0 126.81v-44.14a30.4 30.4 0 0 1 15 18.57 14.49 14.49 0 0 0 9.52 9.85 30.64 30.64 0 0 1 18.1 15.72Zm128 0h-44.55a30.58 30.58 0 0 1 18.74-14.86 14.49 14.49 0 0 0 9.94-9.44 30.56 30.56 0 0 1 15.87-17.92Zm0-48.51a36.37 36.37 0 0 0-21.4 22.42 8.65 8.65 0 0 1-6 5.67 36.47 36.47 0 0 0-23.64 20.42h-28a36.44 36.44 0 0 0-22.63-21.2 8.69 8.69 0 0 1-5.72-5.92 36.34 36.34 0 0 0-20.6-23.42v-27.77a36.38 36.38 0 0 0 21.39-22.42 8.69 8.69 0 0 1 6-5.67 36.45 36.45 0 0 0 23.64-20.41h28a36.38 36.38 0 0 0 22.62 21.19 8.7 8.7 0 0 1 5.73 5.92 36.29 36.29 0 0 0 20.6 23.42Z"/><g class="b"><path class="c" d="M609.39 1060.12v138.34H749v-138.34Zm5.82 132.58V1129a48.8 48.8 0 0 1 19.56-39l9.52-7.14 9.53 7.14a49.43 49.43 0 0 1 14.4 17.23 48.75 48.75 0 0 1 5.16 21.77v63.75Zm128-56.56v56.56H685V1129a48.77 48.77 0 0 1 19.57-39l9.52-7.14 9.52 7.14a48.77 48.77 0 0 1 19.57 39Zm-16.05-50.78-13-9.78-13 9.78A54.5 54.5 0 0 0 679.2 1129a54.53 54.53 0 0 0-21.87-43.59l-13-9.78-13 9.78a54.73 54.73 0 0 0-16 19.16v-38.63h128v38.63a54.94 54.94 0 0 0-16.19-19.21Z"/></g><g class="b"><path class="c" d="M831.89 1090.29a39 39 0 1 0 39.36 39 39.18 39.18 0 0 0-39.36-39Zm0 72.24a33.24 33.24 0 1 1 33.54-33.24 33.43 33.43 0 0 1-33.54 33.24Z"/><path class="c" d="M831.89 1108a21.34 21.34 0 1 0 21.54 21.34 21.44 21.44 0 0 0-21.54-21.34Zm0 36.92a15.58 15.58 0 1 1 15.72-15.58 15.67 15.67 0 0 1-15.72 15.53Z"/><path class="c" d="M845.2 1060.12h-83.12v138.34H901.7v-138.34Zm50.68 5.77V1110a30.49 30.49 0 0 1-15-18.58 14.46 14.46 0 0 0-9.51-9.84 30.61 30.61 0 0 1-18.1-15.72Zm-128 0h44.55a30.64 30.64 0 0 1-18.75 14.86 14.49 14.49 0 0 0-9.94 9.43 30.5 30.5 0 0 1-15.86 17.93Zm0 126.81v-44.14a30.44 30.44 0 0 1 15 18.57 14.49 14.49 0 0 0 9.52 9.85 30.59 30.59 0 0 1 18.09 15.72Zm128 0h-44.54a30.56 30.56 0 0 1 18.74-14.86 14.51 14.51 0 0 0 9.94-9.44 30.51 30.51 0 0 1 15.86-17.92Zm0-48.51a36.35 36.35 0 0 0-21.39 22.42 8.69 8.69 0 0 1-6 5.67 36.47 36.47 0 0 0-23.64 20.42h-28a36.39 36.39 0 0 0-22.63-21.2 8.71 8.71 0 0 1-5.72-5.92 36.31 36.31 0 0 0-20.6-23.42v-27.77a36.33 36.33 0 0 0 21.39-22.39 8.7 8.7 0 0 1 6-5.67 36.41 36.41 0 0 0 23.63-20.41h28a36.4 36.4 0 0 0 22.63 21.19 8.71 8.71 0 0 1 5.72 5.92 36.29 36.29 0 0 0 20.6 23.42Z"/></g><path class="a" d="M762.08 1211.43v138.33H901.7v-138.33ZM767.9 1344v-63.74a48.73 48.73 0 0 1 19.57-39l9.52-7.15 9.52 7.15a48.76 48.76 0 0 1 19.56 39V1344Zm128-56.56V1344h-58.19v-63.74a48.76 48.76 0 0 1 5.16-21.78 49.4 49.4 0 0 1 14.4-17.22l9.52-7.15 9.53 7.15a49.4 49.4 0 0 1 14.4 17.22 48.76 48.76 0 0 1 5.16 21.78Zm-16-50.78-13-9.78-13 9.78a54.51 54.51 0 0 0-21.87 43.6 54.51 54.51 0 0 0-21.87-43.6l-13-9.78-13 9.78a54.83 54.83 0 0 0-16.05 19.16v-38.63h128v38.63a54.73 54.73 0 0 0-16.28-19.16Z"/><g class="b"><path class="c" d="M984.59 1241.6a39 39 0 1 0 39.36 39 39.18 39.18 0 0 0-39.36-39Zm0 72.23a33.24 33.24 0 1 1 33.54-33.24 33.42 33.42 0 0 1-33.54 33.24Z"/><path class="c" d="M984.59 1259.26a21.34 21.34 0 1 0 21.53 21.33 21.43 21.43 0 0 0-21.53-21.33Zm0 36.91a15.58 15.58 0 1 1 15.72-15.58 15.67 15.67 0 0 1-15.72 15.58Z"/><path class="c" d="M997.9 1211.43h-83.12v138.33h139.61v-138.33Zm50.68 5.76v44.14a30.41 30.41 0 0 1-15-18.57 14.47 14.47 0 0 0-9.52-9.85 30.62 30.62 0 0 1-18.09-15.72Zm-128 0h44.54a30.56 30.56 0 0 1-18.74 14.86 14.51 14.51 0 0 0-9.94 9.43 30.5 30.5 0 0 1-15.86 17.93Zm0 126.81v-44.14a30.4 30.4 0 0 1 15 18.57 14.49 14.49 0 0 0 9.52 9.85 30.64 30.64 0 0 1 18.1 15.72Zm128 0H1004a30.58 30.58 0 0 1 18.74-14.86 14.49 14.49 0 0 0 9.94-9.43 30.55 30.55 0 0 1 15.87-17.93Zm0-48.5a36.37 36.37 0 0 0-21.4 22.42 8.69 8.69 0 0 1-6 5.67 36.39 36.39 0 0 0-23.6 20.41h-28a36.41 36.41 0 0 0-22.63-21.2 8.67 8.67 0 0 1-5.72-5.91 36.3 36.3 0 0 0-20.6-23.43v-27.77a36.35 36.35 0 0 0 21.37-22.42 8.71 8.71 0 0 1 6-5.67 36.43 36.43 0 0 0 23.64-20.41h28a36.4 36.4 0 0 0 22.62 21.2 8.69 8.69 0 0 1 5.73 5.91 36.3 36.3 0 0 0 20.6 23.43Z"/></g><g class="b"><path class="c" d="M748.56 1211.43H609.39V1349.76H749v-138.33Zm-5.37 120-24.37-48h24.37ZM682.11 1344v-24.19l49.44 24.19Zm-66.9-114.27 24.36 48h-24.36Zm61.08-12.54v24.19l-49.45-24.19Zm5.82 30.6 51.78-25.79-51.78 51.63Zm-5.82 25.88-52.21-51.4 52.21 25.53Zm-4.15 4h-26L620 1226.41Zm.07 5.77-51.88 51.73 25.77-51.73Zm4.08 4.11v25.81l-51.78 25.82Zm5.82-.07 52.21 51.4-52.21-25.54Zm4.14-4h26.06l26.05 51.3Zm-.07-5.77 51.88-51.71-25.77 51.73Zm-4.07-36.38v-24.14h48.42Zm-66.9 42.15h24.41l-24.41 49Zm61.08 36.38V1344h-48.42Zm66.9-42.15h-24.41l24.41-49Z"/></g><g class="b"><path class="c" d="M1220.15 1211.43v138.33h139.61v-138.33ZM1226 1344v-63.74a48.76 48.76 0 0 1 19.56-39l9.52-7.15 9.53 7.15a49.4 49.4 0 0 1 14.4 17.22 48.9 48.9 0 0 1 5.16 21.78V1344Zm128-56.56V1344h-58.18v-63.74a48.73 48.73 0 0 1 19.57-39l9.52-7.15 9.52 7.15a48.73 48.73 0 0 1 19.57 39Zm-16-50.78-13-9.78-13 9.78a54.53 54.53 0 0 0-21.86 43.6 54.54 54.54 0 0 0-21.87-43.6l-13-9.78-13 9.78a54.73 54.73 0 0 0-16 19.16v-38.63h128v38.63a54.94 54.94 0 0 0-16.37-19.16Z"/></g><g class="b"><path class="c" d="M1205.86 1211.43h-139.17V1349.76h139.61v-138.33Zm-5.38 120-24.36-48h24.36ZM1139.4 1344v-24.19l49.45 24.19Zm-66.89-114.27 24.36 48h-24.36Zm61.08-12.54v24.19l-49.45-24.19Zm5.81 30.6 51.78-25.82-51.78 51.63Zm-5.81 25.88-52.21-51.4 52.21 25.53Zm-4.15 4h-26.06l-26.05-51.3Zm.07 5.77-51.88 51.73 25.77-51.73Zm4.08 4.11v25.81l-51.78 25.82Zm5.81-.07 52.21 51.4-52.21-25.54Zm4.15-4h26.06l26.05 51.3Zm-.07-5.77 51.88-51.73-25.77 51.73Zm-4.08-36.38v-24.14h48.43Zm-66.89 42.15h24.41l-24.41 49Zm61.08 36.38V1344h-48.42Zm66.89-42.15h-24.4l24.4-49Z"/></g><path class="d" d="M679.2 1392.9a39 39 0 1 0 39.36 39 39.18 39.18 0 0 0-39.36-39Zm0 72.23a33.24 33.24 0 1 1 33.54-33.23 33.42 33.42 0 0 1-33.54 33.23Z"/><path class="d" d="M679.2 1410.56a21.34 21.34 0 1 0 21.53 21.34 21.44 21.44 0 0 0-21.53-21.34Zm0 36.91a15.58 15.58 0 1 1 15.72-15.57 15.66 15.66 0 0 1-15.72 15.57Z"/><path class="d" d="M692.51 1362.73h-83.12v138.34H749v-138.34Zm50.68 5.76v44.14a30.38 30.38 0 0 1-15-18.57 14.49 14.49 0 0 0-9.52-9.85 30.59 30.59 0 0 1-18.09-15.72Zm-128 0h44.54a30.56 30.56 0 0 1-18.73 14.86 14.51 14.51 0 0 0-9.94 9.44 30.51 30.51 0 0 1-15.86 17.92Zm0 126.81v-44.14a30.42 30.42 0 0 1 15 18.58 14.47 14.47 0 0 0 9.52 9.84 30.64 30.64 0 0 1 18.1 15.72Zm128 0h-44.55a30.65 30.65 0 0 1 18.74-14.86 14.47 14.47 0 0 0 9.94-9.43 30.55 30.55 0 0 1 15.87-17.93Zm0-48.5a36.37 36.37 0 0 0-21.4 22.42 8.67 8.67 0 0 1-6 5.67 36.41 36.41 0 0 0-23.63 20.41h-28a36.4 36.4 0 0 0-22.63-21.19 8.69 8.69 0 0 1-5.72-5.92 36.29 36.29 0 0 0-20.6-23.42V1417a36.35 36.35 0 0 0 21.39-22.42 8.67 8.67 0 0 1 6-5.67 36.47 36.47 0 0 0 23.64-20.42h28a36.4 36.4 0 0 0 22.62 21.2 8.7 8.7 0 0 1 5.73 5.92 36.31 36.31 0 0 0 20.6 23.42Z"/><g class="b"><path class="c" d="M914.78 1362.73v138.34h139.61v-138.34Zm5.82 132.57v-63.74a48.76 48.76 0 0 1 19.56-39l9.52-7.15 9.53 7.15a49.4 49.4 0 0 1 14.4 17.22 48.76 48.76 0 0 1 5.16 21.78v63.74Zm128-56.56v56.56h-58.2v-63.74a48.73 48.73 0 0 1 19.57-39l9.52-7.15 9.52 7.15a48.73 48.73 0 0 1 19.57 39Zm-16-50.77-13-9.79-13 9.79a54.49 54.49 0 0 0-21.87 43.59 54.52 54.52 0 0 0-22.01-43.56l-13-9.79-13 9.79a54.69 54.69 0 0 0-16 19.15v-38.63h128v38.63a54.91 54.91 0 0 0-16.19-19.15Z"/></g><g class="b"><path class="c" d="M1359.32 1362.73h-139.17v138.34h139.61v-138.34Zm-5.37 120-24.37-48H1354Zm-61.08 12.54v-24.19l49.44 24.19ZM1226 1381l24.36 48H1226Zm61.08-12.55v24.19l-49.45-24.19Zm5.82 30.6 51.78-25.82-51.78 51.64Zm-5.82 25.88-52.21-51.4 52.21 25.54Zm-4.15 4h-26.06l-26-51.31Zm.07 5.76-51.88 51.73 25.77-51.73Zm4.08 4.11v25.82l-51.78 25.81Zm5.82-.07 52.21 51.4-52.21-25.53Zm4.14-4h26.06l26 51.31Zm-.07-5.76 51.88-51.74-25.8 51.77Zm-4.07-36.38v-24.15h48.42Zm-66.9 42.14h24.41l-24.41 49Zm61.08 36.38v24.14h-48.42ZM1354 1429h-24.41l24.41-49Z"/></g><g class="b"><path class="c" d="M69.81 31.05a39 39 0 1 0 39.36 39 39.18 39.18 0 0 0-39.36-39Zm0 72.24a33.24 33.24 0 1 1 33.54-33.24 33.43 33.43 0 0 1-33.54 33.24Z"/><path class="c" d="M69.81 48.71a21.34 21.34 0 1 0 21.53 21.34 21.44 21.44 0 0 0-21.53-21.34Zm0 36.92a15.58 15.58 0 1 1 15.72-15.58 15.67 15.67 0 0 1-15.72 15.58Z"/><path class="c" d="M83.12.88H0v138.34h139.61V.88Zm50.68 5.77v44.13a30.38 30.38 0 0 1-15-18.57 14.49 14.49 0 0 0-9.52-9.85A30.57 30.57 0 0 1 91.19 6.65Zm-128 0h44.56a30.62 30.62 0 0 1-18.74 14.86 14.47 14.47 0 0 0-9.94 9.43A30.5 30.5 0 0 1 5.82 48.87Zm0 126.8V89.32a30.4 30.4 0 0 1 15 18.57 14.49 14.49 0 0 0 9.52 9.85 30.65 30.65 0 0 1 18.1 15.71Zm128 0H89.25A30.65 30.65 0 0 1 108 118.59a14.45 14.45 0 0 0 9.94-9.43 30.55 30.55 0 0 1 15.86-17.93Zm0-48.5a36.37 36.37 0 0 0-21.4 22.42 8.67 8.67 0 0 1-6 5.67 36.48 36.48 0 0 0-23.64 20.41h-28a36.45 36.45 0 0 0-22.63-21.19 8.69 8.69 0 0 1-5.72-5.92A36.34 36.34 0 0 0 5.82 82.92V55.15a36.38 36.38 0 0 0 21.39-22.42 8.69 8.69 0 0 1 6-5.67A36.48 36.48 0 0 0 56.82 6.65h28a36.38 36.38 0 0 0 22.62 21.19 8.7 8.7 0 0 1 5.73 5.92 36.31 36.31 0 0 0 20.6 23.42Z"/></g><g class="b"><path class="c" d="M291.87.88H152.7v138.34h139.61V.88Zm-5.37 120-24.37-48h24.37Zm-61.08 12.54v-24.15l49.44 24.18Zm-66.9-114.23 24.36 48h-24.36ZM219.6 6.65v24.18L170.15 6.65Zm5.82 30.59 51.78-25.82-51.78 51.64Zm-5.82 25.89-52.21-51.41 52.21 25.54Zm-4.15 4h-26l-26.11-51.27Zm.07 5.76-51.88 51.73 25.77-51.73ZM219.6 77v25.82l-51.78 25.82Zm5.82-.07 52.21 51.41-52.21-25.54Zm4.14-4h26.06l26.05 51.31Zm-.06-5.76 51.87-51.73-25.77 51.73Zm-4.08-36.38V6.65h48.42Zm-66.9 42.14h24.41l-24.41 49Zm61.08 36.38v24.14h-48.42Zm66.9-42.14h-24.41l24.41-49Z"/></g><g class="b"><path class="c" d="M0 152.18v138.34h139.61V152.18Zm5.82 132.58V221a48.76 48.76 0 0 1 19.56-39l9.52-7.15 9.53 7.15a49.31 49.31 0 0 1 14.4 17.22A48.76 48.76 0 0 1 64 221v63.74Zm128-56.56v56.56h-58.2V221a48.73 48.73 0 0 1 19.57-39l9.52-7.15 9.52 7.15a48.73 48.73 0 0 1 19.57 39Zm-16.05-50.78-13-9.78-13 9.78A54.51 54.51 0 0 0 69.81 221a54.54 54.54 0 0 0-21.87-43.6l-13-9.78-13 9.78a54.73 54.73 0 0 0-16 19.16V158h128v38.63a54.94 54.94 0 0 0-16.19-19.21Z"/></g><path class="d" d="M139.17 303.49H0V441.82h139.61V303.49Zm-5.37 120-24.37-48h24.37Zm-61.08 12.57v-24.19l49.44 24.19ZM5.82 321.8l24.36 48H5.82Zm61.08-12.55v24.19l-49.45-24.19Zm5.82 30.6L124.5 314l-51.78 51.66Zm-5.82 25.88-52.21-51.4 52.21 25.54Zm-4.15 4H36.69l-26-51.3Zm.07 5.77-51.88 51.77 25.77-51.73Zm4.08 4.11v25.81l-51.78 25.86Zm5.82-.07L124.93 431l-52.21-25.56Zm4.14-4h26.06l26.08 51.3Zm-.07-5.77L128.67 318l-25.77 51.77Zm-4.07-36.38v-24.14h48.42Zm-66.9 42.15h24.41l-24.41 49Zm61.08 36.38v24.14H18.48Zm66.9-42.15h-24.41l24.41-49Z"/><g class="b"><path class="c" d="M69.81 485a39 39 0 1 0 39.36 39 39.18 39.18 0 0 0-39.36-39Zm0 72.23A33.24 33.24 0 1 1 103.35 524a33.43 33.43 0 0 1-33.54 33.19Z"/><path class="c" d="M69.81 502.62A21.34 21.34 0 1 0 91.34 524a21.44 21.44 0 0 0-21.53-21.38Zm0 36.91A15.58 15.58 0 1 1 85.53 524a15.66 15.66 0 0 1-15.72 15.53Z"/><path class="c" d="M83.12 454.79H0v138.34h139.61V454.79Zm50.68 5.76v44.14a30.38 30.38 0 0 1-15-18.57 14.49 14.49 0 0 0-9.52-9.85 30.59 30.59 0 0 1-18.09-15.72Zm-128 0h44.56a30.56 30.56 0 0 1-18.74 14.86 14.51 14.51 0 0 0-9.94 9.44 30.51 30.51 0 0 1-15.86 17.92Zm0 126.81v-44.14a30.44 30.44 0 0 1 15 18.58 14.49 14.49 0 0 0 9.52 9.85 30.62 30.62 0 0 1 18.1 15.71Zm128 0H89.25A30.65 30.65 0 0 1 108 572.5a14.47 14.47 0 0 0 9.94-9.43 30.55 30.55 0 0 1 15.87-17.93Zm0-48.5a36.37 36.37 0 0 0-21.4 22.42 8.67 8.67 0 0 1-6 5.67 36.45 36.45 0 0 0-23.64 20.41h-28a36.42 36.42 0 0 0-22.63-21.19 8.69 8.69 0 0 1-5.72-5.92 36.31 36.31 0 0 0-20.6-23.42v-27.77a36.38 36.38 0 0 0 21.39-22.42 8.69 8.69 0 0 1 6-5.67 36.47 36.47 0 0 0 23.64-20.42h28a36.4 36.4 0 0 0 22.62 21.2 8.7 8.7 0 0 1 5.73 5.92 36.31 36.31 0 0 0 20.6 23.42Z"/></g><g class="b"><path class="c" d="M291.87 454.79H152.7v138.34h139.61V454.79Zm-5.37 120-24.37-48h24.37Zm-61.08 12.54v-24.15l49.44 24.18Zm-66.9-114.23 24.36 48h-24.36Zm61.08-12.55v24.19l-49.45-24.19Zm5.82 30.6 51.78-25.82L225.42 517ZM219.6 517l-52.21-51.4 52.21 25.54Zm-4.15 4.05h-26l-26.06-51.31Zm.07 5.76-51.88 51.73 25.77-51.73Zm4.08 4.19v25.82l-51.78 25.81Zm5.82-.07 52.21 51.41-52.21-25.54Zm4.14-4h26.06l26.05 51.31Zm-.06-5.76 51.87-51.74-25.77 51.65Zm-4.08-36.38v-24.24h48.42Zm-66.9 42.14h24.41l-24.41 49Zm61.08 36.38v24.14h-48.42Zm66.9-42.14h-24.41l24.41-49Z"/></g><g class="b"><path class="c" d="M0 606.09v138.34h139.61V606.09Zm5.82 132.58v-63.75a48.8 48.8 0 0 1 19.56-39l9.52-7.14 9.53 7.14a49.43 49.43 0 0 1 14.4 17.23A48.75 48.75 0 0 1 64 674.92v63.75Zm128-56.56v56.56h-58.2v-63.75a48.77 48.77 0 0 1 19.57-39l9.52-7.14 9.52 7.14a48.77 48.77 0 0 1 19.57 39Zm-16.05-50.78-13-9.78-13 9.78a54.5 54.5 0 0 0-21.87 43.59 54.53 54.53 0 0 0-21.87-43.59l-13-9.78-13 9.78a54.73 54.73 0 0 0-16 19.16v-38.63h128v38.63a54.94 54.94 0 0 0-16.28-19.16Z"/></g><g class="b"><path class="c" d="M222.51 636.26a39 39 0 1 0 39.36 39 39.18 39.18 0 0 0-39.36-39Zm0 72.24a33.24 33.24 0 1 1 33.54-33.24 33.42 33.42 0 0 1-33.54 33.24Z"/><path class="c" d="M222.51 653.92A21.34 21.34 0 1 0 244 675.26a21.44 21.44 0 0 0-21.49-21.34Zm0 36.92a15.58 15.58 0 1 1 15.72-15.58 15.67 15.67 0 0 1-15.72 15.58Z"/><path class="c" d="M235.82 606.09H152.7v138.34h139.61V606.09Zm50.68 5.77V656a30.38 30.38 0 0 1-15-18.57 14.49 14.49 0 0 0-9.52-9.85 30.57 30.57 0 0 1-18.09-15.71Zm-128 0h44.54a30.62 30.62 0 0 1-18.74 14.86 14.49 14.49 0 0 0-9.94 9.43 30.5 30.5 0 0 1-15.86 17.93Zm0 126.81v-44.14a30.4 30.4 0 0 1 15 18.57 14.51 14.51 0 0 0 9.5 9.9 30.61 30.61 0 0 1 18.1 15.72Zm128 0H242a30.58 30.58 0 0 1 18.74-14.86 14.49 14.49 0 0 0 9.94-9.44 30.56 30.56 0 0 1 15.87-17.92Zm0-48.51a36.37 36.37 0 0 0-21.4 22.42 8.67 8.67 0 0 1-6 5.67 36.43 36.43 0 0 0-23.63 20.42h-28a36.41 36.41 0 0 0-22.63-21.2 8.69 8.69 0 0 1-5.72-5.92 36.31 36.31 0 0 0-20.6-23.42v-27.77a36.35 36.35 0 0 0 21.39-22.42 8.69 8.69 0 0 1 6-5.67 36.48 36.48 0 0 0 23.64-20.41h28a36.38 36.38 0 0 0 22.62 21.19 8.7 8.7 0 0 1 5.73 5.95 36.31 36.31 0 0 0 20.6 23.42Z"/></g><g class="b"><path class="c" d="M1441.29 787.69a39 39 0 1 0 39.36 39 39.18 39.18 0 0 0-39.36-39Zm0 72.23a33.24 33.24 0 1 1 33.54-33.23 33.42 33.42 0 0 1-33.54 33.23Z"/><path class="c" d="M1441.29 805.35a21.34 21.34 0 1 0 21.53 21.34 21.44 21.44 0 0 0-21.53-21.34Zm0 36.91a15.58 15.58 0 1 1 15.71-15.57 15.67 15.67 0 0 1-15.71 15.57Z"/><path class="c" d="M1454.6 757.52h-83.12v138.33h139.61V757.52Zm50.68 5.76v44.14a30.38 30.38 0 0 1-15-18.57 14.49 14.49 0 0 0-9.52-9.85 30.62 30.62 0 0 1-18.09-15.72Zm-128 0h44.54a30.56 30.56 0 0 1-18.74 14.86 14.51 14.51 0 0 0-9.94 9.43 30.5 30.5 0 0 1-15.86 17.93Zm0 126.81V846a30.42 30.42 0 0 1 15 18.57 14.47 14.47 0 0 0 9.52 9.85 30.61 30.61 0 0 1 18.1 15.72Zm128 0h-44.55a30.58 30.58 0 0 1 18.74-14.86 14.47 14.47 0 0 0 9.94-9.43 30.55 30.55 0 0 1 15.87-17.93Zm0-48.5a36.33 36.33 0 0 0-21.39 22.41 8.7 8.7 0 0 1-6 5.67 36.39 36.39 0 0 0-23.63 20.41h-28a36.44 36.44 0 0 0-22.63-21.2 8.65 8.65 0 0 1-5.72-5.91 36.26 36.26 0 0 0-20.6-23.42v-27.77a36.33 36.33 0 0 0 21.39-22.42 8.71 8.71 0 0 1 6-5.67 36.43 36.43 0 0 0 23.64-20.41h28a36.4 36.4 0 0 0 22.62 21.2 8.68 8.68 0 0 1 5.73 5.92 36.31 36.31 0 0 0 20.6 23.42Z"/></g><g class="b"><path class="c" d="M1663.35 757.52h-139.17V895.85h139.61V757.52Zm-5.37 120-24.37-48H1658Zm-61.08 12.54V865.9l49.44 24.19ZM1530 775.83l24.36 48H1530Zm61.08-12.55v24.19l-49.45-24.19Zm5.82 30.6 51.78-25.82-51.78 51.63Zm-5.82 25.88-52.21-51.4 52.21 25.54Zm-4.15 4h-26l-26.06-51.3Zm.07 5.77-51.88 51.73 25.77-51.73Zm4.08 4.11v25.81l-51.78 25.82Zm5.82-.07 52.21 51.4-52.21-25.53Zm4.15-4h26l26.06 51.3Zm-.07-5.77 51.87-51.73-25.77 51.73Zm-4.08-36.38v-24.14h48.42Zm-66.9 42.15h24.41l-24.41 49Zm61.08 36.43v24.14h-48.42Zm66.92-42.2h-24.41l24.41-49Z"/></g><g class="b"><path class="c" d="M1594 939a39 39 0 1 0 39.36 39 39.18 39.18 0 0 0-39.36-39Zm0 72.23a33.24 33.24 0 1 1 33.53-33.23 33.42 33.42 0 0 1-33.53 33.22Z"/><path class="c" d="M1594 956.65a21.34 21.34 0 1 0 21.52 21.35 21.44 21.44 0 0 0-21.52-21.35Zm0 36.91a15.58 15.58 0 1 1 15.71-15.56 15.66 15.66 0 0 1-15.71 15.56Z"/><path class="c" d="M1607.3 908.82h-83.12v138.34h139.61V908.82Zm50.68 5.77v44.13a30.41 30.41 0 0 1-15-18.57 14.49 14.49 0 0 0-9.52-9.85 30.6 30.6 0 0 1-18.09-15.71Zm-128 0h44.54a30.57 30.57 0 0 1-18.74 14.85 14.51 14.51 0 0 0-9.94 9.44 30.5 30.5 0 0 1-15.84 17.93Zm0 126.8v-44.13a30.4 30.4 0 0 1 15 18.57 14.51 14.51 0 0 0 9.52 9.85 30.56 30.56 0 0 1 18.1 15.71Zm128 0h-44.55a30.64 30.64 0 0 1 18.75-14.86 14.48 14.48 0 0 0 9.93-9.43 30.55 30.55 0 0 1 15.89-17.93Zm0-48.5a36.33 36.33 0 0 0-21.39 22.42 8.7 8.7 0 0 1-6 5.67 36.44 36.44 0 0 0-23.63 20.41h-28a36.4 36.4 0 0 0-22.63-21.19 8.69 8.69 0 0 1-5.72-5.92 36.31 36.31 0 0 0-20.6-23.42v-27.77a36.35 36.35 0 0 0 21.39-22.42 8.69 8.69 0 0 1 6-5.67 36.48 36.48 0 0 0 23.6-20.41h28a36.41 36.41 0 0 0 22.62 21.19 8.7 8.7 0 0 1 5.73 5.92 36.31 36.31 0 0 0 20.6 23.42Z"/></g><path class="d" d="M1510.65 1060.12h-139.17V1198.46h139.61v-138.34Zm-5.37 120-24.37-48h24.37Zm-61.08 12.55v-24.19l49.44 24.19Zm-66.9-114.27 24.36 48h-24.36Zm61.08-12.54v24.18l-49.45-24.18Zm5.82 30.59 51.78-25.81-51.78 51.63Zm-5.82 25.89-52.21-51.34 52.21 25.54Zm-4.15 4h-26l-26.06-51.31Zm.07 5.76-51.88 51.74 25.77-51.74Zm4.08 4.11v25.82l-51.78 25.82Zm5.82-.06 52.21 51.4-52.21-25.54Zm4.14-4h26.06l26 51.31Zm-.06-5.76 51.87-51.73-25.77 51.73Zm-4.08-36.39v-24.14h48.42Zm-66.9 42.14h24.41l-24.41 49Zm61.08 36.38v24.15H1390Zm66.9-42.14h-24.41l24.41-49Z"/><g class="b"><path class="c" d="M1441.29 1241.6a39 39 0 1 0 39.36 39 39.18 39.18 0 0 0-39.36-39Zm0 72.23a33.24 33.24 0 1 1 33.54-33.24 33.42 33.42 0 0 1-33.54 33.24Z"/><path class="c" d="M1441.29 1259.26a21.34 21.34 0 1 0 21.53 21.33 21.43 21.43 0 0 0-21.53-21.33Zm0 36.91a15.58 15.58 0 1 1 15.72-15.58 15.67 15.67 0 0 1-15.72 15.58Z"/><path class="c" d="M1454.6 1211.43h-83.12v138.33h139.61v-138.33Zm50.68 5.76v44.14a30.41 30.41 0 0 1-15-18.57 14.47 14.47 0 0 0-9.52-9.85 30.62 30.62 0 0 1-18.09-15.72Zm-128 0h44.54a30.56 30.56 0 0 1-18.74 14.86 14.51 14.51 0 0 0-9.94 9.43 30.5 30.5 0 0 1-15.86 17.93Zm0 126.81v-44.14a30.4 30.4 0 0 1 15 18.57 14.49 14.49 0 0 0 9.52 9.85 30.61 30.61 0 0 1 18.1 15.72Zm128 0h-44.55a30.58 30.58 0 0 1 18.74-14.86 14.49 14.49 0 0 0 9.94-9.43 30.55 30.55 0 0 1 15.87-17.93Zm0-48.5a36.33 36.33 0 0 0-21.39 22.42 8.72 8.72 0 0 1-6 5.67 36.39 36.39 0 0 0-23.63 20.41h-28a36.41 36.41 0 0 0-22.63-21.2 8.67 8.67 0 0 1-5.72-5.91 36.3 36.3 0 0 0-20.6-23.43v-27.77a36.35 36.35 0 0 0 21.39-22.42 8.71 8.71 0 0 1 6-5.67 36.43 36.43 0 0 0 23.64-20.41h28a36.4 36.4 0 0 0 22.62 21.2 8.69 8.69 0 0 1 5.73 5.91 36.3 36.3 0 0 0 20.6 23.43Z"/></g><g class="b"><path class="c" d="M1371.48 1362.73v138.34h139.61v-138.34Zm5.82 132.57v-63.74a48.76 48.76 0 0 1 19.56-39l9.52-7.15 9.53 7.15a49.4 49.4 0 0 1 14.4 17.22 48.76 48.76 0 0 1 5.16 21.78v63.74Zm128-56.56v56.56h-58.2v-63.74a48.81 48.81 0 0 1 19.57-39l9.52-7.15 9.52 7.15a48.73 48.73 0 0 1 19.57 39Zm-16-50.77-13-9.79-13 9.79a54.49 54.49 0 0 0-21.87 43.59 54.52 54.52 0 0 0-21.87-43.59l-13-9.79-13 9.79a54.69 54.69 0 0 0-16 19.15v-38.63h128v38.63a54.91 54.91 0 0 0-16.33-19.12Z"/></g><path class="a" d="M1594 1392.9a39 39 0 1 0 39.36 39 39.18 39.18 0 0 0-39.36-39Zm0 72.23a33.24 33.24 0 1 1 33.54-33.23 33.42 33.42 0 0 1-33.54 33.23Z"/><path class="a" d="M1594 1410.56a21.34 21.34 0 1 0 21.53 21.34 21.44 21.44 0 0 0-21.53-21.34Zm0 36.91a15.58 15.58 0 1 1 15.72-15.57 15.66 15.66 0 0 1-15.72 15.57Z"/><path class="a" d="M1607.3 1362.73h-83.12v138.34h139.61v-138.34Zm50.68 5.76v44.14a30.41 30.41 0 0 1-15-18.57 14.49 14.49 0 0 0-9.52-9.85 30.59 30.59 0 0 1-18.09-15.72Zm-128 0h44.54a30.56 30.56 0 0 1-18.74 14.86 14.51 14.51 0 0 0-9.94 9.44 30.51 30.51 0 0 1-15.86 17.92Zm0 126.81v-44.14a30.42 30.42 0 0 1 15 18.58 14.47 14.47 0 0 0 9.52 9.84 30.61 30.61 0 0 1 18.1 15.72Zm128 0h-44.55a30.64 30.64 0 0 1 18.75-14.86 14.48 14.48 0 0 0 9.93-9.43 30.55 30.55 0 0 1 15.87-17.93Zm0-48.5a36.33 36.33 0 0 0-21.39 22.42 8.7 8.7 0 0 1-6 5.67 36.41 36.41 0 0 0-23.59 20.41h-28a36.4 36.4 0 0 0-22.63-21.19 8.69 8.69 0 0 1-5.72-5.92 36.26 36.26 0 0 0-20.6-23.42V1417a36.35 36.35 0 0 0 21.39-22.42 8.67 8.67 0 0 1 6-5.67 36.47 36.47 0 0 0 23.64-20.42h28a36.4 36.4 0 0 0 22.62 21.2 8.7 8.7 0 0 1 5.73 5.92A36.31 36.31 0 0 0 1658 1419Z"/></svg>