<svg xmlns="http://www.w3.org/2000/svg" viewBox="0 0 290.07 96.28"><defs><style>.cls-1,.cls-2{fill:none;stroke:#000;stroke-width:0.5px;}.cls-2{fill-rule:evenodd;}</style></defs><g id="Layer_2" data-name="Layer 2"><g id="Layer_1-2" data-name="Layer 1"><path class="cls-1" d="M36.27,15.79h0Z"/><path class="cls-1" d="M37.71,15.59l.14,0Z"/><path class="cls-1" d="M34.87,16l.1,0Z"/><path class="cls-1" d="M32.29,16.52l.85-9.92L32,6.79l.2,1.41c-.61.1-1.19.21-1.74.32l-.27-1.38c-.68.14-1.32.28-1.9.43l.3,1.37L27,9.37,26.56,8c-.69.2-1.28.39-1.79.57l.42,1.31c-.52.17-1,.33-1.31.47l-.6-1.23-.69.31,5.07,8.27c1.38-.43,2.92-.84,4.64-1.21Z"/><path class="cls-1" d="M33.54,16.27l0,0Z"/><path class="cls-1" d="M40.84,15.25h0Z"/><path class="cls-1" d="M58.87,15.79h0Z"/><path class="cls-1" d="M57.43,15.59l-.14,0Z"/><path class="cls-1" d="M60.28,16l-.11,0Z"/><path class="cls-1" d="M62.86,16.52,62,6.6l1.12.19-.2,1.41c.61.1,1.19.21,1.74.32l.28-1.38c.67.14,1.31.28,1.9.43l-.3,1.37,1.65.43L68.59,8c.68.2,1.28.39,1.79.57L70,9.91c.52.17,1,.33,1.32.47l.59-1.23c.47.2.69.31.69.31l-5.06,8.27c-1.38-.43-2.92-.84-4.64-1.21Z"/><path class="cls-1" d="M61.61,16.27l0,0Z"/><path class="cls-1" d="M54.3,15.25h0Z"/><path class="cls-1" d="M73.4,23.63l-.2-.09c-3.58-1.68-11-5.17-25.6-5.17h-.05c-14.59,0-22,3.49-25.6,5.17l-.21.09A.68.68,0,0,0,22,24.92a.62.62,0,0,0,.29-.07l.2-.1c3.48-1.63,10.74-5,25-5h.06c14.28,0,21.54,3.41,25,5l.2.1a.62.62,0,0,0,.29.07.67.67,0,0,0,.6-.39A.68.68,0,0,0,73.4,23.63Z"/><path class="cls-1" d="M72.39,22.11c-3.53-1.55-11.62-4.69-24.82-4.71s-21.28,3.16-24.82,4.71a.67.67,0,0,0,0,.57.64.64,0,0,0,.35.32c3.93-1.78,11.27-4.63,24.44-4.63h.06c13.18,0,20.52,2.85,24.45,4.63a.62.62,0,0,0,.34-.32A.67.67,0,0,0,72.39,22.11Z"/><path class="cls-1" d="M73.78,21.59c-3.53-1.65-12-5.27-26.21-5.27s-22.67,3.62-26.2,5.27a.67.67,0,0,0,0,.39.69.69,0,0,0,.61.39.82.82,0,0,0,.29-.07l.2-.08c3.4-1.5,11.55-4.8,25.06-4.82s21.66,3.32,25.07,4.82l.2.08a.77.77,0,0,0,.29.07.68.68,0,0,0,.6-.39A.67.67,0,0,0,73.78,21.59Z"/><path class="cls-1" d="M74.64,20.5l-.21-.09C70.85,18.73,62.16,15,47.57,15s-23.28,3.76-26.86,5.44l-.2.09a.68.68,0,0,0,.29,1.29.58.58,0,0,0,.28-.07l.21-.09c3.48-1.64,12-5.31,26.28-5.31S70.37,20,73.85,21.63l.22.09a.53.53,0,0,0,.28.07.68.68,0,0,0,.29-1.29Z"/><polygon class="cls-1" points="20.32 4.73 20.93 6.15 19.36 6.83 18.75 5.4 17.17 6.08 17.79 7.51 16.22 8.18 15.6 6.76 14.03 7.44 15.15 10.02 23 6.64 21.88 4.05 20.32 4.73"/><path class="cls-1" d="M15.74,9.77a.75.75,0,0,0,1,.45l5.4-2.32a.77.77,0,0,0,.32-1Z"/><path class="cls-1" d="M26.64,16.06a50.11,50.11,0,0,1,5.81-1.44"/><path class="cls-1" d="M25.9,14.86a47.28,47.28,0,0,1,6.68-1.7"/><path class="cls-1" d="M24.94,13.3a49.26,49.26,0,0,1,7.79-2"/><path class="cls-1" d="M24.16,12a46.45,46.45,0,0,1,8.71-2.3"/><line class="cls-1" x1="25.67" y1="11.49" x2="26.15" y2="12.9"/><line class="cls-1" x1="28.95" y1="10.57" x2="29.31" y2="12.02"/><line class="cls-1" x1="32.15" y1="9.85" x2="32.46" y2="11.33"/><line class="cls-1" x1="27.66" y1="12.45" x2="28.2" y2="14.16"/><line class="cls-1" x1="31.14" y1="11.62" x2="31.48" y2="13.37"/><line class="cls-1" x1="29.79" y1="13.75" x2="30.15" y2="15.1"/><line class="cls-1" x1="28.48" y1="15.52" x2="29.04" y2="17.32"/><line class="cls-1" x1="31.76" y1="14.75" x2="32.13" y2="16.55"/><path class="cls-1" d="M36.77,3.79l-5.1.64a.77.77,0,0,0,.8.7l4.4-.55L41.28,4a.75.75,0,0,0,.59-.87Z"/><polygon class="cls-1" points="40.52 0.49 40.71 2.02 39.06 2.23 38.87 0.69 37.23 0.89 37.42 2.43 36.62 2.53 35.81 2.64 35.62 1.1 33.98 1.3 34.17 2.84 32.52 3.04 32.33 1.5 30.69 1.71 31.04 4.51 36.77 3.79 42.51 3.08 42.16 0.28 40.52 0.49"/><path class="cls-1" d="M25.14,18.57l1-.36c-.58-1-2-3.33-3.81-4.2a5.24,5.24,0,0,0-4.11-.48.52.52,0,0,0-.29.68.54.54,0,0,0,.68.29,4.25,4.25,0,0,1,3.25.45A9.84,9.84,0,0,1,25.14,18.57Z"/><path class="cls-1" d="M22.34,14c1.76.87,3.23,3.19,3.81,4.2l-.26.09c.56-.19,1.15-.39,1.77-.57L21.72,8.05l-4.66,2,1.47,3.38A5.55,5.55,0,0,1,22.34,14Z"/><path class="cls-1" d="M25.14,18.57A9.84,9.84,0,0,0,21.87,15,4.55,4.55,0,0,0,19,14.42l2.45,5.67c1.06-.49,2.48-1.08,4.24-1.7Z"/><path class="cls-1" d="M44.24,15,40.46,4.13l-3.59.45L33.28,5l-1,11.5A69.93,69.93,0,0,1,44.24,15Z"/><path class="cls-1" d="M35.62,15.89c-.39-3.27.28-7.17,1.74-7.36s3.07,3.45,3.5,6.72l1-.08h0c-.33-2.66-1.9-8-4.66-7.67s-3,5.91-2.65,8.57C34.93,16,35.27,15.94,35.62,15.89Z"/><polygon class="cls-1" points="74.83 4.73 74.21 6.15 75.79 6.83 76.4 5.4 77.97 6.08 77.36 7.51 78.92 8.18 79.54 6.76 81.11 7.44 80 10.02 72.15 6.64 73.26 4.05 74.83 4.73"/><path class="cls-1" d="M79.4,9.77a.74.74,0,0,1-.94.45L73.06,7.9a.76.76,0,0,1-.33-1Z"/><path class="cls-1" d="M68.51,16.06a49.82,49.82,0,0,0-5.82-1.44"/><path class="cls-1" d="M69.25,14.86a47.47,47.47,0,0,0-6.69-1.7"/><path class="cls-1" d="M70.2,13.3a49.14,49.14,0,0,0-7.8-2"/><path class="cls-1" d="M71,12a46.23,46.23,0,0,0-8.71-2.3"/><line class="cls-1" x1="69.47" y1="11.49" x2="69" y2="12.9"/><line class="cls-1" x1="66.18" y1="10.57" x2="65.83" y2="12.02"/><line class="cls-1" x1="62.99" y1="9.85" x2="62.69" y2="11.33"/><line class="cls-1" x1="67.49" y1="12.45" x2="66.94" y2="14.16"/><line class="cls-1" x1="64" y1="11.62" x2="63.67" y2="13.37"/><line class="cls-1" x1="65.35" y1="13.75" x2="64.99" y2="15.1"/><line class="cls-1" x1="66.67" y1="15.52" x2="66.11" y2="17.32"/><line class="cls-1" x1="63.38" y1="14.75" x2="63.01" y2="16.55"/><path class="cls-1" d="M58.37,3.79l5.1.64a.76.76,0,0,1-.79.7l-4.41-.55L53.86,4a.76.76,0,0,1-.59-.87Z"/><polygon class="cls-1" points="54.63 0.49 54.44 2.02 56.08 2.23 56.27 0.69 57.91 0.89 57.72 2.43 58.53 2.53 59.33 2.64 59.52 1.1 61.17 1.3 60.98 2.84 62.63 3.04 62.81 1.5 64.46 1.71 64.11 4.51 58.37 3.79 52.63 3.08 52.98 0.28 54.63 0.49"/><path class="cls-1" d="M70,18.57l-1-.36c.58-1,2-3.33,3.81-4.2a5.24,5.24,0,0,1,4.11-.48.52.52,0,0,1,.28.68.52.52,0,0,1-.67.29,4.27,4.27,0,0,0-3.26.45A9.81,9.81,0,0,0,70,18.57Z"/><path class="cls-1" d="M72.81,14c-1.76.87-3.23,3.19-3.81,4.2l.25.09c-.56-.19-1.14-.39-1.76-.57l5.93-9.68,4.66,2-1.46,3.38A5.55,5.55,0,0,0,72.81,14Z"/><path class="cls-1" d="M70,18.57A9.81,9.81,0,0,1,73.27,15a4.57,4.57,0,0,1,2.93-.53l-2.46,5.67c-1.06-.49-2.47-1.08-4.23-1.7Z"/><path class="cls-1" d="M50.9,15,54.69,4.13l3.58.45L61.86,5l1,11.5A70.19,70.19,0,0,0,50.9,15Z"/><path class="cls-1" d="M59.52,15.89c.4-3.27-.27-7.17-1.74-7.36S54.71,12,54.29,15.25l-1-.08h0c.33-2.66,1.9-8,4.66-7.67s3,5.91,2.64,8.57C60.21,16,59.87,15.94,59.52,15.89Z"/><path class="cls-1" d="M52.23,5.85l0,1.48-1.75,0L50.5,5.8l-1.83,0V7.25H46.93V5.77c-.63,0-1.23,0-1.79,0V7.28l-1.74,0V5.85C42,5.9,41.09,6,41.09,6L44.24,15h0c1.08,0,2.18-.07,3.33-.07s2.26,0,3.33.07L54.06,6Z"/><path class="cls-1" d="M42.09,8.86c1.7-.08,3.53-.13,5.52-.13s3.77,0,5.44.13"/><path class="cls-1" d="M42.66,10.47q2.3-.09,5-.09c1.73,0,3.36,0,4.87.09"/><path class="cls-1" d="M43.28,12.28c1.36,0,2.8-.07,4.33-.07s2.91,0,4.25.07"/><line class="cls-1" x1="51.4" y1="13.6" x2="43.76" y2="13.66"/><line class="cls-1" x1="45.86" y1="8.75" x2="45.86" y2="10.39"/><line class="cls-1" x1="49.35" y1="8.75" x2="49.35" y2="10.33"/><line class="cls-1" x1="44.41" y1="10.43" x2="44.53" y2="12.24"/><line class="cls-1" x1="50.74" y1="10.43" x2="50.64" y2="12.21"/><line class="cls-1" x1="47.61" y1="10.38" x2="47.61" y2="12.21"/><line class="cls-1" x1="47.61" y1="13.66" x2="47.62" y2="14.97"/><line class="cls-1" x1="45.91" y1="12.24" x2="45.91" y2="13.64"/><line class="cls-1" x1="49.22" y1="12.22" x2="49.22" y2="13.62"/><line class="cls-1" x1="21.33" y1="10.27" x2="22.67" y2="12.7"/><line class="cls-1" x1="21.02" y1="10.44" x2="21.64" y2="10.1"/><line class="cls-1" x1="22.36" y1="12.87" x2="22.98" y2="12.53"/><line class="cls-1" x1="39.88" y1="5.58" x2="40.75" y2="8.22"/><line class="cls-1" x1="39.54" y1="5.69" x2="40.21" y2="5.47"/><line class="cls-1" x1="40.42" y1="8.33" x2="41.09" y2="8.11"/><line class="cls-1" x1="34.35" y1="6.16" x2="34.1" y2="8.93"/><line class="cls-1" x1="34.7" y1="6.19" x2="34" y2="6.13"/><line class="cls-1" x1="34.45" y1="8.96" x2="33.75" y2="8.89"/><line class="cls-1" x1="60.82" y1="6.6" x2="61.01" y2="9.37"/><line class="cls-1" x1="60.46" y1="6.63" x2="61.17" y2="6.58"/><line class="cls-1" x1="60.66" y1="9.4" x2="61.37" y2="9.35"/><line class="cls-1" x1="55.31" y1="5.8" x2="54.39" y2="8.42"/><line class="cls-1" x1="55.64" y1="5.92" x2="54.98" y2="5.69"/><line class="cls-1" x1="54.72" y1="8.54" x2="54.06" y2="8.31"/><line class="cls-1" x1="73.6" y1="10.27" x2="72.26" y2="12.7"/><line class="cls-1" x1="73.91" y1="10.44" x2="73.29" y2="10.1"/><line class="cls-1" x1="72.57" y1="12.87" x2="71.95" y2="12.53"/><path class="cls-1" d="M11.93,34.62a2.27,2.27,0,0,0,.41,1.09c.47.73.7.83,1.87,1.21s2.7.67,3.44,1.61a1.63,1.63,0,0,1,.35,2c-.26.57-1.23,1.3-1.4,2.22a14.42,14.42,0,0,0,0,3,4.63,4.63,0,0,0-2.18-2.13,30.94,30.94,0,0,1-5-2.3,1.89,1.89,0,0,1-.81-1.81c0-.6,1.13-1.56,2-2.44a5.52,5.52,0,0,0,.73-.72C11.78,35.77,11.68,35.34,11.93,34.62Z"/><path class="cls-2" d="M16.7,28.6c1.14,0,2.29,1,3.25,2.51a4.55,4.55,0,0,1-.08,1.44c-.18.62-1.12.61-1.12.61H16.46A5.23,5.23,0,0,1,15,30.38C15,29,15.79,28.6,16.7,28.6Z"/><path class="cls-1" d="M16.7,28.6c1.14,0,2.29,1,3.25,2.51a4.55,4.55,0,0,1-.08,1.44c-.18.62-1.12.61-1.12.61H16.46A5.23,5.23,0,0,1,15,30.38C15,29,15.79,28.6,16.7,28.6Z"/><path class="cls-2" d="M20,31.09a4.61,4.61,0,0,1,.55,1.4c.17.82-.12,1-.95,1.58s-2.14.53-3,1.22a2.86,2.86,0,0,0-.74,2.11c-.53-.18-1.09-.33-1.59-.48-1.17-.38-1.4-.48-1.87-1.21a2.27,2.27,0,0,1-.41-1.09,1.74,1.74,0,0,1,.41-1.09c.42-.43,1.5-.37,1.5-.37h4.91s.94,0,1.12-.61A4.73,4.73,0,0,0,20,31.09Z"/><path class="cls-1" d="M20,31.09a4.61,4.61,0,0,1,.55,1.4c.17.82-.12,1-.95,1.58s-2.14.53-3,1.22a2.86,2.86,0,0,0-.74,2.11c-.53-.18-1.09-.33-1.59-.48-1.17-.38-1.4-.48-1.87-1.21a2.27,2.27,0,0,1-.41-1.09,1.74,1.74,0,0,1,.41-1.09c.42-.43,1.5-.37,1.5-.37h4.91s.94,0,1.12-.61A4.73,4.73,0,0,0,20,31.09Z"/><path class="cls-2" d="M11.93,34.62a2.27,2.27,0,0,0,.41,1.09c.47.73.7.83,1.87,1.21s2.7.67,3.44,1.61a1.63,1.63,0,0,1,.35,2c-.26.57-1.23,1.3-1.4,2.22a14.42,14.42,0,0,0,0,3,4.63,4.63,0,0,0-2.18-2.13,30.94,30.94,0,0,1-5-2.3,1.89,1.89,0,0,1-.81-1.81c0-.6,1.13-1.56,2-2.44a5.52,5.52,0,0,0,.73-.72C11.78,35.77,11.68,35.34,11.93,34.62Z"/><path class="cls-2" d="M16.65,45.74a3.92,3.92,0,0,1,0,1.61,3.62,3.62,0,0,1-3.49,1.92A2,2,0,0,1,11,48.06a4.42,4.42,0,0,0-.42-2.45,2.45,2.45,0,0,0,1.68-.5A2.59,2.59,0,0,0,12.88,43l1.59.65A4.63,4.63,0,0,1,16.65,45.74Z"/><path class="cls-1" d="M16.65,45.74a3.92,3.92,0,0,1,0,1.61,3.62,3.62,0,0,1-3.49,1.92A2,2,0,0,1,11,48.06a4.42,4.42,0,0,0-.42-2.45,2.45,2.45,0,0,0,1.68-.5A2.59,2.59,0,0,0,12.88,43l1.59.65A4.63,4.63,0,0,1,16.65,45.74Z"/><path class="cls-2" d="M11,48.07a4.61,4.61,0,0,0-.8-3C9.27,44,8.91,44,8.51,44s-1.23.71-1.23,2.12a6,6,0,0,0,.4,2.3s.27-.57,1.39-.57A8,8,0,0,1,11,48.07Z"/><path class="cls-1" d="M11,48.07a4.61,4.61,0,0,0-.8-3C9.27,44,8.91,44,8.51,44s-1.23.71-1.23,2.12a6,6,0,0,0,.4,2.3s.27-.57,1.39-.57A8,8,0,0,1,11,48.07Z"/><path class="cls-2" d="M7.68,48.41a6,6,0,0,1,.8,3.19c0,2-.8,2.9-.8,4.88a3.1,3.1,0,0,0,1.54,2.76A8.39,8.39,0,0,1,7.17,59C6,58.7,4.9,57.32,4.16,57s-2.95.11-3.6-.67-.09-3.47.11-5-.43-4.13.09-4.69,2.27-.23,2.87-.34a4.52,4.52,0,0,0,2.15-1.29,3.29,3.29,0,0,1,2.5-1,2.24,2.24,0,0,0-1,2.07A6,6,0,0,0,7.68,48.41Z"/><path class="cls-1" d="M7.68,48.41a6,6,0,0,1,.8,3.19c0,2-.8,2.9-.8,4.88a3.1,3.1,0,0,0,1.54,2.76A8.39,8.39,0,0,1,7.17,59C6,58.7,4.9,57.32,4.16,57s-2.95.11-3.6-.67-.09-3.47.11-5-.43-4.13.09-4.69,2.27-.23,2.87-.34a4.52,4.52,0,0,0,2.15-1.29,3.29,3.29,0,0,1,2.5-1,2.24,2.24,0,0,0-1,2.07A6,6,0,0,0,7.68,48.41Z"/><path class="cls-2" d="M7.68,56.48a9.4,9.4,0,0,1,.46-2.65c.7-1.32,1.41-2.49,2.11-2.49s1.24.25,1.24,1.67S10.4,54.7,9.75,56a7.67,7.67,0,0,0-.53,3.2A3.1,3.1,0,0,1,7.68,56.48Z"/><path class="cls-1" d="M7.68,56.48a9.4,9.4,0,0,1,.46-2.65c.7-1.32,1.41-2.49,2.11-2.49s1.24.25,1.24,1.67S10.4,54.7,9.75,56a7.67,7.67,0,0,0-.53,3.2A3.1,3.1,0,0,1,7.68,56.48Z"/><path class="cls-2" d="M78.45,28.6c-1.15,0-2.3,1-3.26,2.51a4.66,4.66,0,0,0,.09,1.44c.17.62,1.11.61,1.11.61h2.29a5.23,5.23,0,0,0,1.44-2.78C80.12,29,79.36,28.6,78.45,28.6Z"/><path class="cls-1" d="M78.45,28.6c-1.15,0-2.3,1-3.26,2.51a4.66,4.66,0,0,0,.09,1.44c.17.62,1.11.61,1.11.61h2.29a5.23,5.23,0,0,0,1.44-2.78C80.12,29,79.36,28.6,78.45,28.6Z"/><path class="cls-2" d="M75.19,31.09a4.46,4.46,0,0,0-.54,1.4c-.17.82.11,1,.94,1.58s2.14.53,3,1.22a2.86,2.86,0,0,1,.74,2.11c.54-.18,1.1-.33,1.59-.48,1.17-.38,1.4-.48,1.87-1.21a2.39,2.39,0,0,0,.42-1.09,1.81,1.81,0,0,0-.42-1.09c-.42-.43-1.5-.37-1.5-.37H76.39s-.94,0-1.11-.61A4.55,4.55,0,0,1,75.19,31.09Z"/><path class="cls-1" d="M75.19,31.09a4.46,4.46,0,0,0-.54,1.4c-.17.82.11,1,.94,1.58s2.14.53,3,1.22a2.86,2.86,0,0,1,.74,2.11c.54-.18,1.1-.33,1.59-.48,1.17-.38,1.4-.48,1.87-1.21a2.39,2.39,0,0,0,.42-1.09,1.81,1.81,0,0,0-.42-1.09c-.42-.43-1.5-.37-1.5-.37H76.39s-.94,0-1.11-.61A4.55,4.55,0,0,1,75.19,31.09Z"/><path class="cls-2" d="M83.22,34.62a2.39,2.39,0,0,1-.42,1.09c-.47.73-.7.83-1.87,1.21s-2.7.67-3.44,1.61a1.63,1.63,0,0,0-.34,2c.25.57,1.23,1.3,1.4,2.22a15,15,0,0,1-.06,3,4.62,4.62,0,0,1,2.19-2.13,31.2,31.2,0,0,0,5-2.3,1.88,1.88,0,0,0,.82-1.81c0-.6-1.14-1.56-2-2.44a5.44,5.44,0,0,1-.72-.72C83.36,35.77,83.46,35.34,83.22,34.62Z"/><path class="cls-1" d="M83.22,34.62a2.39,2.39,0,0,1-.42,1.09c-.47.73-.7.83-1.87,1.21s-2.7.67-3.44,1.61a1.63,1.63,0,0,0-.34,2c.25.57,1.23,1.3,1.4,2.22a15,15,0,0,1-.06,3,4.62,4.62,0,0,1,2.19-2.13,31.2,31.2,0,0,0,5-2.3,1.88,1.88,0,0,0,.82-1.81c0-.6-1.14-1.56-2-2.44a5.44,5.44,0,0,1-.72-.72C83.36,35.77,83.46,35.34,83.22,34.62Z"/><path class="cls-2" d="M78.49,45.74a3.82,3.82,0,0,0,.06,1.61A3.6,3.6,0,0,0,82,49.27a2,2,0,0,0,2.14-1.21,4.37,4.37,0,0,1,.43-2.45,2.42,2.42,0,0,1-1.68-.5A2.6,2.6,0,0,1,82.26,43l-1.58.65A4.62,4.62,0,0,0,78.49,45.74Z"/><path class="cls-1" d="M78.49,45.74a3.82,3.82,0,0,0,.06,1.61A3.6,3.6,0,0,0,82,49.27a2,2,0,0,0,2.14-1.21,4.37,4.37,0,0,1,.43-2.45,2.42,2.42,0,0,1-1.68-.5A2.6,2.6,0,0,1,82.26,43l-1.58.65A4.62,4.62,0,0,0,78.49,45.74Z"/><path class="cls-2" d="M84.13,48.07a4.68,4.68,0,0,1,.8-3c.94-1.1,1.3-1.12,1.7-1.12s1.23.71,1.23,2.12a6,6,0,0,1-.4,2.3s-.27-.57-1.39-.57A8,8,0,0,0,84.13,48.07Z"/><path class="cls-1" d="M84.13,48.07a4.68,4.68,0,0,1,.8-3c.94-1.1,1.3-1.12,1.7-1.12s1.23.71,1.23,2.12a6,6,0,0,1-.4,2.3s-.27-.57-1.39-.57A8,8,0,0,0,84.13,48.07Z"/><path class="cls-2" d="M87.46,48.41a6,6,0,0,0-.8,3.19c0,2,.8,2.9.8,4.88a3.1,3.1,0,0,1-1.54,2.76A8.39,8.39,0,0,0,88,59c1.2-.28,2.27-1.66,3-1.94s2.94.11,3.6-.67.08-3.47-.12-5,.43-4.13-.08-4.69-2.28-.23-2.88-.34a4.56,4.56,0,0,1-2.15-1.29,3.28,3.28,0,0,0-2.5-1,2.24,2.24,0,0,1,1,2.07A6,6,0,0,1,87.46,48.41Z"/><path class="cls-1" d="M87.46,48.41a6,6,0,0,0-.8,3.19c0,2,.8,2.9.8,4.88a3.1,3.1,0,0,1-1.54,2.76A8.39,8.39,0,0,0,88,59c1.2-.28,2.27-1.66,3-1.94s2.94.11,3.6-.67.08-3.47-.12-5,.43-4.13-.08-4.69-2.28-.23-2.88-.34a4.56,4.56,0,0,1-2.15-1.29,3.28,3.28,0,0,0-2.5-1,2.24,2.24,0,0,1,1,2.07A6,6,0,0,1,87.46,48.41Z"/><path class="cls-2" d="M87.46,56.48A9.06,9.06,0,0,0,87,53.83c-.69-1.32-1.4-2.49-2.11-2.49s-1.23.25-1.23,1.67,1.08,1.69,1.73,3a7.5,7.5,0,0,1,.53,3.2A3.1,3.1,0,0,0,87.46,56.48Z"/><path class="cls-1" d="M87.46,56.48A9.06,9.06,0,0,0,87,53.83c-.69-1.32-1.4-2.49-2.11-2.49s-1.23.25-1.23,1.67,1.08,1.69,1.73,3a7.5,7.5,0,0,1,.53,3.2A3.1,3.1,0,0,0,87.46,56.48Z"/><path class="cls-1" d="M10,51.39a2.84,2.84,0,0,1,1.6-.53c.71,0,1.55.94,2.57,2.28s1.79,2.11,2.57,2.29,1.88,0,2.71.73.9,1.59.9,2.82-.63,2.86-.63,4.55.77,2.35,1,3.08.23,1.64.35,1.87.26,0,.49.38a24.49,24.49,0,0,0,1.53,3c.65.92.92,1,.95,1.38s-.15.72.08.83.38.08.61.31a20.13,20.13,0,0,0,1.79,1.79c.23.08,2.37,1.95,2.64,2a1.74,1.74,0,0,1,.8.23c.19.15,2.29,2.52,3,2.74s1,0,1.41.2,2.29.68,3.32,1.18a12.28,12.28,0,0,0,2.55,1c.31,0,.61-.11,1-.11s1.33.34,1.87.34,2.44.19,4.46.19,3.93-.19,4.47-.19,1.49-.34,1.87-.34.68.11,1,.11a12.29,12.29,0,0,0,2.56-1c1-.5,2.93-1,3.32-1.18s.72,0,1.41-.2,2.78-2.59,3-2.74a1.74,1.74,0,0,1,.81-.23c.26,0,2.4-1.91,2.63-2a18.88,18.88,0,0,0,1.79-1.79c.23-.23.38-.19.61-.31s0-.49.08-.83.3-.46,1-1.38a24.49,24.49,0,0,0,1.53-3c.23-.42.38-.16.5-.38a16.57,16.57,0,0,1,.34-1.87,6.16,6.16,0,0,0,1-3.08c0-1.69-.62-3.32-.62-4.55s.06-2.11.89-2.82,2-.54,2.72-.73,1.54-1,2.56-2.29,1.86-2.28,2.57-2.28a2.84,2.84,0,0,1,1.6.53.8.8,0,0,0-.26,0c-.73,0-1.23.25-1.23,1.67s1.08,1.69,1.73,3a7.5,7.5,0,0,1,.53,3.2,17.41,17.41,0,0,1,.27,3.21c0,1.9,0,6.14-.27,6.94a10.68,10.68,0,0,1-1.6,2.18c-.19.26,0,.49,0,1.1s-.53,2.79-2.94,6.18a23.49,23.49,0,0,1-4.27,4.77c-.35.39-.19.62-.38,1s-4.2,3.89-9.58,6.75a37.17,37.17,0,0,1-11.41,3.82c-.46,0-1.11-.23-2-.23a2.52,2.52,0,0,0-1.64.65,27.31,27.31,0,0,1-9.08,0A2.5,2.5,0,0,0,41.39,95c-.88,0-1.53.23-2,.23A37.34,37.34,0,0,1,28,91.41c-5.38-2.86-9.38-6.33-9.57-6.75s0-.65-.38-1a23.35,23.35,0,0,1-4.28-4.77c-2.4-3.39-2.94-5.57-2.94-6.18s.19-.84,0-1.1a11.07,11.07,0,0,1-1.6-2.18c-.31-.8-.27-5-.27-6.94a17.41,17.41,0,0,1,.27-3.21A7.67,7.67,0,0,1,9.75,56c.65-1.34,1.74-1.61,1.74-3s-.51-1.67-1.24-1.67A.85.85,0,0,0,10,51.39Z"/><path class="cls-1" d="M10,51.39a2.84,2.84,0,0,1,1.6-.53c.71,0,1.55.94,2.57,2.28s1.79,2.11,2.57,2.29,1.88,0,2.71.73.9,1.59.9,2.82-.63,2.86-.63,4.55.77,2.35,1,3.08.23,1.64.35,1.87.26,0,.49.38a24.49,24.49,0,0,0,1.53,3c.65.92.92,1,.95,1.38s-.15.72.08.83.38.08.61.31a20.13,20.13,0,0,0,1.79,1.79c.23.08,2.37,1.95,2.64,2a1.74,1.74,0,0,1,.8.23c.19.15,2.29,2.52,3,2.74s1,0,1.41.2,2.29.68,3.32,1.18a12.28,12.28,0,0,0,2.55,1c.31,0,.61-.11,1-.11s1.33.34,1.87.34,2.44.19,4.46.19,3.93-.19,4.47-.19,1.49-.34,1.87-.34.68.11,1,.11a12.29,12.29,0,0,0,2.56-1c1-.5,2.93-1,3.32-1.18s.72,0,1.41-.2,2.78-2.59,3-2.74a1.74,1.74,0,0,1,.81-.23c.26,0,2.4-1.91,2.63-2a18.88,18.88,0,0,0,1.79-1.79c.23-.23.38-.19.61-.31s0-.49.08-.83.3-.46,1-1.38a24.49,24.49,0,0,0,1.53-3c.23-.42.38-.16.5-.38a16.57,16.57,0,0,1,.34-1.87,6.16,6.16,0,0,0,1-3.08c0-1.69-.62-3.32-.62-4.55s.06-2.11.89-2.82,2-.54,2.72-.73,1.54-1,2.56-2.29,1.86-2.28,2.57-2.28a2.84,2.84,0,0,1,1.6.53.8.8,0,0,0-.26,0c-.73,0-1.23.25-1.23,1.67s1.08,1.69,1.73,3a7.5,7.5,0,0,1,.53,3.2,17.41,17.41,0,0,1,.27,3.21c0,1.9,0,6.14-.27,6.94a10.68,10.68,0,0,1-1.6,2.18c-.19.26,0,.49,0,1.1s-.53,2.79-2.94,6.18a23.49,23.49,0,0,1-4.27,4.77c-.35.39-.19.62-.38,1s-4.2,3.89-9.58,6.75a37.17,37.17,0,0,1-11.41,3.82c-.46,0-1.11-.23-2-.23a2.52,2.52,0,0,0-1.64.65,27.31,27.31,0,0,1-9.08,0A2.5,2.5,0,0,0,41.39,95c-.88,0-1.53.23-2,.23A37.34,37.34,0,0,1,28,91.41c-5.38-2.86-9.38-6.33-9.57-6.75s0-.65-.38-1a23.35,23.35,0,0,1-4.28-4.77c-2.4-3.39-2.94-5.57-2.94-6.18s.19-.84,0-1.1a11.07,11.07,0,0,1-1.6-2.18c-.31-.8-.27-5-.27-6.94a17.41,17.41,0,0,1,.27-3.21A7.67,7.67,0,0,1,9.75,56c.65-1.34,1.74-1.61,1.74-3s-.51-1.67-1.24-1.67A.85.85,0,0,0,10,51.39Z"/><path class="cls-1" d="M90,46.67a2.71,2.71,0,0,1-.31,3.13"/><path class="cls-1" d="M91.22,47.5A2.18,2.18,0,0,1,91,50"/><path class="cls-1" d="M92.37,47.59A2.1,2.1,0,0,1,92.12,50"/><path class="cls-1" d="M93.45,47.55A2.07,2.07,0,0,1,93.21,50"/><path class="cls-1" d="M89,47.23a3,3,0,0,1-.79,2.37m.38-3.78A2.85,2.85,0,0,1,89,47.23"/><path class="cls-1" d="M12.65,40.86a3.31,3.31,0,0,1,3.13,1.65"/><path class="cls-1" d="M13.11,39.9a3.31,3.31,0,0,1,3.13,1.65"/><path class="cls-1" d="M13.55,38.94a3.29,3.29,0,0,1,3.12,1.65"/><path class="cls-1" d="M13.89,38A3.3,3.3,0,0,1,17,39.63"/><path class="cls-1" d="M12.48,41.82a3.28,3.28,0,0,1,3.12,1.65"/><path class="cls-1" d="M79.43,42.51a3.31,3.31,0,0,1,3.13-1.65"/><path class="cls-1" d="M79,41.55A3.31,3.31,0,0,1,82.1,39.9"/><path class="cls-1" d="M78.54,40.59a3.29,3.29,0,0,1,3.12-1.65"/><path class="cls-1" d="M78.19,39.63A3.31,3.31,0,0,1,81.32,38"/><path class="cls-1" d="M79.61,43.47a3.29,3.29,0,0,1,3.12-1.65"/><path class="cls-1" d="M89.7,53.58A2.69,2.69,0,0,1,90,56.71"/><path class="cls-1" d="M91,53.37a2.16,2.16,0,0,1,.25,2.51"/><path class="cls-1" d="M92.11,53.37a2.08,2.08,0,0,1,.24,2.42"/><path class="cls-1" d="M93.2,53.42a2.09,2.09,0,0,1,.24,2.41"/><path class="cls-1" d="M88.21,53.78A3,3,0,0,1,89,56.14m0,0a3.07,3.07,0,0,1-.41,1.42"/><path class="cls-1" d="M5.47,49.8a2.71,2.71,0,0,1-.31-3.13"/><path class="cls-1" d="M4.23,50A2.16,2.16,0,0,1,4,47.5"/><path class="cls-1" d="M3.07,50a2.1,2.1,0,0,1-.25-2.42"/><path class="cls-1" d="M2,50a2.07,2.07,0,0,1-.24-2.41"/><path class="cls-1" d="M7,49.6a3,3,0,0,1-.79-2.37m0,0a2.85,2.85,0,0,1,.41-1.41"/><path class="cls-1" d="M5.17,56.71a2.69,2.69,0,0,1,.32-3.13"/><path class="cls-1" d="M4,55.88a2.18,2.18,0,0,1,.25-2.51"/><path class="cls-1" d="M2.84,55.79a2.08,2.08,0,0,1,.24-2.42"/><path class="cls-1" d="M1.75,55.83A2.09,2.09,0,0,1,2,53.42"/><path class="cls-1" d="M6.19,56.14A3,3,0,0,1,7,53.78M6.6,57.56a3.07,3.07,0,0,1-.41-1.42"/><path class="cls-1" d="M83.49,56.71a4.26,4.26,0,0,1-1-3,4,4,0,0,1,.16-1.24"/><path class="cls-1" d="M77.74,59.62a3.06,3.06,0,0,1,.14-2.75"/><path class="cls-1" d="M79.31,59.08a3.06,3.06,0,0,1-.15-2.76"/><path class="cls-1" d="M80.77,58.52A2.84,2.84,0,0,1,80,55.4"/><path class="cls-1" d="M82.19,58.07a4.77,4.77,0,0,1-.88-4.2"/><path class="cls-1" d="M76.31,60a3.06,3.06,0,0,1,.14-2.75"/><path class="cls-1" d="M12.59,52.5a4,4,0,0,1,.16,1.24,4.26,4.26,0,0,1-1,3"/><path class="cls-1" d="M17.32,56.87a3.06,3.06,0,0,1,.14,2.75"/><path class="cls-1" d="M16,56.32a3.06,3.06,0,0,1-.15,2.76"/><path class="cls-1" d="M15.17,55.4a2.84,2.84,0,0,1-.74,3.12"/><path class="cls-1" d="M13.89,53.87a3.92,3.92,0,0,1,.16,1.23,4.24,4.24,0,0,1-1,3"/><path class="cls-1" d="M18.75,57.22A3,3,0,0,1,18.89,60"/><path d="M22.78,15.56l-2.31.82s1.25-.94,1.68-1.28A6.28,6.28,0,0,1,22.78,15.56Zm-1.54-.89-1.06.91,1.68-.64A6.48,6.48,0,0,0,21.24,14.67ZM23,15.78l-2.13,1.49s2.08-.78,2.58-1C23.32,16.08,23.17,15.93,23,15.78Zm1.15,1.32L21.57,19l3.16-1.13C24.57,17.65,24.38,17.37,24.17,17.1Zm-.55-.68-2.48,1.67L24,16.93C23.91,16.75,23.76,16.58,23.62,16.42Zm14.89-5.89-2.72.56a4.92,4.92,0,0,1,.14-.58C36.42,10.5,38.51,10.53,38.51,10.53Zm-2.36-.69c0,.13-.09.27-.14.42l2.39-.59S36.74,9.78,36.15,9.84Zm-.43,1.64c0,.18-.07.38-.09.59l3-.61Zm-.21,2.68,3.55-.78s-2.83.11-3.54.11C35.51,13.71,35.51,13.94,35.51,14.16Zm.07-1.69c0,.2,0,.41,0,.62l3.3-.7Zm0,2.76L39,14.54s-2.76.05-3.49,0C35.53,14.8,35.55,15,35.56,15.23ZM73,15.1c.43.34,1.68,1.28,1.68,1.28l-2.31-.82A4.61,4.61,0,0,1,73,15.1Zm.29-.16,1.67.64-1.06-.91C73.71,14.75,73.5,14.83,73.29,14.94Zm-1.62,1.31c.51.24,2.59,1,2.59,1l-2.13-1.49C72,15.93,71.82,16.08,71.67,16.25ZM70.42,17.9,73.57,19,71,17.1C70.77,17.37,70.58,17.65,70.42,17.9Zm.69-1L74,18.09l-2.48-1.67C71.39,16.58,71.24,16.75,71.11,16.93Zm-11.9-6.42a4.92,4.92,0,0,1,.14.58l-2.72-.56S58.72,10.5,59.21,10.51Zm-2.47-.84,2.4.59A4.09,4.09,0,0,0,59,9.84C58.41,9.78,56.74,9.67,56.74,9.67Zm-.22,1.79,3,.61c0-.21,0-.41-.08-.59Zm3.1,2c-.7,0-3.53-.11-3.53-.11l3.54.78C59.63,13.94,59.63,13.71,59.62,13.49Zm-3.32-1.1,3.31.7c0-.21,0-.42,0-.62Zm3.32,2.18c-.73,0-3.48,0-3.48,0l3.45.69ZM72,25V55.53c0,.44,0,.87,0,1.31,0-.44,0-.87,0-1.31V25ZM62.62,41.26c-.21,0-.39.27-.39.6s.18.61.39.61.4-.27.4-.61S62.84,41.26,62.62,41.26Zm1.63,1.49c-.27,0-.47.27-.47.61s.2.6.47.6a.54.54,0,0,0,.47-.6A.55.55,0,0,0,64.25,42.75Zm4.27-.3A.43.43,0,0,0,68.9,42a.44.44,0,0,0-.38-.48c-.19,0-.36.22-.36.48A.43.43,0,0,0,68.52,42.45Zm-2,.6a.53.53,0,0,0,.44-.58c0-.32-.2-.59-.44-.59s-.44.27-.44.59S66.31,43.05,66.56,43.05Zm-.72,13.82c.08-1.31.29-3.44.29-3.8s-.66-2.7-.66-3.51a9.25,9.25,0,0,1,.58-2.85c.37-1,1-.72,1.68-.79a1.91,1.91,0,0,0,1.62-1.18c.07-.49.94-.65.94-2.62s-1-2.41-1.75-2.48-.65.58-1,.58a2.34,2.34,0,0,1-1.23-.61c-.37-.28-.21-1.12.52-2S69.3,38,69.3,38s.94-.14.44-1.24-1.1-.43-2.25-1.7a4.24,4.24,0,0,0-1.2-.67,17.68,17.68,0,0,0-3.52-.44,2.46,2.46,0,0,0-2.26,1.17A2.49,2.49,0,0,1,62.08,35c1,.32.61.24,2,1.41s1.17,1.59,1.17,2.46-.58,1-1.81,1-1.83,0-2.35.74.08,3.94.3,4.38a2.27,2.27,0,0,0,1.53.8,1.49,1.49,0,0,1,1.17.59c.51.5.21,2.33.15,2.76a26.72,26.72,0,0,0,.5,3.37,28.53,28.53,0,0,0,.15,3.14c.15.79-.59,1.38-.59,1.74s.3,2.05.3,2.05l-.36,1.31h-3L59.73,50.25,59,50V40l.79-1.18V37.19H58.57v1.16H57.33V37.19H56.07v1.16H54.84V37.19H53.59v1.65l1,1.2v2.68H52V33.09l.8-1.5v-2H51.44V30.9H50.08V29.61H48.73V30.9H47.38V29.61H46V30.9H44.67V29.61H43.32v2l.71,1.5v9.63H41.38V40l.68-1.19V37.17H40.77v1.18h-1.3V37.17H38.18v1.18H36.9V37.17H35.6v1.67L36.48,40l0,9.87-.91.24L34,60.72H30.9l-.35-1.3s.28-1.68.28-2.05-.73-.95-.58-1.74a30.55,30.55,0,0,0,.14-3.14,26.51,26.51,0,0,0,.51-3.37c-.07-.43-.35-2.26.14-2.76a1.52,1.52,0,0,1,1.18-.59,2.25,2.25,0,0,0,1.53-.8c.22-.44.81-3.66.3-4.38s-1.11-.74-2.34-.74-1.83-.14-1.83-1,0-1.38,1.39-2.55.73-1.38,1.61-1.53a3,3,0,0,1,1.75.36,2,2,0,0,0-2.05-1.38,14.73,14.73,0,0,0-3.72.65,4.4,4.4,0,0,1-1.16.95c-.45.15-1.9-.29-2.41.81a2.42,2.42,0,0,0,.21,2.19s1.62-1.47,2.34-.59,1.17,1.67.81,2a1.7,1.7,0,0,1-1,.51c-.36,0-.28-.65-1-.58s-1.75.51-1.75,2.48.87,2.13.95,2.62a1.86,1.86,0,0,0,1.6,1.18c.73.07,1.31-.22,1.68.79a9.29,9.29,0,0,1,.59,2.85c0,.81-.66,3.15-.66,3.51s.22,2.49.29,3.8a7.59,7.59,0,0,1-.74,3.86H23.74a24.54,24.54,0,0,0,47.66,0H66.57A7.69,7.69,0,0,1,65.84,56.87ZM63.42,45.08a2.18,2.18,0,0,0-.5,0,2,2,0,0,1-.87-.39A9.46,9.46,0,0,1,61.7,41a.74.74,0,0,1,.46-.35,1.89,1.89,0,0,1,.49,0h.79a6.66,6.66,0,0,0,.91-.05,2.92,2.92,0,0,0,1.24.23,3.45,3.45,0,0,0,1-.12l.1.06a1.71,1.71,0,0,0,.87.24,1,1,0,0,0,.75-.34,2.73,2.73,0,0,0,.2-.25c.38,0,1.09.19,1.09,1.75a2.49,2.49,0,0,1-.33,1.46L69,44a1.23,1.23,0,0,0-.33.7,1.48,1.48,0,0,1-1,.53,5.09,5.09,0,0,1-.56,0,3.27,3.27,0,0,0-1.91-.46A3.81,3.81,0,0,0,63.42,45.08ZM60.69,59.29l.2,1.41H58.22V59.29h2.47ZM43.83,53.52V52.09H47v1.06a2.5,2.5,0,0,0-.75.37Zm2.1.37a2,2,0,0,0-.32.58v-.58Zm-7.54,5V57.49h3.25v1.44Zm1.44.35V60.7H36.61V59.28ZM37.67,43.07v1.45h-.82V43.07Zm-.84-1.8H38a1.11,1.11,0,0,0-.29.83v.61h-.83Zm3,3.61v1.43h-3V44.88Zm1.18-5v1H38.39V39.46h2.89Zm0,1.34v1.44H40.2V41.27Zm-1.28.83v2.41H38V42.1A.86.86,0,0,1,39.74,42.1Zm4.66-3V37.67h1.87v1.44Zm.85.35V40.9H44.4V39.46ZM44.4,37.3V35.87h.85V37.3Zm1.21,0V35.86h.67v1.45Zm0,2.15h3.23V40.9H45.62Zm1-.38V35.89a1.14,1.14,0,0,1,2.28,0v3.19Zm.77,2.19h3.27v1.44H47.41Zm1.82-.37,0-1.44h2.42V40.9Zm.05-1.79V37.67h1.38v1.42ZM51,41.27h.59v1.44H51Zm0-2.16V37.67h.59v1.44Zm.59-3.25v1.45H49.28V35.89ZM51,35.5V34.06h.59V35.5Zm-.37,0H49.24a1.49,1.49,0,0,0-1.47-1.11,1.47,1.47,0,0,0-.36,0v-.37h3.26Zm-1.82-1.8H45.62V32.26h3.23ZM47,34.06v.49a1.38,1.38,0,0,0-.72,1H44.4V34.06Zm-1.78-.37H44.4V33c-.35-.76-.36-.76-.36-.76h1.22Zm-.86,7.58H47v1.44H44.4Zm1.22,1.81h3.23v1.43H45.62Zm12.24,1.8v1.44H54.62V44.88Zm-2.31-2.17H55V41.27h.86a1.15,1.15,0,0,0-.29.83ZM52.82,55.32V53.88h3.24v1.44Zm1.44.37v1.44H51V55.7h3.22ZM42,55.33V53.89h3.24v1.44Zm1.45.36h0v1.43H40.2V55.7h3.26Zm0-2.17H40.2V52.09h3.26ZM42,51.73V50.28h3.25v1.45Zm-1.81-1.81V48.48h3.26v1.44Zm3.63,0V48.48H47v1.44Zm1.8-1.8V46.67h3.23v1.45Zm1.79.36h3.27v1.44H47.41Zm5.05,1.8v1.45H49.23l0-1.45ZM51,49.92V48.48h3.22v1.44Zm0,2.17h3.22v1.43H51Zm3.58,3.61h3.24v1.43H54.62Zm1.81-.38V53.89h3.24v1.43Zm1.43-1.8H54.62V52.09h3.24Zm-1.8-1.79H52.83V50.28h3.23Zm-1.44-1.81V48.48h3.24v1.44Zm1.8-1.8V46.67h2.22v1.45Zm1.44-6.6a1.8,1.8,0,0,0-.18-.25h.18Zm.36,7h.43v1.44h-.43Zm0-2.16V44.88h.43v1.44ZM58,44.52V43.08h.66v1.44Zm.24-1.81V41.27h.43v1.44Zm.42-2.79v1H56.43V39.46H59Zm-1,2.18v2.41H55.9V42.1A.86.86,0,0,1,57.62,42.1Zm-1.56,4.57v1.45H52.83V46.67Zm-1.8-.35H51V44.88h3.22Zm-1.8.35v1.45H49.21V46.67Zm-1.8-.36H47.41V44.88h3.25ZM47,44.88v1.44H43.82V44.88Zm-1.79,1.79v1.45H42V46.67Zm-1.8-.35H40.19V44.88h3.26Zm-1.81.35v1.45H38.39V46.67Zm-3.61,0v1.45H36.87V46.67Zm-1.16,1.81h3v1.44h-3Zm1.52,1.8h3.25v1.45H38.39Zm1.44,1.81v1.43H36.61V52.09Zm-1.44,1.8h3.25v1.44H38.39Zm1.44,1.8h0v1.43H36.61V55.7h3.22Zm.37,3.61v0h3.26V60.7H40.2ZM42,58.93h0V57.49h3.24v1.44Zm1.81.35H45.5V60.7H43.82Zm0-2.15h0V55.69H45.5v1.43Zm1.79-5.4V50.28h3.23v1.45Zm1.79.35h3.26v1.44H49.21A2.69,2.69,0,0,0,47.77,53l-.36,0Zm5.05,1.81v1.43H50.07a2.24,2.24,0,0,0-.48-1.43Zm-1.78,1.8v1.44h-.61V55.7h.61Zm-.61,3.61v0h.61V60.7h-.61Zm0-.37V57.49h2.39v1.44Zm1,.37v0h3.22V60.7H51Zm1.78-.37V57.49h3.24v1.44Zm1.8.37v0h3.24v0h0v1.4H54.62Zm1.8-.37V57.49h3.25v1.43H56.42Zm4.21,0H60V57.5h.38Zm-.47-3.24.21,1.44H58.22V55.69h1.94Zm-.32-2.17H58.22V52.09h1.41Zm-.44-3c.17,1.22.18,1.22.18,1.22H56.43V50.29h2.38ZM54,38.71V37.56h.5v1.16h2V37.56H57v1.16h2V37.56h.5v1.18a3.06,3.06,0,0,0-.23.36H54.29Zm.64.75h1.46V40.9H55v-1Zm-1.77,3.62h2.72v1.44H52.83Zm-.37,0v1.44H49.21V43.08h3.25ZM51.63,33v.7H49.21V32.26H52Zm-7.76-1.1-.18-.4V30h.61v1.31h2.1V30H47v1.31h2.1V30h.6v1.31H51.8V30h.63V31.5l-.22.4ZM42,43.08h3.25v1.44H42Zm-.36,0v1.44H40.11V43.08h1.53Zm-5.4-4L36,38.72V37.54h.57v1.18h2V37.54h.56v1.18h2V37.54h.56v1.19l-.2.37Zm.26.36H38V40.9h-1.2v-1Zm-.58,11,.55-.13H38v1.44h-2.3Zm-.24,1.66h.57v1.44h-.79Zm-.27,1.81H38v1.43H35.19Zm-.28,1.8h1.12v1.44H34.92Zm-.31,2.11,0-.3H38v1.42H34.65Zm-.43,2.88,0-.31.16-1.08h1.65V60.7H34.39v0Zm-.68,1.69c.37,0,.67-.47,1.11-.71s9.65.11,9.65.11,1,.42,1,.84-.36.6-1.09.73a11.42,11.42,0,0,1-2.1-.24c-.6,0-.6.78-1.1.78s-.73-.54-1.27-1-1.2-.09-2.52-.39-1.86.09-1.86.34.12,1.07-.94.65-2-.17-2-.47S33.36,62.43,33.71,62.37Zm5.61,1.72c0,.24-.88.42-1.25.3s-1.62-.64-1.62-.64.36-.36,1.38-.24S39.32,63.85,39.32,64.09ZM28,45.19a5.09,5.09,0,0,1-.56,0,1.48,1.48,0,0,1-.95-.53,1.23,1.23,0,0,0-.33-.7c-.08-.11-.19-.23-.28-.37a2.49,2.49,0,0,1-.33-1.46c0-1.56.71-1.71,1.1-1.75a1.64,1.64,0,0,0,.19.25,1,1,0,0,0,.76.34,1.67,1.67,0,0,0,.86-.24l.1-.06a3.43,3.43,0,0,0,.95.12,2.94,2.94,0,0,0,1.25-.23,6.75,6.75,0,0,0,.91.05h.79a1.89,1.89,0,0,1,.49,0,.76.76,0,0,1,.46.35c.26.37-.14,3.21-.35,3.63a2.07,2.07,0,0,1-.87.39,2.23,2.23,0,0,0-.5,0A3.76,3.76,0,0,0,30,44.73,3.27,3.27,0,0,0,28,45.19Zm.17,16.53c1.92.11,2.4.24,2.45.71s-.2.61-1.79.61-3.34-.31-3.34-.67S26.27,61.59,28.2,61.72ZM57.75,76.88a10.56,10.56,0,0,1-2.26.53,4.81,4.81,0,0,0-2.12.36,1.21,1.21,0,0,1-1.43-.24c-.35-.41-1.24,0-1.24.3v1.06a24.32,24.32,0,0,1-6.11.06,29.89,29.89,0,0,1-5.45-1.37s3.55-.77,4-.41a3.81,3.81,0,0,0,1.26.83c.41.11,3.78.4,4.2.11s1-1,1.36-1.23,1.6,0,1.6-.48-1.66-1-2.72-.05a3.28,3.28,0,0,1-3.8.53c-1.18-.71-.18-.77-2.07-.71a14.86,14.86,0,0,0-3.44.41c-.41.12-1.65.23-1.77,0s.77-.59,1.72-.59,1.84-.13,1.84-.49-1.84-.18-3.33,0a7.73,7.73,0,0,1-3.26-.11A7.52,7.52,0,0,1,33,74.14s3.9.72,4.68.72,6-1.06,8.12-1.13a21.78,21.78,0,0,1,4.8.24c.29.17.35.6.7.66s.36-.83,1.38-.49,1.18.77,1.78.77h1s-.53.78.13,1,1.18-.31,2-.67a18.73,18.73,0,0,1,3.5-.59S58,76.88,57.75,76.88Zm6-4.12C60.18,73,60.11,74,56.44,74c-4,0-4.33-1.12-9.62-1.12S41.36,74,38,74c-2.66,0-3.82-.83-6.61-1.16a23.16,23.16,0,0,1-2.3-2.45c4.62,0,5.64,1.32,8.91,1.32s3.52-1.14,8.8-1.14,5.6,1.11,9.62,1.11,3.73-1.21,8.5-1.21c.36,0,.7,0,1,0A22.31,22.31,0,0,1,63.79,72.76Zm2.75-3c-.47,0-1,0-1.6,0-4.77,0-4.48,1.2-8.5,1.2s-4.33-1.11-9.62-1.11S41.36,70.9,38,70.9s-4.33-1.31-9.1-1.31h-.41a22,22,0,0,1-1.42-2.18,11.14,11.14,0,0,1,1.83-.2c4.77,0,5.77,1.32,9.1,1.32s3.5-1.14,8.79-1.14,5.6,1.11,9.62,1.11,3.73-1.22,8.5-1.22a13.14,13.14,0,0,1,3,.32A21.79,21.79,0,0,1,66.54,69.72Zm1.89-2.88a16.25,16.25,0,0,0-3.49-.32c-4.77,0-4.48,1.21-8.5,1.21s-4.33-1.1-9.62-1.1S41.36,67.76,38,67.76s-4.33-1.31-9.11-1.31a9.8,9.8,0,0,0-2.27.25c-.43-.8-.81-1.63-1.16-2.47a25.56,25.56,0,0,1,3.43-.16,17.86,17.86,0,0,1,5.1.67c.63.16,1.22.32,1.85.44a10.54,10.54,0,0,0,2.16.21,10.31,10.31,0,0,0,2-.18c.57-.11,1.07-.25,1.63-.39a19.08,19.08,0,0,1,5.13-.57c5.29,0,5.6,1.11,9.62,1.11a13.23,13.23,0,0,0,2.36-.18,15,15,0,0,0,1.61-.42,13.74,13.74,0,0,1,4.53-.61,13,13,0,0,1,2.76.25c.69.14,1.22.32,1.7.45C69.11,65.53,68.77,66.2,68.43,66.84Zm.89-5.12a1,1,0,0,1,.1,1.74c-.7.24-1.32-.36-1.92-.72s-1.75-.06-2.35-.06-3,.18-3.81.12-.72.59-1.62,1-.66.22-2.77.4-4.17-.82-5.13-.87a3.49,3.49,0,0,1-2-.73c-.48-.35-1.59-.35-1.59-.71s4.18-.42,4.18-.42.65.11.65.42-.78.29-.65.59.71.19,1.07.12,1.26-.3,1.62.07a3.82,3.82,0,0,0,2.32.66c1,0,1.14-.36,1.08-.73s-2.35-.47-2.35-.78,5.11-.11,6.3-.11,3.7-.06,4.66-.13A6.49,6.49,0,0,1,69.32,61.72ZM32.52,42.47c.21,0,.39-.27.39-.61s-.18-.6-.39-.6-.4.27-.4.6S32.3,42.47,32.52,42.47Zm-3.93-.59c-.26,0-.45.27-.45.59s.19.58.45.58.43-.26.43-.58S28.82,41.88,28.59,41.88ZM30.9,44a.54.54,0,0,0,.47-.6.55.55,0,0,0-.47-.61.56.56,0,0,0-.48.61A.55.55,0,0,0,30.9,44ZM71.41,60.73s0,0,0-.07a.19.19,0,0,1,0,.07ZM56.33,31.85h1.11l.79.78.79-.78h1.11V30.73l.79-.78-.79-.79V28.05H59l-.79-.79-.79.79H56.33v1.11l-.78.79.78.78ZM26.61,41.5c-.2,0-.36.22-.36.48A.38.38,0,1,0,27,42,.44.44,0,0,0,26.61,41.5Zm8.69-9.65h1.12l.79.78.78-.78h1.12V30.73l.78-.78-.78-.79V28.05H38l-.78-.79-.79.79H35.3v1.11l-.78.79.78.78Zm-13,43.59L20.85,76.7a3.61,3.61,0,0,0,.48-1.44,1.75,1.75,0,0,0-.39-1.14,1.77,1.77,0,0,0-2-.66,3.94,3.94,0,0,0-1.39.74,3.12,3.12,0,0,0-.92,1,2,2,0,0,0-.25,1.11,2,2,0,0,0,.44,1.08,1.9,1.9,0,0,0,.76.63,3.26,3.26,0,0,0,1.3.17v.16a3,3,0,0,1-1.48-.13,2.57,2.57,0,0,1-1.08-.86A2.53,2.53,0,0,1,15.87,75,3,3,0,0,1,17,73.43a3.22,3.22,0,0,1,1.47-.64,2.68,2.68,0,0,1,1.49.17,2.85,2.85,0,0,1,1.2.92A2.77,2.77,0,0,1,21.62,75a.58.58,0,0,0,.07.25.25.25,0,0,0,.18.11.64.64,0,0,0,.35-.06ZM20.06,81.2l-1.77-1.66.24,0a.61.61,0,0,0,.5.24,1.25,1.25,0,0,0,.54-.36L22.25,77a2.63,2.63,0,0,0,.38-.43.42.42,0,0,0,0-.25.69.69,0,0,0-.2-.34v-.26l1.65,1.77-.26,0a.6.6,0,0,0-.49-.22,1.19,1.19,0,0,0-.53.36L20.12,80a1.68,1.68,0,0,0-.38.42.41.41,0,0,0,0,.25.7.7,0,0,0,.18.34Zm1.61,1.25a4.71,4.71,0,0,0,.59.67,2.06,2.06,0,0,0,1.64.56,2.51,2.51,0,0,0,1.71-.93,2.65,2.65,0,0,0,.76-1.8,2.16,2.16,0,0,0-.76-1.59,3.81,3.81,0,0,0-.71-.49Zm-1.46-.77.26,0a.54.54,0,0,0,.53.17,1.37,1.37,0,0,0,.48-.39l2.45-2.72c.23-.27.35-.46.35-.58a.6.6,0,0,0-.24-.45L24,77.48,25.7,79a4.81,4.81,0,0,1,1.23,1.5,2.39,2.39,0,0,1,.16,1.43,3.07,3.07,0,0,1-.75,1.42,2.84,2.84,0,0,1-1.85,1,3.17,3.17,0,0,1-2.41-1Zm9,4.2.4-2.44-2,1.42Zm-.06.32L27.25,85l-.79.55a1.26,1.26,0,0,0-.39.34.26.26,0,0,0,0,.26,1.12,1.12,0,0,0,.37.4l-1.58-.82a5,5,0,0,1,.55,0,2.41,2.41,0,0,0,.84-.44l4.14-2.89-.7,5.11a1.87,1.87,0,0,0,0,.85.85.85,0,0,0,.35.45l-2-1.06c.27,0,.42,0,.52,0a.33.33,0,0,0,.23-.14,2.17,2.17,0,0,0,.17-.58Zm2.77,3.17a5.29,5.29,0,0,0,.77.45,2.11,2.11,0,0,0,1.74,0,2.61,2.61,0,0,0,1.3-1.45,2.54,2.54,0,0,0,.14-2,2.12,2.12,0,0,0-1.24-1.25,3.32,3.32,0,0,0-.83-.22Zm-1.64-.25.25-.06a.55.55,0,0,0,.56,0,1.21,1.21,0,0,0,.33-.53l1.42-3.38a1,1,0,0,0,.15-.64.61.61,0,0,0-.36-.36l-.2-.09,2.17.76a5.13,5.13,0,0,1,1.67,1,2.35,2.35,0,0,1,.6,1.3,3,3,0,0,1-.24,1.58,2.84,2.84,0,0,1-1.42,1.54,3.18,3.18,0,0,1-2.61-.14Zm8.66-2.39-.53,2.17,1.2.3a1.08,1.08,0,0,0,.67,0,.94.94,0,0,0,.39-.59l.15,0-.48,1.91-.16,0a1.5,1.5,0,0,0,0-.55A.48.48,0,0,0,40,89.7a1.09,1.09,0,0,0-.49-.2l-1.2-.31L37.83,91a1.87,1.87,0,0,0-.08.46.53.53,0,0,0,.38.27l.92.23a2.49,2.49,0,0,0,.7.11,1.08,1.08,0,0,0,.46-.15,3.43,3.43,0,0,0,.7-.63l.17,0-.82,1.26-4.23-1,0-.15.2.05a.86.86,0,0,0,.39,0,.35.35,0,0,0,.22-.15,2.2,2.2,0,0,0,.19-.53L38,87.19a1.31,1.31,0,0,0,.06-.67.62.62,0,0,0-.44-.27l-.2-.06,0-.15,4.23,1.06-.25,1.21-.16,0a1.69,1.69,0,0,0,0-.65.62.62,0,0,0-.24-.32,1.84,1.84,0,0,0-.55-.21Zm6.1,6a4.36,4.36,0,0,0,.88.15,2.08,2.08,0,0,0,1.62-.62,2.58,2.58,0,0,0,.7-1.82,2.54,2.54,0,0,0-.57-1.86A2.11,2.11,0,0,0,46,87.84a3.84,3.84,0,0,0-.85.08Zm-1.63.36v-.15h.22a.56.56,0,0,0,.51-.22,1.34,1.34,0,0,0,.11-.61l.13-3.65a1.2,1.2,0,0,0-.09-.66.67.67,0,0,0-.48-.21h-.21l2.3-.06a4.74,4.74,0,0,1,1.91.35,2.19,2.19,0,0,1,1,1,2.91,2.91,0,0,1,.35,1.57,2.82,2.82,0,0,1-.79,1.94,3.11,3.11,0,0,1-2.48.8Zm7.24-5.34L50.88,90l1.22-.15a.93.93,0,0,0,.62-.22.87.87,0,0,0,.16-.7H53l.24,1.94a2,2,0,0,1-.33-.49.6.6,0,0,0-.28-.2,1.47,1.47,0,0,0-.53,0l-1.24.15.24,1.85a1.14,1.14,0,0,0,.09.45.54.54,0,0,0,.44.13l.95-.13a2.68,2.68,0,0,0,.68-.14,1.15,1.15,0,0,0,.39-.32,4,4,0,0,0,.43-.84l.17,0L54,92.71l-4.32.53,0-.15.2,0a1.49,1.49,0,0,0,.37-.14.51.51,0,0,0,.16-.23,1.9,1.9,0,0,0,0-.55l-.45-3.65a1.53,1.53,0,0,0-.17-.64.72.72,0,0,0-.53-.1l-.2,0,0-.17,4.33-.52.2,1.23c-.25-.28-.34-.47-.43-.57a.54.54,0,0,0-.34-.22,1.66,1.66,0,0,0-.59,0Zm10.46,1.33.15,1.59L57.05,92l.16-.21a.55.55,0,0,0,.41-.38,1.41,1.41,0,0,0-.1-.61l-1.14-3.47c-.1-.34-.21-.54-.31-.59a.58.58,0,0,0-.52,0l-.19.06,2.38-.94,0,.15a1.67,1.67,0,0,0-.57.27.55.55,0,0,0-.17.29,2,2,0,0,0,.13.62l1.11,3.39a1.14,1.14,0,0,0,.2.43.28.28,0,0,0,.19.07,2.14,2.14,0,0,0,.64-.16l.39-.12a2.89,2.89,0,0,0,.83-.37,1.29,1.29,0,0,0,.36-.47A3.25,3.25,0,0,0,61.06,89.07Zm0-4.25,1,2,1.1-.56c.3-.15.47-.29.51-.43a.91.91,0,0,0-.08-.7l1,1.68a2.18,2.18,0,0,1-.48-.36.59.59,0,0,0-.32-.08,1.4,1.4,0,0,0-.51.15l-1.11.58.85,1.65a1.87,1.87,0,0,0,.23.4.29.29,0,0,0,.17.06.7.7,0,0,0,.29-.1l.85-.44a2.33,2.33,0,0,0,.59-.37,1,1,0,0,0,.26-.42,3,3,0,0,0,.11-.94l.16-.08.2,1.49-3.88,2,.11-.22a.82.82,0,0,0,.3-.25.34.34,0,0,0,.07-.27,1.9,1.9,0,0,0-.21-.51l-1.66-3.27c-.16-.32-.3-.5-.4-.54a.66.66,0,0,0-.53.07l-.18.1,3.82-2.11L64,84.38a6.34,6.34,0,0,1-.6-.38.58.58,0,0,0-.4-.09,1.78,1.78,0,0,0-.55.21Zm7.65,1.55-1.95,1.44.08-.23a.64.64,0,0,0,.33-.45,1.34,1.34,0,0,0-.27-.59l-2-3.06a2,2,0,0,0-.35-.46.35.35,0,0,0-.24,0,.76.76,0,0,0-.38.11l-.17.12,1.95-1.45-.07.24a.62.62,0,0,0-.33.45,1.34,1.34,0,0,0,.27.59l2,3.06a2.21,2.21,0,0,0,.35.45.39.39,0,0,0,.25,0,.94.94,0,0,0,.37-.11ZM68.65,83l.18-.14a1.69,1.69,0,0,0,.71-1,1.09,1.09,0,0,0-.24-1,1.2,1.2,0,0,0-.79-.47,1.16,1.16,0,0,0-.89.3,4,4,0,0,0-.45.46Zm4.95-.27-1.18,1-3.15-.85-.26.22-.19.15,1,1.28a1.22,1.22,0,0,0,.51.44.61.61,0,0,0,.48-.17l.18-.13-1.79,1.63.07-.24a.53.53,0,0,0,.24-.5,1.16,1.16,0,0,0-.31-.53l-2.3-2.85c-.23-.28-.39-.42-.51-.43a.56.56,0,0,0-.49.15l-.17.15,1.51-1.43a4.61,4.61,0,0,1,1.11-.73,1.51,1.51,0,0,1,.87-.08,1.33,1.33,0,0,1,1.06,1.38,1.87,1.87,0,0,1-.47,1.09l1.93.52a2.81,2.81,0,0,0,1,.14,1.74,1.74,0,0,0,.74-.29Zm1.69-2-1.6,1.83,0-.26a.64.64,0,0,0,.21-.51,1.36,1.36,0,0,0-.38-.52L71,78.68a1.54,1.54,0,0,0-.45-.35.28.28,0,0,0-.24,0,.77.77,0,0,0-.35.2l-.25,0,1.72-1.71,0,.25a.57.57,0,0,0-.2.5,1.15,1.15,0,0,0,.37.53l2.58,2.58a2.65,2.65,0,0,0,.44.37.52.52,0,0,0,.25,0,.77.77,0,0,0,.34-.2Zm1.07-4.35L74,75.68l1.15,2.21Zm.32.1-1.37,1.69.44.86a2.14,2.14,0,0,0,.3.43.32.32,0,0,0,.26,0,1.07,1.07,0,0,0,.43-.32l-1,1.48c0-.31.06-.46,0-.56a2.73,2.73,0,0,0-.34-.88l-2.36-4.48,5,1.33a2.09,2.09,0,0,0,.85.13.84.84,0,0,0,.49-.3l-1.28,1.83c0-.27.08-.41.08-.52a.29.29,0,0,0-.12-.24,1.84,1.84,0,0,0-.55-.24Z"/><path class="cls-1" d="M23.15,25V55.53c0,13.19,10.94,23.88,24.42,23.88S72,68.72,72,55.53V25Z"/><path d="M101.67,6.13a6.71,6.71,0,0,0-.26-2.3,1.82,1.82,0,0,0-1.14-1.07,15.39,15.39,0,0,0-2.59-.65V1.43h8.72l7.89,22.9h.08l7.89-22.9h4.81v26.8h-3.46V3.54h-.08L115.2,28.23h-3.1L103.81,3.54h-.08V28.23h-2.06Zm44,22.1h3.06v-19l-6,1v.68a4.77,4.77,0,0,1,1.92.46c.66.3,1,1,1.06,2.17v5.69a8.5,8.5,0,0,1-.74,3.1,10.58,10.58,0,0,1-1.87,3,3.58,3.58,0,0,1-2.49,1.36,2.82,2.82,0,0,1-2.69-1.53,7.72,7.72,0,0,1-.66-3.49V9.28l-6.05,1v.68a4.85,4.85,0,0,1,1.92.46c.66.3,1,1,1.07,2.17v7.65a10.55,10.55,0,0,0,1.06,5.4c.75,1.35,2.22,2.05,4.39,2.08a5.29,5.29,0,0,0,3-.93,7.33,7.33,0,0,0,2-2,8.56,8.56,0,0,0,1-1.88h.08Zm9.81,0h3.07V18.75a7.89,7.89,0,0,1,.81-3.12,10.39,10.39,0,0,1,2.06-3,4.07,4.07,0,0,1,2.74-1.36c1.34,0,2.16.46,2.45,1.26a7.75,7.75,0,0,1,.35,2.88V28.23H170V14.06a5.31,5.31,0,0,0-.91-3.46c-.66-.86-1.93-1.3-3.82-1.32a6,6,0,0,0-3.36,1,8.17,8.17,0,0,0-2.19,2.2,10.52,10.52,0,0,0-1.11,2.06h-.07V9.28l-6.09,1v.68a4.86,4.86,0,0,1,1.94.46c.67.3,1,1,1.08,2.17Zm21.09-14.69c-.06-1.15-.42-1.87-1.08-2.17a4.8,4.8,0,0,0-1.91-.46v-.68l6.05-1v19h-3.06Zm-.22-8.74a2.26,2.26,0,0,1-.66-1.58A2.24,2.24,0,0,1,177.92,1a2.18,2.18,0,0,1,1.56.65,2.21,2.21,0,0,1-1.56,3.8A2.24,2.24,0,0,1,176.31,4.8Zm22.08,22.08c-.36.07-.73.12-1.1.17a8.08,8.08,0,0,1-1.09.07,7.32,7.32,0,0,1-4.69-1.55,8.8,8.8,0,0,1-2.7-3.79A13.21,13.21,0,0,1,188,17a8.19,8.19,0,0,1,1.13-4.6,3.52,3.52,0,0,1,3-1.61,3.16,3.16,0,0,1,2.7,1.14,3.84,3.84,0,0,1,.69,2.36h3.7a4.53,4.53,0,0,0-1.78-3.48,7.78,7.78,0,0,0-5-1.57q-4.26.11-6.07,2.68a10.66,10.66,0,0,0-1.77,6.44,11.35,11.35,0,0,0,2.16,7.41q2.22,2.79,7.4,2.86a14.42,14.42,0,0,0,2.55-.22,13.15,13.15,0,0,0,1.71-.41ZM204.44,2a2.86,2.86,0,0,1,.66-1.3,1.79,1.79,0,0,1,1.29-.37,1.64,1.64,0,0,1,1.06.36,1.26,1.26,0,0,1,.45,1,1.54,1.54,0,0,1-.19.7c-.14.24-.32.54-.56.89L204.8,6.53h-1.71Zm-1.39,11.59c-.06-1.15-.41-1.87-1.08-2.17a4.8,4.8,0,0,0-1.91-.46v-.68l6.05-1v19h-3.06Zm9.6,0c-.07-1.21-.45-1.95-1.14-2.23a5.49,5.49,0,0,0-2-.44V10.2l6.21-.92v3h.07a5.08,5.08,0,0,1,1.59-1.94,5.19,5.19,0,0,1,3.2-1.08A6.4,6.4,0,0,1,226.13,12a12,12,0,0,1,1.76,6.89,15.52,15.52,0,0,1-.68,4.84A7.56,7.56,0,0,1,225,27.29a6.26,6.26,0,0,1-4.14,1.38,5.62,5.62,0,0,1-3.37-1.08,5.09,5.09,0,0,1-1.66-2.06h-.07V36.72h-3.06ZM215.71,20a12.13,12.13,0,0,0,.38,3,7.06,7.06,0,0,0,1.4,2.82,3.46,3.46,0,0,0,2.72,1.24A3.25,3.25,0,0,0,223,25.71a7.67,7.67,0,0,0,1.26-3.21,18.29,18.29,0,0,0,.3-3.51,16.3,16.3,0,0,0-.33-3.35,8.77,8.77,0,0,0-1.31-3.31,3.34,3.34,0,0,0-2.78-1.5,3.39,3.39,0,0,0-2.36,1,6.37,6.37,0,0,0-1.5,2.4,8.57,8.57,0,0,0-.52,2.95Zm17.57-6.49c-.05-1.15-.41-1.87-1.07-2.17a4.85,4.85,0,0,0-1.92-.46v-.68l6.05-1v19h-3.06Zm-.22-8.74a2.26,2.26,0,0,1-.66-1.58,2.23,2.23,0,0,1,.66-1.57A2.26,2.26,0,0,1,234.67,1a2.24,2.24,0,0,1,2.23,2.22,2.19,2.19,0,0,1-2.23,2.23A2.26,2.26,0,0,1,233.06,4.8ZM243.56,26a10.73,10.73,0,0,1-2.16-6.93,11.5,11.5,0,0,1,1.94-7.1q2-2.64,6.3-2.7a7.74,7.74,0,0,1,6.15,2.64A10.87,10.87,0,0,1,258,19q0,4.56-2,7.08c-1.37,1.68-3.45,2.54-6.23,2.56A7.7,7.7,0,0,1,243.56,26Zm1.57-3.52a7.32,7.32,0,0,0,1.45,3.21,4.39,4.39,0,0,0,6.46,0,6.92,6.92,0,0,0,1.34-3.2,19.11,19.11,0,0,0,.24-3.43,17,17,0,0,0-.32-3.6,7.24,7.24,0,0,0-1.42-3.24,4,4,0,0,0-3.19-1.41,4.16,4.16,0,0,0-3.37,1.41A6.61,6.61,0,0,0,245,15.48a22.76,22.76,0,0,0-.23,3.6A16.45,16.45,0,0,0,245.13,22.49Zm29.95,3H275a4.07,4.07,0,0,1-1.13,1.33,3.57,3.57,0,0,1-2.2.71A4.34,4.34,0,0,1,268,25.7a7.82,7.82,0,0,1-1.26-4.6,9.73,9.73,0,0,1,.51-3.21,5.19,5.19,0,0,1,1.57-2.34,4.21,4.21,0,0,1,2.71-.91,3.8,3.8,0,0,1,2.3.74A3.92,3.92,0,0,1,275,16.73h.05V12a2.52,2.52,0,0,0-.42-1.75,2.06,2.06,0,0,0-1.59-.47V9.29l4.05-.58V27.24h-2Zm0-4.95a8.46,8.46,0,0,0-.25-2.13,4.44,4.44,0,0,0-.93-1.91,2.4,2.4,0,0,0-1.86-.83,2.28,2.28,0,0,0-1.88.93,5.28,5.28,0,0,0-.91,2.13A11.86,11.86,0,0,0,269,21.1a11.6,11.6,0,0,0,.21,2.21,5.72,5.72,0,0,0,.85,2.2,2.19,2.19,0,0,0,1.85,1,2.46,2.46,0,0,0,1.9-.82,4.47,4.47,0,0,0,1-1.9,8.39,8.39,0,0,0,.27-2.18Zm14.68,6.52a7.51,7.51,0,0,1-1.15.28,11.6,11.6,0,0,1-2.13.19,5.88,5.88,0,0,1-4.55-1.76,7.33,7.33,0,0,1-1.63-5.07,7,7,0,0,1,1.22-4.46,4.94,4.94,0,0,1,4.11-1.6,4.47,4.47,0,0,1,3.15,1.12,4.59,4.59,0,0,1,1.29,3.48v.4h-7.73v.56A7.08,7.08,0,0,0,283,23a6.42,6.42,0,0,0,1.85,2.47,4.89,4.89,0,0,0,3.07,1.06,5.21,5.21,0,0,0,1-.1,8.82,8.82,0,0,0,.92-.22Zm-2-8.55a3.19,3.19,0,0,0-.66-2,2.26,2.26,0,0,0-1.84-.86,2.76,2.76,0,0,0-1.81.59,3.06,3.06,0,0,0-.85,1.29,5.07,5.07,0,0,0-.25,1.19h5.41ZM110.59,95h33L144,81.86h-2.77a19.57,19.57,0,0,1-1.6,7.1c-.85,1.72-2.87,2.58-6.07,2.62h-7.95a18.4,18.4,0,0,1-5.15-.41A2.61,2.61,0,0,1,118.6,89a27.34,27.34,0,0,1-.26-5.29V35.05L101.67,37.1v1.51c2,.19,3.72.41,5,.65a4.56,4.56,0,0,1,2.93,1.65,7.41,7.41,0,0,1,1,4.29Zm69.88-.62a21.93,21.93,0,0,1-3.86,1,41,41,0,0,1-7.2.64q-9.9,0-15.3-5.92c-3.59-3.92-5.43-9.61-5.46-17.09q-.12-9.69,4.07-15t13.84-5.39a15.09,15.09,0,0,1,10.63,3.78q4.19,3.8,4.34,11.73v1.34h-26v1.87a23.78,23.78,0,0,0,2.09,9.35A21.73,21.73,0,0,0,163.8,89a16.3,16.3,0,0,0,10.35,3.57,17.59,17.59,0,0,0,3.22-.33c1.08-.21,2.11-.46,3.1-.73Zm-6.68-28.79A10.68,10.68,0,0,0,171.6,59a7.77,7.77,0,0,0-6.2-2.9,9.18,9.18,0,0,0-6.09,2,9.9,9.9,0,0,0-2.86,4.31,16.08,16.08,0,0,0-.86,4h18.2Zm18.68-3.49q-.19-3.86-2.41-4.85a11.12,11.12,0,0,0-4.28-1v-1.5l13.54-2.14V95h-6.85ZM192,47.61a4.95,4.95,0,0,1,0-7.06,5.08,5.08,0,0,1,3.6-1.46,5,5,0,0,1,3.49,8.59,5,5,0,0,1-3.49,1.39A5.12,5.12,0,0,1,192,47.61ZM213.59,95h6.85V73.65a26.93,26.93,0,0,1,.65-6.1,11.93,11.93,0,0,1,2.84-5.62c1.44-1.56,3.57-2.38,6.42-2.46a6.2,6.2,0,0,1,1.46.21l1.48.41V52.7a2.8,2.8,0,0,0-.81-.09,11.1,11.1,0,0,0-6.57,1.92,11.68,11.68,0,0,0-3.58,4.27,25.24,25.24,0,0,0-1.71,4.41h-.18V52.61l-13.62,2.14v1.5a11,11,0,0,1,4.35,1.07c1.49.7,2.29,2.4,2.42,5.09Zm28.52-32.9c-.12-2.57-.93-4.19-2.41-4.85a11,11,0,0,0-4.27-1v-1.5L249,52.61V95h-6.86Zm-.49-14.53a5,5,0,0,1,0-7.06,5.14,5.14,0,0,1,3.61-1.46,5,5,0,0,1,3.49,8.59,5,5,0,0,1-3.49,1.39A5.18,5.18,0,0,1,241.62,47.61Zm41.59,41.74a22,22,0,0,1-4.5,4.24A14.42,14.42,0,0,1,270.54,96a10.78,10.78,0,0,1-7.75-3,10.48,10.48,0,0,1-2.94-7.58,10.32,10.32,0,0,1,2.84-7.42,16,16,0,0,1,6.67-3.93,37.21,37.21,0,0,1,7.76-1.56c2.53-.23,4.57-.35,6.09-.37V68.75a41.14,41.14,0,0,0-.28-6.07A8.5,8.5,0,0,0,281,58q-1.59-1.83-5.28-1.9a7.38,7.38,0,0,0-4.89,1.53,6.48,6.48,0,0,0-2,3.26,14.24,14.24,0,0,0-.5,3.06h-7.93a11.1,11.1,0,0,1,3.53-7.62q3.4-3.48,12.07-3.69,5.91,0,9,2a9.41,9.41,0,0,1,4.12,5.17,22.81,22.81,0,0,1,1,7.41V95h-6.86Zm0-14.37a36.53,36.53,0,0,0-5.75.53,17,17,0,0,0-6.78,2.54,7.38,7.38,0,0,0-3.26,6.3,8.28,8.28,0,0,0,1.52,4.83c1,1.54,2.79,2.37,5.26,2.49a7.38,7.38,0,0,0,5-2,11.81,11.81,0,0,0,3-4.5,14.09,14.09,0,0,0,1-4.94Z"/></g></g></svg>